G04 #@! TF.GenerationSoftware,KiCad,Pcbnew,5.99.0-unknown-d20d310~86~ubuntu18.04.1*
G04 #@! TF.CreationDate,2019-12-13T15:01:05+02:00*
G04 #@! TF.ProjectId,FOSDEM-MUSIC-BOX_RevA,464f5344-454d-42d4-9d55-5349432d424f,rev?*
G04 #@! TF.SameCoordinates,Original*
G04 #@! TF.FileFunction,Legend,Bot*
G04 #@! TF.FilePolarity,Positive*
%FSLAX46Y46*%
G04 Gerber Fmt 4.6, Leading zero omitted, Abs format (unit mm)*
G04 Created by KiCad (PCBNEW 5.99.0-unknown-d20d310~86~ubuntu18.04.1) date 2019-12-13 15:01:05*
%MOMM*%
%LPD*%
G04 APERTURE LIST*
%ADD10C,0.150000*%
%ADD11C,0.200000*%
%ADD12C,0.250000*%
%ADD13C,0.120000*%
%ADD14C,0.100000*%
%ADD15C,0.700000*%
%ADD16C,0.400000*%
%ADD17C,0.500000*%
%ADD18C,0.254000*%
%ADD19C,0.127000*%
G04 APERTURE END LIST*
D10*
X198666666Y-61952380D02*
X199000000Y-61476190D01*
X199238095Y-61952380D02*
X199238095Y-60952380D01*
X198857142Y-60952380D01*
X198761904Y-61000000D01*
X198714285Y-61047619D01*
X198666666Y-61142857D01*
X198666666Y-61285714D01*
X198714285Y-61380952D01*
X198761904Y-61428571D01*
X198857142Y-61476190D01*
X199238095Y-61476190D01*
X197857142Y-61904761D02*
X197952380Y-61952380D01*
X198142857Y-61952380D01*
X198238095Y-61904761D01*
X198285714Y-61809523D01*
X198285714Y-61428571D01*
X198238095Y-61333333D01*
X198142857Y-61285714D01*
X197952380Y-61285714D01*
X197857142Y-61333333D01*
X197809523Y-61428571D01*
X197809523Y-61523809D01*
X198285714Y-61619047D01*
X197476190Y-61285714D02*
X197238095Y-61952380D01*
X197000000Y-61285714D01*
X196619047Y-61857142D02*
X196571428Y-61904761D01*
X196619047Y-61952380D01*
X196666666Y-61904761D01*
X196619047Y-61857142D01*
X196619047Y-61952380D01*
X196190476Y-61666666D02*
X195714285Y-61666666D01*
X196285714Y-61952380D02*
X195952380Y-60952380D01*
X195619047Y-61952380D01*
D11*
X215204761Y-59897619D02*
X215204761Y-58797619D01*
X214733333Y-59897619D02*
X214733333Y-59321428D01*
X214785714Y-59216666D01*
X214890476Y-59164285D01*
X215047619Y-59164285D01*
X215152380Y-59216666D01*
X215204761Y-59269047D01*
X214366666Y-59164285D02*
X213947619Y-59164285D01*
X214209523Y-58797619D02*
X214209523Y-59740476D01*
X214157142Y-59845238D01*
X214052380Y-59897619D01*
X213947619Y-59897619D01*
X213738095Y-59164285D02*
X213319047Y-59164285D01*
X213580952Y-58797619D02*
X213580952Y-59740476D01*
X213528571Y-59845238D01*
X213423809Y-59897619D01*
X213319047Y-59897619D01*
X212952380Y-59164285D02*
X212952380Y-60264285D01*
X212952380Y-59216666D02*
X212847619Y-59164285D01*
X212638095Y-59164285D01*
X212533333Y-59216666D01*
X212480952Y-59269047D01*
X212428571Y-59373809D01*
X212428571Y-59688095D01*
X212480952Y-59792857D01*
X212533333Y-59845238D01*
X212638095Y-59897619D01*
X212847619Y-59897619D01*
X212952380Y-59845238D01*
X212009523Y-59845238D02*
X211904761Y-59897619D01*
X211695238Y-59897619D01*
X211590476Y-59845238D01*
X211538095Y-59740476D01*
X211538095Y-59688095D01*
X211590476Y-59583333D01*
X211695238Y-59530952D01*
X211852380Y-59530952D01*
X211957142Y-59478571D01*
X212009523Y-59373809D01*
X212009523Y-59321428D01*
X211957142Y-59216666D01*
X211852380Y-59164285D01*
X211695238Y-59164285D01*
X211590476Y-59216666D01*
X211066666Y-59792857D02*
X211014285Y-59845238D01*
X211066666Y-59897619D01*
X211119047Y-59845238D01*
X211066666Y-59792857D01*
X211066666Y-59897619D01*
X211066666Y-59216666D02*
X211014285Y-59269047D01*
X211066666Y-59321428D01*
X211119047Y-59269047D01*
X211066666Y-59216666D01*
X211066666Y-59321428D01*
X209757142Y-58745238D02*
X210700000Y-60159523D01*
X208604761Y-58745238D02*
X209547619Y-60159523D01*
X208342857Y-59164285D02*
X208133333Y-59897619D01*
X207923809Y-59373809D01*
X207714285Y-59897619D01*
X207504761Y-59164285D01*
X207190476Y-59164285D02*
X206980952Y-59897619D01*
X206771428Y-59373809D01*
X206561904Y-59897619D01*
X206352380Y-59164285D01*
X206038095Y-59164285D02*
X205828571Y-59897619D01*
X205619047Y-59373809D01*
X205409523Y-59897619D01*
X205200000Y-59164285D01*
X204780952Y-59792857D02*
X204728571Y-59845238D01*
X204780952Y-59897619D01*
X204833333Y-59845238D01*
X204780952Y-59792857D01*
X204780952Y-59897619D01*
X204100000Y-59897619D02*
X204204761Y-59845238D01*
X204257142Y-59792857D01*
X204309523Y-59688095D01*
X204309523Y-59373809D01*
X204257142Y-59269047D01*
X204204761Y-59216666D01*
X204100000Y-59164285D01*
X203942857Y-59164285D01*
X203838095Y-59216666D01*
X203785714Y-59269047D01*
X203733333Y-59373809D01*
X203733333Y-59688095D01*
X203785714Y-59792857D01*
X203838095Y-59845238D01*
X203942857Y-59897619D01*
X204100000Y-59897619D01*
X203104761Y-59897619D02*
X203209523Y-59845238D01*
X203261904Y-59740476D01*
X203261904Y-58797619D01*
X202685714Y-59897619D02*
X202685714Y-59164285D01*
X202685714Y-58797619D02*
X202738095Y-58850000D01*
X202685714Y-58902380D01*
X202633333Y-58850000D01*
X202685714Y-58797619D01*
X202685714Y-58902380D01*
X202161904Y-59897619D02*
X202161904Y-59164285D01*
X202161904Y-59269047D02*
X202109523Y-59216666D01*
X202004761Y-59164285D01*
X201847619Y-59164285D01*
X201742857Y-59216666D01*
X201690476Y-59321428D01*
X201690476Y-59897619D01*
X201690476Y-59321428D02*
X201638095Y-59216666D01*
X201533333Y-59164285D01*
X201376190Y-59164285D01*
X201271428Y-59216666D01*
X201219047Y-59321428D01*
X201219047Y-59897619D01*
X200276190Y-59845238D02*
X200380952Y-59897619D01*
X200590476Y-59897619D01*
X200695238Y-59845238D01*
X200747619Y-59740476D01*
X200747619Y-59321428D01*
X200695238Y-59216666D01*
X200590476Y-59164285D01*
X200380952Y-59164285D01*
X200276190Y-59216666D01*
X200223809Y-59321428D01*
X200223809Y-59426190D01*
X200747619Y-59530952D01*
X199857142Y-59897619D02*
X199280952Y-59164285D01*
X199857142Y-59164285D02*
X199280952Y-59897619D01*
X198861904Y-59792857D02*
X198809523Y-59845238D01*
X198861904Y-59897619D01*
X198914285Y-59845238D01*
X198861904Y-59792857D01*
X198861904Y-59897619D01*
X197866666Y-59845238D02*
X197971428Y-59897619D01*
X198180952Y-59897619D01*
X198285714Y-59845238D01*
X198338095Y-59792857D01*
X198390476Y-59688095D01*
X198390476Y-59373809D01*
X198338095Y-59269047D01*
X198285714Y-59216666D01*
X198180952Y-59164285D01*
X197971428Y-59164285D01*
X197866666Y-59216666D01*
X197238095Y-59897619D02*
X197342857Y-59845238D01*
X197395238Y-59792857D01*
X197447619Y-59688095D01*
X197447619Y-59373809D01*
X197395238Y-59269047D01*
X197342857Y-59216666D01*
X197238095Y-59164285D01*
X197080952Y-59164285D01*
X196976190Y-59216666D01*
X196923809Y-59269047D01*
X196871428Y-59373809D01*
X196871428Y-59688095D01*
X196923809Y-59792857D01*
X196976190Y-59845238D01*
X197080952Y-59897619D01*
X197238095Y-59897619D01*
X196400000Y-59897619D02*
X196400000Y-59164285D01*
X196400000Y-59269047D02*
X196347619Y-59216666D01*
X196242857Y-59164285D01*
X196085714Y-59164285D01*
X195980952Y-59216666D01*
X195928571Y-59321428D01*
X195928571Y-59897619D01*
X195928571Y-59321428D02*
X195876190Y-59216666D01*
X195771428Y-59164285D01*
X195614285Y-59164285D01*
X195509523Y-59216666D01*
X195457142Y-59321428D01*
X195457142Y-59897619D01*
X194147619Y-58745238D02*
X195090476Y-60159523D01*
X193938095Y-59164285D02*
X193519047Y-59164285D01*
X193780952Y-59897619D02*
X193780952Y-58954761D01*
X193728571Y-58850000D01*
X193623809Y-58797619D01*
X193519047Y-58797619D01*
X192995238Y-59897619D02*
X193100000Y-59845238D01*
X193152380Y-59792857D01*
X193204761Y-59688095D01*
X193204761Y-59373809D01*
X193152380Y-59269047D01*
X193100000Y-59216666D01*
X192995238Y-59164285D01*
X192838095Y-59164285D01*
X192733333Y-59216666D01*
X192680952Y-59269047D01*
X192628571Y-59373809D01*
X192628571Y-59688095D01*
X192680952Y-59792857D01*
X192733333Y-59845238D01*
X192838095Y-59897619D01*
X192995238Y-59897619D01*
X192209523Y-59845238D02*
X192104761Y-59897619D01*
X191895238Y-59897619D01*
X191790476Y-59845238D01*
X191738095Y-59740476D01*
X191738095Y-59688095D01*
X191790476Y-59583333D01*
X191895238Y-59530952D01*
X192052380Y-59530952D01*
X192157142Y-59478571D01*
X192209523Y-59373809D01*
X192209523Y-59321428D01*
X192157142Y-59216666D01*
X192052380Y-59164285D01*
X191895238Y-59164285D01*
X191790476Y-59216666D01*
X190795238Y-59897619D02*
X190795238Y-58797619D01*
X190795238Y-59845238D02*
X190900000Y-59897619D01*
X191109523Y-59897619D01*
X191214285Y-59845238D01*
X191266666Y-59792857D01*
X191319047Y-59688095D01*
X191319047Y-59373809D01*
X191266666Y-59269047D01*
X191214285Y-59216666D01*
X191109523Y-59164285D01*
X190900000Y-59164285D01*
X190795238Y-59216666D01*
X189852380Y-59845238D02*
X189957142Y-59897619D01*
X190166666Y-59897619D01*
X190271428Y-59845238D01*
X190323809Y-59740476D01*
X190323809Y-59321428D01*
X190271428Y-59216666D01*
X190166666Y-59164285D01*
X189957142Y-59164285D01*
X189852380Y-59216666D01*
X189800000Y-59321428D01*
X189800000Y-59426190D01*
X190323809Y-59530952D01*
X189328571Y-59897619D02*
X189328571Y-59164285D01*
X189328571Y-59269047D02*
X189276190Y-59216666D01*
X189171428Y-59164285D01*
X189014285Y-59164285D01*
X188909523Y-59216666D01*
X188857142Y-59321428D01*
X188857142Y-59897619D01*
X188857142Y-59321428D02*
X188804761Y-59216666D01*
X188700000Y-59164285D01*
X188542857Y-59164285D01*
X188438095Y-59216666D01*
X188385714Y-59321428D01*
X188385714Y-59897619D01*
X187914285Y-58902380D02*
X187861904Y-58850000D01*
X187757142Y-58797619D01*
X187495238Y-58797619D01*
X187390476Y-58850000D01*
X187338095Y-58902380D01*
X187285714Y-59007142D01*
X187285714Y-59111904D01*
X187338095Y-59269047D01*
X187966666Y-59897619D01*
X187285714Y-59897619D01*
X186604761Y-58797619D02*
X186500000Y-58797619D01*
X186395238Y-58850000D01*
X186342857Y-58902380D01*
X186290476Y-59007142D01*
X186238095Y-59216666D01*
X186238095Y-59478571D01*
X186290476Y-59688095D01*
X186342857Y-59792857D01*
X186395238Y-59845238D01*
X186500000Y-59897619D01*
X186604761Y-59897619D01*
X186709523Y-59845238D01*
X186761904Y-59792857D01*
X186814285Y-59688095D01*
X186866666Y-59478571D01*
X186866666Y-59216666D01*
X186814285Y-59007142D01*
X186761904Y-58902380D01*
X186709523Y-58850000D01*
X186604761Y-58797619D01*
X185819047Y-58902380D02*
X185766666Y-58850000D01*
X185661904Y-58797619D01*
X185400000Y-58797619D01*
X185295238Y-58850000D01*
X185242857Y-58902380D01*
X185190476Y-59007142D01*
X185190476Y-59111904D01*
X185242857Y-59269047D01*
X185871428Y-59897619D01*
X185190476Y-59897619D01*
X184509523Y-58797619D02*
X184404761Y-58797619D01*
X184300000Y-58850000D01*
X184247619Y-58902380D01*
X184195238Y-59007142D01*
X184142857Y-59216666D01*
X184142857Y-59478571D01*
X184195238Y-59688095D01*
X184247619Y-59792857D01*
X184300000Y-59845238D01*
X184404761Y-59897619D01*
X184509523Y-59897619D01*
X184614285Y-59845238D01*
X184666666Y-59792857D01*
X184719047Y-59688095D01*
X184771428Y-59478571D01*
X184771428Y-59216666D01*
X184719047Y-59007142D01*
X184666666Y-58902380D01*
X184614285Y-58850000D01*
X184509523Y-58797619D01*
D12*
X214642857Y-57614285D02*
X215042857Y-57614285D01*
X215042857Y-58242857D02*
X215042857Y-57042857D01*
X214471428Y-57042857D01*
X213785714Y-57042857D02*
X213557142Y-57042857D01*
X213442857Y-57100000D01*
X213328571Y-57214285D01*
X213271428Y-57442857D01*
X213271428Y-57842857D01*
X213328571Y-58071428D01*
X213442857Y-58185714D01*
X213557142Y-58242857D01*
X213785714Y-58242857D01*
X213900000Y-58185714D01*
X214014285Y-58071428D01*
X214071428Y-57842857D01*
X214071428Y-57442857D01*
X214014285Y-57214285D01*
X213900000Y-57100000D01*
X213785714Y-57042857D01*
X212814285Y-58185714D02*
X212642857Y-58242857D01*
X212357142Y-58242857D01*
X212242857Y-58185714D01*
X212185714Y-58128571D01*
X212128571Y-58014285D01*
X212128571Y-57900000D01*
X212185714Y-57785714D01*
X212242857Y-57728571D01*
X212357142Y-57671428D01*
X212585714Y-57614285D01*
X212700000Y-57557142D01*
X212757142Y-57500000D01*
X212814285Y-57385714D01*
X212814285Y-57271428D01*
X212757142Y-57157142D01*
X212700000Y-57100000D01*
X212585714Y-57042857D01*
X212300000Y-57042857D01*
X212128571Y-57100000D01*
X211614285Y-58242857D02*
X211614285Y-57042857D01*
X211328571Y-57042857D01*
X211157142Y-57100000D01*
X211042857Y-57214285D01*
X210985714Y-57328571D01*
X210928571Y-57557142D01*
X210928571Y-57728571D01*
X210985714Y-57957142D01*
X211042857Y-58071428D01*
X211157142Y-58185714D01*
X211328571Y-58242857D01*
X211614285Y-58242857D01*
X210414285Y-57614285D02*
X210014285Y-57614285D01*
X209842857Y-58242857D02*
X210414285Y-58242857D01*
X210414285Y-57042857D01*
X209842857Y-57042857D01*
X209328571Y-58242857D02*
X209328571Y-57042857D01*
X208928571Y-57900000D01*
X208528571Y-57042857D01*
X208528571Y-58242857D01*
X207042857Y-58242857D02*
X207042857Y-57042857D01*
X206642857Y-57900000D01*
X206242857Y-57042857D01*
X206242857Y-58242857D01*
X205671428Y-57042857D02*
X205671428Y-58014285D01*
X205614285Y-58128571D01*
X205557142Y-58185714D01*
X205442857Y-58242857D01*
X205214285Y-58242857D01*
X205100000Y-58185714D01*
X205042857Y-58128571D01*
X204985714Y-58014285D01*
X204985714Y-57042857D01*
X204471428Y-58185714D02*
X204300000Y-58242857D01*
X204014285Y-58242857D01*
X203900000Y-58185714D01*
X203842857Y-58128571D01*
X203785714Y-58014285D01*
X203785714Y-57900000D01*
X203842857Y-57785714D01*
X203900000Y-57728571D01*
X204014285Y-57671428D01*
X204242857Y-57614285D01*
X204357142Y-57557142D01*
X204414285Y-57500000D01*
X204471428Y-57385714D01*
X204471428Y-57271428D01*
X204414285Y-57157142D01*
X204357142Y-57100000D01*
X204242857Y-57042857D01*
X203957142Y-57042857D01*
X203785714Y-57100000D01*
X203271428Y-58242857D02*
X203271428Y-57042857D01*
X202014285Y-58128571D02*
X202071428Y-58185714D01*
X202242857Y-58242857D01*
X202357142Y-58242857D01*
X202528571Y-58185714D01*
X202642857Y-58071428D01*
X202700000Y-57957142D01*
X202757142Y-57728571D01*
X202757142Y-57557142D01*
X202700000Y-57328571D01*
X202642857Y-57214285D01*
X202528571Y-57100000D01*
X202357142Y-57042857D01*
X202242857Y-57042857D01*
X202071428Y-57100000D01*
X202014285Y-57157142D01*
X200185714Y-57614285D02*
X200014285Y-57671428D01*
X199957142Y-57728571D01*
X199900000Y-57842857D01*
X199900000Y-58014285D01*
X199957142Y-58128571D01*
X200014285Y-58185714D01*
X200128571Y-58242857D01*
X200585714Y-58242857D01*
X200585714Y-57042857D01*
X200185714Y-57042857D01*
X200071428Y-57100000D01*
X200014285Y-57157142D01*
X199957142Y-57271428D01*
X199957142Y-57385714D01*
X200014285Y-57500000D01*
X200071428Y-57557142D01*
X200185714Y-57614285D01*
X200585714Y-57614285D01*
X199157142Y-57042857D02*
X198928571Y-57042857D01*
X198814285Y-57100000D01*
X198700000Y-57214285D01*
X198642857Y-57442857D01*
X198642857Y-57842857D01*
X198700000Y-58071428D01*
X198814285Y-58185714D01*
X198928571Y-58242857D01*
X199157142Y-58242857D01*
X199271428Y-58185714D01*
X199385714Y-58071428D01*
X199442857Y-57842857D01*
X199442857Y-57442857D01*
X199385714Y-57214285D01*
X199271428Y-57100000D01*
X199157142Y-57042857D01*
X198242857Y-57042857D02*
X197442857Y-58242857D01*
X197442857Y-57042857D02*
X198242857Y-58242857D01*
D11*
X221208095Y-65055619D02*
X221208095Y-63955619D01*
X220946190Y-63955619D01*
X220789047Y-64008000D01*
X220684285Y-64112761D01*
X220631904Y-64217523D01*
X220579523Y-64427047D01*
X220579523Y-64584190D01*
X220631904Y-64793714D01*
X220684285Y-64898476D01*
X220789047Y-65003238D01*
X220946190Y-65055619D01*
X221208095Y-65055619D01*
X219898571Y-63955619D02*
X219793809Y-63955619D01*
X219689047Y-64008000D01*
X219636666Y-64060380D01*
X219584285Y-64165142D01*
X219531904Y-64374666D01*
X219531904Y-64636571D01*
X219584285Y-64846095D01*
X219636666Y-64950857D01*
X219689047Y-65003238D01*
X219793809Y-65055619D01*
X219898571Y-65055619D01*
X220003333Y-65003238D01*
X220055714Y-64950857D01*
X220108095Y-64846095D01*
X220160476Y-64636571D01*
X220160476Y-64374666D01*
X220108095Y-64165142D01*
X220055714Y-64060380D01*
X220003333Y-64008000D01*
X219898571Y-63955619D01*
X218222380Y-64636571D02*
X217384285Y-64636571D01*
X216074761Y-65003238D02*
X215917619Y-65055619D01*
X215655714Y-65055619D01*
X215550952Y-65003238D01*
X215498571Y-64950857D01*
X215446190Y-64846095D01*
X215446190Y-64741333D01*
X215498571Y-64636571D01*
X215550952Y-64584190D01*
X215655714Y-64531809D01*
X215865238Y-64479428D01*
X215969999Y-64427047D01*
X216022380Y-64374666D01*
X216074761Y-64269904D01*
X216074761Y-64165142D01*
X216022380Y-64060380D01*
X215969999Y-64008000D01*
X215865238Y-63955619D01*
X215603333Y-63955619D01*
X215446190Y-64008000D01*
X214765238Y-63955619D02*
X214555714Y-63955619D01*
X214450952Y-64008000D01*
X214346190Y-64112761D01*
X214293809Y-64322285D01*
X214293809Y-64688952D01*
X214346190Y-64898476D01*
X214450952Y-65003238D01*
X214555714Y-65055619D01*
X214765238Y-65055619D01*
X214869999Y-65003238D01*
X214974761Y-64898476D01*
X215027142Y-64688952D01*
X215027142Y-64322285D01*
X214974761Y-64112761D01*
X214869999Y-64008000D01*
X214765238Y-63955619D01*
X213822380Y-63955619D02*
X213822380Y-64846095D01*
X213769999Y-64950857D01*
X213717619Y-65003238D01*
X213612857Y-65055619D01*
X213403333Y-65055619D01*
X213298571Y-65003238D01*
X213246190Y-64950857D01*
X213193809Y-64846095D01*
X213193809Y-63955619D01*
X212670000Y-65055619D02*
X212670000Y-63955619D01*
X212041428Y-65055619D01*
X212041428Y-63955619D01*
X211517619Y-65055619D02*
X211517619Y-63955619D01*
X211255714Y-63955619D01*
X211098571Y-64008000D01*
X210993809Y-64112761D01*
X210941428Y-64217523D01*
X210889047Y-64427047D01*
X210889047Y-64584190D01*
X210941428Y-64793714D01*
X210993809Y-64898476D01*
X211098571Y-65003238D01*
X211255714Y-65055619D01*
X211517619Y-65055619D01*
X209370000Y-63955619D02*
X209160476Y-63955619D01*
X209055714Y-64008000D01*
X208950952Y-64112761D01*
X208898571Y-64322285D01*
X208898571Y-64688952D01*
X208950952Y-64898476D01*
X209055714Y-65003238D01*
X209160476Y-65055619D01*
X209370000Y-65055619D01*
X209474761Y-65003238D01*
X209579523Y-64898476D01*
X209631904Y-64688952D01*
X209631904Y-64322285D01*
X209579523Y-64112761D01*
X209474761Y-64008000D01*
X209370000Y-63955619D01*
X208427142Y-63955619D02*
X208427142Y-64846095D01*
X208374761Y-64950857D01*
X208322380Y-65003238D01*
X208217619Y-65055619D01*
X208008095Y-65055619D01*
X207903333Y-65003238D01*
X207850952Y-64950857D01*
X207798571Y-64846095D01*
X207798571Y-63955619D01*
X207431904Y-63955619D02*
X206803333Y-63955619D01*
X207117619Y-65055619D02*
X207117619Y-63955619D01*
X206436666Y-65055619D02*
X206436666Y-63955619D01*
X206017619Y-63955619D01*
X205912857Y-64008000D01*
X205860476Y-64060380D01*
X205808095Y-64165142D01*
X205808095Y-64322285D01*
X205860476Y-64427047D01*
X205912857Y-64479428D01*
X206017619Y-64531809D01*
X206436666Y-64531809D01*
X205336666Y-63955619D02*
X205336666Y-64846095D01*
X205284285Y-64950857D01*
X205231904Y-65003238D01*
X205127142Y-65055619D01*
X204917619Y-65055619D01*
X204812857Y-65003238D01*
X204760476Y-64950857D01*
X204708095Y-64846095D01*
X204708095Y-63955619D01*
X204341428Y-63955619D02*
X203712857Y-63955619D01*
X204027142Y-65055619D02*
X204027142Y-63955619D01*
X221208095Y-66826619D02*
X221208095Y-65726619D01*
X220946190Y-65726619D01*
X220789047Y-65779000D01*
X220684285Y-65883761D01*
X220631904Y-65988523D01*
X220579523Y-66198047D01*
X220579523Y-66355190D01*
X220631904Y-66564714D01*
X220684285Y-66669476D01*
X220789047Y-66774238D01*
X220946190Y-66826619D01*
X221208095Y-66826619D01*
X219531904Y-66826619D02*
X220160476Y-66826619D01*
X219846190Y-66826619D02*
X219846190Y-65726619D01*
X219950952Y-65883761D01*
X220055714Y-65988523D01*
X220160476Y-66040904D01*
X218222380Y-66407571D02*
X217384285Y-66407571D01*
X216022380Y-65726619D02*
X216022380Y-66617095D01*
X215970000Y-66721857D01*
X215917619Y-66774238D01*
X215812857Y-66826619D01*
X215603333Y-66826619D01*
X215498571Y-66774238D01*
X215446190Y-66721857D01*
X215393809Y-66617095D01*
X215393809Y-65726619D01*
X214922380Y-66774238D02*
X214765238Y-66826619D01*
X214503333Y-66826619D01*
X214398571Y-66774238D01*
X214346190Y-66721857D01*
X214293809Y-66617095D01*
X214293809Y-66512333D01*
X214346190Y-66407571D01*
X214398571Y-66355190D01*
X214503333Y-66302809D01*
X214712857Y-66250428D01*
X214817619Y-66198047D01*
X214870000Y-66145666D01*
X214922380Y-66040904D01*
X214922380Y-65936142D01*
X214870000Y-65831380D01*
X214817619Y-65779000D01*
X214712857Y-65726619D01*
X214450952Y-65726619D01*
X214293809Y-65779000D01*
X213822380Y-66250428D02*
X213455714Y-66250428D01*
X213298571Y-66826619D02*
X213822380Y-66826619D01*
X213822380Y-65726619D01*
X213298571Y-65726619D01*
X212198571Y-66826619D02*
X212565238Y-66302809D01*
X212827142Y-66826619D02*
X212827142Y-65726619D01*
X212408095Y-65726619D01*
X212303333Y-65779000D01*
X212250952Y-65831380D01*
X212198571Y-65936142D01*
X212198571Y-66093285D01*
X212250952Y-66198047D01*
X212303333Y-66250428D01*
X212408095Y-66302809D01*
X212827142Y-66302809D01*
X210365238Y-66826619D02*
X210889047Y-66826619D01*
X210889047Y-65726619D01*
X209998571Y-66250428D02*
X209631904Y-66250428D01*
X209474761Y-66826619D02*
X209998571Y-66826619D01*
X209998571Y-65726619D01*
X209474761Y-65726619D01*
X209003333Y-66826619D02*
X209003333Y-65726619D01*
X208741428Y-65726619D01*
X208584285Y-65779000D01*
X208479523Y-65883761D01*
X208427142Y-65988523D01*
X208374761Y-66198047D01*
X208374761Y-66355190D01*
X208427142Y-66564714D01*
X208479523Y-66669476D01*
X208584285Y-66774238D01*
X208741428Y-66826619D01*
X209003333Y-66826619D01*
X221208095Y-68597619D02*
X221208095Y-67497619D01*
X220946190Y-67497619D01*
X220789047Y-67550000D01*
X220684285Y-67654761D01*
X220631904Y-67759523D01*
X220579523Y-67969047D01*
X220579523Y-68126190D01*
X220631904Y-68335714D01*
X220684285Y-68440476D01*
X220789047Y-68545238D01*
X220946190Y-68597619D01*
X221208095Y-68597619D01*
X220160476Y-67602380D02*
X220108095Y-67550000D01*
X220003333Y-67497619D01*
X219741428Y-67497619D01*
X219636666Y-67550000D01*
X219584285Y-67602380D01*
X219531904Y-67707142D01*
X219531904Y-67811904D01*
X219584285Y-67969047D01*
X220212857Y-68597619D01*
X219531904Y-68597619D01*
X218222380Y-68178571D02*
X217384285Y-68178571D01*
X216074761Y-68283333D02*
X215550952Y-68283333D01*
X216179523Y-68597619D02*
X215812857Y-67497619D01*
X215446190Y-68597619D01*
X215079523Y-68597619D02*
X215079523Y-67497619D01*
X214817619Y-67497619D01*
X214660476Y-67550000D01*
X214555714Y-67654761D01*
X214503333Y-67759523D01*
X214450952Y-67969047D01*
X214450952Y-68126190D01*
X214503333Y-68335714D01*
X214555714Y-68440476D01*
X214660476Y-68545238D01*
X214817619Y-68597619D01*
X215079523Y-68597619D01*
X213350952Y-68492857D02*
X213403333Y-68545238D01*
X213560476Y-68597619D01*
X213665238Y-68597619D01*
X213822380Y-68545238D01*
X213927142Y-68440476D01*
X213979523Y-68335714D01*
X214031904Y-68126190D01*
X214031904Y-67969047D01*
X213979523Y-67759523D01*
X213927142Y-67654761D01*
X213822380Y-67550000D01*
X213665238Y-67497619D01*
X213560476Y-67497619D01*
X213403333Y-67550000D01*
X213350952Y-67602380D01*
X212303333Y-68597619D02*
X212931904Y-68597619D01*
X212617619Y-68597619D02*
X212617619Y-67497619D01*
X212722380Y-67654761D01*
X212827142Y-67759523D01*
X212931904Y-67811904D01*
X210470000Y-68597619D02*
X210993809Y-68597619D01*
X210993809Y-67497619D01*
X210103333Y-68597619D02*
X210103333Y-67497619D01*
X209003333Y-67550000D02*
X209108095Y-67497619D01*
X209265238Y-67497619D01*
X209422380Y-67550000D01*
X209527142Y-67654761D01*
X209579523Y-67759523D01*
X209631904Y-67969047D01*
X209631904Y-68126190D01*
X209579523Y-68335714D01*
X209527142Y-68440476D01*
X209422380Y-68545238D01*
X209265238Y-68597619D01*
X209160476Y-68597619D01*
X209003333Y-68545238D01*
X208950952Y-68492857D01*
X208950952Y-68126190D01*
X209160476Y-68126190D01*
X208479523Y-68597619D02*
X208479523Y-67497619D01*
X208479523Y-68021428D02*
X207850952Y-68021428D01*
X207850952Y-68597619D02*
X207850952Y-67497619D01*
X207484285Y-67497619D02*
X206855714Y-67497619D01*
X207170000Y-68597619D02*
X207170000Y-67497619D01*
X205703333Y-68545238D02*
X205546190Y-68597619D01*
X205284285Y-68597619D01*
X205179523Y-68545238D01*
X205127142Y-68492857D01*
X205074761Y-68388095D01*
X205074761Y-68283333D01*
X205127142Y-68178571D01*
X205179523Y-68126190D01*
X205284285Y-68073809D01*
X205493809Y-68021428D01*
X205598571Y-67969047D01*
X205650952Y-67916666D01*
X205703333Y-67811904D01*
X205703333Y-67707142D01*
X205650952Y-67602380D01*
X205598571Y-67550000D01*
X205493809Y-67497619D01*
X205231904Y-67497619D01*
X205074761Y-67550000D01*
X204603333Y-68021428D02*
X204236666Y-68021428D01*
X204079523Y-68597619D02*
X204603333Y-68597619D01*
X204603333Y-67497619D01*
X204079523Y-67497619D01*
X203608095Y-68597619D02*
X203608095Y-67497619D01*
X202979523Y-68597619D01*
X202979523Y-67497619D01*
X202508095Y-68545238D02*
X202350952Y-68597619D01*
X202089047Y-68597619D01*
X201984285Y-68545238D01*
X201931904Y-68492857D01*
X201879523Y-68388095D01*
X201879523Y-68283333D01*
X201931904Y-68178571D01*
X201984285Y-68126190D01*
X202089047Y-68073809D01*
X202298571Y-68021428D01*
X202403333Y-67969047D01*
X202455714Y-67916666D01*
X202508095Y-67811904D01*
X202508095Y-67707142D01*
X202455714Y-67602380D01*
X202403333Y-67550000D01*
X202298571Y-67497619D01*
X202036666Y-67497619D01*
X201879523Y-67550000D01*
X201198571Y-67497619D02*
X200989047Y-67497619D01*
X200884285Y-67550000D01*
X200779523Y-67654761D01*
X200727142Y-67864285D01*
X200727142Y-68230952D01*
X200779523Y-68440476D01*
X200884285Y-68545238D01*
X200989047Y-68597619D01*
X201198571Y-68597619D01*
X201303333Y-68545238D01*
X201408095Y-68440476D01*
X201460476Y-68230952D01*
X201460476Y-67864285D01*
X201408095Y-67654761D01*
X201303333Y-67550000D01*
X201198571Y-67497619D01*
X199627142Y-68597619D02*
X199993809Y-68073809D01*
X200255714Y-68597619D02*
X200255714Y-67497619D01*
X199836666Y-67497619D01*
X199731904Y-67550000D01*
X199679523Y-67602380D01*
X199627142Y-67707142D01*
X199627142Y-67864285D01*
X199679523Y-67969047D01*
X199731904Y-68021428D01*
X199836666Y-68073809D01*
X200255714Y-68073809D01*
X221208095Y-70368619D02*
X221208095Y-69268619D01*
X220946190Y-69268619D01*
X220789047Y-69321000D01*
X220684285Y-69425761D01*
X220631904Y-69530523D01*
X220579523Y-69740047D01*
X220579523Y-69897190D01*
X220631904Y-70106714D01*
X220684285Y-70211476D01*
X220789047Y-70316238D01*
X220946190Y-70368619D01*
X221208095Y-70368619D01*
X220212857Y-69268619D02*
X219531904Y-69268619D01*
X219898571Y-69687666D01*
X219741428Y-69687666D01*
X219636666Y-69740047D01*
X219584285Y-69792428D01*
X219531904Y-69897190D01*
X219531904Y-70159095D01*
X219584285Y-70263857D01*
X219636666Y-70316238D01*
X219741428Y-70368619D01*
X220055714Y-70368619D01*
X220160476Y-70316238D01*
X220212857Y-70263857D01*
X219008095Y-70316238D02*
X219008095Y-70368619D01*
X219060476Y-70473380D01*
X219112857Y-70525761D01*
X217698571Y-70368619D02*
X217698571Y-69268619D01*
X217436666Y-69268619D01*
X217279523Y-69321000D01*
X217174761Y-69425761D01*
X217122380Y-69530523D01*
X217070000Y-69740047D01*
X217070000Y-69897190D01*
X217122380Y-70106714D01*
X217174761Y-70211476D01*
X217279523Y-70316238D01*
X217436666Y-70368619D01*
X217698571Y-70368619D01*
X216127142Y-69635285D02*
X216127142Y-70368619D01*
X216389047Y-69216238D02*
X216650952Y-70001952D01*
X215970000Y-70001952D01*
X214712857Y-69949571D02*
X213874761Y-69949571D01*
X212512857Y-69268619D02*
X212512857Y-70159095D01*
X212460476Y-70263857D01*
X212408095Y-70316238D01*
X212303333Y-70368619D01*
X212093809Y-70368619D01*
X211989047Y-70316238D01*
X211936666Y-70263857D01*
X211884285Y-70159095D01*
X211884285Y-69268619D01*
X211412857Y-70316238D02*
X211255714Y-70368619D01*
X210993809Y-70368619D01*
X210889047Y-70316238D01*
X210836666Y-70263857D01*
X210784285Y-70159095D01*
X210784285Y-70054333D01*
X210836666Y-69949571D01*
X210889047Y-69897190D01*
X210993809Y-69844809D01*
X211203333Y-69792428D01*
X211308095Y-69740047D01*
X211360476Y-69687666D01*
X211412857Y-69582904D01*
X211412857Y-69478142D01*
X211360476Y-69373380D01*
X211308095Y-69321000D01*
X211203333Y-69268619D01*
X210941428Y-69268619D01*
X210784285Y-69321000D01*
X209946190Y-69792428D02*
X209789047Y-69844809D01*
X209736666Y-69897190D01*
X209684285Y-70001952D01*
X209684285Y-70159095D01*
X209736666Y-70263857D01*
X209789047Y-70316238D01*
X209893809Y-70368619D01*
X210312857Y-70368619D01*
X210312857Y-69268619D01*
X209946190Y-69268619D01*
X209841428Y-69321000D01*
X209789047Y-69373380D01*
X209736666Y-69478142D01*
X209736666Y-69582904D01*
X209789047Y-69687666D01*
X209841428Y-69740047D01*
X209946190Y-69792428D01*
X210312857Y-69792428D01*
X221208095Y-72139619D02*
X221208095Y-71039619D01*
X220946190Y-71039619D01*
X220789047Y-71092000D01*
X220684285Y-71196761D01*
X220631904Y-71301523D01*
X220579523Y-71511047D01*
X220579523Y-71668190D01*
X220631904Y-71877714D01*
X220684285Y-71982476D01*
X220789047Y-72087238D01*
X220946190Y-72139619D01*
X221208095Y-72139619D01*
X219584285Y-71039619D02*
X220108095Y-71039619D01*
X220160476Y-71563428D01*
X220108095Y-71511047D01*
X220003333Y-71458666D01*
X219741428Y-71458666D01*
X219636666Y-71511047D01*
X219584285Y-71563428D01*
X219531904Y-71668190D01*
X219531904Y-71930095D01*
X219584285Y-72034857D01*
X219636666Y-72087238D01*
X219741428Y-72139619D01*
X220003333Y-72139619D01*
X220108095Y-72087238D01*
X220160476Y-72034857D01*
X218222380Y-71720571D02*
X217384285Y-71720571D01*
X215393809Y-72139619D02*
X215760476Y-71615809D01*
X216022380Y-72139619D02*
X216022380Y-71039619D01*
X215603333Y-71039619D01*
X215498571Y-71092000D01*
X215446190Y-71144380D01*
X215393809Y-71249142D01*
X215393809Y-71406285D01*
X215446190Y-71511047D01*
X215498571Y-71563428D01*
X215603333Y-71615809D01*
X216022380Y-71615809D01*
X214922380Y-71563428D02*
X214555714Y-71563428D01*
X214398571Y-72139619D02*
X214922380Y-72139619D01*
X214922380Y-71039619D01*
X214398571Y-71039619D01*
X213979523Y-72087238D02*
X213822380Y-72139619D01*
X213560476Y-72139619D01*
X213455714Y-72087238D01*
X213403333Y-72034857D01*
X213350952Y-71930095D01*
X213350952Y-71825333D01*
X213403333Y-71720571D01*
X213455714Y-71668190D01*
X213560476Y-71615809D01*
X213770000Y-71563428D01*
X213874761Y-71511047D01*
X213927142Y-71458666D01*
X213979523Y-71353904D01*
X213979523Y-71249142D01*
X213927142Y-71144380D01*
X213874761Y-71092000D01*
X213770000Y-71039619D01*
X213508095Y-71039619D01*
X213350952Y-71092000D01*
X212879523Y-71563428D02*
X212512857Y-71563428D01*
X212355714Y-72139619D02*
X212879523Y-72139619D01*
X212879523Y-71039619D01*
X212355714Y-71039619D01*
X212041428Y-71039619D02*
X211412857Y-71039619D01*
X211727142Y-72139619D02*
X211727142Y-71039619D01*
X209841428Y-71563428D02*
X209684285Y-71615809D01*
X209631904Y-71668190D01*
X209579523Y-71772952D01*
X209579523Y-71930095D01*
X209631904Y-72034857D01*
X209684285Y-72087238D01*
X209789047Y-72139619D01*
X210208095Y-72139619D01*
X210208095Y-71039619D01*
X209841428Y-71039619D01*
X209736666Y-71092000D01*
X209684285Y-71144380D01*
X209631904Y-71249142D01*
X209631904Y-71353904D01*
X209684285Y-71458666D01*
X209736666Y-71511047D01*
X209841428Y-71563428D01*
X210208095Y-71563428D01*
X209108095Y-71039619D02*
X209108095Y-71930095D01*
X209055714Y-72034857D01*
X209003333Y-72087238D01*
X208898571Y-72139619D01*
X208689047Y-72139619D01*
X208584285Y-72087238D01*
X208531904Y-72034857D01*
X208479523Y-71930095D01*
X208479523Y-71039619D01*
X208112857Y-71039619D02*
X207484285Y-71039619D01*
X207798571Y-72139619D02*
X207798571Y-71039619D01*
X207274761Y-71039619D02*
X206646190Y-71039619D01*
X206960476Y-72139619D02*
X206960476Y-71039619D01*
X206070000Y-71039619D02*
X205860476Y-71039619D01*
X205755714Y-71092000D01*
X205650952Y-71196761D01*
X205598571Y-71406285D01*
X205598571Y-71772952D01*
X205650952Y-71982476D01*
X205755714Y-72087238D01*
X205860476Y-72139619D01*
X206070000Y-72139619D01*
X206174761Y-72087238D01*
X206279523Y-71982476D01*
X206331904Y-71772952D01*
X206331904Y-71406285D01*
X206279523Y-71196761D01*
X206174761Y-71092000D01*
X206070000Y-71039619D01*
X205127142Y-72139619D02*
X205127142Y-71039619D01*
X204498571Y-72139619D01*
X204498571Y-71039619D01*
D12*
X199476190Y-52133333D02*
X199523809Y-52085714D01*
X199619047Y-51942857D01*
X199666666Y-51847619D01*
X199714285Y-51704761D01*
X199761904Y-51466666D01*
X199761904Y-51276190D01*
X199714285Y-51038095D01*
X199666666Y-50895238D01*
X199619047Y-50800000D01*
X199523809Y-50657142D01*
X199476190Y-50609523D01*
X198666666Y-51704761D02*
X198761904Y-51752380D01*
X198952380Y-51752380D01*
X199047619Y-51704761D01*
X199095238Y-51657142D01*
X199142857Y-51561904D01*
X199142857Y-51276190D01*
X199095238Y-51180952D01*
X199047619Y-51133333D01*
X198952380Y-51085714D01*
X198761904Y-51085714D01*
X198666666Y-51133333D01*
X198333333Y-52133333D02*
X198285714Y-52085714D01*
X198190476Y-51942857D01*
X198142857Y-51847619D01*
X198095238Y-51704761D01*
X198047619Y-51466666D01*
X198047619Y-51276190D01*
X198095238Y-51038095D01*
X198142857Y-50895238D01*
X198190476Y-50800000D01*
X198285714Y-50657142D01*
X198333333Y-50609523D01*
X197619047Y-50847619D02*
X197571428Y-50800000D01*
X197476190Y-50752380D01*
X197238095Y-50752380D01*
X197142857Y-50800000D01*
X197095238Y-50847619D01*
X197047619Y-50942857D01*
X197047619Y-51038095D01*
X197095238Y-51180952D01*
X197666666Y-51752380D01*
X197047619Y-51752380D01*
X196428571Y-50752380D02*
X196333333Y-50752380D01*
X196238095Y-50800000D01*
X196190476Y-50847619D01*
X196142857Y-50942857D01*
X196095238Y-51133333D01*
X196095238Y-51371428D01*
X196142857Y-51561904D01*
X196190476Y-51657142D01*
X196238095Y-51704761D01*
X196333333Y-51752380D01*
X196428571Y-51752380D01*
X196523809Y-51704761D01*
X196571428Y-51657142D01*
X196619047Y-51561904D01*
X196666666Y-51371428D01*
X196666666Y-51133333D01*
X196619047Y-50942857D01*
X196571428Y-50847619D01*
X196523809Y-50800000D01*
X196428571Y-50752380D01*
X195714285Y-50847619D02*
X195666666Y-50800000D01*
X195571428Y-50752380D01*
X195333333Y-50752380D01*
X195238095Y-50800000D01*
X195190476Y-50847619D01*
X195142857Y-50942857D01*
X195142857Y-51038095D01*
X195190476Y-51180952D01*
X195761904Y-51752380D01*
X195142857Y-51752380D01*
X194523809Y-50752380D02*
X194428571Y-50752380D01*
X194333333Y-50800000D01*
X194285714Y-50847619D01*
X194238095Y-50942857D01*
X194190476Y-51133333D01*
X194190476Y-51371428D01*
X194238095Y-51561904D01*
X194285714Y-51657142D01*
X194333333Y-51704761D01*
X194428571Y-51752380D01*
X194523809Y-51752380D01*
X194619047Y-51704761D01*
X194666666Y-51657142D01*
X194714285Y-51561904D01*
X194761904Y-51371428D01*
X194761904Y-51133333D01*
X194714285Y-50942857D01*
X194666666Y-50847619D01*
X194619047Y-50800000D01*
X194523809Y-50752380D01*
D10*
X194019047Y-85104761D02*
X193923809Y-85152380D01*
X193733333Y-85152380D01*
X193638095Y-85104761D01*
X193590476Y-85009523D01*
X193590476Y-84961904D01*
X193638095Y-84866666D01*
X193733333Y-84819047D01*
X193876190Y-84819047D01*
X193971428Y-84771428D01*
X194019047Y-84676190D01*
X194019047Y-84628571D01*
X193971428Y-84533333D01*
X193876190Y-84485714D01*
X193733333Y-84485714D01*
X193638095Y-84533333D01*
X193019047Y-85152380D02*
X193114285Y-85104761D01*
X193161904Y-85057142D01*
X193209523Y-84961904D01*
X193209523Y-84676190D01*
X193161904Y-84580952D01*
X193114285Y-84533333D01*
X193019047Y-84485714D01*
X192876190Y-84485714D01*
X192780952Y-84533333D01*
X192733333Y-84580952D01*
X192685714Y-84676190D01*
X192685714Y-84961904D01*
X192733333Y-85057142D01*
X192780952Y-85104761D01*
X192876190Y-85152380D01*
X193019047Y-85152380D01*
X192114285Y-85152380D02*
X192209523Y-85104761D01*
X192257142Y-85009523D01*
X192257142Y-84152380D01*
X191304761Y-85152380D02*
X191304761Y-84152380D01*
X191304761Y-85104761D02*
X191400000Y-85152380D01*
X191590476Y-85152380D01*
X191685714Y-85104761D01*
X191733333Y-85057142D01*
X191780952Y-84961904D01*
X191780952Y-84676190D01*
X191733333Y-84580952D01*
X191685714Y-84533333D01*
X191590476Y-84485714D01*
X191400000Y-84485714D01*
X191304761Y-84533333D01*
X190447619Y-85104761D02*
X190542857Y-85152380D01*
X190733333Y-85152380D01*
X190828571Y-85104761D01*
X190876190Y-85009523D01*
X190876190Y-84628571D01*
X190828571Y-84533333D01*
X190733333Y-84485714D01*
X190542857Y-84485714D01*
X190447619Y-84533333D01*
X190400000Y-84628571D01*
X190400000Y-84723809D01*
X190876190Y-84819047D01*
X189971428Y-85152380D02*
X189971428Y-84485714D01*
X189971428Y-84676190D02*
X189923809Y-84580952D01*
X189876190Y-84533333D01*
X189780952Y-84485714D01*
X189685714Y-84485714D01*
X188590476Y-85152380D02*
X188590476Y-84152380D01*
X188161904Y-85152380D02*
X188161904Y-84628571D01*
X188209523Y-84533333D01*
X188304761Y-84485714D01*
X188447619Y-84485714D01*
X188542857Y-84533333D01*
X188590476Y-84580952D01*
X187304761Y-85104761D02*
X187400000Y-85152380D01*
X187590476Y-85152380D01*
X187685714Y-85104761D01*
X187733333Y-85009523D01*
X187733333Y-84628571D01*
X187685714Y-84533333D01*
X187590476Y-84485714D01*
X187400000Y-84485714D01*
X187304761Y-84533333D01*
X187257142Y-84628571D01*
X187257142Y-84723809D01*
X187733333Y-84819047D01*
X186828571Y-85152380D02*
X186828571Y-84485714D01*
X186828571Y-84676190D02*
X186780952Y-84580952D01*
X186733333Y-84533333D01*
X186638095Y-84485714D01*
X186542857Y-84485714D01*
X185828571Y-85104761D02*
X185923809Y-85152380D01*
X186114285Y-85152380D01*
X186209523Y-85104761D01*
X186257142Y-85009523D01*
X186257142Y-84628571D01*
X186209523Y-84533333D01*
X186114285Y-84485714D01*
X185923809Y-84485714D01*
X185828571Y-84533333D01*
X185780952Y-84628571D01*
X185780952Y-84723809D01*
X186257142Y-84819047D01*
D13*
X187500001Y-82600000D02*
X188700000Y-83800000D01*
X187500001Y-82600000D02*
X188000000Y-82600000D01*
X187500001Y-82600000D02*
X187500000Y-83100000D01*
X192700000Y-82600000D02*
X192200000Y-82600000D01*
X192700000Y-82600000D02*
X192700000Y-83100000D01*
X192700000Y-82600000D02*
X191500000Y-83800000D01*
D10*
X171242857Y-69852380D02*
X171576190Y-69376190D01*
X171814285Y-69852380D02*
X171814285Y-68852380D01*
X171433333Y-68852380D01*
X171338095Y-68900000D01*
X171290476Y-68947619D01*
X171242857Y-69042857D01*
X171242857Y-69185714D01*
X171290476Y-69280952D01*
X171338095Y-69328571D01*
X171433333Y-69376190D01*
X171814285Y-69376190D01*
X170671428Y-69852380D02*
X170766666Y-69804761D01*
X170814285Y-69757142D01*
X170861904Y-69661904D01*
X170861904Y-69376190D01*
X170814285Y-69280952D01*
X170766666Y-69233333D01*
X170671428Y-69185714D01*
X170528571Y-69185714D01*
X170433333Y-69233333D01*
X170385714Y-69280952D01*
X170338095Y-69376190D01*
X170338095Y-69661904D01*
X170385714Y-69757142D01*
X170433333Y-69804761D01*
X170528571Y-69852380D01*
X170671428Y-69852380D01*
X169909523Y-69852380D02*
X169909523Y-68852380D01*
X169909523Y-69328571D02*
X169338095Y-69328571D01*
X169338095Y-69852380D02*
X169338095Y-68852380D01*
X168909523Y-69804761D02*
X168766666Y-69852380D01*
X168528571Y-69852380D01*
X168433333Y-69804761D01*
X168385714Y-69757142D01*
X168338095Y-69661904D01*
X168338095Y-69566666D01*
X168385714Y-69471428D01*
X168433333Y-69423809D01*
X168528571Y-69376190D01*
X168719047Y-69328571D01*
X168814285Y-69280952D01*
X168861904Y-69233333D01*
X168909523Y-69138095D01*
X168909523Y-69042857D01*
X168861904Y-68947619D01*
X168814285Y-68900000D01*
X168719047Y-68852380D01*
X168480952Y-68852380D01*
X168338095Y-68900000D01*
G36*
X168471069Y-87881959D02*
G01*
X167951843Y-88401186D01*
X167433298Y-87882640D01*
X167952524Y-87363414D01*
X168471069Y-87881959D01*
G37*
G36*
X172336586Y-91747476D02*
G01*
X171817360Y-92266702D01*
X171298815Y-91748158D01*
X171818041Y-91228931D01*
X172336586Y-91747476D01*
G37*
G36*
X165166603Y-91617957D02*
G01*
X165225548Y-91669595D01*
X165231817Y-91675885D01*
X165279274Y-91732392D01*
X165277155Y-91775683D01*
X165225440Y-91834696D01*
X165219142Y-91840972D01*
X165162573Y-91888505D01*
X165119285Y-91886442D01*
X165060340Y-91834804D01*
X165054071Y-91828515D01*
X165006613Y-91772008D01*
X165008733Y-91728717D01*
X165060448Y-91669703D01*
X165066746Y-91663427D01*
X165123316Y-91615895D01*
X165166603Y-91617957D01*
G37*
G36*
X168465990Y-95618072D02*
G01*
X167946763Y-96137299D01*
X167428218Y-95618754D01*
X167947445Y-95099528D01*
X168465990Y-95618072D01*
G37*
G36*
X170228542Y-88941128D02*
G01*
X170406360Y-89105079D01*
X170237016Y-89274423D01*
X170073066Y-89096604D01*
X169909116Y-88918787D01*
X170050723Y-88777179D01*
X170228542Y-88941128D01*
G37*
G36*
X170073161Y-89515626D02*
G01*
X170132432Y-89566923D01*
X170184572Y-89646175D01*
X170173083Y-89716378D01*
X170096513Y-89772789D01*
X170047664Y-89771069D01*
X169978009Y-89710530D01*
X169941673Y-89660410D01*
X169935802Y-89611108D01*
X169979455Y-89555554D01*
X170030359Y-89513193D01*
X170073161Y-89515626D01*
G37*
G36*
X169520361Y-88232990D02*
G01*
X169697105Y-88395909D01*
X169531929Y-88574975D01*
X169366753Y-88754043D01*
X169449248Y-88836538D01*
X169509302Y-88887870D01*
X169558252Y-88891333D01*
X169626134Y-88848215D01*
X169686953Y-88808534D01*
X169736890Y-88805222D01*
X169791234Y-88848106D01*
X169830844Y-88895660D01*
X169834091Y-88944500D01*
X169791125Y-89013207D01*
X169752008Y-89073893D01*
X169747923Y-89131000D01*
X169791002Y-89201892D01*
X169830602Y-89262659D01*
X169833849Y-89312592D01*
X169790893Y-89366992D01*
X169720089Y-89437796D01*
X169366521Y-89107828D01*
X169012952Y-88777860D01*
X168946901Y-88829816D01*
X168897297Y-88866246D01*
X168839373Y-88902312D01*
X168793569Y-88896712D01*
X168728539Y-88838680D01*
X168659182Y-88754507D01*
X168989599Y-88424090D01*
X169083895Y-88494785D01*
X169151204Y-88537618D01*
X169200193Y-88534552D01*
X169260795Y-88482876D01*
X169312207Y-88422755D01*
X169315734Y-88373802D01*
X169272704Y-88305975D01*
X169233104Y-88245209D01*
X169229857Y-88195276D01*
X169272813Y-88140876D01*
X169343617Y-88070072D01*
X169520361Y-88232990D01*
G37*
G36*
X170922604Y-89979477D02*
G01*
X170851786Y-90073867D01*
X170812106Y-90134685D01*
X170808793Y-90184623D01*
X170851677Y-90238967D01*
X170922388Y-90309678D01*
X171099381Y-90156254D01*
X171276375Y-90002831D01*
X171358871Y-90085327D01*
X171409020Y-90143149D01*
X171414380Y-90189928D01*
X171373337Y-90250416D01*
X171340550Y-90295502D01*
X171331525Y-90350241D01*
X171373229Y-90415517D01*
X171413163Y-90473347D01*
X171410264Y-90520130D01*
X171358546Y-90580627D01*
X171300046Y-90631255D01*
X171253227Y-90635957D01*
X171191942Y-90594023D01*
X171135741Y-90554351D01*
X171087954Y-90554425D01*
X171028330Y-90604429D01*
X170981672Y-90658086D01*
X170975678Y-90705701D01*
X171017924Y-90768041D01*
X171036391Y-90791888D01*
X171063618Y-90856195D01*
X171040069Y-90914616D01*
X171003176Y-90955504D01*
X170944911Y-90998637D01*
X170934838Y-91001841D01*
X170893489Y-90992564D01*
X170833617Y-90945787D01*
X170744377Y-90853674D01*
X170591940Y-90687266D01*
X170662759Y-90592876D01*
X170702440Y-90532058D01*
X170705752Y-90482120D01*
X170662868Y-90427776D01*
X170615315Y-90388167D01*
X170566474Y-90384919D01*
X170497768Y-90427885D01*
X170438750Y-90466314D01*
X170383923Y-90471614D01*
X170320520Y-90430478D01*
X170237661Y-90362252D01*
X170568804Y-90003295D01*
X170498108Y-89908998D01*
X170455276Y-89841690D01*
X170458342Y-89792701D01*
X170510018Y-89732099D01*
X170592622Y-89649494D01*
X170922604Y-89979477D01*
G37*
G36*
X168847709Y-88973942D02*
G01*
X168906654Y-89025579D01*
X168912923Y-89031870D01*
X168960380Y-89088376D01*
X168958260Y-89131667D01*
X168906545Y-89190680D01*
X168900248Y-89196957D01*
X168843679Y-89244488D01*
X168800390Y-89242426D01*
X168741445Y-89190788D01*
X168735176Y-89184499D01*
X168687719Y-89127993D01*
X168689838Y-89084701D01*
X168741554Y-89025688D01*
X168747852Y-89019411D01*
X168804421Y-88971880D01*
X168847709Y-88973942D01*
G37*
G36*
X167951378Y-89108757D02*
G01*
X166725726Y-87883105D01*
X166725942Y-87882889D01*
X167055927Y-87882889D01*
X167492716Y-88319678D01*
X167562625Y-88389350D01*
X167709890Y-88533681D01*
X167819022Y-88635986D01*
X167895405Y-88700965D01*
X167944421Y-88733322D01*
X167971459Y-88737759D01*
X167997805Y-88717195D01*
X168065272Y-88654742D01*
X168163592Y-88558977D01*
X168284350Y-88438119D01*
X168419134Y-88300390D01*
X168824855Y-87881727D01*
X167953814Y-86985002D01*
X167055927Y-87882889D01*
X166725942Y-87882889D01*
X167952989Y-86655843D01*
X169178641Y-87881495D01*
X168332375Y-88727760D01*
X167951378Y-89108757D01*
G37*
G36*
X169011572Y-89870109D02*
G01*
X169070842Y-89921406D01*
X169122982Y-90000658D01*
X169111493Y-90070861D01*
X169034924Y-90127272D01*
X168986075Y-90125551D01*
X168916419Y-90065013D01*
X168880083Y-90014893D01*
X168874213Y-89965590D01*
X168917866Y-89910036D01*
X168968769Y-89867676D01*
X169011572Y-89870109D01*
G37*
G36*
X170214786Y-90357313D02*
G01*
X170143982Y-90428117D01*
X170096377Y-90467788D01*
X170047533Y-90471100D01*
X169978882Y-90428225D01*
X169918248Y-90389187D01*
X169861146Y-90385178D01*
X169790196Y-90428349D01*
X169730470Y-90467147D01*
X169675783Y-90471843D01*
X169611808Y-90429961D01*
X169565729Y-90396147D01*
X169515362Y-90386744D01*
X169462435Y-90426128D01*
X169409855Y-90469967D01*
X169363377Y-90491525D01*
X169321084Y-90468820D01*
X169265155Y-90412970D01*
X169235707Y-90372187D01*
X169226847Y-90317513D01*
X169268646Y-90251799D01*
X169301433Y-90206714D01*
X169310458Y-90151975D01*
X169268754Y-90086699D01*
X169200832Y-90004193D01*
X169530448Y-89646827D01*
X170214786Y-90357313D01*
G37*
G36*
X170568355Y-90687280D02*
G01*
X170049128Y-91206507D01*
X169884137Y-91041515D01*
X170403363Y-90522289D01*
X170568355Y-90687280D01*
G37*
G36*
X170733114Y-91206058D02*
G01*
X170568930Y-91384092D01*
X170404747Y-91562126D01*
X170235625Y-91393004D01*
X170413659Y-91228820D01*
X170591693Y-91064637D01*
X170733114Y-91206058D01*
G37*
G36*
X171816895Y-92974274D02*
G01*
X170591244Y-91748622D01*
X170591461Y-91748405D01*
X170921443Y-91748405D01*
X171793542Y-92620504D01*
X172690388Y-91723659D01*
X171818289Y-90851560D01*
X170921443Y-91748405D01*
X170591461Y-91748405D01*
X171818506Y-90521360D01*
X173044157Y-91747011D01*
X172878949Y-91912220D01*
X171816895Y-92974274D01*
G37*
G36*
X168364058Y-89214622D02*
G01*
X168414611Y-89273056D01*
X168419251Y-89319868D01*
X168377236Y-89381208D01*
X168337243Y-89437964D01*
X168337694Y-89485590D01*
X168387888Y-89545267D01*
X168467858Y-89625237D01*
X168645892Y-89461053D01*
X168823926Y-89296870D01*
X169153908Y-89626853D01*
X169071304Y-89709457D01*
X169012805Y-89760086D01*
X168965985Y-89764787D01*
X168904701Y-89722854D01*
X168848500Y-89683182D01*
X168800713Y-89683256D01*
X168741089Y-89733260D01*
X168694431Y-89786917D01*
X168688436Y-89834531D01*
X168730683Y-89896872D01*
X168799890Y-89980871D01*
X168471524Y-90336939D01*
X168389489Y-90254904D01*
X168339541Y-90197209D01*
X168334709Y-90150277D01*
X168376771Y-90088779D01*
X168446089Y-90004689D01*
X168198618Y-89733615D01*
X167951146Y-89462543D01*
X168281563Y-89132126D01*
X168364058Y-89214622D01*
G37*
G36*
X169448081Y-90614478D02*
G01*
X169493124Y-90647206D01*
X169547851Y-90656159D01*
X169613181Y-90614370D01*
X169671064Y-90574359D01*
X169717844Y-90577197D01*
X169778272Y-90628835D01*
X169860768Y-90711331D01*
X169645159Y-90940604D01*
X169593830Y-90994418D01*
X169500031Y-91088713D01*
X169425934Y-91157977D01*
X169384207Y-91190093D01*
X169337514Y-91185808D01*
X169269508Y-91126138D01*
X169234710Y-91078094D01*
X169226564Y-91024002D01*
X169268181Y-90959370D01*
X169300968Y-90914285D01*
X169309994Y-90859546D01*
X169268289Y-90794270D01*
X169228355Y-90736441D01*
X169231254Y-90689657D01*
X169282972Y-90629160D01*
X169340861Y-90578936D01*
X169387646Y-90573514D01*
X169448081Y-90614478D01*
G37*
G36*
X166866885Y-88425484D02*
G01*
X166714545Y-88591762D01*
X166562207Y-88758039D01*
X166369338Y-88565170D01*
X166535615Y-88412831D01*
X166701893Y-88260492D01*
X166866885Y-88425484D01*
G37*
G36*
X171180775Y-92726510D02*
G01*
X171604500Y-93163100D01*
X171533697Y-93233903D01*
X171486091Y-93273574D01*
X171437247Y-93276886D01*
X171368596Y-93234011D01*
X171308922Y-93195291D01*
X171254240Y-93190669D01*
X171190210Y-93232634D01*
X171106121Y-93301952D01*
X170782111Y-92977942D01*
X170851428Y-92893853D01*
X170892659Y-92834455D01*
X170889892Y-92787623D01*
X170838251Y-92727267D01*
X170779818Y-92676715D01*
X170733004Y-92672074D01*
X170671665Y-92714090D01*
X170613805Y-92754612D01*
X170566523Y-92753198D01*
X170506573Y-92702405D01*
X170425571Y-92621402D01*
X170757052Y-92289920D01*
X171180775Y-92726510D01*
G37*
G36*
X169082733Y-90263714D02*
G01*
X169122343Y-90311267D01*
X169125590Y-90360107D01*
X169082625Y-90428814D01*
X169043507Y-90489500D01*
X169039423Y-90546607D01*
X169082501Y-90617499D01*
X169122102Y-90678266D01*
X169125348Y-90728200D01*
X169082393Y-90782599D01*
X169034788Y-90822271D01*
X168985944Y-90825583D01*
X168917293Y-90782707D01*
X168822996Y-90712013D01*
X168674896Y-90847127D01*
X168607040Y-90907273D01*
X168531328Y-90969840D01*
X168485701Y-91001809D01*
X168458507Y-91000112D01*
X168406429Y-90966086D01*
X168325673Y-90892170D01*
X168209320Y-90772631D01*
X167974034Y-90523884D01*
X168139243Y-90358676D01*
X168493274Y-90685034D01*
X168752649Y-90439018D01*
X169012022Y-90193003D01*
X169082733Y-90263714D01*
G37*
G36*
X170142712Y-92362146D02*
G01*
X170161781Y-92382425D01*
X170190342Y-92438924D01*
X170166360Y-92495432D01*
X170129399Y-92536319D01*
X170070517Y-92579758D01*
X170027893Y-92580331D01*
X169964265Y-92529076D01*
X169934283Y-92482772D01*
X169937607Y-92435512D01*
X169989397Y-92374039D01*
X170047757Y-92323114D01*
X170090600Y-92319243D01*
X170142712Y-92362146D01*
G37*
G36*
X170614097Y-92840838D02*
G01*
X170673042Y-92892476D01*
X170711193Y-92934440D01*
X170732488Y-92985971D01*
X170708476Y-93037547D01*
X170671524Y-93078434D01*
X170612733Y-93121829D01*
X170564810Y-93120097D01*
X170494696Y-93059361D01*
X170453402Y-92999842D01*
X170456222Y-92952999D01*
X170507942Y-92892584D01*
X170514240Y-92886307D01*
X170570809Y-92838775D01*
X170614097Y-92840838D01*
G37*
G36*
X166041241Y-88621999D02*
G01*
X166100186Y-88673637D01*
X166106455Y-88679927D01*
X166153912Y-88736434D01*
X166151793Y-88779725D01*
X166100078Y-88838737D01*
X166093780Y-88845014D01*
X166037211Y-88892546D01*
X165993923Y-88890483D01*
X165934978Y-88838845D01*
X165928709Y-88832556D01*
X165881251Y-88776049D01*
X165883371Y-88732759D01*
X165935086Y-88673745D01*
X165941384Y-88667469D01*
X165997954Y-88619937D01*
X166041241Y-88621999D01*
G37*
G36*
X168491881Y-91096907D02*
G01*
X168551151Y-91148204D01*
X168603291Y-91227456D01*
X168591802Y-91297659D01*
X168515233Y-91354069D01*
X168466384Y-91352349D01*
X168396728Y-91291811D01*
X168360392Y-91241690D01*
X168354522Y-91192388D01*
X168398175Y-91136834D01*
X168449078Y-91094473D01*
X168491881Y-91096907D01*
G37*
G36*
X170778857Y-93359614D02*
G01*
X170837802Y-93411252D01*
X170844070Y-93417542D01*
X170891528Y-93474049D01*
X170889409Y-93517340D01*
X170837694Y-93576353D01*
X170831395Y-93582630D01*
X170774827Y-93630161D01*
X170731539Y-93628099D01*
X170672593Y-93576461D01*
X170666324Y-93570172D01*
X170618867Y-93513665D01*
X170620987Y-93470374D01*
X170672702Y-93411360D01*
X170678999Y-93405084D01*
X170735569Y-93357552D01*
X170778857Y-93359614D01*
G37*
G36*
X167855935Y-90783404D02*
G01*
X167875005Y-90803684D01*
X167903565Y-90860184D01*
X167879584Y-90916691D01*
X167842622Y-90957578D01*
X167783740Y-91001017D01*
X167741117Y-91001591D01*
X167677488Y-90950335D01*
X167647506Y-90904032D01*
X167650831Y-90856772D01*
X167702620Y-90795298D01*
X167760980Y-90744373D01*
X167803823Y-90740501D01*
X167855935Y-90783404D01*
G37*
G36*
X168209489Y-91136958D02*
G01*
X168228558Y-91157238D01*
X168257118Y-91213737D01*
X168233137Y-91270245D01*
X168196175Y-91311131D01*
X168137294Y-91354571D01*
X168094670Y-91355144D01*
X168031042Y-91303889D01*
X168001060Y-91257585D01*
X168004385Y-91210325D01*
X168056174Y-91148851D01*
X168114533Y-91097926D01*
X168157376Y-91094055D01*
X168209489Y-91136958D01*
G37*
G36*
X169788694Y-92716164D02*
G01*
X169807763Y-92736443D01*
X169836324Y-92792943D01*
X169812342Y-92849450D01*
X169775381Y-92890337D01*
X169716499Y-92933776D01*
X169673875Y-92934349D01*
X169610247Y-92883094D01*
X169580265Y-92836790D01*
X169583590Y-92789530D01*
X169635379Y-92728057D01*
X169693739Y-92677132D01*
X169736582Y-92673261D01*
X169788694Y-92716164D01*
G37*
G36*
X170226002Y-92809186D02*
G01*
X170403820Y-92973135D01*
X170240434Y-93136522D01*
X170154498Y-93217783D01*
X170084533Y-93275692D01*
X170045590Y-93297775D01*
X170011268Y-93281862D01*
X169959153Y-93231006D01*
X169938383Y-93199460D01*
X169933851Y-93143335D01*
X169977147Y-93069825D01*
X170016265Y-93009139D01*
X170020350Y-92952032D01*
X169977272Y-92881139D01*
X169937671Y-92820373D01*
X169934425Y-92770440D01*
X169977380Y-92716039D01*
X170048183Y-92645236D01*
X170226002Y-92809186D01*
G37*
G36*
X167430756Y-90743818D02*
G01*
X167490027Y-90795115D01*
X167542167Y-90874367D01*
X167530678Y-90944570D01*
X167454108Y-91000981D01*
X167405259Y-90999260D01*
X167335604Y-90938722D01*
X167299268Y-90888601D01*
X167293397Y-90839299D01*
X167337050Y-90783745D01*
X167387953Y-90741385D01*
X167430756Y-90743818D01*
G37*
G36*
X169717068Y-93030130D02*
G01*
X169776338Y-93081427D01*
X169828479Y-93160679D01*
X169816989Y-93230881D01*
X169740421Y-93287293D01*
X169691571Y-93285572D01*
X169621916Y-93225034D01*
X169585580Y-93174914D01*
X169579710Y-93125612D01*
X169623362Y-93070057D01*
X169674265Y-93027696D01*
X169717068Y-93030130D01*
G37*
G36*
X170567425Y-92102423D02*
G01*
X170484821Y-92185027D01*
X170478524Y-92191305D01*
X170421954Y-92238836D01*
X170378667Y-92236774D01*
X170319722Y-92185136D01*
X170314019Y-92179450D01*
X170257259Y-92131608D01*
X170214050Y-92133250D01*
X170155655Y-92184211D01*
X170074085Y-92265781D01*
X169896266Y-92101831D01*
X169718448Y-91937881D01*
X169635844Y-92020486D01*
X169585216Y-92078985D01*
X169580514Y-92125804D01*
X169622447Y-92187089D01*
X169662119Y-92243289D01*
X169662046Y-92291078D01*
X169612041Y-92350700D01*
X169558384Y-92397359D01*
X169510770Y-92403354D01*
X169448429Y-92361107D01*
X169389086Y-92319954D01*
X169342250Y-92322783D01*
X169281826Y-92374504D01*
X169231198Y-92433003D01*
X169226496Y-92479822D01*
X169268429Y-92541106D01*
X169308348Y-92597811D01*
X169307836Y-92645437D01*
X169257562Y-92705180D01*
X169177487Y-92785255D01*
X168999669Y-92621305D01*
X168955097Y-92580448D01*
X168878234Y-92514277D01*
X168829002Y-92484774D01*
X168792993Y-92485324D01*
X168755799Y-92509310D01*
X168706185Y-92545742D01*
X168648171Y-92581851D01*
X168607140Y-92578959D01*
X168549122Y-92530005D01*
X168531987Y-92507474D01*
X168516082Y-92471628D01*
X168526958Y-92431908D01*
X168570928Y-92373386D01*
X168654296Y-92281140D01*
X168816941Y-92104708D01*
X168902016Y-92174841D01*
X168962442Y-92216870D01*
X169009320Y-92214095D01*
X169069694Y-92162372D01*
X169120619Y-92104012D01*
X169124491Y-92061169D01*
X169081588Y-92009057D01*
X169034035Y-91969447D01*
X168985194Y-91966200D01*
X168916487Y-92009165D01*
X168857469Y-92047595D01*
X168802643Y-92052894D01*
X168739240Y-92011759D01*
X168656381Y-91943533D01*
X168987523Y-91584576D01*
X168916828Y-91490279D01*
X168873996Y-91422971D01*
X168877062Y-91373981D01*
X168928737Y-91313379D01*
X169011341Y-91230775D01*
X169341324Y-91560757D01*
X169270505Y-91655147D01*
X169230825Y-91715965D01*
X169227512Y-91765903D01*
X169270397Y-91820247D01*
X169341108Y-91890958D01*
X169519142Y-91726773D01*
X169697176Y-91562590D01*
X169613647Y-91479062D01*
X169605390Y-91470769D01*
X169558663Y-91414709D01*
X169561160Y-91371628D01*
X169612723Y-91312929D01*
X169695327Y-91230325D01*
X170567425Y-92102423D01*
G37*
G36*
X169340395Y-92975900D02*
G01*
X169368929Y-93004547D01*
X169442233Y-93081960D01*
X169476679Y-93131485D01*
X169479597Y-93167270D01*
X169458324Y-93203468D01*
X169421432Y-93244355D01*
X169363166Y-93287489D01*
X169353093Y-93290693D01*
X169311744Y-93281415D01*
X169251872Y-93234639D01*
X169162632Y-93142526D01*
X169010195Y-92976117D01*
X169175404Y-92810909D01*
X169340395Y-92975900D01*
G37*
G36*
X170212710Y-93517798D02*
G01*
X170080913Y-93663929D01*
X170021339Y-93727120D01*
X169949254Y-93795836D01*
X169902565Y-93830814D01*
X169855850Y-93827670D01*
X169786660Y-93767397D01*
X169717302Y-93683224D01*
X170047719Y-93352807D01*
X170212710Y-93517798D01*
G37*
G36*
X168373552Y-92717093D02*
G01*
X168392620Y-92737372D01*
X168421181Y-92793872D01*
X168397199Y-92850379D01*
X168360238Y-92891266D01*
X168301356Y-92934705D01*
X168258732Y-92935278D01*
X168195104Y-92884023D01*
X168165122Y-92837719D01*
X168168447Y-92790459D01*
X168220237Y-92728986D01*
X168278596Y-92678061D01*
X168321439Y-92674190D01*
X168373552Y-92717093D01*
G37*
G36*
X169174939Y-93518480D02*
G01*
X169203472Y-93547126D01*
X169276777Y-93624539D01*
X169311222Y-93674064D01*
X169314142Y-93709850D01*
X169292868Y-93746048D01*
X169255976Y-93786935D01*
X169197709Y-93830069D01*
X169187637Y-93833272D01*
X169146288Y-93823995D01*
X169086416Y-93777219D01*
X168997176Y-93685106D01*
X168844739Y-93518697D01*
X169009948Y-93353489D01*
X169174939Y-93518480D01*
G37*
G36*
X169198258Y-93903124D02*
G01*
X169257203Y-93954761D01*
X169263472Y-93961051D01*
X169310929Y-94017558D01*
X169308809Y-94060849D01*
X169257094Y-94119861D01*
X169250797Y-94126139D01*
X169194227Y-94173670D01*
X169150940Y-94171608D01*
X169091995Y-94119970D01*
X169085726Y-94113681D01*
X169038268Y-94057174D01*
X169040387Y-94013883D01*
X169092103Y-93954870D01*
X169098400Y-93948593D01*
X169154970Y-93901061D01*
X169198258Y-93903124D01*
G37*
G36*
X167760726Y-92104267D02*
G01*
X167678121Y-92186871D01*
X167618000Y-92238282D01*
X167569047Y-92241809D01*
X167501221Y-92198779D01*
X167406925Y-92128085D01*
X167258824Y-92263199D01*
X167190968Y-92323344D01*
X167115256Y-92385911D01*
X167069629Y-92417881D01*
X167042435Y-92416184D01*
X166990357Y-92382157D01*
X166909600Y-92308242D01*
X166793249Y-92188703D01*
X166557962Y-91939956D01*
X166723171Y-91774748D01*
X166899964Y-91927939D01*
X167076755Y-92081130D01*
X167253749Y-91927707D01*
X167430742Y-91774283D01*
X167760726Y-92104267D01*
G37*
G36*
X168726640Y-93778217D02*
G01*
X168745709Y-93798496D01*
X168774270Y-93854996D01*
X168750288Y-93911503D01*
X168713327Y-93952391D01*
X168654445Y-93995829D01*
X168611821Y-93996403D01*
X168548193Y-93945148D01*
X168518211Y-93898844D01*
X168521536Y-93851584D01*
X168573326Y-93790111D01*
X168631685Y-93739186D01*
X168674528Y-93735314D01*
X168726640Y-93778217D01*
G37*
G36*
X169198025Y-94256910D02*
G01*
X169256971Y-94308547D01*
X169295121Y-94350512D01*
X169316416Y-94402043D01*
X169292404Y-94453619D01*
X169255452Y-94494506D01*
X169196661Y-94537900D01*
X169148739Y-94536169D01*
X169078624Y-94475433D01*
X169037329Y-94415915D01*
X169040150Y-94369071D01*
X169091870Y-94308656D01*
X169098169Y-94302379D01*
X169154737Y-94254847D01*
X169198025Y-94256910D01*
G37*
G36*
X167082778Y-92492752D02*
G01*
X167145710Y-92551304D01*
X167165133Y-92570942D01*
X167211463Y-92627143D01*
X167213279Y-92667248D01*
X167174614Y-92713949D01*
X167120331Y-92759269D01*
X167074060Y-92780841D01*
X167031768Y-92758137D01*
X166975838Y-92702287D01*
X166945275Y-92659568D01*
X166937968Y-92605616D01*
X166980618Y-92539620D01*
X167003162Y-92512843D01*
X167042994Y-92480479D01*
X167082778Y-92492752D01*
G37*
G36*
X168373320Y-93070878D02*
G01*
X168433954Y-93109916D01*
X168491056Y-93113925D01*
X168562005Y-93070754D01*
X168622824Y-93031074D01*
X168672761Y-93027761D01*
X168727105Y-93070646D01*
X168766714Y-93118199D01*
X168769961Y-93167039D01*
X168726996Y-93235746D01*
X168687878Y-93296432D01*
X168683794Y-93353539D01*
X168726873Y-93424431D01*
X168766473Y-93485198D01*
X168769720Y-93535132D01*
X168726764Y-93589531D01*
X168679160Y-93629203D01*
X168630315Y-93632514D01*
X168561665Y-93589640D01*
X168467368Y-93518945D01*
X168289335Y-93683128D01*
X168111301Y-93847312D01*
X168029838Y-93765849D01*
X168026397Y-93762402D01*
X167977660Y-93705083D01*
X167978728Y-93661685D01*
X168029553Y-93603206D01*
X168041076Y-93591581D01*
X168083159Y-93538280D01*
X168079351Y-93492512D01*
X168029669Y-93426313D01*
X167948606Y-93330600D01*
X168279023Y-93000183D01*
X168373320Y-93070878D01*
G37*
G36*
X166358410Y-92104153D02*
G01*
X166536228Y-92268104D01*
X166366884Y-92437448D01*
X166202934Y-92259629D01*
X166038984Y-92081812D01*
X166180591Y-91940204D01*
X166358410Y-92104153D01*
G37*
G36*
X166746273Y-92489592D02*
G01*
X166805218Y-92541229D01*
X166811487Y-92547519D01*
X166858944Y-92604026D01*
X166856825Y-92647317D01*
X166805110Y-92706329D01*
X166798812Y-92712607D01*
X166742242Y-92760138D01*
X166698954Y-92758075D01*
X166640009Y-92706437D01*
X166633740Y-92700148D01*
X166586283Y-92643642D01*
X166588403Y-92600351D01*
X166640118Y-92541338D01*
X166646415Y-92535061D01*
X166702985Y-92487529D01*
X166746273Y-92489592D01*
G37*
G36*
X168467542Y-94214092D02*
G01*
X168821734Y-94555222D01*
X168654002Y-94722954D01*
X168312873Y-94368762D01*
X167971742Y-94014570D01*
X168113350Y-93872963D01*
X168467542Y-94214092D01*
G37*
G36*
X169032585Y-94775903D02*
G01*
X169091530Y-94827541D01*
X169097799Y-94833831D01*
X169145256Y-94890338D01*
X169143136Y-94933628D01*
X169091421Y-94992641D01*
X169085124Y-94998918D01*
X169028554Y-95046450D01*
X168985267Y-95044388D01*
X168926322Y-94992750D01*
X168920053Y-94986461D01*
X168872595Y-94929954D01*
X168874714Y-94886662D01*
X168926430Y-94827649D01*
X168932727Y-94821373D01*
X168989297Y-94773841D01*
X169032585Y-94775903D01*
G37*
G36*
X169964775Y-93954297D02*
G01*
X169970460Y-93960000D01*
X170018301Y-94016760D01*
X170016661Y-94059968D01*
X169965699Y-94118363D01*
X169884129Y-94199933D01*
X170048079Y-94377751D01*
X170212029Y-94555570D01*
X169818160Y-94962409D01*
X169718321Y-95064713D01*
X169594821Y-95188832D01*
X169491557Y-95289833D01*
X169417144Y-95359321D01*
X169380201Y-95388908D01*
X169333414Y-95383341D01*
X169266752Y-95324395D01*
X169197394Y-95240221D01*
X169444417Y-94979819D01*
X169691440Y-94719415D01*
X169609742Y-94637717D01*
X169603978Y-94631936D01*
X169556774Y-94575695D01*
X169558943Y-94532450D01*
X169610648Y-94473414D01*
X169616925Y-94467118D01*
X169664456Y-94410548D01*
X169662394Y-94367260D01*
X169610757Y-94308315D01*
X169528261Y-94225819D01*
X169882279Y-93871801D01*
X169964775Y-93954297D01*
G37*
G36*
X167925252Y-92976829D02*
G01*
X167598872Y-93330830D01*
X167761830Y-93507615D01*
X167924788Y-93684401D01*
X167856758Y-93766996D01*
X167823971Y-93812080D01*
X167814946Y-93866819D01*
X167856650Y-93932096D01*
X167924571Y-94014601D01*
X167760388Y-94192634D01*
X167596204Y-94370668D01*
X167514169Y-94288633D01*
X167464222Y-94230938D01*
X167459389Y-94184006D01*
X167501452Y-94122509D01*
X167539294Y-94068415D01*
X167543077Y-94014346D01*
X167500075Y-93944122D01*
X167461037Y-93883487D01*
X167457027Y-93826385D01*
X167500198Y-93755437D01*
X167571018Y-93661048D01*
X167418897Y-93494970D01*
X167266777Y-93328892D01*
X167592188Y-93003481D01*
X167511125Y-92907768D01*
X167498780Y-92893077D01*
X167457342Y-92832685D01*
X167461889Y-92787545D01*
X167512665Y-92729451D01*
X167595270Y-92646847D01*
X167925252Y-92976829D01*
G37*
G36*
X166273633Y-92707476D02*
G01*
X166533711Y-92954157D01*
X166722490Y-92812520D01*
X167241035Y-93331064D01*
X167158430Y-93413668D01*
X167098309Y-93465079D01*
X167049356Y-93468607D01*
X166981530Y-93425577D01*
X166920763Y-93385977D01*
X166870830Y-93382730D01*
X166816430Y-93425686D01*
X166776759Y-93473291D01*
X166773447Y-93522135D01*
X166816321Y-93590785D01*
X166887017Y-93685082D01*
X166755218Y-93831212D01*
X166695645Y-93894404D01*
X166623561Y-93963120D01*
X166576872Y-93998098D01*
X166530157Y-93994953D01*
X166460966Y-93934680D01*
X166426168Y-93886637D01*
X166418022Y-93832544D01*
X166459638Y-93767913D01*
X166492425Y-93722828D01*
X166501451Y-93668089D01*
X166459747Y-93602812D01*
X166423255Y-93550426D01*
X166419551Y-93496341D01*
X166462644Y-93425918D01*
X166533463Y-93331529D01*
X166192334Y-92977336D01*
X165851204Y-92623145D01*
X166013554Y-92460795D01*
X166273633Y-92707476D01*
G37*
G36*
X165330898Y-92844307D02*
G01*
X165389842Y-92895944D01*
X165427994Y-92937909D01*
X165449288Y-92989440D01*
X165425276Y-93041016D01*
X165388324Y-93081902D01*
X165329533Y-93125297D01*
X165281611Y-93123565D01*
X165211496Y-93062830D01*
X165170201Y-93003311D01*
X165173022Y-92956468D01*
X165224743Y-92896053D01*
X165231040Y-92889775D01*
X165287610Y-92842244D01*
X165330898Y-92844307D01*
G37*
G36*
X166344654Y-93520338D02*
G01*
X166273850Y-93591142D01*
X166226245Y-93630813D01*
X166177401Y-93634125D01*
X166108750Y-93591250D01*
X166067626Y-93563176D01*
X166005816Y-93544606D01*
X165948402Y-93572510D01*
X165898860Y-93608928D01*
X165841459Y-93644746D01*
X165804668Y-93640930D01*
X165742000Y-93594349D01*
X165648129Y-93498620D01*
X165495692Y-93332210D01*
X165826109Y-93001794D01*
X166344654Y-93520338D01*
G37*
G36*
X166015191Y-91410282D02*
G01*
X166344519Y-91752706D01*
X166262563Y-91834662D01*
X166256678Y-91840529D01*
X166200325Y-91887855D01*
X166157074Y-91885751D01*
X166098111Y-91834122D01*
X166092677Y-91828703D01*
X166035800Y-91780687D01*
X165992626Y-91782112D01*
X165934506Y-91832736D01*
X165885849Y-91888829D01*
X165880514Y-91936039D01*
X165922605Y-91997843D01*
X165963758Y-92057186D01*
X165960929Y-92104023D01*
X165909208Y-92164446D01*
X165850709Y-92215075D01*
X165803889Y-92219777D01*
X165742605Y-92177843D01*
X165685901Y-92137924D01*
X165638275Y-92138437D01*
X165578532Y-92188711D01*
X165498457Y-92268786D01*
X165662407Y-92446603D01*
X165826356Y-92624422D01*
X165743752Y-92707026D01*
X165683631Y-92758437D01*
X165634677Y-92761965D01*
X165566852Y-92718935D01*
X165557701Y-92712979D01*
X165508108Y-92680700D01*
X165453243Y-92675283D01*
X165389961Y-92716270D01*
X165344876Y-92749057D01*
X165290138Y-92758082D01*
X165224860Y-92716378D01*
X165172474Y-92679887D01*
X165118390Y-92676182D01*
X165047966Y-92719276D01*
X164980601Y-92762197D01*
X164931616Y-92759195D01*
X164871081Y-92707599D01*
X164856366Y-92692721D01*
X164815681Y-92640198D01*
X164820585Y-92594494D01*
X164871075Y-92527819D01*
X164886142Y-92509891D01*
X164926526Y-92451303D01*
X164921535Y-92410695D01*
X164871183Y-92362718D01*
X164818936Y-92326334D01*
X164764848Y-92322630D01*
X164694413Y-92365723D01*
X164634687Y-92404521D01*
X164579999Y-92409216D01*
X164516025Y-92367334D01*
X164469945Y-92333520D01*
X164419579Y-92324118D01*
X164366650Y-92363501D01*
X164314071Y-92407340D01*
X164267593Y-92428899D01*
X164225301Y-92406194D01*
X164169371Y-92350344D01*
X164149279Y-92325129D01*
X164129983Y-92287341D01*
X164138030Y-92246944D01*
X164178945Y-92188050D01*
X164258255Y-92094774D01*
X164411678Y-91917780D01*
X164343400Y-91834860D01*
X164275616Y-91752540D01*
X164624058Y-91752540D01*
X164870740Y-92012619D01*
X165117420Y-92272698D01*
X165663442Y-91726676D01*
X165403364Y-91479995D01*
X165143284Y-91233314D01*
X164624058Y-91752540D01*
X164275616Y-91752540D01*
X164275121Y-91751940D01*
X164437913Y-91575355D01*
X164600705Y-91398771D01*
X164435713Y-91233778D01*
X164257680Y-91397962D01*
X164079646Y-91562145D01*
X163561101Y-91043601D01*
X163739135Y-90879418D01*
X163917168Y-90715234D01*
X164093960Y-90868424D01*
X164270753Y-91021616D01*
X164353762Y-90953228D01*
X164436772Y-90884841D01*
X164789514Y-91209961D01*
X164954723Y-91044753D01*
X164624739Y-90714769D01*
X164530350Y-90785588D01*
X164462985Y-90828509D01*
X164414000Y-90825507D01*
X164353465Y-90773912D01*
X164270969Y-90691416D01*
X164423540Y-90525974D01*
X164789963Y-90525974D01*
X164951428Y-90687439D01*
X165036705Y-90768380D01*
X165105710Y-90826083D01*
X165143537Y-90848081D01*
X165181703Y-90831022D01*
X165240359Y-90782685D01*
X165277376Y-90751004D01*
X165325489Y-90744128D01*
X165389734Y-90786519D01*
X165449077Y-90827671D01*
X165495913Y-90824842D01*
X165556336Y-90773122D01*
X165607262Y-90714762D01*
X165611133Y-90671919D01*
X165568230Y-90619807D01*
X165520677Y-90580198D01*
X165471837Y-90576951D01*
X165403130Y-90619915D01*
X165308741Y-90690735D01*
X165130923Y-90526784D01*
X164953104Y-90362834D01*
X164789963Y-90525974D01*
X164423540Y-90525974D01*
X164599337Y-90335348D01*
X164517874Y-90253885D01*
X164514475Y-90250480D01*
X164465710Y-90193143D01*
X164466746Y-90149749D01*
X164517519Y-90091312D01*
X164573613Y-90042656D01*
X164620822Y-90037321D01*
X164682627Y-90079412D01*
X164736671Y-90117183D01*
X164790735Y-90120895D01*
X164861015Y-90077800D01*
X164955404Y-90006981D01*
X165308147Y-90332101D01*
X165474166Y-90195326D01*
X165650959Y-90348517D01*
X165827750Y-90501708D01*
X165910354Y-90419104D01*
X165960983Y-90360603D01*
X165965685Y-90313784D01*
X165923751Y-90252501D01*
X165884080Y-90196299D01*
X165884153Y-90148511D01*
X165934157Y-90088888D01*
X165987815Y-90042230D01*
X166035428Y-90036236D01*
X166097769Y-90078483D01*
X166157113Y-90119635D01*
X166203949Y-90116806D01*
X166264372Y-90065086D01*
X166315297Y-90006726D01*
X166319169Y-89963883D01*
X166276266Y-89911771D01*
X166228713Y-89872162D01*
X166179873Y-89868915D01*
X166111166Y-89911879D01*
X166016777Y-89982699D01*
X165840405Y-89820138D01*
X165664034Y-89657579D01*
X165581024Y-89725966D01*
X165498015Y-89794354D01*
X165319122Y-89629371D01*
X165140228Y-89464389D01*
X165319338Y-89299170D01*
X165498448Y-89133953D01*
X165580954Y-89201875D01*
X165625996Y-89234602D01*
X165680723Y-89243556D01*
X165746054Y-89201767D01*
X165803936Y-89161756D01*
X165850716Y-89164594D01*
X165911144Y-89216232D01*
X165961696Y-89274666D01*
X165966337Y-89321479D01*
X165924322Y-89382818D01*
X165884577Y-89439071D01*
X165884588Y-89486859D01*
X165934513Y-89546417D01*
X165988109Y-89593005D01*
X166035715Y-89598937D01*
X166098112Y-89556608D01*
X166182202Y-89487290D01*
X166358995Y-89640481D01*
X166535786Y-89793672D01*
X166700994Y-89628464D01*
X166547804Y-89451671D01*
X166429671Y-89315339D01*
X166772998Y-89315339D01*
X166805854Y-89370665D01*
X166865002Y-89418789D01*
X166932981Y-89410444D01*
X167007950Y-89337022D01*
X167020207Y-89318905D01*
X167029179Y-89264999D01*
X166984302Y-89203735D01*
X166933184Y-89161302D01*
X166890428Y-89164072D01*
X166830987Y-89215629D01*
X166785100Y-89267441D01*
X166772998Y-89315339D01*
X166429671Y-89315339D01*
X166394612Y-89274879D01*
X166462643Y-89192285D01*
X166495430Y-89147200D01*
X166504455Y-89092460D01*
X166462751Y-89027185D01*
X166422817Y-88969355D01*
X166425716Y-88922571D01*
X166477433Y-88862075D01*
X166535477Y-88811748D01*
X166582269Y-88806506D01*
X166642914Y-88847712D01*
X166725791Y-88915952D01*
X166890619Y-88764999D01*
X167055446Y-88614045D01*
X167137942Y-88696541D01*
X167188494Y-88754975D01*
X167193135Y-88801788D01*
X167151120Y-88863127D01*
X167111375Y-88919381D01*
X167111386Y-88967168D01*
X167161311Y-89026726D01*
X167214907Y-89073314D01*
X167262513Y-89079246D01*
X167324909Y-89036917D01*
X167384307Y-88995687D01*
X167431140Y-88998453D01*
X167491495Y-89050095D01*
X167542047Y-89108528D01*
X167546689Y-89155341D01*
X167504673Y-89216681D01*
X167464150Y-89274540D01*
X167465565Y-89321823D01*
X167516358Y-89381772D01*
X167521694Y-89387093D01*
X167577703Y-89434079D01*
X167620909Y-89431865D01*
X167679965Y-89380171D01*
X167686262Y-89373894D01*
X167742831Y-89326362D01*
X167786120Y-89328425D01*
X167845064Y-89380062D01*
X167851333Y-89386352D01*
X167898790Y-89442859D01*
X167896671Y-89486150D01*
X167844956Y-89545162D01*
X167838659Y-89551440D01*
X167782089Y-89598971D01*
X167738801Y-89596908D01*
X167679856Y-89545270D01*
X167674422Y-89539852D01*
X167617545Y-89491835D01*
X167574371Y-89493260D01*
X167516251Y-89543884D01*
X167460158Y-89592542D01*
X167412948Y-89597876D01*
X167351143Y-89555785D01*
X167291801Y-89514632D01*
X167244964Y-89517461D01*
X167214481Y-89543553D01*
X167184540Y-89569182D01*
X167133615Y-89627542D01*
X167129744Y-89670384D01*
X167172647Y-89722497D01*
X167220200Y-89762106D01*
X167269041Y-89765353D01*
X167337747Y-89722389D01*
X167396541Y-89684075D01*
X167451413Y-89678586D01*
X167514641Y-89719491D01*
X167559684Y-89752219D01*
X167614411Y-89761172D01*
X167679741Y-89719383D01*
X167762336Y-89651353D01*
X167939080Y-89814270D01*
X168115825Y-89977189D01*
X167950649Y-90156255D01*
X167785473Y-90335323D01*
X167856168Y-90429618D01*
X167895769Y-90490386D01*
X167899016Y-90540319D01*
X167856060Y-90594719D01*
X167785256Y-90665523D01*
X167608512Y-90502605D01*
X167431767Y-90339687D01*
X167596944Y-90160619D01*
X167762119Y-89981552D01*
X167599992Y-89790126D01*
X167246116Y-90144002D01*
X167162117Y-90074795D01*
X167102775Y-90033642D01*
X167055937Y-90036471D01*
X166995514Y-90088191D01*
X166944886Y-90146691D01*
X166940184Y-90193511D01*
X166982118Y-90254795D01*
X167022012Y-90311451D01*
X167021542Y-90359092D01*
X166971295Y-90418824D01*
X166891264Y-90498854D01*
X166725186Y-90346734D01*
X166559109Y-90194614D01*
X166393900Y-90359822D01*
X166695239Y-90688939D01*
X166792165Y-90606768D01*
X166889092Y-90524597D01*
X167219075Y-90854580D01*
X167148256Y-90948969D01*
X167105335Y-91016335D01*
X167108337Y-91065319D01*
X167159932Y-91125854D01*
X167219986Y-91177187D01*
X167268936Y-91180649D01*
X167336818Y-91137531D01*
X167431207Y-91066712D01*
X167948465Y-91557233D01*
X168114961Y-91420049D01*
X168633505Y-91938594D01*
X168562702Y-92009397D01*
X168515097Y-92049068D01*
X168466253Y-92052380D01*
X168397602Y-92009505D01*
X168330293Y-91966673D01*
X168281304Y-91969739D01*
X168220701Y-92021415D01*
X168169290Y-92081536D01*
X168165763Y-92130490D01*
X168208792Y-92198315D01*
X168279487Y-92292611D01*
X167949070Y-92623028D01*
X167866574Y-92540532D01*
X167815243Y-92480479D01*
X167811780Y-92431530D01*
X167854898Y-92363647D01*
X167893211Y-92304854D01*
X167898700Y-92249981D01*
X167857796Y-92186753D01*
X167825068Y-92141711D01*
X167816115Y-92086983D01*
X167857904Y-92021653D01*
X167925934Y-91939058D01*
X167407389Y-91420513D01*
X167053402Y-91727360D01*
X166982691Y-91656649D01*
X166943082Y-91609096D01*
X166939835Y-91560256D01*
X166982800Y-91491549D01*
X167053619Y-91397160D01*
X166723635Y-91067176D01*
X166546642Y-91220600D01*
X166369648Y-91374023D01*
X166204657Y-91209032D01*
X166535799Y-90850075D01*
X166370082Y-90713623D01*
X166193498Y-90876414D01*
X166016913Y-91039207D01*
X165933993Y-90970929D01*
X165875742Y-90930655D01*
X165828944Y-90933535D01*
X165768468Y-90985254D01*
X165685864Y-91067858D01*
X166015191Y-91410282D01*
G37*
G36*
X164623559Y-92490985D02*
G01*
X164682504Y-92542623D01*
X164688773Y-92548913D01*
X164736230Y-92605419D01*
X164734111Y-92648710D01*
X164682396Y-92707723D01*
X164676098Y-92714000D01*
X164619528Y-92761532D01*
X164576240Y-92759470D01*
X164517295Y-92707831D01*
X164511026Y-92701542D01*
X164463569Y-92645036D01*
X164465689Y-92601744D01*
X164517404Y-92542731D01*
X164523701Y-92536454D01*
X164580271Y-92488923D01*
X164623559Y-92490985D01*
G37*
G36*
X165330666Y-93198092D02*
G01*
X165389611Y-93249729D01*
X165395880Y-93256020D01*
X165443336Y-93312526D01*
X165441217Y-93355817D01*
X165389502Y-93414830D01*
X165383205Y-93421107D01*
X165326635Y-93468639D01*
X165283347Y-93466576D01*
X165224402Y-93414938D01*
X165218133Y-93408649D01*
X165170676Y-93352142D01*
X165172795Y-93308851D01*
X165224511Y-93249838D01*
X165230808Y-93243561D01*
X165287378Y-93196029D01*
X165330666Y-93198092D01*
G37*
G36*
X163279843Y-91493980D02*
G01*
X163298912Y-91514260D01*
X163327472Y-91570759D01*
X163303491Y-91627267D01*
X163266529Y-91668153D01*
X163207648Y-91711593D01*
X163165024Y-91712166D01*
X163101395Y-91660911D01*
X163071414Y-91614608D01*
X163074738Y-91567347D01*
X163126528Y-91505874D01*
X163184888Y-91454949D01*
X163227731Y-91451077D01*
X163279843Y-91493980D01*
G37*
G36*
X165033531Y-92893650D02*
G01*
X165083479Y-92951346D01*
X165088312Y-92998277D01*
X165046249Y-93059776D01*
X165008406Y-93113869D01*
X165004623Y-93167938D01*
X165047625Y-93238161D01*
X165069899Y-93270114D01*
X165094596Y-93336964D01*
X165071258Y-93395034D01*
X165034365Y-93435921D01*
X164976099Y-93479055D01*
X164966027Y-93482259D01*
X164924678Y-93472981D01*
X164864806Y-93426205D01*
X164775565Y-93334092D01*
X164623129Y-93167683D01*
X164787313Y-92989650D01*
X164951496Y-92811615D01*
X165033531Y-92893650D01*
G37*
G36*
X165683987Y-93905432D02*
G01*
X165742931Y-93957069D01*
X165781083Y-93999034D01*
X165802377Y-94050565D01*
X165778365Y-94102141D01*
X165741413Y-94143027D01*
X165682622Y-94186422D01*
X165634699Y-94184690D01*
X165564585Y-94123954D01*
X165523290Y-94064436D01*
X165526110Y-94017594D01*
X165577832Y-93957178D01*
X165584129Y-93950900D01*
X165640698Y-93903369D01*
X165683987Y-93905432D01*
G37*
G36*
X163715551Y-91585467D02*
G01*
X163891770Y-91747880D01*
X163821524Y-91833047D01*
X163782763Y-91888324D01*
X163778970Y-91942384D01*
X163821974Y-92012510D01*
X163861013Y-92073145D01*
X163865021Y-92130247D01*
X163821849Y-92201195D01*
X163783051Y-92260921D01*
X163778357Y-92315609D01*
X163820238Y-92379584D01*
X163860686Y-92437391D01*
X163859209Y-92484674D01*
X163808337Y-92544692D01*
X163727229Y-92625800D01*
X163210749Y-92109320D01*
X163374932Y-91931286D01*
X163539116Y-91753253D01*
X163468420Y-91658956D01*
X163428820Y-91598190D01*
X163425573Y-91548256D01*
X163468529Y-91493856D01*
X163539332Y-91423053D01*
X163715551Y-91585467D01*
G37*
G36*
X164599544Y-93167699D02*
G01*
X164532673Y-93234569D01*
X164478881Y-93279962D01*
X164434356Y-93301460D01*
X164413464Y-93290064D01*
X164352087Y-93240029D01*
X164263607Y-93159306D01*
X164159349Y-93057921D01*
X163915790Y-92814362D01*
X164080998Y-92649153D01*
X164599544Y-93167699D01*
G37*
G36*
X165389378Y-93603515D02*
G01*
X165440710Y-93663569D01*
X165444173Y-93712519D01*
X165401055Y-93780401D01*
X165362257Y-93840127D01*
X165357562Y-93894814D01*
X165399444Y-93958789D01*
X165440386Y-94017665D01*
X165437969Y-94064634D01*
X165386508Y-94124930D01*
X165304365Y-94207073D01*
X165140415Y-94029254D01*
X164976466Y-93851437D01*
X165306883Y-93521020D01*
X165389378Y-93603515D01*
G37*
G36*
X166532767Y-94392886D02*
G01*
X166886335Y-94722853D01*
X167051543Y-94557645D01*
X166887594Y-94379827D01*
X166723644Y-94202008D01*
X166803719Y-94121934D01*
X166858131Y-94074656D01*
X166905618Y-94068868D01*
X166967792Y-94111066D01*
X167021836Y-94148837D01*
X167075901Y-94152550D01*
X167146180Y-94109454D01*
X167213546Y-94066534D01*
X167262531Y-94069536D01*
X167323066Y-94121132D01*
X167374398Y-94181186D01*
X167377861Y-94230135D01*
X167334742Y-94298017D01*
X167295944Y-94357742D01*
X167291250Y-94412431D01*
X167333131Y-94476405D01*
X167402338Y-94560403D01*
X166532085Y-95430657D01*
X166369159Y-95267731D01*
X166697525Y-94911663D01*
X166615030Y-94829168D01*
X166554976Y-94777835D01*
X166506027Y-94774372D01*
X166438145Y-94817490D01*
X166378419Y-94856289D01*
X166323731Y-94860984D01*
X166259756Y-94819102D01*
X166201950Y-94778655D01*
X166154666Y-94780132D01*
X166094649Y-94831003D01*
X166091258Y-94834388D01*
X166034134Y-94882903D01*
X165990735Y-94881677D01*
X165932077Y-94830649D01*
X165850614Y-94749185D01*
X166014798Y-94571152D01*
X166178981Y-94393118D01*
X166108286Y-94298821D01*
X166068685Y-94238055D01*
X166065438Y-94188122D01*
X166108394Y-94133722D01*
X166179198Y-94062918D01*
X166532767Y-94392886D01*
G37*
G36*
X166720647Y-95619219D02*
G01*
X166720863Y-95619002D01*
X167050847Y-95619002D01*
X167922946Y-96491100D01*
X168819791Y-95594255D01*
X167947692Y-94722156D01*
X167050847Y-95619002D01*
X166720863Y-95619002D01*
X167947909Y-94391956D01*
X169173561Y-95617608D01*
X167946299Y-96844870D01*
X166720647Y-95619219D01*
G37*
G36*
X164633024Y-96458528D02*
G01*
X164620622Y-96494519D01*
X164585244Y-96572758D01*
X164533907Y-96677643D01*
X164532014Y-96681398D01*
X164476435Y-96792113D01*
X164432104Y-96881250D01*
X164408465Y-96929822D01*
X164387700Y-96940837D01*
X164338349Y-96912352D01*
X164255143Y-96835502D01*
X164185812Y-96761473D01*
X164150998Y-96707926D01*
X164160822Y-96682178D01*
X164161570Y-96681832D01*
X164211762Y-96657370D01*
X164301902Y-96612524D01*
X164413001Y-96556738D01*
X164423427Y-96551495D01*
X164526498Y-96501342D01*
X164601477Y-96467798D01*
X164632762Y-96457883D01*
X164633024Y-96458528D01*
G37*
G36*
X166890373Y-99880690D02*
G01*
X166499951Y-100271117D01*
X166357436Y-100311162D01*
X166235443Y-100327814D01*
X166071220Y-100302750D01*
X166069901Y-100302305D01*
X166049039Y-100294752D01*
X166027125Y-100284834D01*
X166001736Y-100270194D01*
X165970446Y-100248476D01*
X165930829Y-100217323D01*
X165880460Y-100174377D01*
X165816914Y-100117281D01*
X165737766Y-100043679D01*
X165640590Y-99951212D01*
X165522960Y-99837525D01*
X165382451Y-99700261D01*
X165216637Y-99537060D01*
X165023096Y-99345568D01*
X164799398Y-99123428D01*
X164543121Y-98868280D01*
X164251838Y-98577770D01*
X163958583Y-98284945D01*
X165224101Y-98284945D01*
X165256320Y-98431696D01*
X165285531Y-98491703D01*
X165403697Y-98641066D01*
X165564006Y-98756421D01*
X165749840Y-98824539D01*
X165856339Y-98846656D01*
X165856403Y-98750440D01*
X165856227Y-98727381D01*
X165847638Y-98674082D01*
X165812564Y-98642050D01*
X165732524Y-98610393D01*
X165650919Y-98572807D01*
X165542019Y-98495654D01*
X165460243Y-98406650D01*
X165423565Y-98322541D01*
X165427475Y-98239413D01*
X165471901Y-98168188D01*
X165553742Y-98142695D01*
X165665065Y-98164765D01*
X165797936Y-98236225D01*
X165900330Y-98300474D01*
X166024507Y-98351664D01*
X166133692Y-98355415D01*
X166243636Y-98314491D01*
X166312002Y-98268564D01*
X166403348Y-98155257D01*
X166438133Y-98019857D01*
X166411342Y-97875484D01*
X166364527Y-97791714D01*
X166260533Y-97674052D01*
X166134492Y-97579210D01*
X166009218Y-97526964D01*
X165967943Y-97520120D01*
X165921054Y-97530885D01*
X165898361Y-97584860D01*
X165896080Y-97639986D01*
X165940861Y-97695368D01*
X166086451Y-97786690D01*
X166197178Y-97889117D01*
X166243638Y-97986056D01*
X166224861Y-98076204D01*
X166198034Y-98111453D01*
X166114842Y-98152501D01*
X166005984Y-98133539D01*
X165873578Y-98054695D01*
X165830177Y-98024804D01*
X165795670Y-98010066D01*
X165685344Y-97962947D01*
X165544348Y-97951540D01*
X165417456Y-97984306D01*
X165314939Y-98054978D01*
X165247063Y-98157282D01*
X165224101Y-98284945D01*
X163958583Y-98284945D01*
X163923125Y-98249539D01*
X163554555Y-97881231D01*
X163263674Y-97590427D01*
X164500283Y-97590427D01*
X164512961Y-97681059D01*
X164542060Y-97741726D01*
X164558281Y-97775544D01*
X164655818Y-97891228D01*
X164772328Y-97968231D01*
X164789691Y-97973937D01*
X164877660Y-97988017D01*
X164984587Y-97991675D01*
X164993416Y-97991412D01*
X165061218Y-97986108D01*
X165118069Y-97969377D01*
X165178720Y-97932490D01*
X165257919Y-97866719D01*
X165370415Y-97763335D01*
X165461163Y-97675559D01*
X165578911Y-97543033D01*
X165649750Y-97427458D01*
X165679958Y-97317276D01*
X165675809Y-97200929D01*
X165644527Y-97097034D01*
X165556727Y-96968374D01*
X165432319Y-96873546D01*
X165286818Y-96823257D01*
X165135739Y-96828212D01*
X165054334Y-96849977D01*
X164999850Y-96876287D01*
X164997924Y-96909670D01*
X165041070Y-96960595D01*
X165107490Y-97003144D01*
X165222033Y-97023552D01*
X165251657Y-97024015D01*
X165367608Y-97060331D01*
X165444112Y-97145813D01*
X165471665Y-97271039D01*
X165470966Y-97299739D01*
X165460840Y-97356722D01*
X165430957Y-97413070D01*
X165371609Y-97484149D01*
X165273089Y-97585323D01*
X165172882Y-97682128D01*
X165093488Y-97747301D01*
X165028760Y-97782188D01*
X164963551Y-97797158D01*
X164892570Y-97795326D01*
X164788258Y-97748298D01*
X164718713Y-97657942D01*
X164698400Y-97538372D01*
X164697267Y-97505195D01*
X164675393Y-97426722D01*
X164636581Y-97356038D01*
X164592703Y-97311883D01*
X164555635Y-97313002D01*
X164555051Y-97313604D01*
X164524637Y-97378157D01*
X164505278Y-97479945D01*
X164500283Y-97590427D01*
X163263674Y-97590427D01*
X163143703Y-97470489D01*
X162688144Y-97014955D01*
X162445843Y-96772644D01*
X163540460Y-96772644D01*
X163560837Y-96798999D01*
X163615010Y-96847392D01*
X163619331Y-96850906D01*
X163679220Y-96887082D01*
X163740717Y-96886007D01*
X163830741Y-96847722D01*
X163964288Y-96780659D01*
X164307787Y-97124158D01*
X164231278Y-97260060D01*
X164216093Y-97287513D01*
X164182130Y-97364079D01*
X164184577Y-97415010D01*
X164222417Y-97463610D01*
X164275574Y-97504902D01*
X164310827Y-97510493D01*
X164314191Y-97505697D01*
X164341600Y-97454289D01*
X164389610Y-97357475D01*
X164452671Y-97227018D01*
X164525235Y-97074683D01*
X164601751Y-96912231D01*
X164676670Y-96751427D01*
X164744443Y-96604032D01*
X164799519Y-96481812D01*
X164836351Y-96396528D01*
X164852255Y-96353572D01*
X164860569Y-96282124D01*
X164827268Y-96235955D01*
X164818555Y-96230725D01*
X164784842Y-96224659D01*
X164731325Y-96233680D01*
X164650001Y-96260695D01*
X164532871Y-96308612D01*
X164371933Y-96380342D01*
X164159187Y-96478790D01*
X164118570Y-96497781D01*
X163937052Y-96582893D01*
X163779341Y-96657225D01*
X163654612Y-96716426D01*
X163572039Y-96756145D01*
X163540794Y-96772033D01*
X163540460Y-96772644D01*
X162445843Y-96772644D01*
X162233933Y-96560727D01*
X161823004Y-96149693D01*
X161672595Y-95999176D01*
X162781585Y-95999176D01*
X162833651Y-96064962D01*
X162835218Y-96066907D01*
X162861791Y-96089637D01*
X162902145Y-96100874D01*
X162966472Y-96099671D01*
X163064958Y-96085084D01*
X163207797Y-96056170D01*
X163405175Y-96011983D01*
X163924633Y-95893219D01*
X163613039Y-96217929D01*
X163301445Y-96542638D01*
X163441536Y-96682728D01*
X164361982Y-95762282D01*
X164306710Y-95707010D01*
X164280304Y-95684002D01*
X164244984Y-95667275D01*
X164194642Y-95661655D01*
X164119314Y-95668071D01*
X164009033Y-95687451D01*
X163853838Y-95720726D01*
X163643762Y-95768825D01*
X163189493Y-95874111D01*
X163505508Y-95544962D01*
X163821523Y-95215812D01*
X163749977Y-95159072D01*
X163678430Y-95102331D01*
X162781585Y-95999176D01*
X161672595Y-95999176D01*
X161454517Y-95780943D01*
X161126113Y-95452053D01*
X160835434Y-95160596D01*
X160580123Y-94904146D01*
X160427025Y-94749970D01*
X161508777Y-94749970D01*
X161626629Y-94867822D01*
X161902763Y-94591687D01*
X162000929Y-94495765D01*
X162095758Y-94409358D01*
X162156655Y-94362300D01*
X162177910Y-94359408D01*
X162176513Y-94369112D01*
X162157037Y-94434277D01*
X162119498Y-94537840D01*
X162070128Y-94662288D01*
X162045099Y-94723755D01*
X162005117Y-94831988D01*
X161990067Y-94901335D01*
X161997878Y-94947068D01*
X162026482Y-94984460D01*
X162048073Y-95003463D01*
X162087423Y-95019815D01*
X162143647Y-95015113D01*
X162231377Y-94987169D01*
X162365238Y-94933797D01*
X162640845Y-94819984D01*
X162393017Y-95091383D01*
X162145189Y-95362780D01*
X162202539Y-95435067D01*
X162259889Y-95507353D01*
X163186607Y-94580636D01*
X163116250Y-94525215D01*
X163101472Y-94514701D01*
X163063424Y-94500135D01*
X163010879Y-94501578D01*
X162932123Y-94521601D01*
X162815445Y-94562771D01*
X162649130Y-94627659D01*
X162625926Y-94636858D01*
X162478669Y-94693593D01*
X162356917Y-94737756D01*
X162272759Y-94765116D01*
X162238286Y-94771443D01*
X162237727Y-94769918D01*
X162247396Y-94727208D01*
X162277367Y-94636576D01*
X162323434Y-94510114D01*
X162381390Y-94359919D01*
X162404107Y-94302195D01*
X162461252Y-94151431D01*
X162495375Y-94046833D01*
X162509063Y-93976840D01*
X162504898Y-93929893D01*
X162485468Y-93894433D01*
X162432359Y-93826388D01*
X161732188Y-94526560D01*
X161508777Y-94749970D01*
X160427025Y-94749970D01*
X160357820Y-94680278D01*
X160166167Y-94486564D01*
X160002805Y-94320580D01*
X159865377Y-94179899D01*
X159751524Y-94062095D01*
X159665925Y-93972137D01*
X160754546Y-93972137D01*
X161025294Y-94256192D01*
X161066141Y-94298828D01*
X161178858Y-94412675D01*
X161257208Y-94483703D01*
X161308235Y-94517860D01*
X161338988Y-94521097D01*
X161368958Y-94497414D01*
X161439104Y-94432257D01*
X161539774Y-94334146D01*
X161662673Y-94211181D01*
X161799506Y-94071463D01*
X162217077Y-93640977D01*
X161652859Y-93050253D01*
X161509800Y-93193313D01*
X161957634Y-93641147D01*
X161698020Y-93900760D01*
X161509459Y-93712199D01*
X161429634Y-93633089D01*
X161364409Y-93574002D01*
X161323129Y-93550304D01*
X161293166Y-93555387D01*
X161261894Y-93582640D01*
X161238172Y-93608650D01*
X161228531Y-93637908D01*
X161246458Y-93676167D01*
X161298563Y-93736057D01*
X161391453Y-93830205D01*
X161580014Y-94018767D01*
X161320401Y-94278379D01*
X160869436Y-93827414D01*
X160811991Y-93899775D01*
X160754546Y-93972137D01*
X159665925Y-93972137D01*
X159658888Y-93964742D01*
X159585110Y-93885413D01*
X159527831Y-93821684D01*
X159484694Y-93771128D01*
X159453341Y-93731318D01*
X159431411Y-93699830D01*
X159416549Y-93674236D01*
X159406395Y-93652111D01*
X159398590Y-93631029D01*
X159373593Y-93512917D01*
X159388647Y-93343246D01*
X159428883Y-93200049D01*
X160976430Y-91652529D01*
X161518520Y-91652529D01*
X161527692Y-91775620D01*
X161536866Y-91898713D01*
X164653061Y-95014212D01*
X164669188Y-95030335D01*
X165133887Y-95494745D01*
X165553717Y-95913920D01*
X165930718Y-96289867D01*
X166266934Y-96624588D01*
X166564406Y-96920086D01*
X166825176Y-97178364D01*
X167051284Y-97401427D01*
X167244773Y-97591276D01*
X167407683Y-97749917D01*
X167542058Y-97879351D01*
X167649937Y-97981583D01*
X167733363Y-98058616D01*
X167794377Y-98112453D01*
X167835022Y-98145099D01*
X167857338Y-98158554D01*
X167932849Y-98170251D01*
X168033676Y-98158580D01*
X168036995Y-98157232D01*
X168062456Y-98140382D01*
X168105900Y-98104625D01*
X168169394Y-98047922D01*
X168255009Y-97968234D01*
X168364815Y-97863525D01*
X168500881Y-97731753D01*
X168665276Y-97570882D01*
X168860072Y-97378872D01*
X169087335Y-97153684D01*
X169349136Y-96893280D01*
X169647546Y-96595623D01*
X169984633Y-96258672D01*
X170362467Y-95880388D01*
X170783118Y-95458734D01*
X171248654Y-94991671D01*
X174375375Y-91853578D01*
X174375445Y-91746138D01*
X174375516Y-91638698D01*
X171237307Y-88488179D01*
X168099098Y-85337661D01*
X167975457Y-85328447D01*
X167851815Y-85319233D01*
X161518520Y-91652529D01*
X160976430Y-91652529D01*
X163555916Y-89073090D01*
X163815758Y-88813261D01*
X164312191Y-88316922D01*
X164764599Y-87864731D01*
X165175096Y-87454616D01*
X165545792Y-87084508D01*
X165878801Y-86752332D01*
X166176236Y-86456020D01*
X166440206Y-86193500D01*
X166672827Y-85962700D01*
X166876210Y-85761548D01*
X167052466Y-85587975D01*
X167203709Y-85439908D01*
X167332051Y-85315276D01*
X167439603Y-85212009D01*
X167528478Y-85128034D01*
X167600789Y-85061279D01*
X167658648Y-85009676D01*
X167704167Y-84971152D01*
X167739457Y-84943634D01*
X167766633Y-84925053D01*
X167787805Y-84913337D01*
X167805087Y-84906415D01*
X167812013Y-84904247D01*
X167929605Y-84883165D01*
X168042651Y-84884366D01*
X168158078Y-84902033D01*
X174797968Y-91541923D01*
X174815635Y-91657350D01*
X174816550Y-91663914D01*
X174816027Y-91779103D01*
X174793586Y-91894913D01*
X174790664Y-91903025D01*
X174781653Y-91921948D01*
X174766833Y-91945797D01*
X174744135Y-91976683D01*
X174711485Y-92016720D01*
X174666813Y-92068018D01*
X174608048Y-92132691D01*
X174533119Y-92212851D01*
X174439953Y-92310610D01*
X174326481Y-92428080D01*
X174190629Y-92567374D01*
X174030329Y-92730605D01*
X173843508Y-92919882D01*
X173628094Y-93137321D01*
X173382017Y-93385033D01*
X173103204Y-93665130D01*
X172789586Y-93979724D01*
X172439091Y-94330927D01*
X172049647Y-94720854D01*
X171619183Y-95151613D01*
X171145628Y-95625320D01*
X170626911Y-96144085D01*
X170248482Y-96522521D01*
X167688510Y-99082539D01*
X167685375Y-99085675D01*
X166890373Y-99880690D01*
G37*
D14*
X203883700Y-49371200D02*
X202512100Y-49371200D01*
X202512100Y-49371200D02*
X202461300Y-49371200D01*
X202461300Y-49371200D02*
X201204000Y-50615800D01*
X205407700Y-49485500D02*
X205306100Y-49485500D01*
X205255300Y-49422000D02*
X205255300Y-49409300D01*
X205255300Y-49409300D02*
X206550700Y-49409300D01*
X206550700Y-49409300D02*
X206576100Y-49409300D01*
X206576100Y-49409300D02*
X207198400Y-49904600D01*
X205255300Y-52431900D02*
X205255300Y-49422000D01*
X208912900Y-49472800D02*
X208989100Y-49472800D01*
X209065300Y-49409300D02*
X207820700Y-49409300D01*
X207820700Y-49409300D02*
X207236500Y-49891900D01*
X209065300Y-52406500D02*
X209065300Y-49422000D01*
X209801900Y-52000100D02*
X209713000Y-52000100D01*
X210144800Y-52000100D02*
X210208300Y-52000100D01*
X210284500Y-52063600D02*
X209674900Y-52063600D01*
X209674900Y-52063600D02*
X209649500Y-52063600D01*
X209649500Y-52063600D02*
X209649500Y-50044300D01*
X210284500Y-50044300D02*
X210284500Y-52063600D01*
X211783100Y-49434700D02*
X211668800Y-49434700D01*
X211910100Y-49358500D02*
X211605300Y-49358500D01*
X211605300Y-49358500D02*
X211605300Y-52393800D01*
X212087900Y-49447400D02*
X212151400Y-49434700D01*
X212202200Y-49358500D02*
X212214900Y-49358500D01*
X212214900Y-49358500D02*
X212227600Y-49358500D01*
X212227600Y-49358500D02*
X212227600Y-52508100D01*
X211922800Y-49358500D02*
X212202200Y-49358500D01*
D15*
X211922800Y-52431900D02*
X211922800Y-49701400D01*
X205585500Y-49714100D02*
X205585500Y-52317600D01*
X213700800Y-49701400D02*
X214704100Y-49701400D01*
X213078500Y-50311000D02*
X213078500Y-52241400D01*
X215301000Y-50349100D02*
X215301000Y-50590400D01*
X215301000Y-52317600D02*
X214716800Y-52889100D01*
X215288300Y-52330300D02*
X215288300Y-51568300D01*
X214729500Y-52889100D02*
X213688100Y-52889100D01*
D16*
X202960659Y-51276200D02*
G75*
G03X202960659Y-51276200I-359659J0D01*
G01*
D15*
X203109000Y-51276200D02*
X204328200Y-51276200D01*
D16*
X200026735Y-49536300D02*
G75*
G03X200026735Y-49536300I-359435J0D01*
G01*
D15*
X200035600Y-49891900D02*
X200899200Y-50785600D01*
D17*
X201458000Y-50882500D02*
X200899200Y-50882500D01*
D15*
X202575600Y-49701400D02*
X201483400Y-50768200D01*
X203797500Y-49701400D02*
X202575600Y-49701400D01*
X204328200Y-50184000D02*
X203845600Y-49676000D01*
X204328200Y-50209400D02*
X204328200Y-52444600D01*
X204328200Y-52444600D02*
X203896400Y-52876400D01*
X203896400Y-52876400D02*
X202575600Y-52876400D01*
X202575600Y-52876400D02*
X201432600Y-51758800D01*
D17*
X201432600Y-51657200D02*
X200899200Y-51657200D01*
D15*
X200086400Y-52571600D02*
X200924600Y-51758800D01*
D16*
X200085666Y-52927200D02*
G75*
G03X200085666Y-52927200I-329466J0D01*
G01*
X205948729Y-52838300D02*
G75*
G03X205948729Y-52838300I-363229J0D01*
G01*
D15*
X206487200Y-49726800D02*
X205598200Y-49726800D01*
D16*
X207569318Y-51555600D02*
G75*
G03X207569318Y-51555600I-370918J0D01*
G01*
D15*
X207122200Y-50234800D02*
X206487200Y-49726800D01*
X207198400Y-51022200D02*
X207198400Y-50311000D01*
X207909600Y-49726800D02*
X207300000Y-50234800D01*
X208747800Y-49726800D02*
X207909600Y-49726800D01*
X208747800Y-52317600D02*
X208747800Y-49726800D01*
D16*
X209094759Y-52825600D02*
G75*
G03X209094759Y-52825600I-359659J0D01*
G01*
X210327818Y-49625200D02*
G75*
G03X210327818Y-49625200I-373518J0D01*
G01*
D15*
X209967000Y-50158600D02*
X209967000Y-51758800D01*
D16*
X210333324Y-52851000D02*
G75*
G03X210333324Y-52851000I-366324J0D01*
G01*
D15*
X210479800Y-52876400D02*
X211465600Y-52876400D01*
X211465600Y-52876400D02*
X211922800Y-52419200D01*
X213091200Y-52279500D02*
X213650000Y-52863700D01*
X213700800Y-49714100D02*
X213065800Y-50323700D01*
X215301000Y-50298300D02*
X214793000Y-49790300D01*
D16*
X215625747Y-51073000D02*
G75*
G03X215625747Y-51073000I-337447J0D01*
G01*
D11*
X168936020Y-67478280D02*
X171369340Y-65057660D01*
D18*
X171899037Y-66314960D02*
G75*
G03X171899037Y-66314960I-1802237J0D01*
G01*
D19*
X163525000Y-68295000D02*
G75*
G03X163525000Y-68295000I-127000J0D01*
G01*
D18*
X163271000Y-64993000D02*
G75*
G02X165557000Y-64993000I1143000J-1143000D01*
G01*
X164541000Y-64231000D02*
X164541000Y-64358000D01*
X164541000Y-64358000D02*
X164160000Y-64358000D01*
X164160000Y-64358000D02*
X164160000Y-64231000D01*
X164160000Y-64231000D02*
X164541000Y-64231000D01*
X164414000Y-65755000D02*
X163779000Y-65755000D01*
X164541000Y-65628000D02*
X163652000Y-65628000D01*
X163652000Y-65628000D02*
X163652000Y-66009000D01*
X163652000Y-66009000D02*
X164541000Y-66009000D01*
X164541000Y-66009000D02*
X164541000Y-65628000D01*
X163144000Y-65628000D02*
X163144000Y-65247000D01*
X163144000Y-65247000D02*
X163017000Y-65247000D01*
X163017000Y-65247000D02*
X163017000Y-65628000D01*
X163144000Y-65247000D02*
X163144000Y-65374000D01*
X163144000Y-65120000D02*
X163017000Y-65501000D01*
X163144000Y-65247000D02*
X163144000Y-65374000D01*
X163271000Y-65120000D02*
X163271000Y-65628000D01*
X163271000Y-65628000D02*
X162890000Y-65628000D01*
X162890000Y-65628000D02*
X162890000Y-65120000D01*
X165303000Y-64993000D02*
X165303000Y-64485000D01*
X165303000Y-64485000D02*
X165176000Y-64485000D01*
X165176000Y-64485000D02*
X165176000Y-64993000D01*
X163799609Y-68295000D02*
G75*
G03X163799609Y-68295000I-401609J0D01*
G01*
X163398000Y-67787000D02*
X163271000Y-65755000D01*
X165303000Y-68295000D02*
X165303000Y-68676000D01*
X165303000Y-68676000D02*
X164795000Y-68676000D01*
X164795000Y-68676000D02*
X164795000Y-68422000D01*
X165811000Y-65120000D02*
X162890000Y-65120000D01*
X165303000Y-68295000D02*
X165557000Y-65247000D01*
X165303000Y-68295000D02*
X163906000Y-68295000D01*
X166319000Y-68676000D02*
X162255000Y-64739000D01*
X166446000Y-64612000D02*
X162255000Y-68803000D01*
D10*
X166601200Y-70048400D02*
X162181600Y-70048400D01*
X162181600Y-69946800D02*
X166550400Y-69946800D01*
X166601200Y-69743600D02*
X162130800Y-69743600D01*
X166601200Y-69591200D02*
X162181600Y-69591200D01*
X162130800Y-69845200D02*
X166550400Y-69845200D01*
X162130800Y-69692800D02*
X166550400Y-69692800D01*
X166601200Y-69540400D02*
X162130800Y-69540400D01*
X162130800Y-69438800D02*
X166550400Y-69438800D01*
X162080000Y-70150000D02*
X166652000Y-70150000D01*
X166652000Y-70150000D02*
X166652000Y-69388000D01*
X166652000Y-69388000D02*
X162080000Y-69388000D01*
X162080000Y-69388000D02*
X162080000Y-70150000D01*
D18*
X171285068Y-67104327D02*
X171285068Y-65404327D01*
X170713640Y-65404327D01*
X170570782Y-65485280D01*
X170499354Y-65566232D01*
X170427925Y-65728137D01*
X170427925Y-65970994D01*
X170499354Y-66132899D01*
X170570782Y-66213851D01*
X170713640Y-66294803D01*
X171285068Y-66294803D01*
X169785068Y-67104327D02*
X169785068Y-65404327D01*
X169785068Y-66051946D02*
X169642211Y-65970994D01*
X169356497Y-65970994D01*
X169213640Y-66051946D01*
X169142211Y-66132899D01*
X169070782Y-66294803D01*
X169070782Y-66780518D01*
X169142211Y-66942422D01*
X169213640Y-67023375D01*
X169356497Y-67104327D01*
X169642211Y-67104327D01*
X169785068Y-67023375D01*
M02*
