M48
; DRILL file {KiCad 5.99.0-unknown-d20d310~86~ubuntu18.04.1} date 13.12.2019 (пт) 15:00:46 EET
; FORMAT={-:-/ absolute / metric / decimal}
; #@! TF.CreationDate,2019-12-13T15:00:46+02:00
; #@! TF.GenerationSoftware,Kicad,Pcbnew,5.99.0-unknown-d20d310~86~ubuntu18.04.1
; #@! TF.FileFunction,Plated,1,2,PTH
FMAT,2
METRIC
T1C0.700
T2C0.762
T3C0.800
T4C1.000
T5C3.500
%
G90
G05
T1
X172.085Y-63.627
X172.085Y-71.247
X215.265Y-76.0
X207.7Y-78.7
X215.32Y-78.7
X168.148Y-63.627
X168.148Y-71.247
X165.8Y-76.2
X173.42Y-76.2
X186.055Y-52.705
X193.675Y-52.705
X186.055Y-46.355
X193.675Y-46.355
X186.055Y-49.53
X193.675Y-49.53
X207.645Y-73.3
X215.265Y-73.3
X207.645Y-76.0
T2
X188.53Y-41.2
X191.07Y-41.2
T3
X169.545Y-85.09
X177.165Y-85.09
X185.9Y-88.2
X185.9Y-90.2
X202.838Y-88.011
X204.634Y-89.807
X206.43Y-91.603
X208.226Y-82.623
X208.226Y-93.399
X210.022Y-84.419
X211.818Y-86.215
X213.614Y-88.011
X205.03Y-55.6
X207.57Y-55.6
X193.3Y-87.8
X193.3Y-90.3
X200.66Y-83.82
X204.196Y-80.284
X166.751Y-51.562
X168.547Y-53.358
X170.343Y-55.154
X172.139Y-46.174
X172.139Y-56.95
X173.935Y-47.97
X175.731Y-49.766
X177.527Y-51.562
X167.64Y-80.645
X175.26Y-80.645
X176.296Y-59.289
X179.832Y-55.753
X210.43Y-48.0
X212.97Y-48.0
T4
X154.5Y-67.5
X154.5Y-72.0
X161.0Y-67.5
X161.0Y-72.0
T5
X184.5Y-81.0
X195.5Y-81.0
T0
M30
