G04 #@! TF.GenerationSoftware,KiCad,Pcbnew,5.99.0-unknown-d20d310~86~ubuntu18.04.1*
G04 #@! TF.CreationDate,2019-12-13T15:01:05+02:00*
G04 #@! TF.ProjectId,FOSDEM-MUSIC-BOX_RevA,464f5344-454d-42d4-9d55-5349432d424f,rev?*
G04 #@! TF.SameCoordinates,Original*
G04 #@! TF.FileFunction,Legend,Top*
G04 #@! TF.FilePolarity,Positive*
%FSLAX46Y46*%
G04 Gerber Fmt 4.6, Leading zero omitted, Abs format (unit mm)*
G04 Created by KiCad (PCBNEW 5.99.0-unknown-d20d310~86~ubuntu18.04.1) date 2019-12-13 15:01:05*
%MOMM*%
%LPD*%
G04 APERTURE LIST*
%ADD10C,0.450000*%
%ADD11C,0.200000*%
%ADD12C,0.150000*%
%ADD13C,0.400000*%
%ADD14C,0.300000*%
%ADD15C,0.100000*%
%ADD16C,0.120000*%
%ADD17C,0.254000*%
%ADD18C,0.127000*%
%ADD19C,0.700000*%
%ADD20C,0.500000*%
G04 APERTURE END LIST*
D10*
X165314285Y-89322428D02*
X164714285Y-89322428D01*
X164714285Y-90265285D02*
X164714285Y-88465285D01*
X165571428Y-88465285D01*
X166600000Y-88465285D02*
X166942857Y-88465285D01*
X167114285Y-88551000D01*
X167285714Y-88722428D01*
X167371428Y-89065285D01*
X167371428Y-89665285D01*
X167285714Y-90008142D01*
X167114285Y-90179571D01*
X166942857Y-90265285D01*
X166600000Y-90265285D01*
X166428571Y-90179571D01*
X166257142Y-90008142D01*
X166171428Y-89665285D01*
X166171428Y-89065285D01*
X166257142Y-88722428D01*
X166428571Y-88551000D01*
X166600000Y-88465285D01*
X168057142Y-90179571D02*
X168314285Y-90265285D01*
X168742857Y-90265285D01*
X168914285Y-90179571D01*
X169000000Y-90093857D01*
X169085714Y-89922428D01*
X169085714Y-89751000D01*
X169000000Y-89579571D01*
X168914285Y-89493857D01*
X168742857Y-89408142D01*
X168400000Y-89322428D01*
X168228571Y-89236714D01*
X168142857Y-89151000D01*
X168057142Y-88979571D01*
X168057142Y-88808142D01*
X168142857Y-88636714D01*
X168228571Y-88551000D01*
X168400000Y-88465285D01*
X168828571Y-88465285D01*
X169085714Y-88551000D01*
X169857142Y-90265285D02*
X169857142Y-88465285D01*
X170285714Y-88465285D01*
X170542857Y-88551000D01*
X170714285Y-88722428D01*
X170800000Y-88893857D01*
X170885714Y-89236714D01*
X170885714Y-89493857D01*
X170800000Y-89836714D01*
X170714285Y-90008142D01*
X170542857Y-90179571D01*
X170285714Y-90265285D01*
X169857142Y-90265285D01*
X171657142Y-89322428D02*
X172257142Y-89322428D01*
X172514285Y-90265285D02*
X171657142Y-90265285D01*
X171657142Y-88465285D01*
X172514285Y-88465285D01*
X173285714Y-90265285D02*
X173285714Y-88465285D01*
X173885714Y-89751000D01*
X174485714Y-88465285D01*
X174485714Y-90265285D01*
X162485714Y-93163285D02*
X162485714Y-91363285D01*
X163085714Y-92649000D01*
X163685714Y-91363285D01*
X163685714Y-93163285D01*
X164542857Y-91363285D02*
X164542857Y-92820428D01*
X164628571Y-92991857D01*
X164714285Y-93077571D01*
X164885714Y-93163285D01*
X165228571Y-93163285D01*
X165400000Y-93077571D01*
X165485714Y-92991857D01*
X165571428Y-92820428D01*
X165571428Y-91363285D01*
X166342857Y-93077571D02*
X166600000Y-93163285D01*
X167028571Y-93163285D01*
X167200000Y-93077571D01*
X167285714Y-92991857D01*
X167371428Y-92820428D01*
X167371428Y-92649000D01*
X167285714Y-92477571D01*
X167200000Y-92391857D01*
X167028571Y-92306142D01*
X166685714Y-92220428D01*
X166514285Y-92134714D01*
X166428571Y-92049000D01*
X166342857Y-91877571D01*
X166342857Y-91706142D01*
X166428571Y-91534714D01*
X166514285Y-91449000D01*
X166685714Y-91363285D01*
X167114285Y-91363285D01*
X167371428Y-91449000D01*
X168142857Y-93163285D02*
X168142857Y-91363285D01*
X170028571Y-92991857D02*
X169942857Y-93077571D01*
X169685714Y-93163285D01*
X169514285Y-93163285D01*
X169257142Y-93077571D01*
X169085714Y-92906142D01*
X169000000Y-92734714D01*
X168914285Y-92391857D01*
X168914285Y-92134714D01*
X169000000Y-91791857D01*
X169085714Y-91620428D01*
X169257142Y-91449000D01*
X169514285Y-91363285D01*
X169685714Y-91363285D01*
X169942857Y-91449000D01*
X170028571Y-91534714D01*
X172771428Y-92220428D02*
X173028571Y-92306142D01*
X173114285Y-92391857D01*
X173200000Y-92563285D01*
X173200000Y-92820428D01*
X173114285Y-92991857D01*
X173028571Y-93077571D01*
X172857142Y-93163285D01*
X172171428Y-93163285D01*
X172171428Y-91363285D01*
X172771428Y-91363285D01*
X172942857Y-91449000D01*
X173028571Y-91534714D01*
X173114285Y-91706142D01*
X173114285Y-91877571D01*
X173028571Y-92049000D01*
X172942857Y-92134714D01*
X172771428Y-92220428D01*
X172171428Y-92220428D01*
X174314285Y-91363285D02*
X174657142Y-91363285D01*
X174828571Y-91449000D01*
X175000000Y-91620428D01*
X175085714Y-91963285D01*
X175085714Y-92563285D01*
X175000000Y-92906142D01*
X174828571Y-93077571D01*
X174657142Y-93163285D01*
X174314285Y-93163285D01*
X174142857Y-93077571D01*
X173971428Y-92906142D01*
X173885714Y-92563285D01*
X173885714Y-91963285D01*
X173971428Y-91620428D01*
X174142857Y-91449000D01*
X174314285Y-91363285D01*
X175685714Y-91363285D02*
X176885714Y-93163285D01*
X176885714Y-91363285D02*
X175685714Y-93163285D01*
D11*
X202290476Y-47252380D02*
X202290476Y-46252380D01*
X202671428Y-46252380D01*
X202766666Y-46300000D01*
X202814285Y-46347619D01*
X202861904Y-46442857D01*
X202861904Y-46585714D01*
X202814285Y-46680952D01*
X202766666Y-46728571D01*
X202671428Y-46776190D01*
X202290476Y-46776190D01*
X203480952Y-46252380D02*
X203671428Y-46252380D01*
X203766666Y-46300000D01*
X203861904Y-46395238D01*
X203909523Y-46585714D01*
X203909523Y-46919047D01*
X203861904Y-47109523D01*
X203766666Y-47204761D01*
X203671428Y-47252380D01*
X203480952Y-47252380D01*
X203385714Y-47204761D01*
X203290476Y-47109523D01*
X203242857Y-46919047D01*
X203242857Y-46585714D01*
X203290476Y-46395238D01*
X203385714Y-46300000D01*
X203480952Y-46252380D01*
X204242857Y-46252380D02*
X204480952Y-47252380D01*
X204671428Y-46538095D01*
X204861904Y-47252380D01*
X205100000Y-46252380D01*
X205480952Y-46728571D02*
X205814285Y-46728571D01*
X205957142Y-47252380D02*
X205480952Y-47252380D01*
X205480952Y-46252380D01*
X205957142Y-46252380D01*
X206957142Y-47252380D02*
X206623809Y-46776190D01*
X206385714Y-47252380D02*
X206385714Y-46252380D01*
X206766666Y-46252380D01*
X206861904Y-46300000D01*
X206909523Y-46347619D01*
X206957142Y-46442857D01*
X206957142Y-46585714D01*
X206909523Y-46680952D01*
X206861904Y-46728571D01*
X206766666Y-46776190D01*
X206385714Y-46776190D01*
D12*
X213124534Y-95215228D02*
X212787816Y-95551946D01*
X212080710Y-94844839D01*
X213360236Y-94979526D02*
X212653129Y-94272419D01*
X213393908Y-94541793D01*
X213124534Y-93801015D01*
X213831641Y-94508122D01*
X213393908Y-93531641D02*
X213831641Y-93093908D01*
X213865312Y-93598984D01*
X213966328Y-93497969D01*
X214067343Y-93464297D01*
X214134687Y-93464297D01*
X214235702Y-93497969D01*
X214404061Y-93666328D01*
X214437732Y-93767343D01*
X214437732Y-93834687D01*
X214404061Y-93935702D01*
X214202030Y-94137732D01*
X214101015Y-94171404D01*
X214033671Y-94171404D01*
X214538748Y-92992893D02*
X214437732Y-93026564D01*
X214370389Y-93026564D01*
X214269374Y-92992893D01*
X214235702Y-92959221D01*
X214202030Y-92858206D01*
X214202030Y-92790862D01*
X214235702Y-92689847D01*
X214370389Y-92555160D01*
X214471404Y-92521488D01*
X214538748Y-92521488D01*
X214639763Y-92555160D01*
X214673435Y-92588832D01*
X214707106Y-92689847D01*
X214707106Y-92757190D01*
X214673435Y-92858206D01*
X214538748Y-92992893D01*
X214505076Y-93093908D01*
X214505076Y-93161251D01*
X214538748Y-93262267D01*
X214673435Y-93396954D01*
X214774450Y-93430625D01*
X214841793Y-93430625D01*
X214942809Y-93396954D01*
X215077496Y-93262267D01*
X215111167Y-93161251D01*
X215111167Y-93093908D01*
X215077496Y-92992893D01*
X214942809Y-92858206D01*
X214841793Y-92824534D01*
X214774450Y-92824534D01*
X214673435Y-92858206D01*
X215111167Y-91814381D02*
X214976480Y-91949068D01*
X214942809Y-92050084D01*
X214942809Y-92117427D01*
X214976480Y-92285786D01*
X215077496Y-92454145D01*
X215346870Y-92723519D01*
X215447885Y-92757190D01*
X215515228Y-92757190D01*
X215616244Y-92723519D01*
X215750931Y-92588832D01*
X215784602Y-92487816D01*
X215784602Y-92420473D01*
X215750931Y-92319458D01*
X215582572Y-92151099D01*
X215481557Y-92117427D01*
X215414213Y-92117427D01*
X215313198Y-92151099D01*
X215178511Y-92285786D01*
X215144839Y-92386801D01*
X215144839Y-92454145D01*
X215178511Y-92555160D01*
X163747038Y-47688663D02*
X164083755Y-47351946D01*
X163881725Y-47958037D02*
X163410320Y-47015228D01*
X164353129Y-47486633D01*
X163780710Y-46644839D02*
X164184771Y-46240778D01*
X164689847Y-47149915D02*
X163982740Y-46442809D01*
X164555160Y-46341793D02*
X164824534Y-46072419D01*
X164420473Y-46005076D02*
X165026564Y-46611167D01*
X165127580Y-46644839D01*
X165228595Y-46611167D01*
X165295938Y-46543824D01*
X165531641Y-46308122D02*
X165060236Y-45836717D01*
X164824534Y-45601015D02*
X164824534Y-45668358D01*
X164891877Y-45668358D01*
X164891877Y-45601015D01*
X164824534Y-45601015D01*
X164891877Y-45668358D01*
X165396954Y-45499999D02*
X165868358Y-45971404D01*
X165464297Y-45567343D02*
X165464297Y-45499999D01*
X165497969Y-45398984D01*
X165598984Y-45297969D01*
X165700000Y-45264297D01*
X165801015Y-45297969D01*
X166171404Y-45668358D01*
X165969374Y-44927580D02*
X166609137Y-45230625D01*
X166306091Y-44590862D02*
X166609137Y-45230625D01*
X166710152Y-45466328D01*
X166710152Y-45533671D01*
X166676480Y-45634687D01*
X166743824Y-44287816D02*
X166642809Y-44321488D01*
X166575465Y-44321488D01*
X166474450Y-44287816D01*
X166440778Y-44254145D01*
X166407106Y-44153129D01*
X166407106Y-44085786D01*
X166440778Y-43984771D01*
X166575465Y-43850084D01*
X166676480Y-43816412D01*
X166743824Y-43816412D01*
X166844839Y-43850084D01*
X166878511Y-43883755D01*
X166912183Y-43984771D01*
X166912183Y-44052114D01*
X166878511Y-44153129D01*
X166743824Y-44287816D01*
X166710152Y-44388832D01*
X166710152Y-44456175D01*
X166743824Y-44557190D01*
X166878511Y-44691877D01*
X166979526Y-44725549D01*
X167046870Y-44725549D01*
X167147885Y-44691877D01*
X167282572Y-44557190D01*
X167316244Y-44456175D01*
X167316244Y-44388832D01*
X167282572Y-44287816D01*
X167147885Y-44153129D01*
X167046870Y-44119458D01*
X166979526Y-44119458D01*
X166878511Y-44153129D01*
X167349915Y-43075633D02*
X167013198Y-43412351D01*
X167316244Y-43782740D01*
X167316244Y-43715397D01*
X167349915Y-43614381D01*
X167518274Y-43446023D01*
X167619289Y-43412351D01*
X167686633Y-43412351D01*
X167787648Y-43446023D01*
X167956007Y-43614381D01*
X167989679Y-43715397D01*
X167989679Y-43782740D01*
X167956007Y-43883755D01*
X167787648Y-44052114D01*
X167686633Y-44085786D01*
X167619289Y-44085786D01*
D13*
X165482843Y-53200000D02*
G75*
G03X165482843Y-53200000I-282843J0D01*
G01*
X215482843Y-86400000D02*
G75*
G03X215482843Y-86400000I-282843J0D01*
G01*
D11*
X198400000Y-52452380D02*
X197923809Y-52452380D01*
X197923809Y-51452380D01*
X198733333Y-51928571D02*
X199066666Y-51928571D01*
X199209523Y-52452380D02*
X198733333Y-52452380D01*
X198733333Y-51452380D01*
X199209523Y-51452380D01*
X199638095Y-52452380D02*
X199638095Y-51452380D01*
X199876190Y-51452380D01*
X200019047Y-51500000D01*
X200114285Y-51595238D01*
X200161904Y-51690476D01*
X200209523Y-51880952D01*
X200209523Y-52023809D01*
X200161904Y-52214285D01*
X200114285Y-52309523D01*
X200019047Y-52404761D01*
X199876190Y-52452380D01*
X199638095Y-52452380D01*
X201400000Y-52452380D02*
X201400000Y-51452380D01*
X201638095Y-51452380D01*
X201780952Y-51500000D01*
X201876190Y-51595238D01*
X201923809Y-51690476D01*
X201971428Y-51880952D01*
X201971428Y-52023809D01*
X201923809Y-52214285D01*
X201876190Y-52309523D01*
X201780952Y-52404761D01*
X201638095Y-52452380D01*
X201400000Y-52452380D01*
X202923809Y-52452380D02*
X202352380Y-52452380D01*
X202638095Y-52452380D02*
X202638095Y-51452380D01*
X202542857Y-51595238D01*
X202447619Y-51690476D01*
X202352380Y-51738095D01*
X188555476Y-36223380D02*
X188460238Y-36175761D01*
X188412619Y-36080523D01*
X188412619Y-35223380D01*
X188936428Y-36223380D02*
X188936428Y-35556714D01*
X188936428Y-35223380D02*
X188888809Y-35271000D01*
X188936428Y-35318619D01*
X188984047Y-35271000D01*
X188936428Y-35223380D01*
X188936428Y-35318619D01*
X189841190Y-35556714D02*
X189841190Y-36366238D01*
X189793571Y-36461476D01*
X189745952Y-36509095D01*
X189650714Y-36556714D01*
X189507857Y-36556714D01*
X189412619Y-36509095D01*
X189841190Y-36175761D02*
X189745952Y-36223380D01*
X189555476Y-36223380D01*
X189460238Y-36175761D01*
X189412619Y-36128142D01*
X189365000Y-36032904D01*
X189365000Y-35747190D01*
X189412619Y-35651952D01*
X189460238Y-35604333D01*
X189555476Y-35556714D01*
X189745952Y-35556714D01*
X189841190Y-35604333D01*
X190317380Y-36223380D02*
X190317380Y-35223380D01*
X190745952Y-36223380D02*
X190745952Y-35699571D01*
X190698333Y-35604333D01*
X190603095Y-35556714D01*
X190460238Y-35556714D01*
X190365000Y-35604333D01*
X190317380Y-35651952D01*
X191079285Y-35556714D02*
X191460238Y-35556714D01*
X191222142Y-35223380D02*
X191222142Y-36080523D01*
X191269761Y-36175761D01*
X191365000Y-36223380D01*
X191460238Y-36223380D01*
X187603095Y-37785761D02*
X187698333Y-37833380D01*
X187888809Y-37833380D01*
X187984047Y-37785761D01*
X188031666Y-37690523D01*
X188031666Y-37642904D01*
X187984047Y-37547666D01*
X187888809Y-37500047D01*
X187745952Y-37500047D01*
X187650714Y-37452428D01*
X187603095Y-37357190D01*
X187603095Y-37309571D01*
X187650714Y-37214333D01*
X187745952Y-37166714D01*
X187888809Y-37166714D01*
X187984047Y-37214333D01*
X188841190Y-37785761D02*
X188745952Y-37833380D01*
X188555476Y-37833380D01*
X188460238Y-37785761D01*
X188412619Y-37690523D01*
X188412619Y-37309571D01*
X188460238Y-37214333D01*
X188555476Y-37166714D01*
X188745952Y-37166714D01*
X188841190Y-37214333D01*
X188888809Y-37309571D01*
X188888809Y-37404809D01*
X188412619Y-37500047D01*
X189317380Y-37166714D02*
X189317380Y-37833380D01*
X189317380Y-37261952D02*
X189365000Y-37214333D01*
X189460238Y-37166714D01*
X189603095Y-37166714D01*
X189698333Y-37214333D01*
X189745952Y-37309571D01*
X189745952Y-37833380D01*
X190174523Y-37785761D02*
X190269761Y-37833380D01*
X190460238Y-37833380D01*
X190555476Y-37785761D01*
X190603095Y-37690523D01*
X190603095Y-37642904D01*
X190555476Y-37547666D01*
X190460238Y-37500047D01*
X190317380Y-37500047D01*
X190222142Y-37452428D01*
X190174523Y-37357190D01*
X190174523Y-37309571D01*
X190222142Y-37214333D01*
X190317380Y-37166714D01*
X190460238Y-37166714D01*
X190555476Y-37214333D01*
X191174523Y-37833380D02*
X191079285Y-37785761D01*
X191031666Y-37738142D01*
X190984047Y-37642904D01*
X190984047Y-37357190D01*
X191031666Y-37261952D01*
X191079285Y-37214333D01*
X191174523Y-37166714D01*
X191317380Y-37166714D01*
X191412619Y-37214333D01*
X191460238Y-37261952D01*
X191507857Y-37357190D01*
X191507857Y-37642904D01*
X191460238Y-37738142D01*
X191412619Y-37785761D01*
X191317380Y-37833380D01*
X191174523Y-37833380D01*
X191936428Y-37833380D02*
X191936428Y-37166714D01*
X191936428Y-37357190D02*
X191984047Y-37261952D01*
X192031666Y-37214333D01*
X192126904Y-37166714D01*
X192222142Y-37166714D01*
D14*
X155718904Y-74883095D02*
X155285571Y-74264047D01*
X154976047Y-74883095D02*
X154976047Y-73583095D01*
X155471285Y-73583095D01*
X155595095Y-73645000D01*
X155657000Y-73706904D01*
X155718904Y-73830714D01*
X155718904Y-74016428D01*
X155657000Y-74140238D01*
X155595095Y-74202142D01*
X155471285Y-74264047D01*
X154976047Y-74264047D01*
X156276047Y-74202142D02*
X156709380Y-74202142D01*
X156895095Y-74883095D02*
X156276047Y-74883095D01*
X156276047Y-73583095D01*
X156895095Y-73583095D01*
X157390333Y-74821190D02*
X157576047Y-74883095D01*
X157885571Y-74883095D01*
X158009380Y-74821190D01*
X158071285Y-74759285D01*
X158133190Y-74635476D01*
X158133190Y-74511666D01*
X158071285Y-74387857D01*
X158009380Y-74325952D01*
X157885571Y-74264047D01*
X157637952Y-74202142D01*
X157514142Y-74140238D01*
X157452238Y-74078333D01*
X157390333Y-73954523D01*
X157390333Y-73830714D01*
X157452238Y-73706904D01*
X157514142Y-73645000D01*
X157637952Y-73583095D01*
X157947476Y-73583095D01*
X158133190Y-73645000D01*
X158690333Y-74202142D02*
X159123666Y-74202142D01*
X159309380Y-74883095D02*
X158690333Y-74883095D01*
X158690333Y-73583095D01*
X159309380Y-73583095D01*
X159680809Y-73583095D02*
X160423666Y-73583095D01*
X160052238Y-74883095D02*
X160052238Y-73583095D01*
D15*
G36*
X201100000Y-97400000D02*
G01*
X178500000Y-97400000D01*
X187700000Y-79300000D01*
X192300000Y-79300000D01*
X201100000Y-97400000D01*
G37*
X201100000Y-97400000D02*
X178500000Y-97400000D01*
X187700000Y-79300000D01*
X192300000Y-79300000D01*
X201100000Y-97400000D01*
D16*
X209590000Y-77780000D02*
X209590000Y-79620000D01*
X209590000Y-79620000D02*
X213430000Y-79620000D01*
X213430000Y-79620000D02*
X213430000Y-77780000D01*
X213430000Y-77780000D02*
X209590000Y-77780000D01*
X208640000Y-78700000D02*
X209590000Y-78700000D01*
X214380000Y-78700000D02*
X213430000Y-78700000D01*
D17*
X213400000Y-49050000D02*
G75*
G02X210000000Y-49050000I-1700000J1050000D01*
G01*
X210000000Y-46950000D02*
G75*
G02X213400000Y-46950000I1700000J-1050000D01*
G01*
D18*
X211954000Y-49100000D02*
X211954000Y-49227000D01*
X211954000Y-49227000D02*
X211827000Y-49100000D01*
X211446000Y-47957000D02*
X211954000Y-48465000D01*
X211954000Y-48465000D02*
X211446000Y-48465000D01*
X211446000Y-48465000D02*
X211954000Y-49100000D01*
X211954000Y-49100000D02*
X211954000Y-48973000D01*
X211954000Y-48973000D02*
X211700000Y-49100000D01*
X211700000Y-49100000D02*
X211954000Y-49227000D01*
D17*
X212081000Y-46984000D02*
X212716000Y-46984000D01*
X210811000Y-46984000D02*
X211446000Y-46984000D01*
X211446000Y-47365000D02*
X211446000Y-46603000D01*
X212081000Y-46603000D02*
X212081000Y-47365000D01*
X212081000Y-47365000D02*
X211446000Y-46984000D01*
X211446000Y-46984000D02*
X212081000Y-46603000D01*
G36*
X206693435Y-47842433D02*
G01*
X206713638Y-47747501D01*
X206766217Y-47679210D01*
X206866639Y-47626617D01*
X207030374Y-47578775D01*
X207272891Y-47524743D01*
X207349212Y-47508655D01*
X207732743Y-47428032D01*
X207763417Y-47236208D01*
X207801966Y-47055238D01*
X207855744Y-46865951D01*
X207862789Y-46844986D01*
X207931487Y-46645588D01*
X207659149Y-46412922D01*
X207504360Y-46272478D01*
X207367132Y-46133806D01*
X207282449Y-46033693D01*
X207178086Y-45887129D01*
X207295294Y-45636885D01*
X207412501Y-45386642D01*
X207617488Y-45417382D01*
X207778580Y-45449241D01*
X207983407Y-45499884D01*
X208138690Y-45543864D01*
X208454905Y-45639606D01*
X208587019Y-45480718D01*
X208712223Y-45332605D01*
X208839684Y-45185314D01*
X208849696Y-45173949D01*
X208980259Y-45026068D01*
X208837171Y-44605377D01*
X208772423Y-44404785D01*
X208722940Y-44232016D01*
X208696484Y-44114984D01*
X208694083Y-44090805D01*
X208735203Y-44006103D01*
X208844924Y-43897953D01*
X208922890Y-43839501D01*
X209022229Y-43770709D01*
X209097365Y-43730115D01*
X209165489Y-43724550D01*
X209243787Y-43760844D01*
X209349448Y-43845829D01*
X209499662Y-43986334D01*
X209646440Y-44127039D01*
X209922465Y-44390980D01*
X210222574Y-44273335D01*
X210391792Y-44207625D01*
X210530888Y-44154723D01*
X210600711Y-44129272D01*
X210647423Y-44076896D01*
X210693976Y-43946198D01*
X210743126Y-43728367D01*
X210767230Y-43597266D01*
X210808638Y-43383093D01*
X210849909Y-43207739D01*
X210885349Y-43093582D01*
X210903409Y-43062205D01*
X210977200Y-43040731D01*
X211114628Y-43017645D01*
X211217877Y-43005198D01*
X211376357Y-42993701D01*
X211462929Y-43005196D01*
X211504432Y-43045690D01*
X211514497Y-43071574D01*
X211545035Y-43160675D01*
X211599979Y-43314956D01*
X211669035Y-43505600D01*
X211691220Y-43566273D01*
X211838103Y-43967062D01*
X212232464Y-44005109D01*
X212430305Y-44022647D01*
X212554283Y-44024993D01*
X212630207Y-44007185D01*
X212683889Y-43964259D01*
X212727022Y-43910015D01*
X212955220Y-43616456D01*
X213134830Y-43406666D01*
X213265067Y-43281494D01*
X213343483Y-43241732D01*
X213439014Y-43262350D01*
X213579830Y-43312984D01*
X213640735Y-43339217D01*
X213853068Y-43435602D01*
X213824421Y-43676282D01*
X213797949Y-43875823D01*
X213764366Y-44100228D01*
X213749993Y-44188463D01*
X213726907Y-44338723D01*
X213715559Y-44440460D01*
X213716603Y-44467292D01*
X213761047Y-44496643D01*
X213867506Y-44567725D01*
X214014818Y-44666400D01*
X214047889Y-44688584D01*
X214366783Y-44902547D01*
X214749269Y-44729024D01*
X214988437Y-44621375D01*
X215155750Y-44553140D01*
X215270920Y-44523043D01*
X215353653Y-44529804D01*
X215423660Y-44572146D01*
X215500648Y-44648792D01*
X215528270Y-44678517D01*
X215629481Y-44797467D01*
X215694154Y-44892777D01*
X215706534Y-44926195D01*
X215679460Y-44989537D01*
X215605631Y-45112478D01*
X215498026Y-45274168D01*
X215428013Y-45373644D01*
X215148135Y-45763735D01*
X215331798Y-46130388D01*
X215515460Y-46497042D01*
X215874693Y-46497593D01*
X216085249Y-46502165D01*
X216282601Y-46513565D01*
X216415045Y-46528102D01*
X216519609Y-46551745D01*
X216581660Y-46596509D01*
X216622357Y-46689086D01*
X216658051Y-46834597D01*
X216686682Y-46959837D01*
X216697364Y-47048128D01*
X216677286Y-47115202D01*
X216613635Y-47176790D01*
X216493602Y-47248624D01*
X216304375Y-47346433D01*
X216196352Y-47401517D01*
X215808087Y-47600330D01*
X215808510Y-48013084D01*
X215808933Y-48425839D01*
X216131419Y-48597124D01*
X216312261Y-48698364D01*
X216474020Y-48797869D01*
X216579790Y-48872666D01*
X216653273Y-48941645D01*
X216681518Y-49009873D01*
X216671748Y-49114045D01*
X216648115Y-49219765D01*
X216599659Y-49369720D01*
X216526835Y-49468920D01*
X216411935Y-49525137D01*
X216237254Y-49546141D01*
X215985085Y-49539704D01*
X215927462Y-49536055D01*
X215520802Y-49508775D01*
X215332167Y-49875460D01*
X215143533Y-50242144D01*
X215291174Y-50461210D01*
X215410367Y-50645400D01*
X215532001Y-50844258D01*
X215567850Y-50905720D01*
X215696886Y-51131164D01*
X215501319Y-51356608D01*
X215305751Y-51582052D01*
X214838199Y-51340315D01*
X214370646Y-51098579D01*
X214036686Y-51315266D01*
X213869589Y-51427000D01*
X213772084Y-51505954D01*
X213728035Y-51571212D01*
X213721307Y-51641862D01*
X213726431Y-51682249D01*
X213739804Y-51807411D01*
X213752405Y-51993336D01*
X213761581Y-52200610D01*
X213761823Y-52208284D01*
X213773511Y-52584024D01*
X213600957Y-52666942D01*
X213440540Y-52741748D01*
X213325837Y-52777353D01*
X213235680Y-52764915D01*
X213148905Y-52695593D01*
X213044345Y-52560545D01*
X212923197Y-52383823D01*
X212631956Y-51955069D01*
X212328799Y-51984403D01*
X212085066Y-52010895D01*
X211926213Y-52036499D01*
X211837028Y-52064949D01*
X211802302Y-52099980D01*
X211800198Y-52114184D01*
X211780043Y-52181035D01*
X211726034Y-52314795D01*
X211647857Y-52492133D01*
X211603053Y-52589167D01*
X211504155Y-52794723D01*
X211424315Y-52923811D01*
X211339519Y-52990428D01*
X211225756Y-53008572D01*
X211059011Y-52992243D01*
X210941959Y-52974554D01*
X210881230Y-52959652D01*
X210836599Y-52926120D01*
X210803251Y-52858205D01*
X210776367Y-52740157D01*
X210751131Y-52556224D01*
X210722725Y-52290654D01*
X210717757Y-52241458D01*
X210689924Y-52039529D01*
X210653413Y-51922359D01*
X210603420Y-51874585D01*
X210602986Y-51874451D01*
X210515639Y-51843187D01*
X210370321Y-51786809D01*
X210230686Y-51730610D01*
X209938688Y-51611210D01*
X209612785Y-51887682D01*
X209406261Y-52059327D01*
X209255180Y-52169542D01*
X209140316Y-52223708D01*
X209042441Y-52227206D01*
X208942328Y-52185417D01*
X208826384Y-52107773D01*
X208599597Y-51944907D01*
X208715548Y-51638233D01*
X208790117Y-51444221D01*
X208863158Y-51259348D01*
X208906531Y-51153261D01*
X208948491Y-51040525D01*
X208947026Y-50962680D01*
X208892646Y-50878905D01*
X208825006Y-50802570D01*
X208701847Y-50662517D01*
X208588196Y-50526319D01*
X208563374Y-50495001D01*
X208498949Y-50418601D01*
X208439179Y-50385927D01*
X208350573Y-50391054D01*
X208199643Y-50428057D01*
X208193757Y-50429609D01*
X207977507Y-50478991D01*
X207744821Y-50521082D01*
X207663911Y-50532542D01*
X207398609Y-50565689D01*
X207263937Y-50299928D01*
X207129266Y-50034166D01*
X207298171Y-49881285D01*
X207439233Y-49756027D01*
X207605832Y-49611380D01*
X207683649Y-49544949D01*
X207900222Y-49361496D01*
X207811709Y-48967693D01*
X207723196Y-48573889D01*
X207344439Y-48466440D01*
X207082822Y-48391842D01*
X206902198Y-48334790D01*
X206787590Y-48284035D01*
X206724022Y-48228327D01*
X206696517Y-48156416D01*
X206690099Y-48057051D01*
X206690125Y-48001999D01*
X209095467Y-48001999D01*
X209130340Y-48476823D01*
X209241206Y-48901972D01*
X209435053Y-49293921D01*
X209718867Y-49669147D01*
X209870544Y-49829692D01*
X210211490Y-50127690D01*
X210568688Y-50346501D01*
X210975332Y-50505692D01*
X211059029Y-50530281D01*
X211325235Y-50576662D01*
X211648618Y-50590348D01*
X211992261Y-50573086D01*
X212319248Y-50526622D01*
X212576726Y-50458491D01*
X213029588Y-50247342D01*
X213425774Y-49961437D01*
X213758299Y-49611960D01*
X214020178Y-49210095D01*
X214204424Y-48767024D01*
X214304053Y-48293932D01*
X214312079Y-47802002D01*
X214301466Y-47697298D01*
X214198524Y-47211716D01*
X214011587Y-46773691D01*
X213735573Y-46373488D01*
X213460659Y-46086379D01*
X213061314Y-45781332D01*
X212627023Y-45564645D01*
X212169421Y-45435971D01*
X211700144Y-45394959D01*
X211230827Y-45441262D01*
X210773106Y-45574528D01*
X210338618Y-45794410D01*
X209938996Y-46100558D01*
X209841488Y-46195010D01*
X209516012Y-46586413D01*
X209285435Y-47005737D01*
X209146463Y-47460959D01*
X209095803Y-47960057D01*
X209095467Y-48001999D01*
X206690125Y-48001999D01*
X206690139Y-47974951D01*
X206693435Y-47842433D01*
G37*
G36*
X201293435Y-55442433D02*
G01*
X201313638Y-55347501D01*
X201366217Y-55279210D01*
X201466639Y-55226617D01*
X201630374Y-55178775D01*
X201872891Y-55124743D01*
X201949212Y-55108655D01*
X202332743Y-55028032D01*
X202363417Y-54836208D01*
X202401966Y-54655238D01*
X202455744Y-54465951D01*
X202462789Y-54444986D01*
X202531487Y-54245588D01*
X202259149Y-54012922D01*
X202104360Y-53872478D01*
X201967132Y-53733806D01*
X201882449Y-53633693D01*
X201778086Y-53487129D01*
X201895294Y-53236885D01*
X202012501Y-52986642D01*
X202217488Y-53017382D01*
X202378580Y-53049241D01*
X202583407Y-53099884D01*
X202738690Y-53143864D01*
X203054905Y-53239606D01*
X203187019Y-53080718D01*
X203312223Y-52932605D01*
X203439684Y-52785314D01*
X203449696Y-52773949D01*
X203580259Y-52626068D01*
X203437171Y-52205377D01*
X203372423Y-52004785D01*
X203322940Y-51832016D01*
X203296484Y-51714984D01*
X203294083Y-51690805D01*
X203335203Y-51606103D01*
X203444924Y-51497953D01*
X203522890Y-51439501D01*
X203622229Y-51370709D01*
X203697365Y-51330115D01*
X203765489Y-51324550D01*
X203843787Y-51360844D01*
X203949448Y-51445829D01*
X204099662Y-51586334D01*
X204246440Y-51727039D01*
X204522465Y-51990980D01*
X204822574Y-51873335D01*
X204991792Y-51807625D01*
X205130888Y-51754723D01*
X205200711Y-51729272D01*
X205247423Y-51676896D01*
X205293976Y-51546198D01*
X205343126Y-51328367D01*
X205367230Y-51197266D01*
X205408638Y-50983093D01*
X205449909Y-50807739D01*
X205485349Y-50693582D01*
X205503409Y-50662205D01*
X205577200Y-50640731D01*
X205714628Y-50617645D01*
X205817877Y-50605198D01*
X205976357Y-50593701D01*
X206062929Y-50605196D01*
X206104432Y-50645690D01*
X206114497Y-50671574D01*
X206145035Y-50760675D01*
X206199979Y-50914956D01*
X206269035Y-51105600D01*
X206291220Y-51166273D01*
X206438103Y-51567062D01*
X206832464Y-51605109D01*
X207030305Y-51622647D01*
X207154283Y-51624993D01*
X207230207Y-51607185D01*
X207283889Y-51564259D01*
X207327022Y-51510015D01*
X207555220Y-51216456D01*
X207734830Y-51006666D01*
X207865067Y-50881494D01*
X207943483Y-50841732D01*
X208039014Y-50862350D01*
X208179830Y-50912984D01*
X208240735Y-50939217D01*
X208453068Y-51035602D01*
X208424421Y-51276282D01*
X208397949Y-51475823D01*
X208364366Y-51700228D01*
X208349993Y-51788463D01*
X208326907Y-51938723D01*
X208315559Y-52040460D01*
X208316603Y-52067292D01*
X208361047Y-52096643D01*
X208467506Y-52167725D01*
X208614818Y-52266400D01*
X208647889Y-52288584D01*
X208966783Y-52502547D01*
X209349269Y-52329024D01*
X209588437Y-52221375D01*
X209755750Y-52153140D01*
X209870920Y-52123043D01*
X209953653Y-52129804D01*
X210023660Y-52172146D01*
X210100648Y-52248792D01*
X210128270Y-52278517D01*
X210229481Y-52397467D01*
X210294154Y-52492777D01*
X210306534Y-52526195D01*
X210279460Y-52589537D01*
X210205631Y-52712478D01*
X210098026Y-52874168D01*
X210028013Y-52973644D01*
X209748135Y-53363735D01*
X209931798Y-53730388D01*
X210115460Y-54097042D01*
X210474693Y-54097593D01*
X210685249Y-54102165D01*
X210882601Y-54113565D01*
X211015045Y-54128102D01*
X211119609Y-54151745D01*
X211181660Y-54196509D01*
X211222357Y-54289086D01*
X211258051Y-54434597D01*
X211286682Y-54559837D01*
X211297364Y-54648128D01*
X211277286Y-54715202D01*
X211213635Y-54776790D01*
X211093602Y-54848624D01*
X210904375Y-54946433D01*
X210796352Y-55001517D01*
X210408087Y-55200330D01*
X210408510Y-55613084D01*
X210408933Y-56025839D01*
X210731419Y-56197124D01*
X210912261Y-56298364D01*
X211074020Y-56397869D01*
X211179790Y-56472666D01*
X211253273Y-56541645D01*
X211281518Y-56609873D01*
X211271748Y-56714045D01*
X211248115Y-56819765D01*
X211199659Y-56969720D01*
X211126835Y-57068920D01*
X211011935Y-57125137D01*
X210837254Y-57146141D01*
X210585085Y-57139704D01*
X210527462Y-57136055D01*
X210120802Y-57108775D01*
X209932167Y-57475460D01*
X209743533Y-57842144D01*
X209891174Y-58061210D01*
X210010367Y-58245400D01*
X210132001Y-58444258D01*
X210167850Y-58505720D01*
X210296886Y-58731164D01*
X210101319Y-58956608D01*
X209905751Y-59182052D01*
X209438199Y-58940315D01*
X208970646Y-58698579D01*
X208636686Y-58915266D01*
X208469589Y-59027000D01*
X208372084Y-59105954D01*
X208328035Y-59171212D01*
X208321307Y-59241862D01*
X208326431Y-59282249D01*
X208339804Y-59407411D01*
X208352405Y-59593336D01*
X208361581Y-59800610D01*
X208361823Y-59808284D01*
X208373511Y-60184024D01*
X208200957Y-60266942D01*
X208040540Y-60341748D01*
X207925837Y-60377353D01*
X207835680Y-60364915D01*
X207748905Y-60295593D01*
X207644345Y-60160545D01*
X207523197Y-59983823D01*
X207231956Y-59555069D01*
X206928799Y-59584403D01*
X206685066Y-59610895D01*
X206526213Y-59636499D01*
X206437028Y-59664949D01*
X206402302Y-59699980D01*
X206400198Y-59714184D01*
X206380043Y-59781035D01*
X206326034Y-59914795D01*
X206247857Y-60092133D01*
X206203053Y-60189167D01*
X206104155Y-60394723D01*
X206024315Y-60523811D01*
X205939519Y-60590428D01*
X205825756Y-60608572D01*
X205659011Y-60592243D01*
X205541959Y-60574554D01*
X205481230Y-60559652D01*
X205436599Y-60526120D01*
X205403251Y-60458205D01*
X205376367Y-60340157D01*
X205351131Y-60156224D01*
X205322725Y-59890654D01*
X205317757Y-59841458D01*
X205289924Y-59639529D01*
X205253413Y-59522359D01*
X205203420Y-59474585D01*
X205202986Y-59474451D01*
X205115639Y-59443187D01*
X204970321Y-59386809D01*
X204830686Y-59330610D01*
X204538688Y-59211210D01*
X204212785Y-59487682D01*
X204006261Y-59659327D01*
X203855180Y-59769542D01*
X203740316Y-59823708D01*
X203642441Y-59827206D01*
X203542328Y-59785417D01*
X203426384Y-59707773D01*
X203199597Y-59544907D01*
X203315548Y-59238233D01*
X203390117Y-59044221D01*
X203463158Y-58859348D01*
X203506531Y-58753261D01*
X203548491Y-58640525D01*
X203547026Y-58562680D01*
X203492646Y-58478905D01*
X203425006Y-58402570D01*
X203301847Y-58262517D01*
X203188196Y-58126319D01*
X203163374Y-58095001D01*
X203098949Y-58018601D01*
X203039179Y-57985927D01*
X202950573Y-57991054D01*
X202799643Y-58028057D01*
X202793757Y-58029609D01*
X202577507Y-58078991D01*
X202344821Y-58121082D01*
X202263911Y-58132542D01*
X201998609Y-58165689D01*
X201863937Y-57899928D01*
X201729266Y-57634166D01*
X201898171Y-57481285D01*
X202039233Y-57356027D01*
X202205832Y-57211380D01*
X202283649Y-57144949D01*
X202500222Y-56961496D01*
X202411709Y-56567693D01*
X202323196Y-56173889D01*
X201944439Y-56066440D01*
X201682822Y-55991842D01*
X201502198Y-55934790D01*
X201387590Y-55884035D01*
X201324022Y-55828327D01*
X201296517Y-55756416D01*
X201290099Y-55657051D01*
X201290125Y-55601999D01*
X203695467Y-55601999D01*
X203730340Y-56076823D01*
X203841206Y-56501972D01*
X204035053Y-56893921D01*
X204318867Y-57269147D01*
X204470544Y-57429692D01*
X204811490Y-57727690D01*
X205168688Y-57946501D01*
X205575332Y-58105692D01*
X205659029Y-58130281D01*
X205925235Y-58176662D01*
X206248618Y-58190348D01*
X206592261Y-58173086D01*
X206919248Y-58126622D01*
X207176726Y-58058491D01*
X207629588Y-57847342D01*
X208025774Y-57561437D01*
X208358299Y-57211960D01*
X208620178Y-56810095D01*
X208804424Y-56367024D01*
X208904053Y-55893932D01*
X208912079Y-55402002D01*
X208901466Y-55297298D01*
X208798524Y-54811716D01*
X208611587Y-54373691D01*
X208335573Y-53973488D01*
X208060659Y-53686379D01*
X207661314Y-53381332D01*
X207227023Y-53164645D01*
X206769421Y-53035971D01*
X206300144Y-52994959D01*
X205830827Y-53041262D01*
X205373106Y-53174528D01*
X204938618Y-53394410D01*
X204538996Y-53700558D01*
X204441488Y-53795010D01*
X204116012Y-54186413D01*
X203885435Y-54605737D01*
X203746463Y-55060959D01*
X203695803Y-55560057D01*
X203695467Y-55601999D01*
X201290125Y-55601999D01*
X201290139Y-55574951D01*
X201293435Y-55442433D01*
G37*
X208000000Y-56650000D02*
G75*
G02X204600000Y-56650000I-1700000J1050000D01*
G01*
X204600000Y-54550000D02*
G75*
G02X208000000Y-54550000I1700000J-1050000D01*
G01*
D18*
X206554000Y-56700000D02*
X206554000Y-56827000D01*
X206554000Y-56827000D02*
X206427000Y-56700000D01*
X206046000Y-55557000D02*
X206554000Y-56065000D01*
X206554000Y-56065000D02*
X206046000Y-56065000D01*
X206046000Y-56065000D02*
X206554000Y-56700000D01*
X206554000Y-56700000D02*
X206554000Y-56573000D01*
X206554000Y-56573000D02*
X206300000Y-56700000D01*
X206300000Y-56700000D02*
X206554000Y-56827000D01*
D17*
X206681000Y-54584000D02*
X207316000Y-54584000D01*
X205411000Y-54584000D02*
X206046000Y-54584000D01*
X206046000Y-54965000D02*
X206046000Y-54203000D01*
X206681000Y-54203000D02*
X206681000Y-54965000D01*
X206681000Y-54965000D02*
X206046000Y-54584000D01*
X206046000Y-54584000D02*
X206681000Y-54203000D01*
D16*
X196570000Y-89050000D02*
G75*
G03X196570000Y-89050000I-3270000J0D01*
G01*
X190070000Y-89050000D02*
X196530000Y-89050000D01*
X190070000Y-89010000D02*
X196530000Y-89010000D01*
X190070000Y-88970000D02*
X196530000Y-88970000D01*
X190072000Y-88930000D02*
X196528000Y-88930000D01*
X190073000Y-88890000D02*
X196527000Y-88890000D01*
X190076000Y-88850000D02*
X196524000Y-88850000D01*
X190078000Y-88810000D02*
X192260000Y-88810000D01*
X194340000Y-88810000D02*
X196522000Y-88810000D01*
X190082000Y-88770000D02*
X192260000Y-88770000D01*
X194340000Y-88770000D02*
X196518000Y-88770000D01*
X190085000Y-88730000D02*
X192260000Y-88730000D01*
X194340000Y-88730000D02*
X196515000Y-88730000D01*
X190089000Y-88690000D02*
X192260000Y-88690000D01*
X194340000Y-88690000D02*
X196511000Y-88690000D01*
X190094000Y-88650000D02*
X192260000Y-88650000D01*
X194340000Y-88650000D02*
X196506000Y-88650000D01*
X190099000Y-88610000D02*
X192260000Y-88610000D01*
X194340000Y-88610000D02*
X196501000Y-88610000D01*
X190105000Y-88570000D02*
X192260000Y-88570000D01*
X194340000Y-88570000D02*
X196495000Y-88570000D01*
X190111000Y-88530000D02*
X192260000Y-88530000D01*
X194340000Y-88530000D02*
X196489000Y-88530000D01*
X190118000Y-88490000D02*
X192260000Y-88490000D01*
X194340000Y-88490000D02*
X196482000Y-88490000D01*
X190125000Y-88450000D02*
X192260000Y-88450000D01*
X194340000Y-88450000D02*
X196475000Y-88450000D01*
X190133000Y-88410000D02*
X192260000Y-88410000D01*
X194340000Y-88410000D02*
X196467000Y-88410000D01*
X190141000Y-88370000D02*
X192260000Y-88370000D01*
X194340000Y-88370000D02*
X196459000Y-88370000D01*
X190150000Y-88329000D02*
X192260000Y-88329000D01*
X194340000Y-88329000D02*
X196450000Y-88329000D01*
X190159000Y-88289000D02*
X192260000Y-88289000D01*
X194340000Y-88289000D02*
X196441000Y-88289000D01*
X190169000Y-88249000D02*
X192260000Y-88249000D01*
X194340000Y-88249000D02*
X196431000Y-88249000D01*
X190179000Y-88209000D02*
X192260000Y-88209000D01*
X194340000Y-88209000D02*
X196421000Y-88209000D01*
X190190000Y-88169000D02*
X192260000Y-88169000D01*
X194340000Y-88169000D02*
X196410000Y-88169000D01*
X190202000Y-88129000D02*
X192260000Y-88129000D01*
X194340000Y-88129000D02*
X196398000Y-88129000D01*
X190214000Y-88089000D02*
X192260000Y-88089000D01*
X194340000Y-88089000D02*
X196386000Y-88089000D01*
X190226000Y-88049000D02*
X192260000Y-88049000D01*
X194340000Y-88049000D02*
X196374000Y-88049000D01*
X190239000Y-88009000D02*
X192260000Y-88009000D01*
X194340000Y-88009000D02*
X196361000Y-88009000D01*
X190253000Y-87969000D02*
X192260000Y-87969000D01*
X194340000Y-87969000D02*
X196347000Y-87969000D01*
X190267000Y-87929000D02*
X192260000Y-87929000D01*
X194340000Y-87929000D02*
X196333000Y-87929000D01*
X190282000Y-87889000D02*
X192260000Y-87889000D01*
X194340000Y-87889000D02*
X196318000Y-87889000D01*
X190298000Y-87849000D02*
X192260000Y-87849000D01*
X194340000Y-87849000D02*
X196302000Y-87849000D01*
X190314000Y-87809000D02*
X192260000Y-87809000D01*
X194340000Y-87809000D02*
X196286000Y-87809000D01*
X190330000Y-87769000D02*
X192260000Y-87769000D01*
X194340000Y-87769000D02*
X196270000Y-87769000D01*
X190348000Y-87729000D02*
X192260000Y-87729000D01*
X194340000Y-87729000D02*
X196252000Y-87729000D01*
X190366000Y-87689000D02*
X192260000Y-87689000D01*
X194340000Y-87689000D02*
X196234000Y-87689000D01*
X190384000Y-87649000D02*
X192260000Y-87649000D01*
X194340000Y-87649000D02*
X196216000Y-87649000D01*
X190404000Y-87609000D02*
X192260000Y-87609000D01*
X194340000Y-87609000D02*
X196196000Y-87609000D01*
X190424000Y-87569000D02*
X192260000Y-87569000D01*
X194340000Y-87569000D02*
X196176000Y-87569000D01*
X190444000Y-87529000D02*
X192260000Y-87529000D01*
X194340000Y-87529000D02*
X196156000Y-87529000D01*
X190466000Y-87489000D02*
X192260000Y-87489000D01*
X194340000Y-87489000D02*
X196134000Y-87489000D01*
X190488000Y-87449000D02*
X192260000Y-87449000D01*
X194340000Y-87449000D02*
X196112000Y-87449000D01*
X190510000Y-87409000D02*
X192260000Y-87409000D01*
X194340000Y-87409000D02*
X196090000Y-87409000D01*
X190534000Y-87369000D02*
X192260000Y-87369000D01*
X194340000Y-87369000D02*
X196066000Y-87369000D01*
X190558000Y-87329000D02*
X192260000Y-87329000D01*
X194340000Y-87329000D02*
X196042000Y-87329000D01*
X190584000Y-87289000D02*
X192260000Y-87289000D01*
X194340000Y-87289000D02*
X196016000Y-87289000D01*
X190610000Y-87249000D02*
X192260000Y-87249000D01*
X194340000Y-87249000D02*
X195990000Y-87249000D01*
X190636000Y-87209000D02*
X192260000Y-87209000D01*
X194340000Y-87209000D02*
X195964000Y-87209000D01*
X190664000Y-87169000D02*
X192260000Y-87169000D01*
X194340000Y-87169000D02*
X195936000Y-87169000D01*
X190693000Y-87129000D02*
X192260000Y-87129000D01*
X194340000Y-87129000D02*
X195907000Y-87129000D01*
X190722000Y-87089000D02*
X192260000Y-87089000D01*
X194340000Y-87089000D02*
X195878000Y-87089000D01*
X190752000Y-87049000D02*
X192260000Y-87049000D01*
X194340000Y-87049000D02*
X195848000Y-87049000D01*
X190784000Y-87009000D02*
X192260000Y-87009000D01*
X194340000Y-87009000D02*
X195816000Y-87009000D01*
X190816000Y-86969000D02*
X192260000Y-86969000D01*
X194340000Y-86969000D02*
X195784000Y-86969000D01*
X190850000Y-86929000D02*
X192260000Y-86929000D01*
X194340000Y-86929000D02*
X195750000Y-86929000D01*
X190884000Y-86889000D02*
X192260000Y-86889000D01*
X194340000Y-86889000D02*
X195716000Y-86889000D01*
X190920000Y-86849000D02*
X192260000Y-86849000D01*
X194340000Y-86849000D02*
X195680000Y-86849000D01*
X190957000Y-86809000D02*
X192260000Y-86809000D01*
X194340000Y-86809000D02*
X195643000Y-86809000D01*
X190995000Y-86769000D02*
X192260000Y-86769000D01*
X194340000Y-86769000D02*
X195605000Y-86769000D01*
X191035000Y-86729000D02*
X195565000Y-86729000D01*
X191076000Y-86689000D02*
X195524000Y-86689000D01*
X191118000Y-86649000D02*
X195482000Y-86649000D01*
X191163000Y-86609000D02*
X195437000Y-86609000D01*
X191208000Y-86569000D02*
X195392000Y-86569000D01*
X191256000Y-86529000D02*
X195344000Y-86529000D01*
X191305000Y-86489000D02*
X195295000Y-86489000D01*
X191356000Y-86449000D02*
X195244000Y-86449000D01*
X191410000Y-86409000D02*
X195190000Y-86409000D01*
X191466000Y-86369000D02*
X195134000Y-86369000D01*
X191524000Y-86329000D02*
X195076000Y-86329000D01*
X191586000Y-86289000D02*
X195014000Y-86289000D01*
X191650000Y-86249000D02*
X194950000Y-86249000D01*
X191719000Y-86209000D02*
X194881000Y-86209000D01*
X191791000Y-86169000D02*
X194809000Y-86169000D01*
X191868000Y-86129000D02*
X194732000Y-86129000D01*
X191950000Y-86089000D02*
X194650000Y-86089000D01*
X192038000Y-86049000D02*
X194562000Y-86049000D01*
X192135000Y-86009000D02*
X194465000Y-86009000D01*
X192241000Y-85969000D02*
X194359000Y-85969000D01*
X192360000Y-85929000D02*
X194240000Y-85929000D01*
X192498000Y-85889000D02*
X194102000Y-85889000D01*
X192667000Y-85849000D02*
X193933000Y-85849000D01*
X192898000Y-85809000D02*
X193702000Y-85809000D01*
X191461000Y-92550241D02*
X191461000Y-91920241D01*
X191146000Y-92235241D02*
X191776000Y-92235241D01*
X188520000Y-89200000D02*
G75*
G03X188520000Y-89200000I-2620000J0D01*
G01*
X186940000Y-89200000D02*
X188480000Y-89200000D01*
X183320000Y-89200000D02*
X184860000Y-89200000D01*
X186940000Y-89160000D02*
X188480000Y-89160000D01*
X183320000Y-89160000D02*
X184860000Y-89160000D01*
X183321000Y-89120000D02*
X184860000Y-89120000D01*
X186940000Y-89120000D02*
X188479000Y-89120000D01*
X183322000Y-89080000D02*
X184860000Y-89080000D01*
X186940000Y-89080000D02*
X188478000Y-89080000D01*
X183324000Y-89040000D02*
X184860000Y-89040000D01*
X186940000Y-89040000D02*
X188476000Y-89040000D01*
X183327000Y-89000000D02*
X184860000Y-89000000D01*
X186940000Y-89000000D02*
X188473000Y-89000000D01*
X183331000Y-88960000D02*
X184860000Y-88960000D01*
X186940000Y-88960000D02*
X188469000Y-88960000D01*
X183335000Y-88920000D02*
X184860000Y-88920000D01*
X186940000Y-88920000D02*
X188465000Y-88920000D01*
X183339000Y-88880000D02*
X184860000Y-88880000D01*
X186940000Y-88880000D02*
X188461000Y-88880000D01*
X183344000Y-88840000D02*
X184860000Y-88840000D01*
X186940000Y-88840000D02*
X188456000Y-88840000D01*
X183350000Y-88800000D02*
X184860000Y-88800000D01*
X186940000Y-88800000D02*
X188450000Y-88800000D01*
X183357000Y-88760000D02*
X184860000Y-88760000D01*
X186940000Y-88760000D02*
X188443000Y-88760000D01*
X183364000Y-88720000D02*
X184860000Y-88720000D01*
X186940000Y-88720000D02*
X188436000Y-88720000D01*
X183372000Y-88680000D02*
X184860000Y-88680000D01*
X186940000Y-88680000D02*
X188428000Y-88680000D01*
X183380000Y-88640000D02*
X184860000Y-88640000D01*
X186940000Y-88640000D02*
X188420000Y-88640000D01*
X183389000Y-88600000D02*
X184860000Y-88600000D01*
X186940000Y-88600000D02*
X188411000Y-88600000D01*
X183399000Y-88560000D02*
X184860000Y-88560000D01*
X186940000Y-88560000D02*
X188401000Y-88560000D01*
X183409000Y-88520000D02*
X184860000Y-88520000D01*
X186940000Y-88520000D02*
X188391000Y-88520000D01*
X183420000Y-88479000D02*
X184860000Y-88479000D01*
X186940000Y-88479000D02*
X188380000Y-88479000D01*
X183432000Y-88439000D02*
X184860000Y-88439000D01*
X186940000Y-88439000D02*
X188368000Y-88439000D01*
X183445000Y-88399000D02*
X184860000Y-88399000D01*
X186940000Y-88399000D02*
X188355000Y-88399000D01*
X183458000Y-88359000D02*
X184860000Y-88359000D01*
X186940000Y-88359000D02*
X188342000Y-88359000D01*
X183472000Y-88319000D02*
X184860000Y-88319000D01*
X186940000Y-88319000D02*
X188328000Y-88319000D01*
X183486000Y-88279000D02*
X184860000Y-88279000D01*
X186940000Y-88279000D02*
X188314000Y-88279000D01*
X183502000Y-88239000D02*
X184860000Y-88239000D01*
X186940000Y-88239000D02*
X188298000Y-88239000D01*
X183518000Y-88199000D02*
X184860000Y-88199000D01*
X186940000Y-88199000D02*
X188282000Y-88199000D01*
X183535000Y-88159000D02*
X184860000Y-88159000D01*
X186940000Y-88159000D02*
X188265000Y-88159000D01*
X183552000Y-88119000D02*
X184860000Y-88119000D01*
X186940000Y-88119000D02*
X188248000Y-88119000D01*
X183571000Y-88079000D02*
X184860000Y-88079000D01*
X186940000Y-88079000D02*
X188229000Y-88079000D01*
X183590000Y-88039000D02*
X184860000Y-88039000D01*
X186940000Y-88039000D02*
X188210000Y-88039000D01*
X183610000Y-87999000D02*
X184860000Y-87999000D01*
X186940000Y-87999000D02*
X188190000Y-87999000D01*
X183632000Y-87959000D02*
X184860000Y-87959000D01*
X186940000Y-87959000D02*
X188168000Y-87959000D01*
X183653000Y-87919000D02*
X184860000Y-87919000D01*
X186940000Y-87919000D02*
X188147000Y-87919000D01*
X183676000Y-87879000D02*
X184860000Y-87879000D01*
X186940000Y-87879000D02*
X188124000Y-87879000D01*
X183700000Y-87839000D02*
X184860000Y-87839000D01*
X186940000Y-87839000D02*
X188100000Y-87839000D01*
X183725000Y-87799000D02*
X184860000Y-87799000D01*
X186940000Y-87799000D02*
X188075000Y-87799000D01*
X183751000Y-87759000D02*
X184860000Y-87759000D01*
X186940000Y-87759000D02*
X188049000Y-87759000D01*
X183778000Y-87719000D02*
X184860000Y-87719000D01*
X186940000Y-87719000D02*
X188022000Y-87719000D01*
X183805000Y-87679000D02*
X184860000Y-87679000D01*
X186940000Y-87679000D02*
X187995000Y-87679000D01*
X183835000Y-87639000D02*
X184860000Y-87639000D01*
X186940000Y-87639000D02*
X187965000Y-87639000D01*
X183865000Y-87599000D02*
X184860000Y-87599000D01*
X186940000Y-87599000D02*
X187935000Y-87599000D01*
X183896000Y-87559000D02*
X184860000Y-87559000D01*
X186940000Y-87559000D02*
X187904000Y-87559000D01*
X183929000Y-87519000D02*
X184860000Y-87519000D01*
X186940000Y-87519000D02*
X187871000Y-87519000D01*
X183963000Y-87479000D02*
X184860000Y-87479000D01*
X186940000Y-87479000D02*
X187837000Y-87479000D01*
X183999000Y-87439000D02*
X184860000Y-87439000D01*
X186940000Y-87439000D02*
X187801000Y-87439000D01*
X184036000Y-87399000D02*
X184860000Y-87399000D01*
X186940000Y-87399000D02*
X187764000Y-87399000D01*
X184074000Y-87359000D02*
X184860000Y-87359000D01*
X186940000Y-87359000D02*
X187726000Y-87359000D01*
X184115000Y-87319000D02*
X184860000Y-87319000D01*
X186940000Y-87319000D02*
X187685000Y-87319000D01*
X184157000Y-87279000D02*
X184860000Y-87279000D01*
X186940000Y-87279000D02*
X187643000Y-87279000D01*
X184201000Y-87239000D02*
X184860000Y-87239000D01*
X186940000Y-87239000D02*
X187599000Y-87239000D01*
X184247000Y-87199000D02*
X184860000Y-87199000D01*
X186940000Y-87199000D02*
X187553000Y-87199000D01*
X184295000Y-87159000D02*
X187505000Y-87159000D01*
X184346000Y-87119000D02*
X187454000Y-87119000D01*
X184400000Y-87079000D02*
X187400000Y-87079000D01*
X184457000Y-87039000D02*
X187343000Y-87039000D01*
X184517000Y-86999000D02*
X187283000Y-86999000D01*
X184581000Y-86959000D02*
X187219000Y-86959000D01*
X184649000Y-86919000D02*
X187151000Y-86919000D01*
X184722000Y-86879000D02*
X187078000Y-86879000D01*
X184802000Y-86839000D02*
X186998000Y-86839000D01*
X184889000Y-86799000D02*
X186911000Y-86799000D01*
X184985000Y-86759000D02*
X186815000Y-86759000D01*
X185095000Y-86719000D02*
X186705000Y-86719000D01*
X185223000Y-86679000D02*
X186577000Y-86679000D01*
X185382000Y-86639000D02*
X186418000Y-86639000D01*
X185616000Y-86599000D02*
X186184000Y-86599000D01*
X184425000Y-92004775D02*
X184425000Y-91504775D01*
X184175000Y-91754775D02*
X184675000Y-91754775D01*
X160870000Y-68410000D02*
X160870000Y-71090000D01*
X154630000Y-71090000D02*
X154630000Y-68410000D01*
X154780000Y-66630000D02*
X160720000Y-66630000D01*
X154780000Y-72870000D02*
X160720000Y-72870000D01*
X159164214Y-69750000D02*
G75*
G03X159164214Y-69750000I-1414214J0D01*
G01*
X192735000Y-46355000D02*
X191785000Y-46355000D01*
X186995000Y-46355000D02*
X187945000Y-46355000D01*
X191785000Y-45435000D02*
X187945000Y-45435000D01*
X191785000Y-47275000D02*
X191785000Y-45435000D01*
X187945000Y-47275000D02*
X191785000Y-47275000D01*
X187945000Y-45435000D02*
X187945000Y-47275000D01*
X192735000Y-49530000D02*
X191785000Y-49530000D01*
X186995000Y-49530000D02*
X187945000Y-49530000D01*
X191785000Y-48610000D02*
X187945000Y-48610000D01*
X191785000Y-50450000D02*
X191785000Y-48610000D01*
X187945000Y-50450000D02*
X191785000Y-50450000D01*
X187945000Y-48610000D02*
X187945000Y-50450000D01*
X168148000Y-64567000D02*
X168148000Y-65517000D01*
X168148000Y-70307000D02*
X168148000Y-69357000D01*
X167228000Y-65517000D02*
X167228000Y-69357000D01*
X169068000Y-65517000D02*
X167228000Y-65517000D01*
X169068000Y-69357000D02*
X169068000Y-65517000D01*
X167228000Y-69357000D02*
X169068000Y-69357000D01*
X172480000Y-76200000D02*
X171530000Y-76200000D01*
X166740000Y-76200000D02*
X167690000Y-76200000D01*
X171530000Y-75280000D02*
X167690000Y-75280000D01*
X171530000Y-77120000D02*
X171530000Y-75280000D01*
X167690000Y-77120000D02*
X171530000Y-77120000D01*
X167690000Y-75280000D02*
X167690000Y-77120000D01*
X214325000Y-73300000D02*
X213375000Y-73300000D01*
X208585000Y-73300000D02*
X209535000Y-73300000D01*
X213375000Y-72380000D02*
X209535000Y-72380000D01*
X213375000Y-74220000D02*
X213375000Y-72380000D01*
X209535000Y-74220000D02*
X213375000Y-74220000D01*
X209535000Y-72380000D02*
X209535000Y-74220000D01*
X172085000Y-64567000D02*
X172085000Y-65517000D01*
X172085000Y-70307000D02*
X172085000Y-69357000D01*
X171165000Y-65517000D02*
X171165000Y-69357000D01*
X173005000Y-65517000D02*
X171165000Y-65517000D01*
X173005000Y-69357000D02*
X173005000Y-65517000D01*
X171165000Y-69357000D02*
X173005000Y-69357000D01*
X186995000Y-52705000D02*
X187945000Y-52705000D01*
X192735000Y-52705000D02*
X191785000Y-52705000D01*
X187945000Y-53625000D02*
X191785000Y-53625000D01*
X187945000Y-51785000D02*
X187945000Y-53625000D01*
X191785000Y-51785000D02*
X187945000Y-51785000D01*
X191785000Y-53625000D02*
X191785000Y-51785000D01*
X214325000Y-76000000D02*
X213375000Y-76000000D01*
X208585000Y-76000000D02*
X209535000Y-76000000D01*
X213375000Y-75080000D02*
X209535000Y-75080000D01*
X213375000Y-76920000D02*
X213375000Y-75080000D01*
X209535000Y-76920000D02*
X213375000Y-76920000D01*
X209535000Y-75080000D02*
X209535000Y-76920000D01*
X169211732Y-47220364D02*
G75*
G02X167797518Y-48634578I-707107J-707107D01*
G01*
X167797518Y-48634578D02*
X166630792Y-49801304D01*
X166630792Y-49801304D02*
X173899850Y-57070362D01*
X173899850Y-57070362D02*
X177647515Y-53322696D01*
X177647515Y-53322696D02*
X170378458Y-46053638D01*
X170378458Y-46053638D02*
X169211732Y-47220364D01*
X164827670Y-51519574D02*
X172181580Y-58873484D01*
X172181580Y-58873484D02*
X179450638Y-51604426D01*
X179450638Y-51604426D02*
X172096727Y-44250516D01*
X172096727Y-44250516D02*
X164827670Y-51519574D01*
X211153268Y-92352636D02*
G75*
G02X212567482Y-90938422I707107J707107D01*
G01*
X212567482Y-90938422D02*
X213734208Y-89771696D01*
X213734208Y-89771696D02*
X206465150Y-82502638D01*
X206465150Y-82502638D02*
X202717485Y-86250304D01*
X202717485Y-86250304D02*
X209986542Y-93519362D01*
X209986542Y-93519362D02*
X211153268Y-92352636D01*
X215537330Y-88053426D02*
X208183420Y-80699516D01*
X208183420Y-80699516D02*
X200914362Y-87968574D01*
X200914362Y-87968574D02*
X208268273Y-95322484D01*
X208268273Y-95322484D02*
X215537330Y-88053426D01*
D12*
X192340000Y-41200000D02*
G75*
G03X192340000Y-41200000I-2540000J0D01*
G01*
D16*
X169330000Y-79525000D02*
X169330000Y-81765000D01*
X169330000Y-81765000D02*
X173570000Y-81765000D01*
X173570000Y-81765000D02*
X173570000Y-79525000D01*
X173570000Y-79525000D02*
X169330000Y-79525000D01*
X168680000Y-80645000D02*
X169330000Y-80645000D01*
X174220000Y-80645000D02*
X173570000Y-80645000D01*
X170050000Y-79525000D02*
X170050000Y-81765000D01*
X170170000Y-79525000D02*
X170170000Y-81765000D01*
X169930000Y-79525000D02*
X169930000Y-81765000D01*
X171235000Y-83970000D02*
X171235000Y-86210000D01*
X171235000Y-86210000D02*
X175475000Y-86210000D01*
X175475000Y-86210000D02*
X175475000Y-83970000D01*
X175475000Y-83970000D02*
X171235000Y-83970000D01*
X170585000Y-85090000D02*
X171235000Y-85090000D01*
X176125000Y-85090000D02*
X175475000Y-85090000D01*
X171955000Y-83970000D02*
X171955000Y-86210000D01*
X172075000Y-83970000D02*
X172075000Y-86210000D01*
X171835000Y-83970000D02*
X171835000Y-86210000D01*
X180425970Y-56672239D02*
X177215705Y-59882504D01*
X178912761Y-55159030D02*
X175702496Y-58369295D01*
X180425970Y-56672239D02*
X180415363Y-56661632D01*
X178923368Y-55169637D02*
X178912761Y-55159030D01*
X177215705Y-59882504D02*
X177205098Y-59871897D01*
X175713103Y-58379902D02*
X175702496Y-58369295D01*
X200066030Y-82900761D02*
X203276295Y-79690496D01*
X201579239Y-84413970D02*
X204789504Y-81203705D01*
X200066030Y-82900761D02*
X200076637Y-82911368D01*
X201568632Y-84403363D02*
X201579239Y-84413970D01*
X203276295Y-79690496D02*
X203286902Y-79701103D01*
X204778897Y-81193098D02*
X204789504Y-81203705D01*
D15*
X219216300Y-67171200D02*
X220587900Y-67171200D01*
X220587900Y-67171200D02*
X220638700Y-67171200D01*
X220638700Y-67171200D02*
X221896000Y-68415800D01*
X217692300Y-67285500D02*
X217793900Y-67285500D01*
X217844700Y-67222000D02*
X217844700Y-67209300D01*
X217844700Y-67209300D02*
X216549300Y-67209300D01*
X216549300Y-67209300D02*
X216523900Y-67209300D01*
X216523900Y-67209300D02*
X215901600Y-67704600D01*
X217844700Y-70231900D02*
X217844700Y-67222000D01*
X214187100Y-67272800D02*
X214110900Y-67272800D01*
X214034700Y-67209300D02*
X215279300Y-67209300D01*
X215279300Y-67209300D02*
X215863500Y-67691900D01*
X214034700Y-70206500D02*
X214034700Y-67222000D01*
X213298100Y-69800100D02*
X213387000Y-69800100D01*
X212955200Y-69800100D02*
X212891700Y-69800100D01*
X212815500Y-69863600D02*
X213425100Y-69863600D01*
X213425100Y-69863600D02*
X213450500Y-69863600D01*
X213450500Y-69863600D02*
X213450500Y-67844300D01*
X212815500Y-67844300D02*
X212815500Y-69863600D01*
X211316900Y-67234700D02*
X211431200Y-67234700D01*
X211189900Y-67158500D02*
X211494700Y-67158500D01*
X211494700Y-67158500D02*
X211494700Y-70193800D01*
X211012100Y-67247400D02*
X210948600Y-67234700D01*
X210897800Y-67158500D02*
X210885100Y-67158500D01*
X210885100Y-67158500D02*
X210872400Y-67158500D01*
X210872400Y-67158500D02*
X210872400Y-70308100D01*
X211177200Y-67158500D02*
X210897800Y-67158500D01*
D19*
X211177200Y-70231900D02*
X211177200Y-67501400D01*
X217514500Y-67514100D02*
X217514500Y-70117600D01*
X209399200Y-67501400D02*
X208395900Y-67501400D01*
X210021500Y-68111000D02*
X210021500Y-70041400D01*
X207799000Y-68149100D02*
X207799000Y-68390400D01*
X207799000Y-70117600D02*
X208383200Y-70689100D01*
X207811700Y-70130300D02*
X207811700Y-69368300D01*
X208370500Y-70689100D02*
X209411900Y-70689100D01*
D13*
X220858659Y-69076200D02*
G75*
G03X220858659Y-69076200I-359659J0D01*
G01*
D19*
X219991000Y-69076200D02*
X218771800Y-69076200D01*
D13*
X223792135Y-67336300D02*
G75*
G03X223792135Y-67336300I-359435J0D01*
G01*
D19*
X223064400Y-67691900D02*
X222200800Y-68585600D01*
D20*
X221642000Y-68682500D02*
X222200800Y-68682500D01*
D19*
X220524400Y-67501400D02*
X221616600Y-68568200D01*
X219302500Y-67501400D02*
X220524400Y-67501400D01*
X218771800Y-67984000D02*
X219254400Y-67476000D01*
X218771800Y-68009400D02*
X218771800Y-70244600D01*
X218771800Y-70244600D02*
X219203600Y-70676400D01*
X219203600Y-70676400D02*
X220524400Y-70676400D01*
X220524400Y-70676400D02*
X221667400Y-69558800D01*
D20*
X221667400Y-69457200D02*
X222200800Y-69457200D01*
D19*
X223013600Y-70371600D02*
X222175400Y-69558800D01*
D13*
X223673266Y-70727200D02*
G75*
G03X223673266Y-70727200I-329466J0D01*
G01*
X217877729Y-70638300D02*
G75*
G03X217877729Y-70638300I-363229J0D01*
G01*
D19*
X216612800Y-67526800D02*
X217501800Y-67526800D01*
D13*
X216272518Y-69355600D02*
G75*
G03X216272518Y-69355600I-370918J0D01*
G01*
D19*
X215977800Y-68034800D02*
X216612800Y-67526800D01*
X215901600Y-68822200D02*
X215901600Y-68111000D01*
X215190400Y-67526800D02*
X215800000Y-68034800D01*
X214352200Y-67526800D02*
X215190400Y-67526800D01*
X214352200Y-70117600D02*
X214352200Y-67526800D01*
D13*
X214724559Y-70625600D02*
G75*
G03X214724559Y-70625600I-359659J0D01*
G01*
X213519218Y-67425200D02*
G75*
G03X213519218Y-67425200I-373518J0D01*
G01*
D19*
X213133000Y-67958600D02*
X213133000Y-69558800D01*
D13*
X213499324Y-70651000D02*
G75*
G03X213499324Y-70651000I-366324J0D01*
G01*
D19*
X212620200Y-70676400D02*
X211634400Y-70676400D01*
X211634400Y-70676400D02*
X211177200Y-70219200D01*
X210008800Y-70079500D02*
X209450000Y-70663700D01*
X209399200Y-67514100D02*
X210034200Y-68123700D01*
X207799000Y-68098300D02*
X208307000Y-67590300D01*
D13*
X208149147Y-68873000D02*
G75*
G03X208149147Y-68873000I-337447J0D01*
G01*
G36*
X211360791Y-58308478D02*
G01*
X211372796Y-58369141D01*
X211390327Y-58460318D01*
X211411326Y-58571198D01*
X211433738Y-58690966D01*
X211441620Y-58733439D01*
X211499870Y-59048101D01*
X211790573Y-59168841D01*
X211906910Y-59216317D01*
X211991314Y-59248317D01*
X212050135Y-59266688D01*
X212089721Y-59273277D01*
X212116421Y-59269932D01*
X212125047Y-59266156D01*
X212156478Y-59246761D01*
X212215696Y-59207947D01*
X212295950Y-59154222D01*
X212390488Y-59090097D01*
X212464062Y-59039708D01*
X212563292Y-58971603D01*
X212651654Y-58911201D01*
X212722820Y-58862808D01*
X212770464Y-58830730D01*
X212786957Y-58819966D01*
X212810586Y-58825867D01*
X212857456Y-58859334D01*
X212928847Y-58921451D01*
X213026039Y-59013303D01*
X213096744Y-59082617D01*
X213186165Y-59172397D01*
X213265119Y-59254012D01*
X213328693Y-59322192D01*
X213371972Y-59371667D01*
X213390044Y-59397166D01*
X213390061Y-59397221D01*
X213382139Y-59428387D01*
X213349744Y-59490682D01*
X213294122Y-59582007D01*
X213216517Y-59700264D01*
X213167456Y-59772333D01*
X212933668Y-60112213D01*
X213064115Y-60415052D01*
X213117004Y-60533383D01*
X213163085Y-60627702D01*
X213199878Y-60693305D01*
X213224903Y-60725491D01*
X213229042Y-60727769D01*
X213260218Y-60734620D01*
X213325336Y-60747505D01*
X213416985Y-60765006D01*
X213527754Y-60785705D01*
X213631183Y-60804714D01*
X213750762Y-60827643D01*
X213855849Y-60849909D01*
X213939489Y-60869867D01*
X213994726Y-60885873D01*
X214014277Y-60895320D01*
X214019176Y-60922951D01*
X214023470Y-60985549D01*
X214026889Y-61076064D01*
X214029167Y-61187449D01*
X214030034Y-61310207D01*
X214029351Y-61459246D01*
X214026838Y-61570609D01*
X214022219Y-61648608D01*
X214015217Y-61697558D01*
X214005555Y-61721770D01*
X214003494Y-61723848D01*
X213974858Y-61734698D01*
X213912047Y-61750993D01*
X213822306Y-61771096D01*
X213712877Y-61793373D01*
X213609574Y-61812835D01*
X213489396Y-61835736D01*
X213383046Y-61858013D01*
X213297681Y-61878007D01*
X213240457Y-61894057D01*
X213219234Y-61903412D01*
X213200251Y-61934415D01*
X213171878Y-61994769D01*
X213137228Y-62076265D01*
X213099414Y-62170694D01*
X213061550Y-62269850D01*
X213026749Y-62365524D01*
X212998126Y-62449509D01*
X212978793Y-62513595D01*
X212971864Y-62549576D01*
X212972611Y-62553567D01*
X212988906Y-62578427D01*
X213024883Y-62631648D01*
X213076318Y-62707035D01*
X213138987Y-62798393D01*
X213193673Y-62877802D01*
X213261109Y-62976454D01*
X213319312Y-63063304D01*
X213364397Y-63132413D01*
X213392475Y-63177842D01*
X213400083Y-63193220D01*
X213385877Y-63212377D01*
X213346280Y-63256256D01*
X213285826Y-63320081D01*
X213209047Y-63399078D01*
X213120476Y-63488470D01*
X213107926Y-63501011D01*
X212999532Y-63607838D01*
X212916381Y-63686425D01*
X212855285Y-63739471D01*
X212813056Y-63769672D01*
X212786504Y-63779728D01*
X212779641Y-63778745D01*
X212750804Y-63762611D01*
X212694061Y-63726817D01*
X212616013Y-63675670D01*
X212523264Y-63613480D01*
X212453080Y-63565650D01*
X212355890Y-63499586D01*
X212270633Y-63442781D01*
X212203349Y-63399168D01*
X212160082Y-63372681D01*
X212147088Y-63366419D01*
X212122344Y-63375438D01*
X212070344Y-63399405D01*
X212001010Y-63433688D01*
X211979298Y-63444785D01*
X211907627Y-63479633D01*
X211850916Y-63503385D01*
X211818699Y-63512177D01*
X211815198Y-63511283D01*
X211802657Y-63487546D01*
X211776835Y-63430318D01*
X211740001Y-63345140D01*
X211694424Y-63237556D01*
X211642375Y-63113108D01*
X211586122Y-62977338D01*
X211527937Y-62835790D01*
X211470088Y-62694006D01*
X211414845Y-62557529D01*
X211364478Y-62431901D01*
X211321256Y-62322665D01*
X211287449Y-62235364D01*
X211265328Y-62175539D01*
X211257161Y-62148735D01*
X211257155Y-62148523D01*
X211274435Y-62113383D01*
X211306362Y-62090197D01*
X211344608Y-62065639D01*
X211402129Y-62020509D01*
X211468026Y-61963479D01*
X211484567Y-61948347D01*
X211610930Y-61805133D01*
X211701074Y-61646422D01*
X211754866Y-61477464D01*
X211772172Y-61303510D01*
X211752861Y-61129809D01*
X211696799Y-60961614D01*
X211603852Y-60804174D01*
X211516126Y-60702529D01*
X211372543Y-60586745D01*
X211212574Y-60506549D01*
X211042170Y-60461943D01*
X210867282Y-60452925D01*
X210693862Y-60479496D01*
X210527861Y-60541656D01*
X210375230Y-60639404D01*
X210304883Y-60702529D01*
X210185865Y-60849236D01*
X210103824Y-61010399D01*
X210058628Y-61180766D01*
X210050144Y-61355088D01*
X210078238Y-61528113D01*
X210142779Y-61694592D01*
X210243632Y-61849273D01*
X210336442Y-61948347D01*
X210402732Y-62006999D01*
X210463374Y-62055925D01*
X210507472Y-62086451D01*
X210514648Y-62090197D01*
X210552015Y-62119832D01*
X210563855Y-62148523D01*
X210556091Y-62174372D01*
X210534311Y-62233388D01*
X210500787Y-62320028D01*
X210457787Y-62428752D01*
X210407581Y-62554015D01*
X210352438Y-62690274D01*
X210294629Y-62831989D01*
X210236423Y-62973615D01*
X210180090Y-63109610D01*
X210127899Y-63234432D01*
X210082121Y-63342538D01*
X210045024Y-63428385D01*
X210018878Y-63486431D01*
X210005954Y-63511132D01*
X210005811Y-63511283D01*
X209983003Y-63507846D01*
X209932781Y-63488265D01*
X209864679Y-63456405D01*
X209841712Y-63444785D01*
X209769287Y-63408403D01*
X209711408Y-63381001D01*
X209677967Y-63367211D01*
X209674270Y-63366419D01*
X209652813Y-63377728D01*
X209602644Y-63409113D01*
X209529618Y-63456762D01*
X209439589Y-63516860D01*
X209351692Y-63576510D01*
X209250995Y-63644484D01*
X209161492Y-63703293D01*
X209089214Y-63749101D01*
X209040197Y-63778074D01*
X209021218Y-63786601D01*
X208999859Y-63772361D01*
X208954017Y-63732691D01*
X208888625Y-63672166D01*
X208808613Y-63595362D01*
X208718914Y-63506854D01*
X208709520Y-63497454D01*
X208620377Y-63407371D01*
X208542416Y-63327121D01*
X208480185Y-63261505D01*
X208438231Y-63215326D01*
X208421100Y-63193385D01*
X208420927Y-63192666D01*
X208432303Y-63171066D01*
X208463842Y-63120935D01*
X208511658Y-63048202D01*
X208571866Y-62958792D01*
X208627336Y-62877802D01*
X208695895Y-62778205D01*
X208756557Y-62689685D01*
X208805098Y-62618436D01*
X208837295Y-62570652D01*
X208848399Y-62553567D01*
X208845625Y-62527204D01*
X208829548Y-62470372D01*
X208803282Y-62391280D01*
X208769941Y-62298136D01*
X208732639Y-62199150D01*
X208694491Y-62102530D01*
X208658610Y-62016485D01*
X208628112Y-61949223D01*
X208606111Y-61908955D01*
X208601776Y-61903509D01*
X208574359Y-61892159D01*
X208512675Y-61875369D01*
X208423870Y-61854807D01*
X208315090Y-61832142D01*
X208210836Y-61812208D01*
X208090327Y-61789171D01*
X207983379Y-61767015D01*
X207897209Y-61747373D01*
X207839033Y-61731875D01*
X207816915Y-61723124D01*
X207806870Y-61702088D01*
X207799502Y-61655169D01*
X207794562Y-61578396D01*
X207791802Y-61467797D01*
X207790970Y-61319399D01*
X207790975Y-61310207D01*
X207791873Y-61185199D01*
X207794175Y-61074143D01*
X207797614Y-60984089D01*
X207801921Y-60922084D01*
X207806732Y-60895320D01*
X207831513Y-60884106D01*
X207890763Y-60867505D01*
X207977529Y-60847160D01*
X208084854Y-60824718D01*
X208189827Y-60804714D01*
X208311005Y-60782413D01*
X208419349Y-60762109D01*
X208507448Y-60745217D01*
X208567891Y-60733156D01*
X208591967Y-60727769D01*
X208613651Y-60704703D01*
X208647725Y-60647040D01*
X208691709Y-60559483D01*
X208743124Y-60446733D01*
X208756895Y-60415052D01*
X208887341Y-60112213D01*
X208653553Y-59772333D01*
X208564920Y-59640793D01*
X208497615Y-59535084D01*
X208452885Y-59457305D01*
X208431974Y-59409553D01*
X208430948Y-59397221D01*
X208448889Y-59371848D01*
X208492060Y-59322474D01*
X208555550Y-59254370D01*
X208634443Y-59172806D01*
X208723826Y-59083052D01*
X208724266Y-59082617D01*
X208838621Y-58971455D01*
X208926176Y-58891061D01*
X208987867Y-58840641D01*
X209024630Y-58819401D01*
X209034052Y-58819531D01*
X209059892Y-58836430D01*
X209113956Y-58872926D01*
X209189913Y-58924705D01*
X209281432Y-58987458D01*
X209355831Y-59038685D01*
X209456372Y-59107632D01*
X209547637Y-59169477D01*
X209622838Y-59219678D01*
X209675186Y-59253690D01*
X209694846Y-59265567D01*
X209717981Y-59272823D01*
X209750354Y-59271236D01*
X209798421Y-59258946D01*
X209868636Y-59234093D01*
X209967453Y-59194816D01*
X210030437Y-59168841D01*
X210321140Y-59048101D01*
X210379390Y-58733439D01*
X210401809Y-58613116D01*
X210423543Y-58497855D01*
X210442536Y-58398470D01*
X210456732Y-58325775D01*
X210460219Y-58308478D01*
X210482797Y-58198181D01*
X211338212Y-58198181D01*
X211360791Y-58308478D01*
G37*
G36*
X214284757Y-64594698D02*
G01*
X214351814Y-64509451D01*
X214444005Y-64456785D01*
X214560355Y-64437918D01*
X214566088Y-64437883D01*
X214686394Y-64455701D01*
X214783375Y-64507512D01*
X214854594Y-64590851D01*
X214897615Y-64703253D01*
X214908952Y-64784759D01*
X214917633Y-64921092D01*
X214663076Y-64921092D01*
X214556253Y-64921355D01*
X214484479Y-64923030D01*
X214440787Y-64927446D01*
X214418208Y-64935933D01*
X214409775Y-64949820D01*
X214408520Y-64969653D01*
X214426131Y-65028077D01*
X214469541Y-65079969D01*
X214524612Y-65110045D01*
X214540645Y-65112499D01*
X214640904Y-65109593D01*
X214708709Y-65088222D01*
X214727779Y-65074483D01*
X214755129Y-65056278D01*
X214783506Y-65060381D01*
X214828553Y-65089059D01*
X214828602Y-65089094D01*
X214872474Y-65127209D01*
X214881493Y-65159590D01*
X214854058Y-65193095D01*
X214795555Y-65230631D01*
X214698660Y-65267262D01*
X214588680Y-65280132D01*
X214481105Y-65269239D01*
X214391424Y-65234579D01*
X214385365Y-65230699D01*
X214308058Y-65159208D01*
X214258018Y-65063708D01*
X214233363Y-64939688D01*
X214229942Y-64858065D01*
X214241852Y-64732010D01*
X214408520Y-64732010D01*
X214412085Y-64753093D01*
X214428460Y-64765657D01*
X214466167Y-64771871D01*
X214533726Y-64773901D01*
X214573679Y-64774028D01*
X214656030Y-64773525D01*
X214704495Y-64770226D01*
X214727204Y-64761448D01*
X214732291Y-64744509D01*
X214729038Y-64722763D01*
X214697784Y-64654010D01*
X214635995Y-64613960D01*
X214544012Y-64602816D01*
X214529322Y-64603536D01*
X214479514Y-64624074D01*
X214434438Y-64668442D01*
X214409698Y-64720046D01*
X214408520Y-64732010D01*
X214241852Y-64732010D01*
X214243808Y-64711309D01*
X214284757Y-64594698D01*
G37*
G36*
X213955467Y-64442941D02*
G01*
X214060616Y-64477937D01*
X214130371Y-64527189D01*
X214177864Y-64571679D01*
X214121968Y-64630022D01*
X214066071Y-64688365D01*
X214008204Y-64647160D01*
X213925072Y-64609784D01*
X213842522Y-64609939D01*
X213769049Y-64643890D01*
X213713146Y-64707902D01*
X213684649Y-64789453D01*
X213681131Y-64880127D01*
X213697377Y-64968972D01*
X213729560Y-65041817D01*
X213762515Y-65077891D01*
X213835134Y-65105725D01*
X213919743Y-65104698D01*
X213998423Y-65075461D01*
X214008204Y-65068969D01*
X214066071Y-65027764D01*
X214121968Y-65086107D01*
X214177864Y-65144450D01*
X214130371Y-65188940D01*
X214041950Y-65245173D01*
X213933588Y-65274221D01*
X213818532Y-65274669D01*
X213710029Y-65245103D01*
X213691013Y-65235852D01*
X213629453Y-65190546D01*
X213574243Y-65129755D01*
X213564958Y-65115978D01*
X213539587Y-65068420D01*
X213524578Y-65017983D01*
X213517428Y-64951580D01*
X213515633Y-64858065D01*
X213517651Y-64761944D01*
X213525252Y-64695005D01*
X213540761Y-64644541D01*
X213561865Y-64605155D01*
X213636416Y-64521987D01*
X213733467Y-64466323D01*
X213843117Y-64439522D01*
X213955467Y-64442941D01*
G37*
G36*
X213097713Y-64441279D02*
G01*
X213121970Y-64455341D01*
X213126965Y-64481426D01*
X213126965Y-64524969D01*
X213182321Y-64481426D01*
X213248951Y-64450593D01*
X213335155Y-64438428D01*
X213422418Y-64445856D01*
X213480550Y-64466529D01*
X213529504Y-64493685D01*
X213473927Y-64559735D01*
X213433542Y-64601640D01*
X213395548Y-64617502D01*
X213339614Y-64614955D01*
X213330186Y-64613701D01*
X213261670Y-64610783D01*
X213211790Y-64628125D01*
X213189746Y-64643927D01*
X213169040Y-64662504D01*
X213154446Y-64684018D01*
X213144658Y-64715897D01*
X213138369Y-64765570D01*
X213134270Y-64840465D01*
X213131055Y-64948011D01*
X213130202Y-64982242D01*
X213122935Y-65278247D01*
X212958892Y-65278247D01*
X212958892Y-64437883D01*
X213042928Y-64437883D01*
X213097713Y-64441279D01*
G37*
G36*
X212286601Y-64727140D02*
G01*
X212286970Y-64843717D01*
X212288807Y-64925872D01*
X212293208Y-64981197D01*
X212301265Y-65017287D01*
X212314074Y-65041734D01*
X212332729Y-65062133D01*
X212335225Y-65064494D01*
X212402874Y-65103138D01*
X212476694Y-65106033D01*
X212543671Y-65073350D01*
X212556057Y-65061549D01*
X212574459Y-65039009D01*
X212587140Y-65012232D01*
X212595155Y-64973464D01*
X212599556Y-64914953D01*
X212601397Y-64828944D01*
X212601737Y-64725404D01*
X212601737Y-64437883D01*
X212769810Y-64437883D01*
X212769810Y-65278247D01*
X212685774Y-65278247D01*
X212630989Y-65274850D01*
X212606732Y-65260788D01*
X212601737Y-65234704D01*
X212601737Y-65191161D01*
X212546381Y-65234704D01*
X212482231Y-65267257D01*
X212394244Y-65278197D01*
X212386341Y-65278247D01*
X212319548Y-65274554D01*
X212271866Y-65257953D01*
X212224093Y-65220155D01*
X212202173Y-65198762D01*
X212161871Y-65151757D01*
X212132721Y-65098714D01*
X212113392Y-65032624D01*
X212102552Y-64946478D01*
X212098868Y-64833264D01*
X212101009Y-64685975D01*
X212101496Y-64668983D01*
X212108023Y-64448387D01*
X212286601Y-64435467D01*
X212286601Y-64727140D01*
G37*
G36*
X211288680Y-64750692D02*
G01*
X211304860Y-64659237D01*
X211328740Y-64594483D01*
X211329065Y-64593935D01*
X211391154Y-64515530D01*
X211470051Y-64467367D01*
X211575113Y-64444262D01*
X211603296Y-64441988D01*
X211682647Y-64440311D01*
X211738025Y-64449649D01*
X211786822Y-64473628D01*
X211801460Y-64483313D01*
X211870067Y-64535585D01*
X211915959Y-64587541D01*
X211943493Y-64649423D01*
X211957031Y-64731474D01*
X211960932Y-64843937D01*
X211960960Y-64858065D01*
X211957775Y-64974645D01*
X211945366Y-65059643D01*
X211919452Y-65123206D01*
X211875753Y-65175478D01*
X211809987Y-65226605D01*
X211803605Y-65230976D01*
X211729482Y-65262493D01*
X211635201Y-65277469D01*
X211539878Y-65274292D01*
X211477750Y-65258442D01*
X211407119Y-65211474D01*
X211344092Y-65138065D01*
X211301268Y-65053492D01*
X211296897Y-65039082D01*
X211283642Y-64955232D01*
X211282075Y-64888913D01*
X211451519Y-64888913D01*
X211466368Y-64979330D01*
X211499265Y-65050998D01*
X211515253Y-65069226D01*
X211577504Y-65101734D01*
X211652515Y-65106915D01*
X211720357Y-65083840D01*
X211727114Y-65079096D01*
X211754829Y-65040915D01*
X211778137Y-64980027D01*
X211784254Y-64953709D01*
X211792065Y-64862310D01*
X211784489Y-64771161D01*
X211763874Y-64693281D01*
X211732569Y-64641688D01*
X211727114Y-64637034D01*
X211661486Y-64610483D01*
X211586283Y-64612300D01*
X211521433Y-64641556D01*
X211515253Y-64646903D01*
X211475962Y-64708526D01*
X211454717Y-64793920D01*
X211451519Y-64888913D01*
X211282075Y-64888913D01*
X211281255Y-64854229D01*
X211288680Y-64750692D01*
G37*
G36*
X210936220Y-64446146D02*
G01*
X211026061Y-64465576D01*
X211062821Y-64479335D01*
X211124863Y-64513487D01*
X211148222Y-64546384D01*
X211135296Y-64585602D01*
X211107192Y-64619546D01*
X211069061Y-64651281D01*
X211035390Y-64651812D01*
X211020227Y-64644855D01*
X210928628Y-64608466D01*
X210841001Y-64595872D01*
X210766952Y-64606815D01*
X210716087Y-64641040D01*
X210708121Y-64653200D01*
X210698871Y-64695896D01*
X210723969Y-64729204D01*
X210785794Y-64754631D01*
X210886725Y-64773687D01*
X210900893Y-64775531D01*
X211001067Y-64792754D01*
X211068321Y-64816300D01*
X211103410Y-64840648D01*
X211157957Y-64917521D01*
X211179694Y-65006905D01*
X211169224Y-65097484D01*
X211127152Y-65177940D01*
X211083185Y-65219418D01*
X211032383Y-65247877D01*
X210971031Y-65263877D01*
X210884627Y-65270934D01*
X210868579Y-65271439D01*
X210788351Y-65271876D01*
X210720555Y-65269159D01*
X210680545Y-65264002D01*
X210635714Y-65245373D01*
X210580727Y-65214778D01*
X210528164Y-65180329D01*
X210490606Y-65150137D01*
X210479818Y-65134582D01*
X210493715Y-65109704D01*
X210527372Y-65072840D01*
X210529483Y-65070840D01*
X210579148Y-65024182D01*
X210656151Y-65069615D01*
X210727677Y-65098839D01*
X210811283Y-65114435D01*
X210892077Y-65115413D01*
X210955168Y-65100785D01*
X210971828Y-65090579D01*
X210998444Y-65048498D01*
X211005046Y-65013461D01*
X211002270Y-64986805D01*
X210988778Y-64968430D01*
X210956821Y-64955117D01*
X210898650Y-64943650D01*
X210806517Y-64930812D01*
X210805736Y-64930710D01*
X210692070Y-64905987D01*
X210612257Y-64864132D01*
X210560414Y-64801671D01*
X210549994Y-64779741D01*
X210528177Y-64681669D01*
X210546658Y-64592536D01*
X210604121Y-64515488D01*
X210683276Y-64461517D01*
X210749034Y-64443375D01*
X210838613Y-64438499D01*
X210936220Y-64446146D01*
G37*
G36*
X209484387Y-64441434D02*
G01*
X209508695Y-64455717D01*
X209513400Y-64479592D01*
X209515218Y-64505628D01*
X209527744Y-64509715D01*
X209561580Y-64491866D01*
X209581679Y-64479671D01*
X209675686Y-64444204D01*
X209775348Y-64442628D01*
X209869639Y-64472119D01*
X209947534Y-64529852D01*
X209985084Y-64582974D01*
X209998686Y-64619735D01*
X210008156Y-64673172D01*
X210014073Y-64750019D01*
X210017016Y-64857010D01*
X210017618Y-64962067D01*
X210017618Y-65278247D01*
X209849545Y-65278247D01*
X209849236Y-65010381D01*
X209846676Y-64873360D01*
X209839530Y-64770485D01*
X209828065Y-64704976D01*
X209822528Y-64690341D01*
X209773735Y-64636396D01*
X209703724Y-64610270D01*
X209626648Y-64617104D01*
X209623697Y-64618107D01*
X209582735Y-64642556D01*
X209552758Y-64686460D01*
X209532393Y-64755016D01*
X209520269Y-64853424D01*
X209515014Y-64986879D01*
X209514586Y-65031390D01*
X209513400Y-65278247D01*
X209345327Y-65278247D01*
X209345327Y-64437883D01*
X209429363Y-64437883D01*
X209484387Y-64441434D01*
G37*
G36*
X208554075Y-64644017D02*
G01*
X208554898Y-64642047D01*
X208589915Y-64582725D01*
X208639396Y-64522648D01*
X208649804Y-64512387D01*
X208695693Y-64475700D01*
X208745063Y-64455047D01*
X208814244Y-64444615D01*
X208846725Y-64442267D01*
X208926807Y-64440232D01*
X208982264Y-64448468D01*
X209029925Y-64470378D01*
X209050064Y-64483384D01*
X209128700Y-64554449D01*
X209180134Y-64645799D01*
X209208615Y-64765540D01*
X209211731Y-64791676D01*
X209225258Y-64921092D01*
X208959651Y-64921092D01*
X208849863Y-64921495D01*
X208775318Y-64923400D01*
X208729243Y-64927848D01*
X208704866Y-64935880D01*
X208695414Y-64948538D01*
X208694045Y-64961939D01*
X208707215Y-65005125D01*
X208739265Y-65055256D01*
X208742695Y-65059344D01*
X208805479Y-65102597D01*
X208886084Y-65116990D01*
X208970938Y-65101594D01*
X209017478Y-65078175D01*
X209057136Y-65055019D01*
X209084272Y-65055627D01*
X209117312Y-65082780D01*
X209129728Y-65095116D01*
X209164135Y-65133993D01*
X209170196Y-65160457D01*
X209154564Y-65185757D01*
X209096997Y-65228260D01*
X209012183Y-65259318D01*
X208913890Y-65276611D01*
X208815885Y-65277816D01*
X208731937Y-65260613D01*
X208725559Y-65258089D01*
X208668640Y-65220118D01*
X208609460Y-65159209D01*
X208562199Y-65091090D01*
X208548318Y-65061536D01*
X208533622Y-64994045D01*
X208527104Y-64902297D01*
X208528511Y-64802543D01*
X208533324Y-64754008D01*
X208694045Y-64754008D01*
X208713394Y-64763312D01*
X208764828Y-64770313D01*
X208838431Y-64773829D01*
X208862118Y-64774028D01*
X208940228Y-64771724D01*
X208999001Y-64765597D01*
X209028518Y-64756829D01*
X209030190Y-64754008D01*
X209011495Y-64685312D01*
X208962746Y-64632577D01*
X208894952Y-64602840D01*
X208819118Y-64603138D01*
X208801986Y-64608094D01*
X208747836Y-64644506D01*
X208707341Y-64701921D01*
X208694045Y-64754008D01*
X208533324Y-64754008D01*
X208537586Y-64711033D01*
X208554075Y-64644017D01*
G37*
G36*
X206957436Y-64599173D02*
G01*
X207020399Y-64516553D01*
X207110291Y-64464481D01*
X207224337Y-64441883D01*
X207348726Y-64449750D01*
X207449835Y-64491966D01*
X207526310Y-64567033D01*
X207576794Y-64673454D01*
X207599930Y-64809733D01*
X207601337Y-64858065D01*
X207586806Y-65002929D01*
X207544098Y-65118965D01*
X207474547Y-65204577D01*
X207379485Y-65258169D01*
X207260245Y-65278148D01*
X207250385Y-65278247D01*
X207163388Y-65268521D01*
X207085170Y-65243605D01*
X207076540Y-65239268D01*
X206994496Y-65172166D01*
X206939671Y-65073360D01*
X206911978Y-64942656D01*
X206908272Y-64861393D01*
X206908545Y-64858065D01*
X207076344Y-64858065D01*
X207088937Y-64968989D01*
X207124821Y-65049425D01*
X207181160Y-65096897D01*
X207255115Y-65108926D01*
X207337566Y-65085977D01*
X207376846Y-65060061D01*
X207401448Y-65019951D01*
X207414100Y-64957139D01*
X207417531Y-64863114D01*
X207417318Y-64837256D01*
X207414201Y-64759787D01*
X207404661Y-64710806D01*
X207384518Y-64676844D01*
X207360290Y-64653427D01*
X207287416Y-64611115D01*
X207217984Y-64607063D01*
X207157161Y-64637546D01*
X207110114Y-64698841D01*
X207082008Y-64787225D01*
X207076344Y-64858065D01*
X206908545Y-64858065D01*
X206920395Y-64713675D01*
X206957436Y-64599173D01*
G37*
G36*
X213358623Y-65961702D02*
G01*
X213416599Y-65864494D01*
X213494676Y-65794512D01*
X213588550Y-65755068D01*
X213693920Y-65749478D01*
X213806484Y-65781056D01*
X213859512Y-65808987D01*
X213930815Y-65875583D01*
X213981247Y-65971686D01*
X214006658Y-66088254D01*
X214008885Y-66134367D01*
X214009347Y-66244665D01*
X213748700Y-66244665D01*
X213640450Y-66244888D01*
X213567635Y-66246387D01*
X213523672Y-66250412D01*
X213501976Y-66258212D01*
X213495965Y-66271036D01*
X213499055Y-66290131D01*
X213499491Y-66291936D01*
X213536549Y-66368365D01*
X213599112Y-66416331D01*
X213679383Y-66432992D01*
X213769564Y-66415507D01*
X213800489Y-66401596D01*
X213867247Y-66383024D01*
X213926013Y-66403752D01*
X213964836Y-66441248D01*
X213974978Y-66464965D01*
X213959742Y-66491601D01*
X213913791Y-66530486D01*
X213913784Y-66530492D01*
X213813854Y-66581753D01*
X213698891Y-66600266D01*
X213581107Y-66585269D01*
X213506346Y-66555912D01*
X213416831Y-66487917D01*
X213356458Y-66391601D01*
X213324256Y-66265238D01*
X213320178Y-66224531D01*
X213324539Y-66097602D01*
X213489946Y-66097602D01*
X213835447Y-66097602D01*
X213825317Y-66044606D01*
X213796197Y-65985986D01*
X213742130Y-65936579D01*
X213679397Y-65910011D01*
X213662697Y-65908520D01*
X213600441Y-65926365D01*
X213542348Y-65970818D01*
X213504700Y-66028253D01*
X213500077Y-66044606D01*
X213489946Y-66097602D01*
X213324539Y-66097602D01*
X213325048Y-66082819D01*
X213358623Y-65961702D01*
G37*
G36*
X213238056Y-65764180D02*
G01*
X213283182Y-65789849D01*
X213300933Y-65809619D01*
X213295645Y-65835002D01*
X213264630Y-65878582D01*
X213264101Y-65879254D01*
X213228715Y-65918772D01*
X213194093Y-65936051D01*
X213142792Y-65937466D01*
X213112005Y-65934858D01*
X213045285Y-65932136D01*
X213003152Y-65943011D01*
X212969365Y-65971548D01*
X212952239Y-65994901D01*
X212940040Y-66025928D01*
X212931668Y-66072191D01*
X212926022Y-66141252D01*
X212922000Y-66240675D01*
X212920111Y-66309865D01*
X212912844Y-66601820D01*
X212748801Y-66601820D01*
X212748801Y-65761456D01*
X212832837Y-65761456D01*
X212890235Y-65766209D01*
X212914561Y-65782601D01*
X212916874Y-65794720D01*
X212924649Y-65819368D01*
X212932630Y-65819874D01*
X213054159Y-65768026D01*
X213154636Y-65749575D01*
X213238056Y-65764180D01*
G37*
G36*
X211964273Y-66177410D02*
G01*
X212042967Y-66127577D01*
X212155146Y-66101879D01*
X212239330Y-66097680D01*
X212391646Y-66097602D01*
X212391646Y-66024809D01*
X212380612Y-65961435D01*
X212351009Y-65930268D01*
X212280905Y-65911212D01*
X212196518Y-65913261D01*
X212119499Y-65935736D01*
X212115720Y-65937649D01*
X212074793Y-65954080D01*
X212041465Y-65947680D01*
X212000283Y-65918591D01*
X211961851Y-65885636D01*
X211953172Y-65863424D01*
X211970931Y-65836775D01*
X211980165Y-65826476D01*
X212048418Y-65779720D01*
X212145445Y-65753142D01*
X212262100Y-65748825D01*
X212304053Y-65752728D01*
X212386090Y-65768438D01*
X212444841Y-65796042D01*
X212489469Y-65834068D01*
X212524360Y-65875262D01*
X212549559Y-65923155D01*
X212566250Y-65984613D01*
X212575617Y-66066500D01*
X212578845Y-66175681D01*
X212577119Y-66319020D01*
X212576626Y-66339206D01*
X212570224Y-66591315D01*
X212491271Y-66597846D01*
X212430907Y-66596095D01*
X212401919Y-66576413D01*
X212399850Y-66571886D01*
X212386327Y-66550943D01*
X212362613Y-66557486D01*
X212342821Y-66570608D01*
X212283809Y-66592694D01*
X212202168Y-66599902D01*
X212114579Y-66592200D01*
X212041330Y-66571165D01*
X211963086Y-66515873D01*
X211915605Y-66434782D01*
X211902707Y-66352998D01*
X211906415Y-66328416D01*
X212056766Y-66328416D01*
X212063056Y-66373563D01*
X212103424Y-66408795D01*
X212173908Y-66429784D01*
X212231377Y-66433747D01*
X212298797Y-66429181D01*
X212350214Y-66417516D01*
X212366435Y-66408536D01*
X212384054Y-66371061D01*
X212391640Y-66315550D01*
X212391646Y-66313995D01*
X212391646Y-66244665D01*
X212256588Y-66244665D01*
X212164755Y-66249401D01*
X212107599Y-66264439D01*
X212088515Y-66277679D01*
X212056766Y-66328416D01*
X211906415Y-66328416D01*
X211917906Y-66252258D01*
X211964273Y-66177410D01*
G37*
G36*
X211854676Y-65861249D02*
G01*
X211837451Y-65916623D01*
X211810492Y-66002086D01*
X211776941Y-66107730D01*
X211739940Y-66223648D01*
X211723111Y-66276179D01*
X211622033Y-66591315D01*
X211546648Y-66597716D01*
X211494877Y-66598051D01*
X211467861Y-66580049D01*
X211449566Y-66534689D01*
X211434407Y-66485719D01*
X211410652Y-66408460D01*
X211381956Y-66314815D01*
X211360513Y-66244665D01*
X211332826Y-66159595D01*
X211308615Y-66095518D01*
X211290655Y-66059130D01*
X211282131Y-66055583D01*
X211272073Y-66087044D01*
X211252698Y-66149822D01*
X211226742Y-66234984D01*
X211196942Y-66333594D01*
X211195253Y-66339206D01*
X211119400Y-66591315D01*
X211041214Y-66597836D01*
X210990890Y-66599454D01*
X210964282Y-66595281D01*
X210963027Y-66593439D01*
X210956912Y-66570979D01*
X210939865Y-66514783D01*
X210913836Y-66431107D01*
X210880773Y-66326209D01*
X210842625Y-66206347D01*
X210836973Y-66188676D01*
X210798201Y-66066667D01*
X210764262Y-65958198D01*
X210737113Y-65869669D01*
X210718716Y-65807480D01*
X210711029Y-65778033D01*
X210710918Y-65776936D01*
X210729514Y-65767329D01*
X210776232Y-65764442D01*
X210798880Y-65765500D01*
X210886841Y-65771960D01*
X210959530Y-66039162D01*
X210987363Y-66137123D01*
X211012494Y-66217589D01*
X211032504Y-66273372D01*
X211044974Y-66297286D01*
X211046501Y-66297536D01*
X211057756Y-66275249D01*
X211078433Y-66220519D01*
X211105776Y-66141116D01*
X211137025Y-66044811D01*
X211143213Y-66025125D01*
X211225641Y-65761542D01*
X211293223Y-65761499D01*
X211360804Y-65761456D01*
X211543218Y-66338964D01*
X211611554Y-66086976D01*
X211638742Y-65986917D01*
X211662637Y-65899331D01*
X211680703Y-65833491D01*
X211690404Y-65798671D01*
X211690534Y-65798222D01*
X211709543Y-65773587D01*
X211754275Y-65762792D01*
X211793170Y-65761456D01*
X211885163Y-65761456D01*
X211854676Y-65861249D01*
G37*
G36*
X209955683Y-66042342D02*
G01*
X209967887Y-65947107D01*
X209990842Y-65878358D01*
X210026817Y-65828561D01*
X210064123Y-65798845D01*
X210139212Y-65760947D01*
X210214654Y-65750017D01*
X210300094Y-65766620D01*
X210405181Y-65811324D01*
X210422043Y-65819874D01*
X210428760Y-65804005D01*
X210434051Y-65754727D01*
X210437214Y-65680641D01*
X210437800Y-65626648D01*
X210437800Y-65425310D01*
X210605873Y-65425310D01*
X210605873Y-66601820D01*
X210521836Y-66601820D01*
X210466813Y-66598269D01*
X210442505Y-66583986D01*
X210437800Y-66560110D01*
X210435981Y-66534075D01*
X210423456Y-66529988D01*
X210389619Y-66547837D01*
X210369520Y-66560032D01*
X210271983Y-66596548D01*
X210170620Y-66593678D01*
X210078500Y-66553765D01*
X210026007Y-66511964D01*
X209989920Y-66463880D01*
X209967430Y-66401031D01*
X209955728Y-66314933D01*
X209952004Y-66197102D01*
X209951990Y-66187845D01*
X210122973Y-66187845D01*
X210124859Y-66268279D01*
X210133294Y-66320152D01*
X210151799Y-66356811D01*
X210174231Y-66382179D01*
X210241677Y-66425479D01*
X210313195Y-66427631D01*
X210377174Y-66394009D01*
X210403535Y-66366833D01*
X210419506Y-66330516D01*
X210428383Y-66273551D01*
X210432841Y-66199675D01*
X210433536Y-66089879D01*
X210422196Y-66015130D01*
X210395225Y-65969316D01*
X210349032Y-65946321D01*
X210280232Y-65940033D01*
X210215060Y-65943057D01*
X210177743Y-65955876D01*
X210154327Y-65984113D01*
X210149855Y-65992556D01*
X210136036Y-66040600D01*
X210126314Y-66113872D01*
X210122973Y-66187845D01*
X209951990Y-66187845D01*
X209951965Y-66171599D01*
X209955683Y-66042342D01*
G37*
G36*
X209834801Y-65757291D02*
G01*
X209903670Y-65791676D01*
X209927543Y-65812473D01*
X209928096Y-65832475D01*
X209902717Y-65864480D01*
X209884995Y-65883221D01*
X209839640Y-65923384D01*
X209795145Y-65937960D01*
X209737931Y-65935655D01*
X209677173Y-65931718D01*
X209632560Y-65938455D01*
X209601313Y-65961268D01*
X209580650Y-66005559D01*
X209567790Y-66076730D01*
X209559953Y-66180182D01*
X209555418Y-66290180D01*
X209544913Y-66591315D01*
X209470631Y-66597567D01*
X209417094Y-66597876D01*
X209383441Y-66590426D01*
X209381342Y-66588814D01*
X209376689Y-66564058D01*
X209372624Y-66504001D01*
X209369384Y-66415359D01*
X209367211Y-66304846D01*
X209366342Y-66179178D01*
X209366336Y-66167632D01*
X209366336Y-65761456D01*
X209460877Y-65761456D01*
X209525463Y-65766363D01*
X209553456Y-65781975D01*
X209555418Y-65790334D01*
X209563940Y-65804451D01*
X209594490Y-65798075D01*
X209639663Y-65777530D01*
X209738735Y-65748443D01*
X209834801Y-65757291D01*
G37*
G36*
X208539328Y-66267431D02*
G01*
X208578376Y-66191900D01*
X208645175Y-66136004D01*
X208663252Y-66127460D01*
X208721612Y-66112024D01*
X208803308Y-66101238D01*
X208882452Y-66097602D01*
X208959501Y-66096838D01*
X209003669Y-66092380D01*
X209024093Y-66080983D01*
X209029906Y-66059396D01*
X209030190Y-66045079D01*
X209011884Y-65982973D01*
X208964102Y-65937006D01*
X208897553Y-65911036D01*
X208822945Y-65908920D01*
X208750987Y-65934514D01*
X208741128Y-65940951D01*
X208707285Y-65959922D01*
X208677655Y-65956678D01*
X208634620Y-65928863D01*
X208631060Y-65926238D01*
X208587387Y-65887359D01*
X208579240Y-65855534D01*
X208607986Y-65822731D01*
X208653713Y-65793162D01*
X208730756Y-65765421D01*
X208830208Y-65753081D01*
X208935341Y-65756252D01*
X209029428Y-65775043D01*
X209067370Y-65790468D01*
X209112940Y-65818442D01*
X209146693Y-65852759D01*
X209170341Y-65899758D01*
X209185596Y-65965777D01*
X209194170Y-66057154D01*
X209197774Y-66180227D01*
X209198263Y-66275136D01*
X209198263Y-66601820D01*
X209114227Y-66601820D01*
X209056148Y-66596768D01*
X209031968Y-66579808D01*
X209030190Y-66569767D01*
X209025976Y-66550138D01*
X209005961Y-66551718D01*
X208968206Y-66569767D01*
X208883109Y-66595301D01*
X208782963Y-66598845D01*
X208688504Y-66580437D01*
X208661453Y-66569225D01*
X208589094Y-66513492D01*
X208544647Y-66438060D01*
X208528444Y-66354674D01*
X208696075Y-66354674D01*
X208716655Y-66399829D01*
X208730811Y-66411055D01*
X208780177Y-66426640D01*
X208846966Y-66432593D01*
X208914912Y-66429268D01*
X208967748Y-66417021D01*
X208985475Y-66405483D01*
X209006216Y-66365328D01*
X209022187Y-66310942D01*
X209035443Y-66244665D01*
X208905381Y-66244665D01*
X208829175Y-66248087D01*
X208765407Y-66256949D01*
X208734682Y-66266413D01*
X208702254Y-66303816D01*
X208696075Y-66354674D01*
X208528444Y-66354674D01*
X208528072Y-66352762D01*
X208539328Y-66267431D01*
G37*
G36*
X207822167Y-64437883D02*
G01*
X207884144Y-64441885D01*
X207912537Y-64455662D01*
X207916708Y-64469936D01*
X207920922Y-64489565D01*
X207940938Y-64487984D01*
X207978692Y-64469936D01*
X208039529Y-64449691D01*
X208115028Y-64438600D01*
X208136569Y-64437883D01*
X208204087Y-64443505D01*
X208256874Y-64466087D01*
X208310937Y-64509800D01*
X208389413Y-64581718D01*
X208389413Y-65134412D01*
X208310937Y-65206329D01*
X208254408Y-65251790D01*
X208202461Y-65272906D01*
X208133547Y-65278240D01*
X208129941Y-65278247D01*
X208038535Y-65267910D01*
X207972064Y-65234704D01*
X207916708Y-65191161D01*
X207916708Y-65819954D01*
X207994682Y-65780200D01*
X208068201Y-65749778D01*
X208132375Y-65744224D01*
X208204657Y-65763611D01*
X208246208Y-65781275D01*
X208299014Y-65808901D01*
X208338251Y-65841295D01*
X208365891Y-65884790D01*
X208383905Y-65945720D01*
X208394264Y-66030420D01*
X208398939Y-66145223D01*
X208399917Y-66275136D01*
X208399917Y-66601820D01*
X208231845Y-66601820D01*
X208231845Y-66311654D01*
X208231318Y-66194176D01*
X208229091Y-66111082D01*
X208224192Y-66054744D01*
X208215647Y-66017534D01*
X208202486Y-65991824D01*
X208189008Y-65975508D01*
X208129637Y-65939407D01*
X208055229Y-65930205D01*
X207984100Y-65949246D01*
X207967994Y-65959287D01*
X207951640Y-65975317D01*
X207939759Y-66000407D01*
X207931267Y-66041536D01*
X207925084Y-66105687D01*
X207920127Y-66199840D01*
X207916708Y-66290180D01*
X207906204Y-66591315D01*
X207831921Y-66597567D01*
X207778384Y-66597876D01*
X207744732Y-66590426D01*
X207742632Y-66588814D01*
X207739714Y-66565481D01*
X207736983Y-66504150D01*
X207734495Y-66408839D01*
X207732305Y-66283568D01*
X207730470Y-66132356D01*
X207729045Y-65959222D01*
X207728086Y-65768186D01*
X207727648Y-65563266D01*
X207727626Y-65505845D01*
X207727626Y-64836068D01*
X207915123Y-64836068D01*
X207918865Y-64929462D01*
X207936647Y-65013467D01*
X207968468Y-65075835D01*
X207988133Y-65094095D01*
X208037732Y-65108588D01*
X208102006Y-65106753D01*
X208158792Y-65090481D01*
X208176996Y-65077985D01*
X208207898Y-65022921D01*
X208225747Y-64941829D01*
X208230475Y-64848642D01*
X208222012Y-64757293D01*
X208200289Y-64681715D01*
X208179129Y-64647761D01*
X208129213Y-64617758D01*
X208062896Y-64605788D01*
X208002052Y-64614798D01*
X207988133Y-64622034D01*
X207949757Y-64670106D01*
X207925420Y-64745533D01*
X207915123Y-64836068D01*
X207727626Y-64836068D01*
X207727626Y-64437883D01*
X207822167Y-64437883D01*
G37*
D12*
X204557142Y-78852380D02*
X204223809Y-78376190D01*
X203985714Y-78852380D02*
X203985714Y-77852380D01*
X204366666Y-77852380D01*
X204461904Y-77900000D01*
X204509523Y-77947619D01*
X204557142Y-78042857D01*
X204557142Y-78185714D01*
X204509523Y-78280952D01*
X204461904Y-78328571D01*
X204366666Y-78376190D01*
X203985714Y-78376190D01*
X205509523Y-78852380D02*
X204938095Y-78852380D01*
X205223809Y-78852380D02*
X205223809Y-77852380D01*
X205128571Y-77995238D01*
X205033333Y-78090476D01*
X204938095Y-78138095D01*
X206128571Y-77852380D02*
X206223809Y-77852380D01*
X206319047Y-77900000D01*
X206366666Y-77947619D01*
X206414285Y-78042857D01*
X206461904Y-78233333D01*
X206461904Y-78471428D01*
X206414285Y-78661904D01*
X206366666Y-78757142D01*
X206319047Y-78804761D01*
X206223809Y-78852380D01*
X206128571Y-78852380D01*
X206033333Y-78804761D01*
X205985714Y-78757142D01*
X205938095Y-78661904D01*
X205890476Y-78471428D01*
X205890476Y-78233333D01*
X205938095Y-78042857D01*
X205985714Y-77947619D01*
X206033333Y-77900000D01*
X206128571Y-77852380D01*
X188238095Y-76704761D02*
X188380952Y-76752380D01*
X188619047Y-76752380D01*
X188714285Y-76704761D01*
X188761904Y-76657142D01*
X188809523Y-76561904D01*
X188809523Y-76466666D01*
X188761904Y-76371428D01*
X188714285Y-76323809D01*
X188619047Y-76276190D01*
X188428571Y-76228571D01*
X188333333Y-76180952D01*
X188285714Y-76133333D01*
X188238095Y-76038095D01*
X188238095Y-75942857D01*
X188285714Y-75847619D01*
X188333333Y-75800000D01*
X188428571Y-75752380D01*
X188666666Y-75752380D01*
X188809523Y-75800000D01*
X189238095Y-76752380D02*
X189238095Y-75752380D01*
X189619047Y-75752380D01*
X189714285Y-75800000D01*
X189761904Y-75847619D01*
X189809523Y-75942857D01*
X189809523Y-76085714D01*
X189761904Y-76180952D01*
X189714285Y-76228571D01*
X189619047Y-76276190D01*
X189238095Y-76276190D01*
X190238095Y-76752380D02*
X190238095Y-75752380D01*
X190809523Y-76752380D02*
X190380952Y-76180952D01*
X190809523Y-75752380D02*
X190238095Y-76323809D01*
X191761904Y-76752380D02*
X191190476Y-76752380D01*
X191476190Y-76752380D02*
X191476190Y-75752380D01*
X191380952Y-75895238D01*
X191285714Y-75990476D01*
X191190476Y-76038095D01*
X189257142Y-89216666D02*
X189304761Y-89264285D01*
X189352380Y-89407142D01*
X189352380Y-89502380D01*
X189304761Y-89645238D01*
X189209523Y-89740476D01*
X189114285Y-89788095D01*
X188923809Y-89835714D01*
X188780952Y-89835714D01*
X188590476Y-89788095D01*
X188495238Y-89740476D01*
X188400000Y-89645238D01*
X188352380Y-89502380D01*
X188352380Y-89407142D01*
X188400000Y-89264285D01*
X188447619Y-89216666D01*
X188685714Y-88359523D02*
X189352380Y-88359523D01*
X188304761Y-88597619D02*
X189019047Y-88835714D01*
X189019047Y-88216666D01*
X197572333Y-88114142D02*
X197524714Y-88161761D01*
X197381857Y-88209380D01*
X197286619Y-88209380D01*
X197143761Y-88161761D01*
X197048523Y-88066523D01*
X197000904Y-87971285D01*
X196953285Y-87780809D01*
X196953285Y-87637952D01*
X197000904Y-87447476D01*
X197048523Y-87352238D01*
X197143761Y-87257000D01*
X197286619Y-87209380D01*
X197381857Y-87209380D01*
X197524714Y-87257000D01*
X197572333Y-87304619D01*
X198429476Y-87542714D02*
X198429476Y-88209380D01*
X198191380Y-87161761D02*
X197953285Y-87876047D01*
X198572333Y-87876047D01*
X181697333Y-88114142D02*
X181649714Y-88161761D01*
X181506857Y-88209380D01*
X181411619Y-88209380D01*
X181268761Y-88161761D01*
X181173523Y-88066523D01*
X181125904Y-87971285D01*
X181078285Y-87780809D01*
X181078285Y-87637952D01*
X181125904Y-87447476D01*
X181173523Y-87352238D01*
X181268761Y-87257000D01*
X181411619Y-87209380D01*
X181506857Y-87209380D01*
X181649714Y-87257000D01*
X181697333Y-87304619D01*
X182649714Y-88209380D02*
X182078285Y-88209380D01*
X182364000Y-88209380D02*
X182364000Y-87209380D01*
X182268761Y-87352238D01*
X182173523Y-87447476D01*
X182078285Y-87495095D01*
X183221333Y-46807380D02*
X182888000Y-46331190D01*
X182649904Y-46807380D02*
X182649904Y-45807380D01*
X183030857Y-45807380D01*
X183126095Y-45855000D01*
X183173714Y-45902619D01*
X183221333Y-45997857D01*
X183221333Y-46140714D01*
X183173714Y-46235952D01*
X183126095Y-46283571D01*
X183030857Y-46331190D01*
X182649904Y-46331190D01*
X184126095Y-45807380D02*
X183649904Y-45807380D01*
X183602285Y-46283571D01*
X183649904Y-46235952D01*
X183745142Y-46188333D01*
X183983238Y-46188333D01*
X184078476Y-46235952D01*
X184126095Y-46283571D01*
X184173714Y-46378809D01*
X184173714Y-46616904D01*
X184126095Y-46712142D01*
X184078476Y-46759761D01*
X183983238Y-46807380D01*
X183745142Y-46807380D01*
X183649904Y-46759761D01*
X183602285Y-46712142D01*
X183221333Y-49982380D02*
X182888000Y-49506190D01*
X182649904Y-49982380D02*
X182649904Y-48982380D01*
X183030857Y-48982380D01*
X183126095Y-49030000D01*
X183173714Y-49077619D01*
X183221333Y-49172857D01*
X183221333Y-49315714D01*
X183173714Y-49410952D01*
X183126095Y-49458571D01*
X183030857Y-49506190D01*
X182649904Y-49506190D01*
X184078476Y-48982380D02*
X183888000Y-48982380D01*
X183792761Y-49030000D01*
X183745142Y-49077619D01*
X183649904Y-49220476D01*
X183602285Y-49410952D01*
X183602285Y-49791904D01*
X183649904Y-49887142D01*
X183697523Y-49934761D01*
X183792761Y-49982380D01*
X183983238Y-49982380D01*
X184078476Y-49934761D01*
X184126095Y-49887142D01*
X184173714Y-49791904D01*
X184173714Y-49553809D01*
X184126095Y-49458571D01*
X184078476Y-49410952D01*
X183983238Y-49363333D01*
X183792761Y-49363333D01*
X183697523Y-49410952D01*
X183649904Y-49458571D01*
X183602285Y-49553809D01*
X166680380Y-67603666D02*
X166204190Y-67937000D01*
X166680380Y-68175095D02*
X165680380Y-68175095D01*
X165680380Y-67794142D01*
X165728000Y-67698904D01*
X165775619Y-67651285D01*
X165870857Y-67603666D01*
X166013714Y-67603666D01*
X166108952Y-67651285D01*
X166156571Y-67698904D01*
X166204190Y-67794142D01*
X166204190Y-68175095D01*
X165775619Y-67222714D02*
X165728000Y-67175095D01*
X165680380Y-67079857D01*
X165680380Y-66841761D01*
X165728000Y-66746523D01*
X165775619Y-66698904D01*
X165870857Y-66651285D01*
X165966095Y-66651285D01*
X166108952Y-66698904D01*
X166680380Y-67270333D01*
X166680380Y-66651285D01*
X169443333Y-74732380D02*
X169110000Y-74256190D01*
X168871904Y-74732380D02*
X168871904Y-73732380D01*
X169252857Y-73732380D01*
X169348095Y-73780000D01*
X169395714Y-73827619D01*
X169443333Y-73922857D01*
X169443333Y-74065714D01*
X169395714Y-74160952D01*
X169348095Y-74208571D01*
X169252857Y-74256190D01*
X168871904Y-74256190D01*
X170395714Y-74732380D02*
X169824285Y-74732380D01*
X170110000Y-74732380D02*
X170110000Y-73732380D01*
X170014761Y-73875238D01*
X169919523Y-73970476D01*
X169824285Y-74018095D01*
X205433333Y-74052380D02*
X205100000Y-73576190D01*
X204861904Y-74052380D02*
X204861904Y-73052380D01*
X205242857Y-73052380D01*
X205338095Y-73100000D01*
X205385714Y-73147619D01*
X205433333Y-73242857D01*
X205433333Y-73385714D01*
X205385714Y-73480952D01*
X205338095Y-73528571D01*
X205242857Y-73576190D01*
X204861904Y-73576190D01*
X206004761Y-73480952D02*
X205909523Y-73433333D01*
X205861904Y-73385714D01*
X205814285Y-73290476D01*
X205814285Y-73242857D01*
X205861904Y-73147619D01*
X205909523Y-73100000D01*
X206004761Y-73052380D01*
X206195238Y-73052380D01*
X206290476Y-73100000D01*
X206338095Y-73147619D01*
X206385714Y-73242857D01*
X206385714Y-73290476D01*
X206338095Y-73385714D01*
X206290476Y-73433333D01*
X206195238Y-73480952D01*
X206004761Y-73480952D01*
X205909523Y-73528571D01*
X205861904Y-73576190D01*
X205814285Y-73671428D01*
X205814285Y-73861904D01*
X205861904Y-73957142D01*
X205909523Y-74004761D01*
X206004761Y-74052380D01*
X206195238Y-74052380D01*
X206290476Y-74004761D01*
X206338095Y-73957142D01*
X206385714Y-73861904D01*
X206385714Y-73671428D01*
X206338095Y-73576190D01*
X206290476Y-73528571D01*
X206195238Y-73480952D01*
X170632380Y-67603666D02*
X170156190Y-67937000D01*
X170632380Y-68175095D02*
X169632380Y-68175095D01*
X169632380Y-67794142D01*
X169680000Y-67698904D01*
X169727619Y-67651285D01*
X169822857Y-67603666D01*
X169965714Y-67603666D01*
X170060952Y-67651285D01*
X170108571Y-67698904D01*
X170156190Y-67794142D01*
X170156190Y-68175095D01*
X169632380Y-67270333D02*
X169632380Y-66651285D01*
X170013333Y-66984619D01*
X170013333Y-66841761D01*
X170060952Y-66746523D01*
X170108571Y-66698904D01*
X170203809Y-66651285D01*
X170441904Y-66651285D01*
X170537142Y-66698904D01*
X170584761Y-66746523D01*
X170632380Y-66841761D01*
X170632380Y-67127476D01*
X170584761Y-67222714D01*
X170537142Y-67270333D01*
X183221333Y-53157380D02*
X182888000Y-52681190D01*
X182649904Y-53157380D02*
X182649904Y-52157380D01*
X183030857Y-52157380D01*
X183126095Y-52205000D01*
X183173714Y-52252619D01*
X183221333Y-52347857D01*
X183221333Y-52490714D01*
X183173714Y-52585952D01*
X183126095Y-52633571D01*
X183030857Y-52681190D01*
X182649904Y-52681190D01*
X183554666Y-52157380D02*
X184221333Y-52157380D01*
X183792761Y-53157380D01*
X205433333Y-76552380D02*
X205100000Y-76076190D01*
X204861904Y-76552380D02*
X204861904Y-75552380D01*
X205242857Y-75552380D01*
X205338095Y-75600000D01*
X205385714Y-75647619D01*
X205433333Y-75742857D01*
X205433333Y-75885714D01*
X205385714Y-75980952D01*
X205338095Y-76028571D01*
X205242857Y-76076190D01*
X204861904Y-76076190D01*
X205909523Y-76552380D02*
X206100000Y-76552380D01*
X206195238Y-76504761D01*
X206242857Y-76457142D01*
X206338095Y-76314285D01*
X206385714Y-76123809D01*
X206385714Y-75742857D01*
X206338095Y-75647619D01*
X206290476Y-75600000D01*
X206195238Y-75552380D01*
X206004761Y-75552380D01*
X205909523Y-75600000D01*
X205861904Y-75647619D01*
X205814285Y-75742857D01*
X205814285Y-75980952D01*
X205861904Y-76076190D01*
X205909523Y-76123809D01*
X206004761Y-76171428D01*
X206195238Y-76171428D01*
X206290476Y-76123809D01*
X206338095Y-76076190D01*
X206385714Y-75980952D01*
X166587026Y-47268522D02*
X167159446Y-47840942D01*
X167260461Y-47874614D01*
X167327805Y-47874614D01*
X167428820Y-47840942D01*
X167563507Y-47706255D01*
X167597179Y-47605240D01*
X167597179Y-47537896D01*
X167563507Y-47436881D01*
X166991087Y-46864461D01*
X168405301Y-46864461D02*
X168001240Y-47268522D01*
X168203270Y-47066492D02*
X167496164Y-46359385D01*
X167529835Y-46527744D01*
X167529835Y-46662431D01*
X167496164Y-46763446D01*
X211641508Y-92504158D02*
X212213928Y-93076578D01*
X212314943Y-93110250D01*
X212382287Y-93110250D01*
X212483302Y-93076578D01*
X212617989Y-92941891D01*
X212651661Y-92840876D01*
X212651661Y-92773532D01*
X212617989Y-92672517D01*
X212045569Y-92100097D01*
X212415959Y-91864395D02*
X212415959Y-91797052D01*
X212449630Y-91696036D01*
X212617989Y-91527678D01*
X212719004Y-91494006D01*
X212786348Y-91494006D01*
X212887363Y-91527678D01*
X212954707Y-91595021D01*
X213022050Y-91729708D01*
X213022050Y-92537830D01*
X213459783Y-92100097D01*
X187661904Y-90602380D02*
X187661904Y-91411904D01*
X187709523Y-91507142D01*
X187757142Y-91554761D01*
X187852380Y-91602380D01*
X188042857Y-91602380D01*
X188138095Y-91554761D01*
X188185714Y-91507142D01*
X188233333Y-91411904D01*
X188233333Y-90602380D01*
X188661904Y-91554761D02*
X188804761Y-91602380D01*
X189042857Y-91602380D01*
X189138095Y-91554761D01*
X189185714Y-91507142D01*
X189233333Y-91411904D01*
X189233333Y-91316666D01*
X189185714Y-91221428D01*
X189138095Y-91173809D01*
X189042857Y-91126190D01*
X188852380Y-91078571D01*
X188757142Y-91030952D01*
X188709523Y-90983333D01*
X188661904Y-90888095D01*
X188661904Y-90792857D01*
X188709523Y-90697619D01*
X188757142Y-90650000D01*
X188852380Y-90602380D01*
X189090476Y-90602380D01*
X189233333Y-90650000D01*
X189995238Y-91078571D02*
X190138095Y-91126190D01*
X190185714Y-91173809D01*
X190233333Y-91269047D01*
X190233333Y-91411904D01*
X190185714Y-91507142D01*
X190138095Y-91554761D01*
X190042857Y-91602380D01*
X189661904Y-91602380D01*
X189661904Y-90602380D01*
X189995238Y-90602380D01*
X190090476Y-90650000D01*
X190138095Y-90697619D01*
X190185714Y-90792857D01*
X190185714Y-90888095D01*
X190138095Y-90983333D01*
X190090476Y-91030952D01*
X189995238Y-91078571D01*
X189661904Y-91078571D01*
X191185714Y-91602380D02*
X190614285Y-91602380D01*
X190900000Y-91602380D02*
X190900000Y-90602380D01*
X190804761Y-90745238D01*
X190709523Y-90840476D01*
X190614285Y-90888095D01*
X189633333Y-43352380D02*
X189300000Y-42876190D01*
X189061904Y-43352380D02*
X189061904Y-42352380D01*
X189442857Y-42352380D01*
X189538095Y-42400000D01*
X189585714Y-42447619D01*
X189633333Y-42542857D01*
X189633333Y-42685714D01*
X189585714Y-42780952D01*
X189538095Y-42828571D01*
X189442857Y-42876190D01*
X189061904Y-42876190D01*
X190490476Y-42685714D02*
X190490476Y-43352380D01*
X190252380Y-42304761D02*
X190014285Y-43019047D01*
X190633333Y-43019047D01*
X170711904Y-78977380D02*
X170711904Y-77977380D01*
X170950000Y-77977380D01*
X171092857Y-78025000D01*
X171188095Y-78120238D01*
X171235714Y-78215476D01*
X171283333Y-78405952D01*
X171283333Y-78548809D01*
X171235714Y-78739285D01*
X171188095Y-78834523D01*
X171092857Y-78929761D01*
X170950000Y-78977380D01*
X170711904Y-78977380D01*
X171664285Y-78072619D02*
X171711904Y-78025000D01*
X171807142Y-77977380D01*
X172045238Y-77977380D01*
X172140476Y-78025000D01*
X172188095Y-78072619D01*
X172235714Y-78167857D01*
X172235714Y-78263095D01*
X172188095Y-78405952D01*
X171616666Y-78977380D01*
X172235714Y-78977380D01*
X167378095Y-79297380D02*
X167378095Y-78297380D01*
X167949523Y-79297380D02*
X167520952Y-78725952D01*
X167949523Y-78297380D02*
X167378095Y-78868809D01*
X172616904Y-83422380D02*
X172616904Y-82422380D01*
X172855000Y-82422380D01*
X172997857Y-82470000D01*
X173093095Y-82565238D01*
X173140714Y-82660476D01*
X173188333Y-82850952D01*
X173188333Y-82993809D01*
X173140714Y-83184285D01*
X173093095Y-83279523D01*
X172997857Y-83374761D01*
X172855000Y-83422380D01*
X172616904Y-83422380D01*
X174140714Y-83422380D02*
X173569285Y-83422380D01*
X173855000Y-83422380D02*
X173855000Y-82422380D01*
X173759761Y-82565238D01*
X173664523Y-82660476D01*
X173569285Y-82708095D01*
X169283095Y-83742380D02*
X169283095Y-82742380D01*
X169854523Y-83742380D02*
X169425952Y-83170952D01*
X169854523Y-82742380D02*
X169283095Y-83313809D01*
X179712687Y-59298389D02*
X179712687Y-59365732D01*
X179645343Y-59500419D01*
X179578000Y-59567763D01*
X179443312Y-59635106D01*
X179308625Y-59635106D01*
X179207610Y-59601435D01*
X179039251Y-59500419D01*
X178938236Y-59399404D01*
X178837221Y-59231045D01*
X178803549Y-59130030D01*
X178803549Y-58995343D01*
X178870893Y-58860656D01*
X178938236Y-58793312D01*
X179072923Y-58725969D01*
X179140267Y-58725969D01*
X179409641Y-58456595D02*
X179409641Y-58389251D01*
X179443312Y-58288236D01*
X179611671Y-58119877D01*
X179712687Y-58086206D01*
X179780030Y-58086206D01*
X179881045Y-58119877D01*
X179948389Y-58187221D01*
X180015732Y-58321908D01*
X180015732Y-59130030D01*
X180453465Y-58692297D01*
X203934687Y-83770389D02*
X203934687Y-83837732D01*
X203867343Y-83972419D01*
X203800000Y-84039763D01*
X203665312Y-84107106D01*
X203530625Y-84107106D01*
X203429610Y-84073435D01*
X203261251Y-83972419D01*
X203160236Y-83871404D01*
X203059221Y-83703045D01*
X203025549Y-83602030D01*
X203025549Y-83467343D01*
X203092893Y-83332656D01*
X203160236Y-83265312D01*
X203294923Y-83197969D01*
X203362267Y-83197969D01*
X203530625Y-82894923D02*
X203968358Y-82457190D01*
X204002030Y-82962267D01*
X204103045Y-82861251D01*
X204204061Y-82827580D01*
X204271404Y-82827580D01*
X204372419Y-82861251D01*
X204540778Y-83029610D01*
X204574450Y-83130625D01*
X204574450Y-83197969D01*
X204540778Y-83298984D01*
X204338748Y-83501015D01*
X204237732Y-83534687D01*
X204170389Y-83534687D01*
M02*
