G04 #@! TF.GenerationSoftware,KiCad,Pcbnew,5.99.0-unknown-d20d310~86~ubuntu18.04.1*
G04 #@! TF.CreationDate,2019-12-13T15:01:04+02:00*
G04 #@! TF.ProjectId,FOSDEM-MUSIC-BOX_RevA,464f5344-454d-42d4-9d55-5349432d424f,rev?*
G04 #@! TF.SameCoordinates,Original*
G04 #@! TF.FileFunction,Copper,L1,Top*
G04 #@! TF.FilePolarity,Positive*
%FSLAX46Y46*%
G04 Gerber Fmt 4.6, Leading zero omitted, Abs format (unit mm)*
G04 Created by KiCad (PCBNEW 5.99.0-unknown-d20d310~86~ubuntu18.04.1) date 2019-12-13 15:01:04*
%MOMM*%
%LPD*%
G04 APERTURE LIST*
%ADD10O,1.400000X1.400000*%
%ADD11C,1.400000*%
%ADD12R,1.524000X1.524000*%
%ADD13C,1.524000*%
%ADD14C,5.000000*%
%ADD15R,1.600000X1.600000*%
%ADD16C,1.600000*%
%ADD17C,1.700000*%
%ADD18C,1.600000*%
%ADD19R,1.524000X3.810000*%
%ADD20O,1.600000X1.600000*%
%ADD21C,0.250000*%
%ADD22C,0.508000*%
%ADD23C,1.016000*%
%ADD24C,0.254000*%
G04 APERTURE END LIST*
D10*
X215320000Y-78700000D03*
D11*
X207700000Y-78700000D03*
D12*
X210430000Y-48000000D03*
D13*
X212970000Y-48000000D03*
D12*
X205030000Y-55600000D03*
D13*
X207570000Y-55600000D03*
D14*
X184500000Y-81000000D03*
X195500000Y-81000000D03*
D15*
X193300000Y-87800000D03*
D16*
X193300000Y-90300000D03*
D15*
X185900000Y-88200000D03*
D16*
X185900000Y-90200000D03*
D17*
X154500000Y-67500000D03*
X161000000Y-67500000D03*
X154500000Y-72000000D03*
X161000000Y-72000000D03*
D10*
X193675000Y-46355000D03*
D11*
X186055000Y-46355000D03*
D10*
X193675000Y-49530000D03*
D11*
X186055000Y-49530000D03*
D10*
X168148000Y-63627000D03*
D11*
X168148000Y-71247000D03*
D10*
X173420000Y-76200000D03*
D11*
X165800000Y-76200000D03*
D10*
X215265000Y-73300000D03*
D11*
X207645000Y-73300000D03*
D10*
X172085000Y-63627000D03*
D11*
X172085000Y-71247000D03*
D10*
X186055000Y-52705000D03*
D11*
X193675000Y-52705000D03*
D10*
X215265000Y-76000000D03*
D11*
X207645000Y-76000000D03*
D18*
X172139154Y-46173846D02*
X172139154Y-46173846D01*
X172139154Y-56950154D02*
X172139154Y-56950154D01*
X173935205Y-47969898D02*
X173935205Y-47969898D01*
X170343102Y-55154102D02*
X170343102Y-55154102D01*
X175731256Y-49765949D02*
X175731256Y-49765949D01*
X168547051Y-53358051D02*
X168547051Y-53358051D01*
X177527307Y-51562000D02*
X177527307Y-51562000D01*
G04 #@! TA.AperFunction,ComponentPad*
G36*
X166751000Y-52693371D02*
G01*
X165619629Y-51562000D01*
X166751000Y-50430629D01*
X167882371Y-51562000D01*
X166751000Y-52693371D01*
G37*
G04 #@! TD.AperFunction*
X208225846Y-93399154D02*
X208225846Y-93399154D01*
X208225846Y-82622846D02*
X208225846Y-82622846D01*
X206429795Y-91603102D02*
X206429795Y-91603102D01*
X210021898Y-84418898D02*
X210021898Y-84418898D01*
X204633744Y-89807051D02*
X204633744Y-89807051D01*
X211817949Y-86214949D02*
X211817949Y-86214949D01*
X202837693Y-88011000D02*
X202837693Y-88011000D01*
G04 #@! TA.AperFunction,ComponentPad*
G36*
X213614000Y-86879629D02*
G01*
X214745371Y-88011000D01*
X213614000Y-89142371D01*
X212482629Y-88011000D01*
X213614000Y-86879629D01*
G37*
G04 #@! TD.AperFunction*
D19*
X190670000Y-95595000D03*
X188130000Y-95595000D03*
D13*
X191070000Y-41200000D03*
X188530000Y-41200000D03*
D20*
X175260000Y-80645000D03*
D15*
X167640000Y-80645000D03*
D20*
X177165000Y-85090000D03*
D15*
X169545000Y-85090000D03*
D16*
X176296466Y-59288534D03*
X179832000Y-55753000D03*
X204195534Y-80284466D03*
X200660000Y-83820000D03*
D21*
X170180000Y-73279000D02*
X169000000Y-72100000D01*
D22*
X168148000Y-71247000D02*
X168847999Y-71946999D01*
X168847999Y-71946999D02*
X168847999Y-71947999D01*
X168847999Y-71947999D02*
X169000000Y-72100000D01*
D21*
X177400000Y-76300000D02*
X174379000Y-73279000D01*
X177400000Y-80499000D02*
X177400000Y-76300000D01*
X183515000Y-86614000D02*
X177400000Y-80499000D01*
X183515000Y-91186000D02*
X183515000Y-86614000D01*
X187198000Y-92329000D02*
X184658000Y-92329000D01*
X184658000Y-92329000D02*
X183515000Y-91186000D01*
X174379000Y-73279000D02*
X170180000Y-73279000D01*
X169300000Y-60842000D02*
X171500000Y-63000000D01*
D22*
X172085000Y-63627000D02*
X172085000Y-63585000D01*
X172085000Y-63585000D02*
X171500000Y-63000000D01*
D21*
X168800000Y-62975000D02*
X168800000Y-62900000D01*
D22*
X168148000Y-63627000D02*
X168148000Y-63552000D01*
X168148000Y-63552000D02*
X168800000Y-62900000D01*
D21*
X169500000Y-56000000D02*
X169300000Y-56197204D01*
D22*
X169500000Y-55997204D02*
X169500000Y-56000000D01*
X170343102Y-55154102D02*
X169500000Y-55997204D01*
D21*
X168800000Y-54800000D02*
X168800000Y-62975000D01*
D22*
X168547051Y-53358051D02*
X168547051Y-54489421D01*
X168547051Y-54489421D02*
X168800000Y-54742370D01*
X168800000Y-54742370D02*
X168800000Y-54800000D01*
D21*
X169300000Y-56197204D02*
X169300000Y-60842000D01*
D23*
X190670000Y-95595000D02*
X190670000Y-92372000D01*
X188498000Y-90200000D02*
X185900000Y-90200000D01*
X190670000Y-92372000D02*
X188498000Y-90200000D01*
X202068795Y-92372000D02*
X204633744Y-89807051D01*
X190670000Y-92372000D02*
X202068795Y-92372000D01*
X171196000Y-49403000D02*
X177546000Y-55753000D01*
X172139154Y-46173846D02*
X171196000Y-47117000D01*
X177546000Y-55753000D02*
X179832000Y-55753000D01*
X171196000Y-47117000D02*
X171196000Y-49403000D01*
X187785000Y-92329000D02*
X187198000Y-92329000D01*
X188130000Y-92674000D02*
X187785000Y-92329000D01*
X188130000Y-95595000D02*
X188130000Y-92674000D01*
G36*
X194076853Y-30985139D02*
G01*
X194092799Y-30986659D01*
X194257710Y-31001376D01*
X194362013Y-31029911D01*
X194459615Y-31076465D01*
X194547434Y-31139569D01*
X194622686Y-31217225D01*
X194683003Y-31306985D01*
X194729739Y-31413452D01*
X194760495Y-31528641D01*
X194765360Y-31540048D01*
X196441153Y-40508657D01*
X196447682Y-40567458D01*
X196451785Y-40582942D01*
X196501723Y-40766934D01*
X196516313Y-40800754D01*
X196526098Y-40836680D01*
X196532546Y-40851343D01*
X196631168Y-41071976D01*
X196654079Y-41108309D01*
X196672560Y-41147520D01*
X196681456Y-41160840D01*
X196816895Y-41360996D01*
X196845762Y-41392792D01*
X196870774Y-41428203D01*
X196881849Y-41439777D01*
X197049983Y-41613369D01*
X197083940Y-41639676D01*
X197114717Y-41670201D01*
X197127632Y-41679675D01*
X197323359Y-41821435D01*
X197361358Y-41841441D01*
X197396978Y-41866163D01*
X197411342Y-41873250D01*
X197628708Y-41978868D01*
X197682055Y-41995960D01*
X203907172Y-44574489D01*
X203947629Y-44596947D01*
X203962629Y-44602567D01*
X204141580Y-44668354D01*
X204177613Y-44676036D01*
X204212566Y-44688851D01*
X204228255Y-44692080D01*
X204465255Y-44739374D01*
X204508148Y-44741723D01*
X204550806Y-44749348D01*
X204566817Y-44749806D01*
X204808431Y-44755226D01*
X204851076Y-44750092D01*
X204894429Y-44750194D01*
X204910276Y-44747861D01*
X205149152Y-44711244D01*
X205190258Y-44698783D01*
X205232961Y-44691357D01*
X205248165Y-44686309D01*
X205477057Y-44608767D01*
X205515378Y-44589355D01*
X205556143Y-44574626D01*
X205570237Y-44567016D01*
X205782188Y-44450903D01*
X205837579Y-44409367D01*
X213362194Y-39254023D01*
X213362838Y-39253792D01*
X213376951Y-39246209D01*
X213522319Y-39166952D01*
X213624928Y-39132817D01*
X213731965Y-39117393D01*
X213840032Y-39121167D01*
X213945725Y-39144019D01*
X214045704Y-39185226D01*
X214143665Y-39247876D01*
X214233168Y-39326643D01*
X214246906Y-39335633D01*
X220155870Y-45244598D01*
X220158309Y-45248649D01*
X220168510Y-45261000D01*
X220274713Y-45388018D01*
X220328290Y-45481949D01*
X220364387Y-45583885D01*
X220381863Y-45690602D01*
X220380165Y-45798719D01*
X220359344Y-45904842D01*
X220317106Y-46013177D01*
X220257404Y-46116375D01*
X220252782Y-46127873D01*
X215095988Y-53654598D01*
X215059019Y-53700801D01*
X215050971Y-53714651D01*
X214956180Y-53880066D01*
X214942581Y-53914298D01*
X214924097Y-53946620D01*
X214918287Y-53961547D01*
X214832013Y-54187299D01*
X214822524Y-54229187D01*
X214807867Y-54269976D01*
X214804737Y-54285687D01*
X214758975Y-54522989D01*
X214756903Y-54565889D01*
X214749552Y-54608603D01*
X214749197Y-54624617D01*
X214745338Y-54866267D01*
X214750748Y-54908882D01*
X214750925Y-54952219D01*
X214753358Y-54968051D01*
X214791518Y-55206695D01*
X214804244Y-55247718D01*
X214811946Y-55290372D01*
X214817091Y-55305542D01*
X214896110Y-55533932D01*
X214921748Y-55583745D01*
X217500270Y-61808848D01*
X217513003Y-61853351D01*
X217519637Y-61867930D01*
X217599652Y-62040979D01*
X217619698Y-62071888D01*
X217635354Y-62105669D01*
X217644165Y-62119048D01*
X217778307Y-62320071D01*
X217806971Y-62352057D01*
X217831748Y-62387620D01*
X217842747Y-62399265D01*
X218009761Y-62573944D01*
X218043545Y-62600467D01*
X218074127Y-62631194D01*
X218086982Y-62640751D01*
X218281786Y-62783770D01*
X218319661Y-62804023D01*
X218355109Y-62828969D01*
X218369428Y-62836150D01*
X218586114Y-62943172D01*
X218626928Y-62956539D01*
X218666171Y-62974951D01*
X218681520Y-62979537D01*
X218913498Y-63047306D01*
X218982041Y-63057104D01*
X227948127Y-64732431D01*
X227948750Y-64732725D01*
X227964085Y-64737340D01*
X228122920Y-64784088D01*
X228219608Y-64832506D01*
X228306198Y-64897283D01*
X228379950Y-64976373D01*
X228438527Y-65067265D01*
X228480084Y-65167098D01*
X228505055Y-65280675D01*
X228512644Y-65399653D01*
X228516000Y-65415716D01*
X228516001Y-73772263D01*
X228514861Y-73776853D01*
X228513341Y-73792800D01*
X228498624Y-73957708D01*
X228470088Y-74062012D01*
X228423534Y-74159617D01*
X228360431Y-74247434D01*
X228282775Y-74322687D01*
X228193016Y-74383002D01*
X228086548Y-74429739D01*
X227971358Y-74460496D01*
X227959954Y-74465360D01*
X218991352Y-76141153D01*
X218932542Y-76147682D01*
X218917058Y-76151785D01*
X218733065Y-76201724D01*
X218699242Y-76216315D01*
X218663316Y-76226099D01*
X218648653Y-76232547D01*
X218428024Y-76331169D01*
X218391696Y-76354076D01*
X218352474Y-76372563D01*
X218339154Y-76381460D01*
X218139005Y-76516894D01*
X218107200Y-76545768D01*
X218071796Y-76570776D01*
X218060223Y-76581850D01*
X217886631Y-76749983D01*
X217860321Y-76783943D01*
X217829799Y-76814717D01*
X217820325Y-76827632D01*
X217678563Y-77023361D01*
X217658555Y-77061366D01*
X217633837Y-77096977D01*
X217626750Y-77111342D01*
X217521132Y-77328708D01*
X217504042Y-77382046D01*
X214925512Y-83607170D01*
X214903053Y-83647629D01*
X214897433Y-83662629D01*
X214831646Y-83841580D01*
X214823964Y-83877612D01*
X214811148Y-83912568D01*
X214807919Y-83928257D01*
X214760627Y-84165254D01*
X214758278Y-84208142D01*
X214750652Y-84250806D01*
X214750194Y-84266819D01*
X214744774Y-84508431D01*
X214749908Y-84551076D01*
X214749806Y-84594429D01*
X214752139Y-84610276D01*
X214788756Y-84849152D01*
X214801217Y-84890258D01*
X214808643Y-84932961D01*
X214813691Y-84948165D01*
X214891233Y-85177057D01*
X214910645Y-85215378D01*
X214925374Y-85256143D01*
X214932984Y-85270237D01*
X215049097Y-85482188D01*
X215090633Y-85537579D01*
X220245977Y-93062194D01*
X220246208Y-93062838D01*
X220253791Y-93076951D01*
X220333048Y-93222319D01*
X220367183Y-93324928D01*
X220382607Y-93431965D01*
X220378833Y-93540032D01*
X220355982Y-93645722D01*
X220314771Y-93745709D01*
X220252124Y-93843666D01*
X220173357Y-93933168D01*
X220164370Y-93946901D01*
X214255403Y-99855869D01*
X214251345Y-99858312D01*
X214238995Y-99868514D01*
X214111982Y-99974713D01*
X214018051Y-100028290D01*
X213916115Y-100064387D01*
X213809398Y-100081863D01*
X213701281Y-100080165D01*
X213595158Y-100059344D01*
X213486823Y-100017106D01*
X213383625Y-99957404D01*
X213372127Y-99952782D01*
X205845397Y-94795985D01*
X205799203Y-94759023D01*
X205785353Y-94750973D01*
X205619936Y-94656180D01*
X205585697Y-94642579D01*
X205553380Y-94624097D01*
X205538453Y-94618287D01*
X205312701Y-94532013D01*
X205270813Y-94522524D01*
X205230024Y-94507867D01*
X205214313Y-94504737D01*
X204977011Y-94458975D01*
X204934111Y-94456903D01*
X204891397Y-94449552D01*
X204875383Y-94449197D01*
X204633733Y-94445338D01*
X204591118Y-94450748D01*
X204547783Y-94450925D01*
X204531950Y-94453357D01*
X204293305Y-94491518D01*
X204252282Y-94504244D01*
X204209628Y-94511946D01*
X204194458Y-94517091D01*
X203966069Y-94596110D01*
X203959458Y-94599512D01*
X203943066Y-94603559D01*
X203884308Y-94638192D01*
X203812659Y-94675070D01*
X203764592Y-94720740D01*
X201183355Y-96812201D01*
X201108321Y-96838162D01*
X200977757Y-96859039D01*
X200877863Y-96861097D01*
X200848018Y-96866000D01*
X192073837Y-96866000D01*
X192073837Y-93673412D01*
X192031123Y-93514000D01*
X202029191Y-93514000D01*
X202129001Y-93520804D01*
X202235691Y-93502184D01*
X202343201Y-93489174D01*
X202371494Y-93478482D01*
X202401291Y-93473283D01*
X202500445Y-93429756D01*
X202601762Y-93391472D01*
X202626694Y-93374337D01*
X202654693Y-93362046D01*
X202733340Y-93301041D01*
X202829556Y-93234914D01*
X202900194Y-93155631D01*
X204826671Y-91229155D01*
X205006308Y-91197480D01*
X205058284Y-91178562D01*
X205039366Y-91230538D01*
X204995795Y-91477643D01*
X204995795Y-91728561D01*
X205039366Y-91975666D01*
X205125186Y-92211451D01*
X205250645Y-92428753D01*
X205411931Y-92620966D01*
X205604144Y-92782252D01*
X205821446Y-92907711D01*
X206057231Y-92993531D01*
X206304336Y-93037102D01*
X206555254Y-93037102D01*
X206802359Y-92993531D01*
X206854335Y-92974613D01*
X206835417Y-93026590D01*
X206791846Y-93273695D01*
X206791846Y-93524613D01*
X206835417Y-93771718D01*
X206921237Y-94007503D01*
X207046696Y-94224805D01*
X207207982Y-94417018D01*
X207400195Y-94578304D01*
X207617497Y-94703763D01*
X207853282Y-94789583D01*
X208100387Y-94833154D01*
X208351305Y-94833154D01*
X208598410Y-94789583D01*
X208834195Y-94703763D01*
X209051497Y-94578304D01*
X209243710Y-94417018D01*
X209404996Y-94224805D01*
X209530455Y-94007503D01*
X209616275Y-93771718D01*
X209659846Y-93524613D01*
X209659846Y-93273695D01*
X209616275Y-93026590D01*
X209530455Y-92790805D01*
X209404996Y-92573503D01*
X209243710Y-92381290D01*
X209051497Y-92220004D01*
X208834195Y-92094545D01*
X208598410Y-92008725D01*
X208351305Y-91965154D01*
X208100387Y-91965154D01*
X207853282Y-92008725D01*
X207801306Y-92027643D01*
X207820224Y-91975666D01*
X207863795Y-91728561D01*
X207863795Y-91477643D01*
X207820224Y-91230538D01*
X207734404Y-90994753D01*
X207608945Y-90777451D01*
X207447659Y-90585238D01*
X207255446Y-90423952D01*
X207038144Y-90298493D01*
X206802359Y-90212673D01*
X206555254Y-90169102D01*
X206304336Y-90169102D01*
X206057231Y-90212673D01*
X206005255Y-90231591D01*
X206024173Y-90179615D01*
X206067744Y-89932510D01*
X206067744Y-89681592D01*
X206024173Y-89434487D01*
X205938353Y-89198702D01*
X205812894Y-88981400D01*
X205651608Y-88789187D01*
X205459395Y-88627901D01*
X205242093Y-88502442D01*
X205006308Y-88416622D01*
X204759203Y-88373051D01*
X204508285Y-88373051D01*
X204261180Y-88416622D01*
X204209204Y-88435540D01*
X204228122Y-88383564D01*
X204271693Y-88136459D01*
X204271693Y-87885541D01*
X204228122Y-87638436D01*
X204142302Y-87402651D01*
X204100916Y-87330967D01*
X210882950Y-87330967D01*
X211209600Y-87519558D01*
X211445385Y-87605378D01*
X211692490Y-87648949D01*
X211943408Y-87648949D01*
X211973933Y-87643567D01*
X211861283Y-87838683D01*
X211841298Y-88067109D01*
X211899166Y-88283073D01*
X212020987Y-88457053D01*
X213171882Y-89607948D01*
X213441683Y-89763717D01*
X213670109Y-89783702D01*
X213886073Y-89725834D01*
X214060053Y-89604013D01*
X215210948Y-88453118D01*
X215366717Y-88183317D01*
X215386702Y-87954891D01*
X215328834Y-87738927D01*
X215207013Y-87564947D01*
X214056118Y-86414052D01*
X213786317Y-86258283D01*
X213557891Y-86238298D01*
X213341927Y-86296166D01*
X213248175Y-86361811D01*
X213251949Y-86340408D01*
X213251949Y-86089490D01*
X213208378Y-85842385D01*
X213122558Y-85606600D01*
X212933967Y-85279950D01*
X210882950Y-87330967D01*
X204100916Y-87330967D01*
X204016843Y-87185349D01*
X203855557Y-86993136D01*
X203663344Y-86831850D01*
X203446042Y-86706391D01*
X203210257Y-86620571D01*
X202963152Y-86577000D01*
X202712234Y-86577000D01*
X202465129Y-86620571D01*
X202229344Y-86706391D01*
X202012042Y-86831850D01*
X201819829Y-86993136D01*
X201658543Y-87185349D01*
X201533084Y-87402651D01*
X201447264Y-87638436D01*
X201403693Y-87885541D01*
X201403693Y-88136459D01*
X201447264Y-88383564D01*
X201533084Y-88619349D01*
X201658543Y-88836651D01*
X201819829Y-89028864D01*
X202012042Y-89190150D01*
X202229344Y-89315609D01*
X202465129Y-89401429D01*
X202712234Y-89445000D01*
X202963152Y-89445000D01*
X203210257Y-89401429D01*
X203262233Y-89382511D01*
X203243315Y-89434487D01*
X203211640Y-89614124D01*
X201595765Y-91230000D01*
X194391591Y-91230000D01*
X194479150Y-91125651D01*
X194604609Y-90908349D01*
X194690429Y-90672564D01*
X194734000Y-90425459D01*
X194734000Y-90174541D01*
X194690429Y-89927436D01*
X194604609Y-89691651D01*
X194479150Y-89474349D01*
X194317864Y-89282136D01*
X194232745Y-89210713D01*
X194417512Y-89161205D01*
X194593165Y-89013815D01*
X194704956Y-88820186D01*
X194741837Y-88611024D01*
X194741837Y-86983412D01*
X194661205Y-86682489D01*
X194513815Y-86506835D01*
X194320186Y-86395044D01*
X194111024Y-86358163D01*
X192483412Y-86358163D01*
X192182489Y-86438795D01*
X192006835Y-86586185D01*
X191895044Y-86779814D01*
X191858163Y-86988976D01*
X191858163Y-88616588D01*
X191938795Y-88917512D01*
X192086185Y-89093165D01*
X192279814Y-89204956D01*
X192357740Y-89218697D01*
X192282136Y-89282136D01*
X192120850Y-89474349D01*
X191995391Y-89691651D01*
X191909571Y-89927436D01*
X191866000Y-90174541D01*
X191866000Y-90425459D01*
X191909571Y-90672564D01*
X191995391Y-90908349D01*
X192120850Y-91125651D01*
X192208409Y-91230000D01*
X191143031Y-91230000D01*
X189333534Y-89420504D01*
X189267756Y-89345101D01*
X189179129Y-89282812D01*
X189093928Y-89216006D01*
X189066369Y-89203563D01*
X189041614Y-89186165D01*
X188940708Y-89146823D01*
X188842011Y-89102260D01*
X188812269Y-89096748D01*
X188783777Y-89085639D01*
X188685007Y-89073161D01*
X188570232Y-89051889D01*
X188464250Y-89058000D01*
X187333554Y-89058000D01*
X187341837Y-89011024D01*
X187341837Y-88328000D01*
X184458163Y-88328000D01*
X184458163Y-89016588D01*
X184538795Y-89317512D01*
X184666083Y-89469208D01*
X184595391Y-89591651D01*
X184509571Y-89827436D01*
X184466000Y-90074541D01*
X184466000Y-90325459D01*
X184509571Y-90572564D01*
X184595391Y-90808349D01*
X184720850Y-91025651D01*
X184882136Y-91217864D01*
X185074349Y-91379150D01*
X185291651Y-91504609D01*
X185471309Y-91570000D01*
X184972388Y-91570000D01*
X184274000Y-90871613D01*
X184274000Y-87388976D01*
X184458163Y-87388976D01*
X184458163Y-88072000D01*
X185772000Y-88072000D01*
X185772000Y-86758163D01*
X186028000Y-86758163D01*
X186028000Y-88072000D01*
X187341837Y-88072000D01*
X187341837Y-87383412D01*
X187261205Y-87082489D01*
X187113815Y-86906835D01*
X186920186Y-86795044D01*
X186711024Y-86758163D01*
X186028000Y-86758163D01*
X185772000Y-86758163D01*
X185083412Y-86758163D01*
X184782489Y-86838795D01*
X184606835Y-86986185D01*
X184495044Y-87179814D01*
X184458163Y-87388976D01*
X184274000Y-87388976D01*
X184274000Y-86553756D01*
X184273999Y-86553750D01*
X184273999Y-86493786D01*
X184255312Y-86436275D01*
X184245850Y-86376532D01*
X184218391Y-86322642D01*
X184199703Y-86265125D01*
X184164154Y-86216196D01*
X184136698Y-86162310D01*
X183980801Y-86006414D01*
X181283735Y-83309348D01*
X182371672Y-83309348D01*
X182668086Y-83549379D01*
X182973244Y-83743038D01*
X183298640Y-83900341D01*
X183639958Y-84019201D01*
X183992676Y-84098042D01*
X184352119Y-84135821D01*
X184713521Y-84132037D01*
X185072093Y-84086738D01*
X185423083Y-84000527D01*
X185761837Y-83874545D01*
X186083867Y-83710463D01*
X186384903Y-83510455D01*
X186625833Y-83306853D01*
X184500000Y-81181019D01*
X182371672Y-83309348D01*
X181283735Y-83309348D01*
X179056565Y-81082178D01*
X181361770Y-81082178D01*
X181392013Y-81442332D01*
X181463450Y-81796624D01*
X181575136Y-82140357D01*
X181725589Y-82468975D01*
X181912816Y-82778123D01*
X182187167Y-83131813D01*
X184318981Y-81000000D01*
X182194658Y-78875678D01*
X182029569Y-79062935D01*
X181823301Y-79359717D01*
X181652511Y-79678239D01*
X181519463Y-80014281D01*
X181425920Y-80363388D01*
X181373122Y-80720934D01*
X181361770Y-81082178D01*
X179056565Y-81082178D01*
X178159000Y-80184614D01*
X178159000Y-76239756D01*
X178158999Y-76239750D01*
X178158999Y-76179786D01*
X178140312Y-76122275D01*
X178130850Y-76062532D01*
X178103391Y-76008642D01*
X178084703Y-75951125D01*
X178049154Y-75902196D01*
X178021698Y-75848310D01*
X177865801Y-75692414D01*
X175001047Y-72827661D01*
X175001045Y-72827657D01*
X174830690Y-72657303D01*
X174776801Y-72629844D01*
X174727873Y-72594296D01*
X174670359Y-72575610D01*
X174616468Y-72548150D01*
X174556726Y-72538688D01*
X174499213Y-72520001D01*
X174439250Y-72520001D01*
X174439244Y-72520000D01*
X172486510Y-72520000D01*
X172558438Y-72499917D01*
X172772828Y-72396277D01*
X172965477Y-72256309D01*
X173130295Y-72084440D01*
X173262072Y-71886098D01*
X173356644Y-71667557D01*
X173411401Y-71434101D01*
X173419375Y-71129575D01*
X173376911Y-70893573D01*
X173293907Y-70670381D01*
X173172690Y-70465415D01*
X173017094Y-70285154D01*
X172832034Y-70135296D01*
X172623362Y-70020577D01*
X172397673Y-69944624D01*
X172162100Y-69909838D01*
X171924090Y-69917317D01*
X171691168Y-69966827D01*
X171470693Y-70056801D01*
X171269635Y-70184396D01*
X171094351Y-70345578D01*
X170950379Y-70535254D01*
X170842272Y-70747427D01*
X170773445Y-70975390D01*
X170746077Y-71211939D01*
X170761029Y-71449596D01*
X170817829Y-71680850D01*
X170914684Y-71898389D01*
X171048532Y-72095339D01*
X171215140Y-72265475D01*
X171409245Y-72403417D01*
X171624708Y-72504807D01*
X171681410Y-72520000D01*
X170494200Y-72520000D01*
X169870987Y-71897316D01*
X169791977Y-71678458D01*
X169671601Y-71515780D01*
X169522451Y-71366631D01*
X169519601Y-71362779D01*
X169499775Y-71342954D01*
X169477466Y-71317063D01*
X169482375Y-71129575D01*
X169439911Y-70893573D01*
X169356907Y-70670381D01*
X169235690Y-70465415D01*
X169080094Y-70285154D01*
X168895034Y-70135296D01*
X168686362Y-70020577D01*
X168460673Y-69944624D01*
X168225100Y-69909838D01*
X167987090Y-69917317D01*
X167754168Y-69966827D01*
X167533693Y-70056801D01*
X167332635Y-70184396D01*
X167157351Y-70345578D01*
X167013379Y-70535254D01*
X166905272Y-70747427D01*
X166836445Y-70975390D01*
X166809077Y-71211939D01*
X166824029Y-71449596D01*
X166880829Y-71680850D01*
X166977684Y-71898389D01*
X167111532Y-72095339D01*
X167278140Y-72265475D01*
X167472245Y-72403417D01*
X167687708Y-72504807D01*
X167917721Y-72566438D01*
X168155013Y-72586364D01*
X168220464Y-72580177D01*
X168258256Y-72624036D01*
X168286564Y-72642384D01*
X168417123Y-72772944D01*
X168569181Y-72886906D01*
X168800532Y-72973633D01*
X169643315Y-73815703D01*
X169728310Y-73900698D01*
X169782341Y-73928228D01*
X169831415Y-73963851D01*
X169888787Y-73982465D01*
X169942532Y-74009850D01*
X170002430Y-74019337D01*
X170060108Y-74038050D01*
X170179142Y-74038000D01*
X174064614Y-74038000D01*
X176641001Y-76614388D01*
X176641000Y-80246531D01*
X176564609Y-80036651D01*
X176439150Y-79819349D01*
X176277864Y-79627136D01*
X176085651Y-79465850D01*
X175868349Y-79340391D01*
X175632564Y-79254571D01*
X175385459Y-79211000D01*
X175134541Y-79211000D01*
X174887436Y-79254571D01*
X174651651Y-79340391D01*
X174434349Y-79465850D01*
X174242136Y-79627136D01*
X174080850Y-79819349D01*
X173955391Y-80036651D01*
X173869571Y-80272436D01*
X173826000Y-80519541D01*
X173826000Y-80770459D01*
X173869571Y-81017564D01*
X173955391Y-81253349D01*
X174080850Y-81470651D01*
X174242136Y-81662864D01*
X174434349Y-81824150D01*
X174651651Y-81949609D01*
X174887436Y-82035429D01*
X175134541Y-82079000D01*
X175385459Y-82079000D01*
X175632564Y-82035429D01*
X175868349Y-81949609D01*
X176085651Y-81824150D01*
X176277864Y-81662864D01*
X176439150Y-81470651D01*
X176564609Y-81253349D01*
X176650429Y-81017564D01*
X176692064Y-80781437D01*
X176696609Y-80790357D01*
X176715297Y-80847874D01*
X176750846Y-80896803D01*
X176778302Y-80950689D01*
X176948657Y-81121045D01*
X176948661Y-81121047D01*
X182756001Y-86928388D01*
X182756000Y-91246243D01*
X182756001Y-91246249D01*
X182756001Y-91306213D01*
X182774688Y-91363724D01*
X182784150Y-91423467D01*
X182811609Y-91477357D01*
X182830297Y-91534874D01*
X182865846Y-91583803D01*
X182893302Y-91637689D01*
X183063657Y-91808045D01*
X183063661Y-91808047D01*
X184050414Y-92794801D01*
X184206310Y-92950698D01*
X184260196Y-92978154D01*
X184309125Y-93013703D01*
X184366642Y-93032391D01*
X184420532Y-93059850D01*
X184480275Y-93069312D01*
X184537786Y-93087999D01*
X184597750Y-93087999D01*
X184597756Y-93088000D01*
X186344585Y-93088000D01*
X186428245Y-93183899D01*
X186654386Y-93342835D01*
X186802921Y-93400746D01*
X186763044Y-93469814D01*
X186726163Y-93678976D01*
X186726163Y-96866000D01*
X178967524Y-96866000D01*
X178952874Y-96862853D01*
X178936888Y-96861841D01*
X178760410Y-96851746D01*
X178631723Y-96821387D01*
X178624556Y-96818610D01*
X176043085Y-94726961D01*
X176003627Y-94687029D01*
X175933026Y-94647826D01*
X175863786Y-94606442D01*
X175853847Y-94603859D01*
X175852447Y-94603082D01*
X175837445Y-94597461D01*
X175658839Y-94531773D01*
X175622858Y-94524097D01*
X175587938Y-94511284D01*
X175572249Y-94508050D01*
X175335261Y-94460695D01*
X175292374Y-94458334D01*
X175249703Y-94450695D01*
X175233691Y-94450235D01*
X174992082Y-94444753D01*
X174949441Y-94449875D01*
X174906093Y-94449762D01*
X174890245Y-94452089D01*
X174651355Y-94488643D01*
X174610249Y-94501094D01*
X174567539Y-94508509D01*
X174552335Y-94513553D01*
X174323420Y-94591037D01*
X174285098Y-94610437D01*
X174244334Y-94625153D01*
X174230237Y-94632758D01*
X174018251Y-94748817D01*
X173962850Y-94790338D01*
X166437807Y-99945977D01*
X166437155Y-99946211D01*
X166423045Y-99953794D01*
X166277680Y-100033049D01*
X166175070Y-100067183D01*
X166068034Y-100082607D01*
X165959968Y-100078833D01*
X165854278Y-100055982D01*
X165754291Y-100014771D01*
X165656334Y-99952124D01*
X165566832Y-99873357D01*
X165553099Y-99864370D01*
X159644131Y-93955403D01*
X159641688Y-93951345D01*
X159631486Y-93938995D01*
X159525287Y-93811982D01*
X159471710Y-93718051D01*
X159435613Y-93616115D01*
X159418137Y-93509398D01*
X159419835Y-93401281D01*
X159440656Y-93295161D01*
X159482894Y-93186822D01*
X159542595Y-93083625D01*
X159547219Y-93072122D01*
X164704014Y-85545398D01*
X164740981Y-85499199D01*
X164749029Y-85485349D01*
X164843820Y-85319934D01*
X164857419Y-85285702D01*
X164875903Y-85253380D01*
X164881713Y-85238453D01*
X164967987Y-85012701D01*
X164977476Y-84970813D01*
X164992133Y-84930024D01*
X164995263Y-84914313D01*
X165041025Y-84677011D01*
X165043097Y-84634111D01*
X165050448Y-84591397D01*
X165050803Y-84575383D01*
X165054662Y-84333733D01*
X165049252Y-84291118D01*
X165049203Y-84278976D01*
X168103163Y-84278976D01*
X168103163Y-85906588D01*
X168183795Y-86207512D01*
X168331185Y-86383165D01*
X168524814Y-86494956D01*
X168733976Y-86531837D01*
X170361588Y-86531837D01*
X170662512Y-86451205D01*
X170838165Y-86303815D01*
X170949956Y-86110186D01*
X170986837Y-85901024D01*
X170986837Y-84964541D01*
X175731000Y-84964541D01*
X175731000Y-85215459D01*
X175774571Y-85462564D01*
X175860391Y-85698349D01*
X175985850Y-85915651D01*
X176147136Y-86107864D01*
X176339349Y-86269150D01*
X176556651Y-86394609D01*
X176792436Y-86480429D01*
X177039541Y-86524000D01*
X177290459Y-86524000D01*
X177537564Y-86480429D01*
X177773349Y-86394609D01*
X177990651Y-86269150D01*
X178182864Y-86107864D01*
X178344150Y-85915651D01*
X178469609Y-85698349D01*
X178555429Y-85462564D01*
X178599000Y-85215459D01*
X178599000Y-84964541D01*
X178555429Y-84717436D01*
X178469609Y-84481651D01*
X178344150Y-84264349D01*
X178182864Y-84072136D01*
X177990651Y-83910850D01*
X177773349Y-83785391D01*
X177537564Y-83699571D01*
X177290459Y-83656000D01*
X177039541Y-83656000D01*
X176792436Y-83699571D01*
X176556651Y-83785391D01*
X176339349Y-83910850D01*
X176147136Y-84072136D01*
X175985850Y-84264349D01*
X175860391Y-84481651D01*
X175774571Y-84717436D01*
X175731000Y-84964541D01*
X170986837Y-84964541D01*
X170986837Y-84273412D01*
X170906205Y-83972489D01*
X170758815Y-83796835D01*
X170565186Y-83685044D01*
X170356024Y-83648163D01*
X168728412Y-83648163D01*
X168427489Y-83728795D01*
X168251835Y-83876185D01*
X168140044Y-84069814D01*
X168103163Y-84278976D01*
X165049203Y-84278976D01*
X165049075Y-84247783D01*
X165046643Y-84231950D01*
X165008482Y-83993305D01*
X164995756Y-83952282D01*
X164988054Y-83909628D01*
X164982909Y-83894458D01*
X164903890Y-83666068D01*
X164878254Y-83616259D01*
X163311580Y-79833976D01*
X166198163Y-79833976D01*
X166198163Y-81461588D01*
X166278795Y-81762512D01*
X166426185Y-81938165D01*
X166619814Y-82049956D01*
X166828976Y-82086837D01*
X168456588Y-82086837D01*
X168757512Y-82006205D01*
X168933165Y-81858815D01*
X169044956Y-81665186D01*
X169081837Y-81456024D01*
X169081837Y-79828412D01*
X169001205Y-79527489D01*
X168853815Y-79351835D01*
X168660186Y-79240044D01*
X168451024Y-79203163D01*
X166823412Y-79203163D01*
X166522489Y-79283795D01*
X166346835Y-79431185D01*
X166235044Y-79624814D01*
X166198163Y-79833976D01*
X163311580Y-79833976D01*
X162299730Y-77391156D01*
X162286998Y-77346650D01*
X162280363Y-77332070D01*
X162200348Y-77159022D01*
X162180301Y-77128111D01*
X162164647Y-77094331D01*
X162155835Y-77080952D01*
X162021692Y-76879928D01*
X161993025Y-76847939D01*
X161968248Y-76812375D01*
X161957247Y-76800730D01*
X161790239Y-76626056D01*
X161756455Y-76599533D01*
X161725873Y-76568806D01*
X161713018Y-76559249D01*
X161518215Y-76416230D01*
X161480342Y-76395979D01*
X161444892Y-76371031D01*
X161430573Y-76363850D01*
X161213886Y-76256828D01*
X161173068Y-76243459D01*
X161133828Y-76225049D01*
X161118480Y-76220463D01*
X160928419Y-76164939D01*
X164461077Y-76164939D01*
X164476029Y-76402596D01*
X164532829Y-76633850D01*
X164629684Y-76851389D01*
X164763532Y-77048339D01*
X164930140Y-77218475D01*
X165124245Y-77356417D01*
X165339708Y-77457807D01*
X165569721Y-77519438D01*
X165807013Y-77539364D01*
X166044083Y-77516955D01*
X166273438Y-77452917D01*
X166487828Y-77349277D01*
X166680477Y-77209309D01*
X166845295Y-77037440D01*
X166977072Y-76839098D01*
X167071644Y-76620557D01*
X167126401Y-76387101D01*
X167132218Y-76164939D01*
X172081077Y-76164939D01*
X172096029Y-76402596D01*
X172152829Y-76633850D01*
X172249684Y-76851389D01*
X172383532Y-77048339D01*
X172550140Y-77218475D01*
X172744245Y-77356417D01*
X172959708Y-77457807D01*
X173189721Y-77519438D01*
X173427013Y-77539364D01*
X173664083Y-77516955D01*
X173893438Y-77452917D01*
X174107828Y-77349277D01*
X174300477Y-77209309D01*
X174465295Y-77037440D01*
X174597072Y-76839098D01*
X174691644Y-76620557D01*
X174746401Y-76387101D01*
X174754375Y-76082575D01*
X174711911Y-75846573D01*
X174628907Y-75623381D01*
X174507690Y-75418415D01*
X174352094Y-75238154D01*
X174167034Y-75088296D01*
X173958362Y-74973577D01*
X173732673Y-74897624D01*
X173497100Y-74862838D01*
X173259090Y-74870317D01*
X173026168Y-74919827D01*
X172805693Y-75009801D01*
X172604635Y-75137396D01*
X172429351Y-75298578D01*
X172285379Y-75488254D01*
X172177272Y-75700427D01*
X172108445Y-75928390D01*
X172081077Y-76164939D01*
X167132218Y-76164939D01*
X167134375Y-76082575D01*
X167091911Y-75846573D01*
X167008907Y-75623381D01*
X166887690Y-75418415D01*
X166732094Y-75238154D01*
X166547034Y-75088296D01*
X166338362Y-74973577D01*
X166112673Y-74897624D01*
X165877100Y-74862838D01*
X165639090Y-74870317D01*
X165406168Y-74919827D01*
X165185693Y-75009801D01*
X164984635Y-75137396D01*
X164809351Y-75298578D01*
X164665379Y-75488254D01*
X164557272Y-75700427D01*
X164488445Y-75928390D01*
X164461077Y-76164939D01*
X160928419Y-76164939D01*
X160886503Y-76152694D01*
X160817980Y-76142899D01*
X151851881Y-74467571D01*
X151851257Y-74467277D01*
X151835915Y-74462660D01*
X151677080Y-74415912D01*
X151580388Y-74367492D01*
X151493799Y-74302716D01*
X151420054Y-74223633D01*
X151361474Y-74132735D01*
X151319916Y-74032899D01*
X151294945Y-73919323D01*
X151287356Y-73800347D01*
X151284000Y-73784284D01*
X151284000Y-73137231D01*
X153543788Y-73137231D01*
X153701960Y-73257509D01*
X153925246Y-73373992D01*
X154164966Y-73451190D01*
X154414266Y-73486892D01*
X154666017Y-73480080D01*
X154913022Y-73430948D01*
X155148216Y-73340901D01*
X155469497Y-73150516D01*
X155456212Y-73137231D01*
X160043788Y-73137231D01*
X160201960Y-73257509D01*
X160425246Y-73373992D01*
X160664966Y-73451190D01*
X160914266Y-73486892D01*
X161166017Y-73480080D01*
X161413022Y-73430948D01*
X161648216Y-73340901D01*
X161969497Y-73150516D01*
X161000000Y-72181019D01*
X160043788Y-73137231D01*
X155456212Y-73137231D01*
X154500000Y-72181019D01*
X153543788Y-73137231D01*
X151284000Y-73137231D01*
X151284000Y-71984404D01*
X153010720Y-71984404D01*
X153029384Y-72235554D01*
X153090097Y-72479970D01*
X153191123Y-72710662D01*
X153356712Y-72962269D01*
X154318981Y-72000000D01*
X154681019Y-72000000D01*
X155651807Y-72970788D01*
X155845393Y-72638840D01*
X155933796Y-72403022D01*
X155981318Y-72155082D01*
X155983104Y-71984404D01*
X159510720Y-71984404D01*
X159529384Y-72235554D01*
X159590097Y-72479970D01*
X159691123Y-72710662D01*
X159856712Y-72962269D01*
X160818981Y-72000000D01*
X161181019Y-72000000D01*
X162151807Y-72970788D01*
X162345393Y-72638840D01*
X162433796Y-72403022D01*
X162481318Y-72155082D01*
X162484240Y-71875974D01*
X162441922Y-71627094D01*
X162358477Y-71389476D01*
X162236187Y-71169314D01*
X162136235Y-71044784D01*
X161181019Y-72000000D01*
X160818981Y-72000000D01*
X159859118Y-71040137D01*
X159706293Y-71262083D01*
X159600457Y-71490609D01*
X159534639Y-71733699D01*
X159510720Y-71984404D01*
X155983104Y-71984404D01*
X155984240Y-71875974D01*
X155941922Y-71627094D01*
X155858477Y-71389476D01*
X155736187Y-71169314D01*
X155636235Y-71044784D01*
X154681019Y-72000000D01*
X154318981Y-72000000D01*
X153359118Y-71040137D01*
X153206293Y-71262083D01*
X153100457Y-71490609D01*
X153034639Y-71733699D01*
X153010720Y-71984404D01*
X151284000Y-71984404D01*
X151284000Y-70861443D01*
X153542462Y-70861443D01*
X154500000Y-71818981D01*
X155457538Y-70861443D01*
X160042462Y-70861443D01*
X161000000Y-71818981D01*
X161965969Y-70853012D01*
X161676157Y-70672969D01*
X161442899Y-70578016D01*
X161196977Y-70523721D01*
X160945424Y-70511638D01*
X160695431Y-70542113D01*
X160454147Y-70614272D01*
X160228470Y-70726053D01*
X160042462Y-70861443D01*
X155457538Y-70861443D01*
X155465969Y-70853012D01*
X155176157Y-70672969D01*
X154942899Y-70578016D01*
X154696977Y-70523721D01*
X154445424Y-70511638D01*
X154195431Y-70542113D01*
X153954147Y-70614272D01*
X153728470Y-70726053D01*
X153542462Y-70861443D01*
X151284000Y-70861443D01*
X151284000Y-69899062D01*
X180361475Y-69899062D01*
X180375052Y-70521268D01*
X180428752Y-71141303D01*
X180522353Y-71756578D01*
X180655464Y-72364531D01*
X180827531Y-72962627D01*
X181037834Y-73548372D01*
X181285500Y-74119325D01*
X181569493Y-74673106D01*
X181888632Y-75207406D01*
X182241586Y-75719997D01*
X182626882Y-76208742D01*
X183042915Y-76671605D01*
X183487949Y-77106655D01*
X183960132Y-77512081D01*
X184430722Y-77866051D01*
X184188205Y-77876216D01*
X183831233Y-77932755D01*
X183483124Y-78029948D01*
X183148494Y-78166508D01*
X182831778Y-78340624D01*
X182537172Y-78549989D01*
X182376068Y-78695049D01*
X184410905Y-80729885D01*
X186804907Y-83123887D01*
X186908368Y-83013705D01*
X187123856Y-82723551D01*
X187304567Y-82410550D01*
X187448104Y-82078853D01*
X187552567Y-81732857D01*
X187616921Y-81375190D01*
X187634329Y-80821263D01*
X187592560Y-80460262D01*
X187510029Y-80108389D01*
X187387601Y-79768333D01*
X187226900Y-79444604D01*
X187049713Y-79171759D01*
X187246234Y-79237323D01*
X187848080Y-79395776D01*
X188458897Y-79515059D01*
X189076138Y-79594677D01*
X189697230Y-79634298D01*
X190319585Y-79633754D01*
X190940607Y-79593050D01*
X191557708Y-79512356D01*
X192168316Y-79392006D01*
X192769883Y-79232503D01*
X192954858Y-79170431D01*
X192823301Y-79359717D01*
X192652511Y-79678239D01*
X192519463Y-80014281D01*
X192425920Y-80363388D01*
X192373122Y-80720934D01*
X192361770Y-81082178D01*
X192392013Y-81442332D01*
X192463450Y-81796624D01*
X192575136Y-82140357D01*
X192725589Y-82468975D01*
X192912816Y-82778123D01*
X193134333Y-83063702D01*
X193387208Y-83321928D01*
X193668086Y-83549378D01*
X193973244Y-83743038D01*
X194298640Y-83900341D01*
X194639958Y-84019201D01*
X194992676Y-84098042D01*
X195352119Y-84135821D01*
X195713521Y-84132037D01*
X196072093Y-84086738D01*
X196423083Y-84000527D01*
X196761837Y-83874545D01*
X197083867Y-83710463D01*
X197107831Y-83694541D01*
X199226000Y-83694541D01*
X199226000Y-83945459D01*
X199269571Y-84192564D01*
X199355391Y-84428349D01*
X199480850Y-84645651D01*
X199642136Y-84837864D01*
X199834349Y-84999150D01*
X200051651Y-85124609D01*
X200287436Y-85210429D01*
X200534541Y-85254000D01*
X200785459Y-85254000D01*
X201032564Y-85210429D01*
X201268349Y-85124609D01*
X201485651Y-84999150D01*
X201677864Y-84837864D01*
X201839150Y-84645651D01*
X201964609Y-84428349D01*
X202050429Y-84192564D01*
X202094000Y-83945459D01*
X202094000Y-83738864D01*
X207290847Y-83738864D01*
X207617497Y-83927455D01*
X207853282Y-84013275D01*
X208100387Y-84056846D01*
X208351305Y-84056846D01*
X208598410Y-84013275D01*
X208650388Y-83994356D01*
X208631469Y-84046334D01*
X208587898Y-84293439D01*
X208587898Y-84544357D01*
X208631469Y-84791462D01*
X208717289Y-85027247D01*
X208842748Y-85244549D01*
X209004034Y-85436762D01*
X209196247Y-85598048D01*
X209413549Y-85723507D01*
X209649334Y-85809327D01*
X209896439Y-85852898D01*
X210147357Y-85852898D01*
X210394462Y-85809327D01*
X210446438Y-85790409D01*
X210427520Y-85842385D01*
X210383949Y-86089490D01*
X210383949Y-86340408D01*
X210427520Y-86587513D01*
X210513340Y-86823298D01*
X210701931Y-87149948D01*
X212752948Y-85098931D01*
X212426298Y-84910340D01*
X212190513Y-84824520D01*
X211943408Y-84780949D01*
X211692490Y-84780949D01*
X211445385Y-84824520D01*
X211393409Y-84843438D01*
X211412327Y-84791462D01*
X211455898Y-84544357D01*
X211455898Y-84293439D01*
X211412327Y-84046334D01*
X211326507Y-83810549D01*
X211201048Y-83593247D01*
X211039762Y-83401034D01*
X210847549Y-83239748D01*
X210630247Y-83114289D01*
X210394462Y-83028469D01*
X210147357Y-82984898D01*
X209896439Y-82984898D01*
X209649334Y-83028469D01*
X209597356Y-83047388D01*
X209616275Y-82995410D01*
X209659846Y-82748305D01*
X209659846Y-82497387D01*
X209616275Y-82250282D01*
X209530455Y-82014497D01*
X209341864Y-81687847D01*
X207290847Y-83738864D01*
X202094000Y-83738864D01*
X202094000Y-83694541D01*
X202050429Y-83447436D01*
X201964609Y-83211651D01*
X201839150Y-82994349D01*
X201677864Y-82802136D01*
X201485651Y-82640850D01*
X201268349Y-82515391D01*
X201218885Y-82497387D01*
X206791846Y-82497387D01*
X206791846Y-82748305D01*
X206835417Y-82995410D01*
X206921237Y-83231195D01*
X207109828Y-83557845D01*
X208044827Y-82622846D01*
X207109828Y-81687847D01*
X206921237Y-82014497D01*
X206835417Y-82250282D01*
X206791846Y-82497387D01*
X201218885Y-82497387D01*
X201032564Y-82429571D01*
X200785459Y-82386000D01*
X200534541Y-82386000D01*
X200287436Y-82429571D01*
X200051651Y-82515391D01*
X199834349Y-82640850D01*
X199642136Y-82802136D01*
X199480850Y-82994349D01*
X199355391Y-83211651D01*
X199269571Y-83447436D01*
X199226000Y-83694541D01*
X197107831Y-83694541D01*
X197384903Y-83510455D01*
X197660956Y-83277172D01*
X197908366Y-83013707D01*
X198123856Y-82723551D01*
X198304567Y-82410550D01*
X198448104Y-82078853D01*
X198552567Y-81732857D01*
X198616921Y-81375190D01*
X198634329Y-80821263D01*
X198592560Y-80460262D01*
X198521902Y-80159007D01*
X202761534Y-80159007D01*
X202761534Y-80409925D01*
X202805105Y-80657030D01*
X202890925Y-80892815D01*
X203016384Y-81110117D01*
X203177670Y-81302330D01*
X203369883Y-81463616D01*
X203587185Y-81589075D01*
X203822970Y-81674895D01*
X204070075Y-81718466D01*
X204320993Y-81718466D01*
X204568098Y-81674895D01*
X204803883Y-81589075D01*
X204946339Y-81506828D01*
X207290847Y-81506828D01*
X208225846Y-82441827D01*
X209160845Y-81506828D01*
X208834195Y-81318237D01*
X208598410Y-81232417D01*
X208351305Y-81188846D01*
X208100387Y-81188846D01*
X207853282Y-81232417D01*
X207617497Y-81318237D01*
X207290847Y-81506828D01*
X204946339Y-81506828D01*
X205021185Y-81463616D01*
X205213398Y-81302330D01*
X205374684Y-81110117D01*
X205500143Y-80892815D01*
X205585963Y-80657030D01*
X205629534Y-80409925D01*
X205629534Y-80159007D01*
X205585963Y-79911902D01*
X205500143Y-79676117D01*
X205374684Y-79458815D01*
X205213398Y-79266602D01*
X205021185Y-79105316D01*
X204803883Y-78979857D01*
X204568098Y-78894037D01*
X204320993Y-78850466D01*
X204070075Y-78850466D01*
X203822970Y-78894037D01*
X203587185Y-78979857D01*
X203369883Y-79105316D01*
X203177670Y-79266602D01*
X203016384Y-79458815D01*
X202890925Y-79676117D01*
X202805105Y-79911902D01*
X202761534Y-80159007D01*
X198521902Y-80159007D01*
X198510029Y-80108389D01*
X198387601Y-79768333D01*
X198226900Y-79444604D01*
X198030056Y-79141489D01*
X197799677Y-78863009D01*
X197593131Y-78664939D01*
X206361077Y-78664939D01*
X206376029Y-78902596D01*
X206432829Y-79133850D01*
X206529684Y-79351389D01*
X206663532Y-79548339D01*
X206830140Y-79718475D01*
X207024245Y-79856417D01*
X207239708Y-79957807D01*
X207469721Y-80019438D01*
X207707013Y-80039364D01*
X207944083Y-80016955D01*
X208173438Y-79952917D01*
X208387828Y-79849277D01*
X208580477Y-79709309D01*
X208745295Y-79537440D01*
X208877072Y-79339098D01*
X208971644Y-79120557D01*
X209026401Y-78887101D01*
X209032218Y-78664939D01*
X213981077Y-78664939D01*
X213996029Y-78902596D01*
X214052829Y-79133850D01*
X214149684Y-79351389D01*
X214283532Y-79548339D01*
X214450140Y-79718475D01*
X214644245Y-79856417D01*
X214859708Y-79957807D01*
X215089721Y-80019438D01*
X215327013Y-80039364D01*
X215564083Y-80016955D01*
X215793438Y-79952917D01*
X216007828Y-79849277D01*
X216200477Y-79709309D01*
X216365295Y-79537440D01*
X216497072Y-79339098D01*
X216591644Y-79120557D01*
X216646401Y-78887101D01*
X216654375Y-78582575D01*
X216611911Y-78346573D01*
X216528907Y-78123381D01*
X216407690Y-77918415D01*
X216252094Y-77738154D01*
X216067034Y-77588296D01*
X215858362Y-77473577D01*
X215632673Y-77397624D01*
X215397100Y-77362838D01*
X215159090Y-77370317D01*
X214926168Y-77419827D01*
X214705693Y-77509801D01*
X214504635Y-77637396D01*
X214329351Y-77798578D01*
X214185379Y-77988254D01*
X214077272Y-78200427D01*
X214008445Y-78428390D01*
X213981077Y-78664939D01*
X209032218Y-78664939D01*
X209034375Y-78582575D01*
X208991911Y-78346573D01*
X208908907Y-78123381D01*
X208787690Y-77918415D01*
X208632094Y-77738154D01*
X208447034Y-77588296D01*
X208238362Y-77473577D01*
X208012673Y-77397624D01*
X207777100Y-77362838D01*
X207539090Y-77370317D01*
X207306168Y-77419827D01*
X207085693Y-77509801D01*
X206884635Y-77637396D01*
X206709351Y-77798578D01*
X206565379Y-77988254D01*
X206457272Y-78200427D01*
X206388445Y-78428390D01*
X206361077Y-78664939D01*
X197593131Y-78664939D01*
X197538816Y-78612853D01*
X197250933Y-78394337D01*
X196939842Y-78210358D01*
X196609666Y-78063354D01*
X196264782Y-77955275D01*
X195909762Y-77887550D01*
X195574265Y-77862913D01*
X196052970Y-77501528D01*
X196524444Y-77095280D01*
X196589016Y-77031935D01*
X206794084Y-77031935D01*
X206969244Y-77156417D01*
X207184708Y-77257807D01*
X207414721Y-77319438D01*
X207652013Y-77339364D01*
X207889083Y-77316955D01*
X208118438Y-77252917D01*
X208332829Y-77149277D01*
X208495250Y-77031270D01*
X207645000Y-76181019D01*
X206794084Y-77031935D01*
X196589016Y-77031935D01*
X196968719Y-76659453D01*
X197383944Y-76195864D01*
X197565337Y-75964939D01*
X206306077Y-75964939D01*
X206321029Y-76202596D01*
X206377829Y-76433850D01*
X206474684Y-76651389D01*
X206611409Y-76852572D01*
X207463981Y-76000000D01*
X207826019Y-76000000D01*
X208679582Y-76853563D01*
X208822072Y-76639098D01*
X208916644Y-76420557D01*
X208971401Y-76187101D01*
X208977218Y-75964939D01*
X213926077Y-75964939D01*
X213941029Y-76202596D01*
X213997829Y-76433850D01*
X214094684Y-76651389D01*
X214228532Y-76848339D01*
X214395140Y-77018475D01*
X214589245Y-77156417D01*
X214804708Y-77257807D01*
X215034721Y-77319438D01*
X215272013Y-77339364D01*
X215509083Y-77316955D01*
X215738438Y-77252917D01*
X215952828Y-77149277D01*
X216145477Y-77009309D01*
X216310295Y-76837440D01*
X216442072Y-76639098D01*
X216536644Y-76420557D01*
X216591401Y-76187101D01*
X216599375Y-75882575D01*
X216556911Y-75646573D01*
X216473907Y-75423381D01*
X216352690Y-75218415D01*
X216197094Y-75038154D01*
X216012034Y-74888296D01*
X215803362Y-74773577D01*
X215577673Y-74697624D01*
X215342100Y-74662838D01*
X215104090Y-74670317D01*
X214871168Y-74719827D01*
X214650693Y-74809801D01*
X214449635Y-74937396D01*
X214274351Y-75098578D01*
X214130379Y-75288254D01*
X214022272Y-75500427D01*
X213953445Y-75728390D01*
X213926077Y-75964939D01*
X208977218Y-75964939D01*
X208979375Y-75882575D01*
X208936911Y-75646573D01*
X208853907Y-75423381D01*
X208686206Y-75139813D01*
X207826019Y-76000000D01*
X207463981Y-76000000D01*
X206614746Y-75150765D01*
X206510380Y-75288252D01*
X206402272Y-75500427D01*
X206333445Y-75728390D01*
X206306077Y-75964939D01*
X197565337Y-75964939D01*
X197768386Y-75706447D01*
X198120444Y-75193241D01*
X198257360Y-74963105D01*
X206789124Y-74963105D01*
X207645000Y-75818981D01*
X208510537Y-74953444D01*
X208183362Y-74773577D01*
X207957673Y-74697624D01*
X207722100Y-74662838D01*
X207484090Y-74670317D01*
X207251168Y-74719827D01*
X207030693Y-74809801D01*
X206789124Y-74963105D01*
X198257360Y-74963105D01*
X198438650Y-74658385D01*
X198721677Y-74104109D01*
X198968345Y-73532725D01*
X199063962Y-73264939D01*
X206306077Y-73264939D01*
X206321029Y-73502596D01*
X206377829Y-73733850D01*
X206474684Y-73951389D01*
X206608532Y-74148339D01*
X206775140Y-74318475D01*
X206969245Y-74456417D01*
X207184708Y-74557807D01*
X207414721Y-74619438D01*
X207652013Y-74639364D01*
X207889083Y-74616955D01*
X208118438Y-74552917D01*
X208332828Y-74449277D01*
X208525477Y-74309309D01*
X208690295Y-74137440D01*
X208822072Y-73939098D01*
X208916644Y-73720557D01*
X208971401Y-73487101D01*
X208972948Y-73428000D01*
X213922707Y-73428000D01*
X213997829Y-73733850D01*
X214094684Y-73951389D01*
X214228532Y-74148339D01*
X214395140Y-74318475D01*
X214589245Y-74456417D01*
X214804708Y-74557807D01*
X215137000Y-74646844D01*
X215137000Y-73428000D01*
X215393000Y-73428000D01*
X215393000Y-74649366D01*
X215738438Y-74552917D01*
X215952828Y-74449277D01*
X216145477Y-74309309D01*
X216310295Y-74137440D01*
X216442072Y-73939098D01*
X216536644Y-73720556D01*
X216605262Y-73428000D01*
X215393000Y-73428000D01*
X215137000Y-73428000D01*
X213922707Y-73428000D01*
X208972948Y-73428000D01*
X208979375Y-73182575D01*
X208977473Y-73172000D01*
X213910086Y-73172000D01*
X215137000Y-73172000D01*
X215393000Y-73172000D01*
X216597473Y-73172000D01*
X216556911Y-72946573D01*
X216473907Y-72723381D01*
X216352690Y-72518415D01*
X216197094Y-72338154D01*
X216012034Y-72188296D01*
X215803362Y-72073577D01*
X215577672Y-71997624D01*
X215393000Y-71970356D01*
X215393000Y-73172000D01*
X215137000Y-73172000D01*
X215137000Y-71963323D01*
X214871168Y-72019827D01*
X214650693Y-72109801D01*
X214449635Y-72237396D01*
X214274351Y-72398578D01*
X214130379Y-72588254D01*
X214022272Y-72800427D01*
X213910086Y-73172000D01*
X208977473Y-73172000D01*
X208936911Y-72946573D01*
X208853907Y-72723381D01*
X208732690Y-72518415D01*
X208577094Y-72338154D01*
X208392034Y-72188296D01*
X208183362Y-72073577D01*
X207957673Y-71997624D01*
X207722100Y-71962838D01*
X207484090Y-71970317D01*
X207251168Y-72019827D01*
X207030693Y-72109801D01*
X206829635Y-72237396D01*
X206654351Y-72398578D01*
X206510379Y-72588254D01*
X206402272Y-72800427D01*
X206333445Y-73028390D01*
X206306077Y-73264939D01*
X199063962Y-73264939D01*
X199177626Y-72946614D01*
X199348649Y-72348219D01*
X199480699Y-71740033D01*
X199573225Y-71124595D01*
X199625895Y-70503866D01*
X199634336Y-69697834D01*
X199594677Y-69076138D01*
X199515059Y-68458897D01*
X199395776Y-67848080D01*
X199237323Y-67246234D01*
X199040362Y-66655868D01*
X198805714Y-66079443D01*
X198534357Y-65519362D01*
X198227421Y-64977961D01*
X197886189Y-64457494D01*
X197512081Y-63960132D01*
X197106655Y-63487949D01*
X196671605Y-63042915D01*
X196208742Y-62626882D01*
X195719997Y-62241586D01*
X195207406Y-61888632D01*
X194673106Y-61569493D01*
X194119325Y-61285500D01*
X193548372Y-61037834D01*
X192962627Y-60827531D01*
X192364531Y-60655464D01*
X191756578Y-60522353D01*
X191141303Y-60428752D01*
X190521268Y-60375052D01*
X189899062Y-60361475D01*
X189277276Y-60388079D01*
X188658503Y-60454753D01*
X188045322Y-60561219D01*
X187440291Y-60707033D01*
X186845929Y-60891586D01*
X186264717Y-61114112D01*
X185699076Y-61373679D01*
X185151363Y-61669209D01*
X184623864Y-61999467D01*
X184118778Y-62363077D01*
X183638208Y-62758524D01*
X183184160Y-63184160D01*
X182758524Y-63638208D01*
X182363077Y-64118778D01*
X181999467Y-64623864D01*
X181669209Y-65151363D01*
X181373679Y-65699076D01*
X181114112Y-66264717D01*
X180891586Y-66845929D01*
X180707033Y-67440291D01*
X180561219Y-68045322D01*
X180454753Y-68658503D01*
X180388079Y-69277276D01*
X180361475Y-69899062D01*
X151284000Y-69899062D01*
X151284000Y-67484404D01*
X153010720Y-67484404D01*
X153029384Y-67735554D01*
X153090097Y-67979970D01*
X153191123Y-68210662D01*
X153329575Y-68421033D01*
X153501493Y-68605071D01*
X153701960Y-68757510D01*
X153925246Y-68873992D01*
X154164966Y-68951190D01*
X154414266Y-68986892D01*
X154666017Y-68980080D01*
X154913022Y-68930948D01*
X155148216Y-68840901D01*
X155364877Y-68712512D01*
X155556807Y-68549455D01*
X155718521Y-68356391D01*
X155845393Y-68138840D01*
X155933796Y-67903022D01*
X155981318Y-67655082D01*
X155983104Y-67484404D01*
X159510720Y-67484404D01*
X159529384Y-67735554D01*
X159590097Y-67979970D01*
X159691123Y-68210662D01*
X159829575Y-68421033D01*
X160001493Y-68605071D01*
X160201960Y-68757510D01*
X160425246Y-68873992D01*
X160664966Y-68951190D01*
X160914266Y-68986892D01*
X161166017Y-68980080D01*
X161413022Y-68930948D01*
X161648216Y-68840901D01*
X161864877Y-68712512D01*
X162056807Y-68549455D01*
X162218521Y-68356391D01*
X162345393Y-68138840D01*
X162433796Y-67903022D01*
X162481318Y-67655082D01*
X162484240Y-67375974D01*
X162441922Y-67127094D01*
X162358477Y-66889476D01*
X162236188Y-66669315D01*
X162078554Y-66472907D01*
X161890080Y-66305866D01*
X161676156Y-66172969D01*
X161442899Y-66078016D01*
X161196977Y-66023721D01*
X160945424Y-66011638D01*
X160695431Y-66042113D01*
X160454147Y-66114272D01*
X160228470Y-66226053D01*
X160024854Y-66374261D01*
X159849120Y-66554656D01*
X159706293Y-66762083D01*
X159600457Y-66990609D01*
X159534639Y-67233699D01*
X159510720Y-67484404D01*
X155983104Y-67484404D01*
X155984240Y-67375974D01*
X155941922Y-67127094D01*
X155858477Y-66889476D01*
X155736188Y-66669315D01*
X155578554Y-66472907D01*
X155390080Y-66305866D01*
X155176156Y-66172969D01*
X154942899Y-66078016D01*
X154696977Y-66023721D01*
X154445424Y-66011638D01*
X154195431Y-66042113D01*
X153954147Y-66114272D01*
X153728470Y-66226053D01*
X153524854Y-66374261D01*
X153349120Y-66554656D01*
X153206293Y-66762083D01*
X153100457Y-66990609D01*
X153034639Y-67233699D01*
X153010720Y-67484404D01*
X151284000Y-67484404D01*
X151284000Y-65427733D01*
X151285139Y-65423147D01*
X151286659Y-65407201D01*
X151301376Y-65242290D01*
X151329911Y-65137987D01*
X151376465Y-65040385D01*
X151439569Y-64952566D01*
X151517225Y-64877314D01*
X151606985Y-64816997D01*
X151713452Y-64770261D01*
X151828641Y-64739505D01*
X151840048Y-64734640D01*
X160808657Y-63058847D01*
X160867458Y-63052318D01*
X160882942Y-63048215D01*
X161066934Y-62998277D01*
X161100754Y-62983687D01*
X161136680Y-62973902D01*
X161151343Y-62967454D01*
X161371976Y-62868832D01*
X161408309Y-62845921D01*
X161447520Y-62827440D01*
X161460840Y-62818544D01*
X161660996Y-62683105D01*
X161692792Y-62654238D01*
X161728203Y-62629226D01*
X161739777Y-62618151D01*
X161913369Y-62450017D01*
X161939676Y-62416060D01*
X161970201Y-62385283D01*
X161979675Y-62372368D01*
X162121435Y-62176641D01*
X162141441Y-62138642D01*
X162166163Y-62103022D01*
X162173250Y-62088658D01*
X162278868Y-61871292D01*
X162295960Y-61817945D01*
X164874489Y-55592828D01*
X164896947Y-55552371D01*
X164902567Y-55537371D01*
X164968354Y-55358420D01*
X164976036Y-55322387D01*
X164988851Y-55287434D01*
X164992080Y-55271745D01*
X165039374Y-55034745D01*
X165041723Y-54991852D01*
X165049348Y-54949194D01*
X165049806Y-54933183D01*
X165055226Y-54691569D01*
X165050092Y-54648924D01*
X165050194Y-54605573D01*
X165047861Y-54589725D01*
X165011244Y-54350850D01*
X164998785Y-54309752D01*
X164991356Y-54267033D01*
X164986308Y-54251832D01*
X164908767Y-54022943D01*
X164889355Y-53984622D01*
X164874626Y-53943857D01*
X164867016Y-53929763D01*
X164750904Y-53717812D01*
X164709383Y-53662442D01*
X163308748Y-51618109D01*
X164978298Y-51618109D01*
X165036166Y-51834073D01*
X165157987Y-52008053D01*
X166308882Y-53158948D01*
X166578683Y-53314717D01*
X166807109Y-53334702D01*
X167023073Y-53276834D01*
X167116825Y-53211189D01*
X167113051Y-53232592D01*
X167113051Y-53483510D01*
X167156622Y-53730615D01*
X167242442Y-53966400D01*
X167367901Y-54183702D01*
X167529187Y-54375915D01*
X167656890Y-54483070D01*
X167659052Y-54517916D01*
X167659052Y-54553107D01*
X167662904Y-54580007D01*
X167668570Y-54671346D01*
X167680860Y-54705387D01*
X167685990Y-54741212D01*
X167723863Y-54824507D01*
X167755074Y-54910962D01*
X167776077Y-54939348D01*
X167791272Y-54972765D01*
X167858776Y-55051107D01*
X167875450Y-55073640D01*
X167895271Y-55093461D01*
X167957308Y-55165458D01*
X167985616Y-55183806D01*
X168010088Y-55208278D01*
X168041000Y-55276264D01*
X168041001Y-62295623D01*
X167987091Y-62297317D01*
X167754168Y-62346827D01*
X167533693Y-62436801D01*
X167332635Y-62564396D01*
X167157351Y-62725578D01*
X167013379Y-62915254D01*
X166905272Y-63127427D01*
X166836445Y-63355390D01*
X166809077Y-63591939D01*
X166824029Y-63829596D01*
X166880829Y-64060850D01*
X166977684Y-64278389D01*
X167111532Y-64475339D01*
X167278140Y-64645475D01*
X167472245Y-64783417D01*
X167687708Y-64884807D01*
X167917721Y-64946438D01*
X168155013Y-64966364D01*
X168392083Y-64943955D01*
X168621438Y-64879917D01*
X168835828Y-64776277D01*
X169028477Y-64636309D01*
X169193295Y-64464440D01*
X169325072Y-64266098D01*
X169419644Y-64047557D01*
X169474401Y-63814101D01*
X169482375Y-63509575D01*
X169476676Y-63477899D01*
X169586905Y-63330819D01*
X169676192Y-63092643D01*
X169695042Y-62838983D01*
X169641941Y-62590227D01*
X169559000Y-62436510D01*
X169559000Y-62159247D01*
X170632452Y-63212206D01*
X170708023Y-63421541D01*
X170757980Y-63489055D01*
X170746077Y-63591939D01*
X170761029Y-63829596D01*
X170817829Y-64060850D01*
X170914684Y-64278389D01*
X171048532Y-64475339D01*
X171215140Y-64645475D01*
X171409245Y-64783417D01*
X171624708Y-64884807D01*
X171854721Y-64946438D01*
X172092013Y-64966364D01*
X172329083Y-64943955D01*
X172558438Y-64879917D01*
X172772828Y-64776277D01*
X172965477Y-64636309D01*
X173130295Y-64464440D01*
X173262072Y-64266098D01*
X173356644Y-64047557D01*
X173411401Y-63814101D01*
X173419375Y-63509575D01*
X173376911Y-63273573D01*
X173293907Y-63050381D01*
X173172690Y-62845415D01*
X173017094Y-62665154D01*
X172832034Y-62515296D01*
X172623362Y-62400577D01*
X172397673Y-62324624D01*
X172162100Y-62289838D01*
X172038403Y-62293725D01*
X171930818Y-62213095D01*
X171692643Y-62123808D01*
X171690476Y-62123647D01*
X170059000Y-60523319D01*
X170059000Y-60404552D01*
X175361467Y-60404552D01*
X175688117Y-60593143D01*
X175923902Y-60678963D01*
X176171007Y-60722534D01*
X176421925Y-60722534D01*
X176669030Y-60678963D01*
X176904815Y-60593143D01*
X177231465Y-60404552D01*
X176296466Y-59469553D01*
X175361467Y-60404552D01*
X170059000Y-60404552D01*
X170059000Y-59163075D01*
X174862466Y-59163075D01*
X174862466Y-59413993D01*
X174906037Y-59661098D01*
X174991857Y-59896883D01*
X175180448Y-60223533D01*
X176115447Y-59288534D01*
X176477485Y-59288534D01*
X177412484Y-60223533D01*
X177601075Y-59896883D01*
X177686895Y-59661098D01*
X177730466Y-59413993D01*
X177730466Y-59163075D01*
X177686895Y-58915970D01*
X177601075Y-58680185D01*
X177412484Y-58353535D01*
X176477485Y-59288534D01*
X176115447Y-59288534D01*
X175180448Y-58353535D01*
X174991857Y-58680185D01*
X174906037Y-58915970D01*
X174862466Y-59163075D01*
X170059000Y-59163075D01*
X170059000Y-58066172D01*
X171204155Y-58066172D01*
X171530805Y-58254763D01*
X171766590Y-58340583D01*
X172013695Y-58384154D01*
X172264613Y-58384154D01*
X172511718Y-58340583D01*
X172747503Y-58254763D01*
X172889959Y-58172516D01*
X175361467Y-58172516D01*
X176296466Y-59107515D01*
X177231465Y-58172516D01*
X176904815Y-57983925D01*
X176669030Y-57898105D01*
X176421925Y-57854534D01*
X176171007Y-57854534D01*
X175923902Y-57898105D01*
X175688117Y-57983925D01*
X175361467Y-58172516D01*
X172889959Y-58172516D01*
X173074153Y-58066172D01*
X172139154Y-57131173D01*
X171204155Y-58066172D01*
X170059000Y-58066172D01*
X170059000Y-56697351D01*
X170081441Y-56683192D01*
X170169198Y-56583826D01*
X170172825Y-56580199D01*
X170217644Y-56588102D01*
X170468561Y-56588102D01*
X170715666Y-56544531D01*
X170767644Y-56525612D01*
X170748725Y-56577590D01*
X170705154Y-56824695D01*
X170705154Y-57075613D01*
X170748725Y-57322718D01*
X170834545Y-57558503D01*
X171023136Y-57885153D01*
X171958135Y-56950154D01*
X172320173Y-56950154D01*
X173255172Y-57885153D01*
X173443763Y-57558503D01*
X173529583Y-57322718D01*
X173573154Y-57075613D01*
X173573154Y-56824695D01*
X173529583Y-56577590D01*
X173443763Y-56341805D01*
X173255172Y-56015155D01*
X172320173Y-56950154D01*
X171958135Y-56950154D01*
X173074153Y-55834136D01*
X172747503Y-55645545D01*
X172511718Y-55559725D01*
X172264613Y-55516154D01*
X172013695Y-55516154D01*
X171766590Y-55559725D01*
X171714612Y-55578644D01*
X171733531Y-55526666D01*
X171777102Y-55279561D01*
X171777102Y-55028643D01*
X171733531Y-54781538D01*
X171647711Y-54545753D01*
X171522252Y-54328451D01*
X171360966Y-54136238D01*
X171168753Y-53974952D01*
X170951451Y-53849493D01*
X170715666Y-53763673D01*
X170468561Y-53720102D01*
X170217643Y-53720102D01*
X169970538Y-53763673D01*
X169918562Y-53782591D01*
X169937480Y-53730615D01*
X169981051Y-53483510D01*
X169981051Y-53232592D01*
X169937480Y-52985487D01*
X169851660Y-52749702D01*
X169726201Y-52532400D01*
X169564915Y-52340187D01*
X169372702Y-52178901D01*
X169155400Y-52053442D01*
X168919615Y-51967622D01*
X168672510Y-51924051D01*
X168421592Y-51924051D01*
X168391067Y-51929433D01*
X168503717Y-51734317D01*
X168523702Y-51505891D01*
X168465834Y-51289927D01*
X168344013Y-51115947D01*
X167193118Y-49965052D01*
X166923317Y-49809283D01*
X166694891Y-49789298D01*
X166478927Y-49847166D01*
X166304947Y-49968987D01*
X165154052Y-51119882D01*
X164998283Y-51389683D01*
X164978298Y-51618109D01*
X163308748Y-51618109D01*
X161832357Y-49463205D01*
X170047196Y-49463205D01*
X170065818Y-49569913D01*
X170078827Y-49677406D01*
X170089517Y-49705694D01*
X170094717Y-49735496D01*
X170138251Y-49834666D01*
X170176528Y-49935967D01*
X170193663Y-49960898D01*
X170205954Y-49988898D01*
X170266966Y-50067555D01*
X170333088Y-50163761D01*
X170412360Y-50234390D01*
X176710465Y-56532496D01*
X176776244Y-56607899D01*
X176864861Y-56670181D01*
X176950072Y-56736994D01*
X176977634Y-56749439D01*
X177002386Y-56766835D01*
X177103289Y-56806175D01*
X177201987Y-56850739D01*
X177231726Y-56856251D01*
X177260224Y-56867362D01*
X177358992Y-56879838D01*
X177473767Y-56901111D01*
X177579744Y-56895000D01*
X178962076Y-56895000D01*
X179006349Y-56932150D01*
X179223651Y-57057609D01*
X179459436Y-57143429D01*
X179706541Y-57187000D01*
X179957459Y-57187000D01*
X180204564Y-57143429D01*
X180440349Y-57057609D01*
X180657651Y-56932150D01*
X180849864Y-56770864D01*
X181011150Y-56578651D01*
X181136609Y-56361349D01*
X181222429Y-56125564D01*
X181266000Y-55878459D01*
X181266000Y-55728000D01*
X203626163Y-55728000D01*
X203626163Y-56378588D01*
X203706795Y-56679512D01*
X203854185Y-56855165D01*
X204047814Y-56966956D01*
X204256976Y-57003837D01*
X204902000Y-57003837D01*
X204902000Y-55728000D01*
X203626163Y-55728000D01*
X181266000Y-55728000D01*
X181266000Y-55627541D01*
X181222429Y-55380436D01*
X181136609Y-55144651D01*
X181011150Y-54927349D01*
X180926927Y-54826976D01*
X203626163Y-54826976D01*
X203626163Y-55472000D01*
X204902000Y-55472000D01*
X204902000Y-54196163D01*
X205158000Y-54196163D01*
X205158000Y-57003837D01*
X205808588Y-57003837D01*
X206109512Y-56923205D01*
X206285165Y-56775815D01*
X206396956Y-56582186D01*
X206428387Y-56403935D01*
X206485360Y-56487768D01*
X206659711Y-56665811D01*
X206862837Y-56810164D01*
X207088315Y-56916266D01*
X207329019Y-56980762D01*
X207577339Y-57001615D01*
X207825428Y-56978164D01*
X208065442Y-56911150D01*
X208289796Y-56802693D01*
X208491399Y-56656221D01*
X208663878Y-56476362D01*
X208801780Y-56268802D01*
X208900747Y-56040102D01*
X208958031Y-55795872D01*
X208966380Y-55477041D01*
X208921956Y-55230147D01*
X208835094Y-54996581D01*
X208708244Y-54782089D01*
X208545414Y-54593449D01*
X208351754Y-54436627D01*
X208133384Y-54316576D01*
X207897205Y-54237093D01*
X207650684Y-54200690D01*
X207401612Y-54208517D01*
X207157863Y-54260328D01*
X206927141Y-54354484D01*
X206716739Y-54488009D01*
X206533308Y-54656683D01*
X206427167Y-54796518D01*
X206353205Y-54520489D01*
X206205815Y-54344835D01*
X206012186Y-54233044D01*
X205803024Y-54196163D01*
X205158000Y-54196163D01*
X204902000Y-54196163D01*
X204251412Y-54196163D01*
X203950489Y-54276795D01*
X203774835Y-54424185D01*
X203663044Y-54617814D01*
X203626163Y-54826976D01*
X180926927Y-54826976D01*
X180849864Y-54735136D01*
X180657651Y-54573850D01*
X180440349Y-54448391D01*
X180204564Y-54362571D01*
X179957459Y-54319000D01*
X179706541Y-54319000D01*
X179459436Y-54362571D01*
X179223651Y-54448391D01*
X179006349Y-54573850D01*
X178962076Y-54611000D01*
X178019031Y-54611000D01*
X172338000Y-48929970D01*
X172338000Y-47594906D01*
X172511718Y-47564275D01*
X172563694Y-47545357D01*
X172544776Y-47597334D01*
X172501205Y-47844439D01*
X172501205Y-48095357D01*
X172544776Y-48342462D01*
X172630596Y-48578247D01*
X172756055Y-48795549D01*
X172917341Y-48987762D01*
X173109554Y-49149048D01*
X173326856Y-49274507D01*
X173562641Y-49360327D01*
X173809746Y-49403898D01*
X174060664Y-49403898D01*
X174307769Y-49360327D01*
X174359745Y-49341409D01*
X174340827Y-49393385D01*
X174297256Y-49640490D01*
X174297256Y-49891408D01*
X174340827Y-50138513D01*
X174426647Y-50374298D01*
X174552106Y-50591600D01*
X174713392Y-50783813D01*
X174905605Y-50945099D01*
X175122907Y-51070558D01*
X175358692Y-51156378D01*
X175605797Y-51199949D01*
X175856715Y-51199949D01*
X176103820Y-51156378D01*
X176155796Y-51137460D01*
X176136878Y-51189436D01*
X176093307Y-51436541D01*
X176093307Y-51687459D01*
X176136878Y-51934564D01*
X176222698Y-52170349D01*
X176348157Y-52387651D01*
X176509443Y-52579864D01*
X176701656Y-52741150D01*
X176918958Y-52866609D01*
X177154743Y-52952429D01*
X177401848Y-52996000D01*
X177652766Y-52996000D01*
X177899871Y-52952429D01*
X178135656Y-52866609D01*
X178352958Y-52741150D01*
X178437823Y-52669939D01*
X184716077Y-52669939D01*
X184731029Y-52907596D01*
X184787829Y-53138850D01*
X184884684Y-53356389D01*
X185018532Y-53553339D01*
X185185140Y-53723475D01*
X185379245Y-53861417D01*
X185594708Y-53962807D01*
X185824721Y-54024438D01*
X186062013Y-54044364D01*
X186299083Y-54021955D01*
X186528438Y-53957917D01*
X186742828Y-53854277D01*
X186935477Y-53714309D01*
X187100295Y-53542440D01*
X187232072Y-53344098D01*
X187326644Y-53125557D01*
X187381401Y-52892101D01*
X187387218Y-52669939D01*
X192336077Y-52669939D01*
X192351029Y-52907596D01*
X192407829Y-53138850D01*
X192504684Y-53356389D01*
X192638532Y-53553339D01*
X192805140Y-53723475D01*
X192999245Y-53861417D01*
X193214708Y-53962807D01*
X193444721Y-54024438D01*
X193682013Y-54044364D01*
X193919083Y-54021955D01*
X194148438Y-53957917D01*
X194362828Y-53854277D01*
X194555477Y-53714309D01*
X194720295Y-53542440D01*
X194852072Y-53344098D01*
X194946644Y-53125557D01*
X195001401Y-52892101D01*
X195009375Y-52587575D01*
X194966911Y-52351573D01*
X194883907Y-52128381D01*
X194762690Y-51923415D01*
X194607094Y-51743154D01*
X194422034Y-51593296D01*
X194213362Y-51478577D01*
X193987673Y-51402624D01*
X193752100Y-51367838D01*
X193514090Y-51375317D01*
X193281168Y-51424827D01*
X193060693Y-51514801D01*
X192859635Y-51642396D01*
X192684351Y-51803578D01*
X192540379Y-51993254D01*
X192432272Y-52205427D01*
X192363445Y-52433390D01*
X192336077Y-52669939D01*
X187387218Y-52669939D01*
X187389375Y-52587575D01*
X187346911Y-52351573D01*
X187263907Y-52128381D01*
X187142690Y-51923415D01*
X186987094Y-51743154D01*
X186802034Y-51593296D01*
X186593362Y-51478577D01*
X186367673Y-51402624D01*
X186132100Y-51367838D01*
X185894090Y-51375317D01*
X185661168Y-51424827D01*
X185440693Y-51514801D01*
X185239635Y-51642396D01*
X185064351Y-51803578D01*
X184920379Y-51993254D01*
X184812272Y-52205427D01*
X184743445Y-52433390D01*
X184716077Y-52669939D01*
X178437823Y-52669939D01*
X178545171Y-52579864D01*
X178706457Y-52387651D01*
X178831916Y-52170349D01*
X178917736Y-51934564D01*
X178961307Y-51687459D01*
X178961307Y-51436541D01*
X178917736Y-51189436D01*
X178831916Y-50953651D01*
X178706457Y-50736349D01*
X178545171Y-50544136D01*
X178352958Y-50382850D01*
X178135656Y-50257391D01*
X177899871Y-50171571D01*
X177652766Y-50128000D01*
X177401848Y-50128000D01*
X177154743Y-50171571D01*
X177102767Y-50190489D01*
X177121685Y-50138513D01*
X177165256Y-49891408D01*
X177165256Y-49640490D01*
X177139592Y-49494939D01*
X184716077Y-49494939D01*
X184731029Y-49732596D01*
X184787829Y-49963850D01*
X184884684Y-50181389D01*
X185018532Y-50378339D01*
X185185140Y-50548475D01*
X185379245Y-50686417D01*
X185594708Y-50787807D01*
X185824721Y-50849438D01*
X186062013Y-50869364D01*
X186299083Y-50846955D01*
X186528438Y-50782917D01*
X186742828Y-50679277D01*
X186935477Y-50539309D01*
X187100295Y-50367440D01*
X187232072Y-50169098D01*
X187326644Y-49950557D01*
X187381401Y-49717101D01*
X187387218Y-49494939D01*
X192336077Y-49494939D01*
X192351029Y-49732596D01*
X192407829Y-49963850D01*
X192504684Y-50181389D01*
X192638532Y-50378339D01*
X192805140Y-50548475D01*
X192999245Y-50686417D01*
X193214708Y-50787807D01*
X193444721Y-50849438D01*
X193682013Y-50869364D01*
X193919083Y-50846955D01*
X194148438Y-50782917D01*
X194362828Y-50679277D01*
X194555477Y-50539309D01*
X194720295Y-50367440D01*
X194852072Y-50169098D01*
X194946644Y-49950557D01*
X195001401Y-49717101D01*
X195009375Y-49412575D01*
X194966911Y-49176573D01*
X194883907Y-48953381D01*
X194762690Y-48748415D01*
X194607094Y-48568154D01*
X194422034Y-48418296D01*
X194213362Y-48303577D01*
X193987673Y-48227624D01*
X193752100Y-48192838D01*
X193514090Y-48200317D01*
X193281168Y-48249827D01*
X193060693Y-48339801D01*
X192859635Y-48467396D01*
X192684351Y-48628578D01*
X192540379Y-48818254D01*
X192432272Y-49030427D01*
X192363445Y-49258390D01*
X192336077Y-49494939D01*
X187387218Y-49494939D01*
X187389375Y-49412575D01*
X187346911Y-49176573D01*
X187263907Y-48953381D01*
X187142690Y-48748415D01*
X186987094Y-48568154D01*
X186802034Y-48418296D01*
X186593362Y-48303577D01*
X186367673Y-48227624D01*
X186132100Y-48192838D01*
X185894090Y-48200317D01*
X185661168Y-48249827D01*
X185440693Y-48339801D01*
X185239635Y-48467396D01*
X185064351Y-48628578D01*
X184920379Y-48818254D01*
X184812272Y-49030427D01*
X184743445Y-49258390D01*
X184716077Y-49494939D01*
X177139592Y-49494939D01*
X177121685Y-49393385D01*
X177035865Y-49157600D01*
X176910406Y-48940298D01*
X176749120Y-48748085D01*
X176556907Y-48586799D01*
X176339605Y-48461340D01*
X176103820Y-48375520D01*
X175856715Y-48331949D01*
X175605797Y-48331949D01*
X175358692Y-48375520D01*
X175306716Y-48394438D01*
X175325634Y-48342462D01*
X175363449Y-48128000D01*
X209026163Y-48128000D01*
X209026163Y-48778588D01*
X209106795Y-49079512D01*
X209254185Y-49255165D01*
X209447814Y-49366956D01*
X209656976Y-49403837D01*
X210302000Y-49403837D01*
X210302000Y-48128000D01*
X209026163Y-48128000D01*
X175363449Y-48128000D01*
X175369205Y-48095357D01*
X175369205Y-47844439D01*
X175325634Y-47597334D01*
X175239814Y-47361549D01*
X175114355Y-47144247D01*
X174953069Y-46952034D01*
X174760856Y-46790748D01*
X174543554Y-46665289D01*
X174307769Y-46579469D01*
X174060664Y-46535898D01*
X173809746Y-46535898D01*
X173562641Y-46579469D01*
X173510665Y-46598387D01*
X173529583Y-46546410D01*
X173569515Y-46319939D01*
X184716077Y-46319939D01*
X184731029Y-46557596D01*
X184787829Y-46788850D01*
X184884684Y-47006389D01*
X185018532Y-47203339D01*
X185185140Y-47373475D01*
X185379245Y-47511417D01*
X185594708Y-47612807D01*
X185824721Y-47674438D01*
X186062013Y-47694364D01*
X186299083Y-47671955D01*
X186528438Y-47607917D01*
X186742828Y-47504277D01*
X186935477Y-47364309D01*
X187100295Y-47192440D01*
X187232072Y-46994098D01*
X187326644Y-46775557D01*
X187381401Y-46542101D01*
X187382948Y-46483000D01*
X192332707Y-46483000D01*
X192407829Y-46788850D01*
X192504684Y-47006389D01*
X192638532Y-47203339D01*
X192805140Y-47373475D01*
X192999245Y-47511417D01*
X193214708Y-47612807D01*
X193547000Y-47701844D01*
X193547000Y-46483000D01*
X193803000Y-46483000D01*
X193803000Y-47704366D01*
X194148438Y-47607917D01*
X194362828Y-47504277D01*
X194555477Y-47364309D01*
X194687175Y-47226976D01*
X209026163Y-47226976D01*
X209026163Y-47872000D01*
X210302000Y-47872000D01*
X210302000Y-46596163D01*
X210558000Y-46596163D01*
X210558000Y-49403837D01*
X211208588Y-49403837D01*
X211509512Y-49323205D01*
X211685165Y-49175815D01*
X211796956Y-48982186D01*
X211828387Y-48803935D01*
X211885360Y-48887768D01*
X212059711Y-49065811D01*
X212262837Y-49210164D01*
X212488315Y-49316266D01*
X212729019Y-49380762D01*
X212977339Y-49401615D01*
X213225428Y-49378164D01*
X213465442Y-49311150D01*
X213689796Y-49202693D01*
X213891399Y-49056221D01*
X214063878Y-48876362D01*
X214201780Y-48668802D01*
X214300747Y-48440102D01*
X214358031Y-48195872D01*
X214366380Y-47877041D01*
X214321956Y-47630147D01*
X214235094Y-47396581D01*
X214108244Y-47182089D01*
X213945414Y-46993449D01*
X213751754Y-46836627D01*
X213533384Y-46716576D01*
X213297205Y-46637093D01*
X213050684Y-46600690D01*
X212801612Y-46608517D01*
X212557863Y-46660328D01*
X212327141Y-46754484D01*
X212116739Y-46888009D01*
X211933308Y-47056683D01*
X211827167Y-47196518D01*
X211753205Y-46920489D01*
X211605815Y-46744835D01*
X211412186Y-46633044D01*
X211203024Y-46596163D01*
X210558000Y-46596163D01*
X210302000Y-46596163D01*
X209651412Y-46596163D01*
X209350489Y-46676795D01*
X209174835Y-46824185D01*
X209063044Y-47017814D01*
X209026163Y-47226976D01*
X194687175Y-47226976D01*
X194720295Y-47192440D01*
X194852072Y-46994098D01*
X194946644Y-46775556D01*
X195015262Y-46483000D01*
X193803000Y-46483000D01*
X193547000Y-46483000D01*
X192332707Y-46483000D01*
X187382948Y-46483000D01*
X187389375Y-46237575D01*
X187387473Y-46227000D01*
X192320086Y-46227000D01*
X193547000Y-46227000D01*
X193803000Y-46227000D01*
X195007473Y-46227000D01*
X194966911Y-46001573D01*
X194883907Y-45778381D01*
X194762690Y-45573415D01*
X194607094Y-45393154D01*
X194422034Y-45243296D01*
X194213362Y-45128577D01*
X193987672Y-45052624D01*
X193803000Y-45025356D01*
X193803000Y-46227000D01*
X193547000Y-46227000D01*
X193547000Y-45018323D01*
X193281168Y-45074827D01*
X193060693Y-45164801D01*
X192859635Y-45292396D01*
X192684351Y-45453578D01*
X192540379Y-45643254D01*
X192432272Y-45855427D01*
X192320086Y-46227000D01*
X187387473Y-46227000D01*
X187346911Y-46001573D01*
X187263907Y-45778381D01*
X187142690Y-45573415D01*
X186987094Y-45393154D01*
X186802034Y-45243296D01*
X186593362Y-45128577D01*
X186367673Y-45052624D01*
X186132100Y-45017838D01*
X185894090Y-45025317D01*
X185661168Y-45074827D01*
X185440693Y-45164801D01*
X185239635Y-45292396D01*
X185064351Y-45453578D01*
X184920379Y-45643254D01*
X184812272Y-45855427D01*
X184743445Y-46083390D01*
X184716077Y-46319939D01*
X173569515Y-46319939D01*
X173573154Y-46299305D01*
X173573154Y-46048387D01*
X173529583Y-45801282D01*
X173443763Y-45565497D01*
X173318304Y-45348195D01*
X173157018Y-45155982D01*
X172964805Y-44994696D01*
X172747503Y-44869237D01*
X172511718Y-44783417D01*
X172264613Y-44739846D01*
X172013695Y-44739846D01*
X171766590Y-44783417D01*
X171530805Y-44869237D01*
X171313503Y-44994696D01*
X171121290Y-45155982D01*
X170960004Y-45348195D01*
X170834545Y-45565497D01*
X170748725Y-45801282D01*
X170717050Y-45980920D01*
X170416504Y-46281466D01*
X170341101Y-46347244D01*
X170278815Y-46435867D01*
X170212006Y-46521073D01*
X170199561Y-46548635D01*
X170182165Y-46573387D01*
X170142825Y-46674289D01*
X170098259Y-46772989D01*
X170092748Y-46802731D01*
X170081639Y-46831224D01*
X170069162Y-46929988D01*
X170047889Y-47044768D01*
X170054000Y-47150751D01*
X170054001Y-49363382D01*
X170047196Y-49463205D01*
X161832357Y-49463205D01*
X159554023Y-46137807D01*
X159553789Y-46137155D01*
X159546206Y-46123045D01*
X159466951Y-45977680D01*
X159432817Y-45875070D01*
X159417393Y-45768034D01*
X159421167Y-45659968D01*
X159444019Y-45554275D01*
X159485226Y-45454296D01*
X159547876Y-45356335D01*
X159626643Y-45266832D01*
X159635633Y-45253094D01*
X165544598Y-39344130D01*
X165548649Y-39341691D01*
X165561000Y-39331490D01*
X165688018Y-39225287D01*
X165781949Y-39171710D01*
X165883885Y-39135613D01*
X165990602Y-39118137D01*
X166098719Y-39119835D01*
X166204839Y-39140656D01*
X166313178Y-39182894D01*
X166416375Y-39242595D01*
X166427878Y-39247219D01*
X173954602Y-44404014D01*
X174000801Y-44440981D01*
X174014651Y-44449029D01*
X174180066Y-44543820D01*
X174214298Y-44557419D01*
X174246620Y-44575903D01*
X174261547Y-44581713D01*
X174487299Y-44667987D01*
X174529187Y-44677476D01*
X174569976Y-44692133D01*
X174585687Y-44695263D01*
X174822989Y-44741025D01*
X174865889Y-44743097D01*
X174908603Y-44750448D01*
X174924617Y-44750803D01*
X175166267Y-44754662D01*
X175208882Y-44749252D01*
X175252219Y-44749075D01*
X175268051Y-44746642D01*
X175506695Y-44708482D01*
X175547718Y-44695756D01*
X175590372Y-44688054D01*
X175605542Y-44682909D01*
X175833932Y-44603890D01*
X175883745Y-44578252D01*
X182108848Y-41999730D01*
X182153351Y-41986997D01*
X182167930Y-41980363D01*
X182340979Y-41900348D01*
X182371888Y-41880302D01*
X182405669Y-41864646D01*
X182419048Y-41855835D01*
X182620071Y-41721693D01*
X182652057Y-41693029D01*
X182687620Y-41668252D01*
X182699265Y-41657253D01*
X182873944Y-41490239D01*
X182900467Y-41456455D01*
X182931194Y-41425873D01*
X182940751Y-41413018D01*
X183083770Y-41218214D01*
X183104023Y-41180339D01*
X183116006Y-41163310D01*
X187128847Y-41163310D01*
X187144494Y-41412013D01*
X187203934Y-41654014D01*
X187305291Y-41881664D01*
X187445360Y-42087768D01*
X187619711Y-42265811D01*
X187822837Y-42410164D01*
X188048315Y-42516266D01*
X188289019Y-42580762D01*
X188537339Y-42601615D01*
X188785428Y-42578164D01*
X189025442Y-42511150D01*
X189249796Y-42402693D01*
X189451399Y-42256221D01*
X189623878Y-42076362D01*
X189761780Y-41868802D01*
X189800119Y-41780206D01*
X189845291Y-41881664D01*
X189985360Y-42087768D01*
X190159711Y-42265811D01*
X190362837Y-42410164D01*
X190588315Y-42516266D01*
X190829019Y-42580762D01*
X191077339Y-42601615D01*
X191325428Y-42578164D01*
X191565442Y-42511150D01*
X191789796Y-42402693D01*
X191991399Y-42256221D01*
X192163878Y-42076362D01*
X192301780Y-41868802D01*
X192400747Y-41640102D01*
X192458031Y-41395872D01*
X192466380Y-41077041D01*
X192421956Y-40830147D01*
X192335094Y-40596581D01*
X192208244Y-40382089D01*
X192045414Y-40193449D01*
X191851754Y-40036627D01*
X191633384Y-39916576D01*
X191397205Y-39837093D01*
X191150684Y-39800690D01*
X190901612Y-39808517D01*
X190657863Y-39860328D01*
X190427141Y-39954484D01*
X190216739Y-40088009D01*
X190033308Y-40256683D01*
X189882645Y-40455173D01*
X189801634Y-40614167D01*
X189795094Y-40596581D01*
X189668244Y-40382089D01*
X189505414Y-40193449D01*
X189311754Y-40036627D01*
X189093384Y-39916576D01*
X188857205Y-39837093D01*
X188610684Y-39800690D01*
X188361612Y-39808517D01*
X188117863Y-39860328D01*
X187887141Y-39954484D01*
X187676739Y-40088009D01*
X187493308Y-40256683D01*
X187342645Y-40455173D01*
X187229513Y-40677208D01*
X187157489Y-40915766D01*
X187128847Y-41163310D01*
X183116006Y-41163310D01*
X183128969Y-41144891D01*
X183136150Y-41130572D01*
X183243172Y-40913886D01*
X183256539Y-40873072D01*
X183274951Y-40833829D01*
X183279537Y-40818480D01*
X183347306Y-40586502D01*
X183357104Y-40517959D01*
X185032431Y-31551873D01*
X185032725Y-31551250D01*
X185037340Y-31535915D01*
X185084088Y-31377080D01*
X185132506Y-31280392D01*
X185197283Y-31193802D01*
X185276373Y-31120050D01*
X185367265Y-31061473D01*
X185467098Y-31019916D01*
X185580675Y-30994945D01*
X185699653Y-30987356D01*
X185715716Y-30984000D01*
X194072267Y-30984000D01*
X194076853Y-30985139D01*
G37*
D24*
X194076853Y-30985139D02*
X194092799Y-30986659D01*
X194257710Y-31001376D01*
X194362013Y-31029911D01*
X194459615Y-31076465D01*
X194547434Y-31139569D01*
X194622686Y-31217225D01*
X194683003Y-31306985D01*
X194729739Y-31413452D01*
X194760495Y-31528641D01*
X194765360Y-31540048D01*
X196441153Y-40508657D01*
X196447682Y-40567458D01*
X196451785Y-40582942D01*
X196501723Y-40766934D01*
X196516313Y-40800754D01*
X196526098Y-40836680D01*
X196532546Y-40851343D01*
X196631168Y-41071976D01*
X196654079Y-41108309D01*
X196672560Y-41147520D01*
X196681456Y-41160840D01*
X196816895Y-41360996D01*
X196845762Y-41392792D01*
X196870774Y-41428203D01*
X196881849Y-41439777D01*
X197049983Y-41613369D01*
X197083940Y-41639676D01*
X197114717Y-41670201D01*
X197127632Y-41679675D01*
X197323359Y-41821435D01*
X197361358Y-41841441D01*
X197396978Y-41866163D01*
X197411342Y-41873250D01*
X197628708Y-41978868D01*
X197682055Y-41995960D01*
X203907172Y-44574489D01*
X203947629Y-44596947D01*
X203962629Y-44602567D01*
X204141580Y-44668354D01*
X204177613Y-44676036D01*
X204212566Y-44688851D01*
X204228255Y-44692080D01*
X204465255Y-44739374D01*
X204508148Y-44741723D01*
X204550806Y-44749348D01*
X204566817Y-44749806D01*
X204808431Y-44755226D01*
X204851076Y-44750092D01*
X204894429Y-44750194D01*
X204910276Y-44747861D01*
X205149152Y-44711244D01*
X205190258Y-44698783D01*
X205232961Y-44691357D01*
X205248165Y-44686309D01*
X205477057Y-44608767D01*
X205515378Y-44589355D01*
X205556143Y-44574626D01*
X205570237Y-44567016D01*
X205782188Y-44450903D01*
X205837579Y-44409367D01*
X213362194Y-39254023D01*
X213362838Y-39253792D01*
X213376951Y-39246209D01*
X213522319Y-39166952D01*
X213624928Y-39132817D01*
X213731965Y-39117393D01*
X213840032Y-39121167D01*
X213945725Y-39144019D01*
X214045704Y-39185226D01*
X214143665Y-39247876D01*
X214233168Y-39326643D01*
X214246906Y-39335633D01*
X220155870Y-45244598D01*
X220158309Y-45248649D01*
X220168510Y-45261000D01*
X220274713Y-45388018D01*
X220328290Y-45481949D01*
X220364387Y-45583885D01*
X220381863Y-45690602D01*
X220380165Y-45798719D01*
X220359344Y-45904842D01*
X220317106Y-46013177D01*
X220257404Y-46116375D01*
X220252782Y-46127873D01*
X215095988Y-53654598D01*
X215059019Y-53700801D01*
X215050971Y-53714651D01*
X214956180Y-53880066D01*
X214942581Y-53914298D01*
X214924097Y-53946620D01*
X214918287Y-53961547D01*
X214832013Y-54187299D01*
X214822524Y-54229187D01*
X214807867Y-54269976D01*
X214804737Y-54285687D01*
X214758975Y-54522989D01*
X214756903Y-54565889D01*
X214749552Y-54608603D01*
X214749197Y-54624617D01*
X214745338Y-54866267D01*
X214750748Y-54908882D01*
X214750925Y-54952219D01*
X214753358Y-54968051D01*
X214791518Y-55206695D01*
X214804244Y-55247718D01*
X214811946Y-55290372D01*
X214817091Y-55305542D01*
X214896110Y-55533932D01*
X214921748Y-55583745D01*
X217500270Y-61808848D01*
X217513003Y-61853351D01*
X217519637Y-61867930D01*
X217599652Y-62040979D01*
X217619698Y-62071888D01*
X217635354Y-62105669D01*
X217644165Y-62119048D01*
X217778307Y-62320071D01*
X217806971Y-62352057D01*
X217831748Y-62387620D01*
X217842747Y-62399265D01*
X218009761Y-62573944D01*
X218043545Y-62600467D01*
X218074127Y-62631194D01*
X218086982Y-62640751D01*
X218281786Y-62783770D01*
X218319661Y-62804023D01*
X218355109Y-62828969D01*
X218369428Y-62836150D01*
X218586114Y-62943172D01*
X218626928Y-62956539D01*
X218666171Y-62974951D01*
X218681520Y-62979537D01*
X218913498Y-63047306D01*
X218982041Y-63057104D01*
X227948127Y-64732431D01*
X227948750Y-64732725D01*
X227964085Y-64737340D01*
X228122920Y-64784088D01*
X228219608Y-64832506D01*
X228306198Y-64897283D01*
X228379950Y-64976373D01*
X228438527Y-65067265D01*
X228480084Y-65167098D01*
X228505055Y-65280675D01*
X228512644Y-65399653D01*
X228516000Y-65415716D01*
X228516001Y-73772263D01*
X228514861Y-73776853D01*
X228513341Y-73792800D01*
X228498624Y-73957708D01*
X228470088Y-74062012D01*
X228423534Y-74159617D01*
X228360431Y-74247434D01*
X228282775Y-74322687D01*
X228193016Y-74383002D01*
X228086548Y-74429739D01*
X227971358Y-74460496D01*
X227959954Y-74465360D01*
X218991352Y-76141153D01*
X218932542Y-76147682D01*
X218917058Y-76151785D01*
X218733065Y-76201724D01*
X218699242Y-76216315D01*
X218663316Y-76226099D01*
X218648653Y-76232547D01*
X218428024Y-76331169D01*
X218391696Y-76354076D01*
X218352474Y-76372563D01*
X218339154Y-76381460D01*
X218139005Y-76516894D01*
X218107200Y-76545768D01*
X218071796Y-76570776D01*
X218060223Y-76581850D01*
X217886631Y-76749983D01*
X217860321Y-76783943D01*
X217829799Y-76814717D01*
X217820325Y-76827632D01*
X217678563Y-77023361D01*
X217658555Y-77061366D01*
X217633837Y-77096977D01*
X217626750Y-77111342D01*
X217521132Y-77328708D01*
X217504042Y-77382046D01*
X214925512Y-83607170D01*
X214903053Y-83647629D01*
X214897433Y-83662629D01*
X214831646Y-83841580D01*
X214823964Y-83877612D01*
X214811148Y-83912568D01*
X214807919Y-83928257D01*
X214760627Y-84165254D01*
X214758278Y-84208142D01*
X214750652Y-84250806D01*
X214750194Y-84266819D01*
X214744774Y-84508431D01*
X214749908Y-84551076D01*
X214749806Y-84594429D01*
X214752139Y-84610276D01*
X214788756Y-84849152D01*
X214801217Y-84890258D01*
X214808643Y-84932961D01*
X214813691Y-84948165D01*
X214891233Y-85177057D01*
X214910645Y-85215378D01*
X214925374Y-85256143D01*
X214932984Y-85270237D01*
X215049097Y-85482188D01*
X215090633Y-85537579D01*
X220245977Y-93062194D01*
X220246208Y-93062838D01*
X220253791Y-93076951D01*
X220333048Y-93222319D01*
X220367183Y-93324928D01*
X220382607Y-93431965D01*
X220378833Y-93540032D01*
X220355982Y-93645722D01*
X220314771Y-93745709D01*
X220252124Y-93843666D01*
X220173357Y-93933168D01*
X220164370Y-93946901D01*
X214255403Y-99855869D01*
X214251345Y-99858312D01*
X214238995Y-99868514D01*
X214111982Y-99974713D01*
X214018051Y-100028290D01*
X213916115Y-100064387D01*
X213809398Y-100081863D01*
X213701281Y-100080165D01*
X213595158Y-100059344D01*
X213486823Y-100017106D01*
X213383625Y-99957404D01*
X213372127Y-99952782D01*
X205845397Y-94795985D01*
X205799203Y-94759023D01*
X205785353Y-94750973D01*
X205619936Y-94656180D01*
X205585697Y-94642579D01*
X205553380Y-94624097D01*
X205538453Y-94618287D01*
X205312701Y-94532013D01*
X205270813Y-94522524D01*
X205230024Y-94507867D01*
X205214313Y-94504737D01*
X204977011Y-94458975D01*
X204934111Y-94456903D01*
X204891397Y-94449552D01*
X204875383Y-94449197D01*
X204633733Y-94445338D01*
X204591118Y-94450748D01*
X204547783Y-94450925D01*
X204531950Y-94453357D01*
X204293305Y-94491518D01*
X204252282Y-94504244D01*
X204209628Y-94511946D01*
X204194458Y-94517091D01*
X203966069Y-94596110D01*
X203959458Y-94599512D01*
X203943066Y-94603559D01*
X203884308Y-94638192D01*
X203812659Y-94675070D01*
X203764592Y-94720740D01*
X201183355Y-96812201D01*
X201108321Y-96838162D01*
X200977757Y-96859039D01*
X200877863Y-96861097D01*
X200848018Y-96866000D01*
X192073837Y-96866000D01*
X192073837Y-93673412D01*
X192031123Y-93514000D01*
X202029191Y-93514000D01*
X202129001Y-93520804D01*
X202235691Y-93502184D01*
X202343201Y-93489174D01*
X202371494Y-93478482D01*
X202401291Y-93473283D01*
X202500445Y-93429756D01*
X202601762Y-93391472D01*
X202626694Y-93374337D01*
X202654693Y-93362046D01*
X202733340Y-93301041D01*
X202829556Y-93234914D01*
X202900194Y-93155631D01*
X204826671Y-91229155D01*
X205006308Y-91197480D01*
X205058284Y-91178562D01*
X205039366Y-91230538D01*
X204995795Y-91477643D01*
X204995795Y-91728561D01*
X205039366Y-91975666D01*
X205125186Y-92211451D01*
X205250645Y-92428753D01*
X205411931Y-92620966D01*
X205604144Y-92782252D01*
X205821446Y-92907711D01*
X206057231Y-92993531D01*
X206304336Y-93037102D01*
X206555254Y-93037102D01*
X206802359Y-92993531D01*
X206854335Y-92974613D01*
X206835417Y-93026590D01*
X206791846Y-93273695D01*
X206791846Y-93524613D01*
X206835417Y-93771718D01*
X206921237Y-94007503D01*
X207046696Y-94224805D01*
X207207982Y-94417018D01*
X207400195Y-94578304D01*
X207617497Y-94703763D01*
X207853282Y-94789583D01*
X208100387Y-94833154D01*
X208351305Y-94833154D01*
X208598410Y-94789583D01*
X208834195Y-94703763D01*
X209051497Y-94578304D01*
X209243710Y-94417018D01*
X209404996Y-94224805D01*
X209530455Y-94007503D01*
X209616275Y-93771718D01*
X209659846Y-93524613D01*
X209659846Y-93273695D01*
X209616275Y-93026590D01*
X209530455Y-92790805D01*
X209404996Y-92573503D01*
X209243710Y-92381290D01*
X209051497Y-92220004D01*
X208834195Y-92094545D01*
X208598410Y-92008725D01*
X208351305Y-91965154D01*
X208100387Y-91965154D01*
X207853282Y-92008725D01*
X207801306Y-92027643D01*
X207820224Y-91975666D01*
X207863795Y-91728561D01*
X207863795Y-91477643D01*
X207820224Y-91230538D01*
X207734404Y-90994753D01*
X207608945Y-90777451D01*
X207447659Y-90585238D01*
X207255446Y-90423952D01*
X207038144Y-90298493D01*
X206802359Y-90212673D01*
X206555254Y-90169102D01*
X206304336Y-90169102D01*
X206057231Y-90212673D01*
X206005255Y-90231591D01*
X206024173Y-90179615D01*
X206067744Y-89932510D01*
X206067744Y-89681592D01*
X206024173Y-89434487D01*
X205938353Y-89198702D01*
X205812894Y-88981400D01*
X205651608Y-88789187D01*
X205459395Y-88627901D01*
X205242093Y-88502442D01*
X205006308Y-88416622D01*
X204759203Y-88373051D01*
X204508285Y-88373051D01*
X204261180Y-88416622D01*
X204209204Y-88435540D01*
X204228122Y-88383564D01*
X204271693Y-88136459D01*
X204271693Y-87885541D01*
X204228122Y-87638436D01*
X204142302Y-87402651D01*
X204100916Y-87330967D01*
X210882950Y-87330967D01*
X211209600Y-87519558D01*
X211445385Y-87605378D01*
X211692490Y-87648949D01*
X211943408Y-87648949D01*
X211973933Y-87643567D01*
X211861283Y-87838683D01*
X211841298Y-88067109D01*
X211899166Y-88283073D01*
X212020987Y-88457053D01*
X213171882Y-89607948D01*
X213441683Y-89763717D01*
X213670109Y-89783702D01*
X213886073Y-89725834D01*
X214060053Y-89604013D01*
X215210948Y-88453118D01*
X215366717Y-88183317D01*
X215386702Y-87954891D01*
X215328834Y-87738927D01*
X215207013Y-87564947D01*
X214056118Y-86414052D01*
X213786317Y-86258283D01*
X213557891Y-86238298D01*
X213341927Y-86296166D01*
X213248175Y-86361811D01*
X213251949Y-86340408D01*
X213251949Y-86089490D01*
X213208378Y-85842385D01*
X213122558Y-85606600D01*
X212933967Y-85279950D01*
X210882950Y-87330967D01*
X204100916Y-87330967D01*
X204016843Y-87185349D01*
X203855557Y-86993136D01*
X203663344Y-86831850D01*
X203446042Y-86706391D01*
X203210257Y-86620571D01*
X202963152Y-86577000D01*
X202712234Y-86577000D01*
X202465129Y-86620571D01*
X202229344Y-86706391D01*
X202012042Y-86831850D01*
X201819829Y-86993136D01*
X201658543Y-87185349D01*
X201533084Y-87402651D01*
X201447264Y-87638436D01*
X201403693Y-87885541D01*
X201403693Y-88136459D01*
X201447264Y-88383564D01*
X201533084Y-88619349D01*
X201658543Y-88836651D01*
X201819829Y-89028864D01*
X202012042Y-89190150D01*
X202229344Y-89315609D01*
X202465129Y-89401429D01*
X202712234Y-89445000D01*
X202963152Y-89445000D01*
X203210257Y-89401429D01*
X203262233Y-89382511D01*
X203243315Y-89434487D01*
X203211640Y-89614124D01*
X201595765Y-91230000D01*
X194391591Y-91230000D01*
X194479150Y-91125651D01*
X194604609Y-90908349D01*
X194690429Y-90672564D01*
X194734000Y-90425459D01*
X194734000Y-90174541D01*
X194690429Y-89927436D01*
X194604609Y-89691651D01*
X194479150Y-89474349D01*
X194317864Y-89282136D01*
X194232745Y-89210713D01*
X194417512Y-89161205D01*
X194593165Y-89013815D01*
X194704956Y-88820186D01*
X194741837Y-88611024D01*
X194741837Y-86983412D01*
X194661205Y-86682489D01*
X194513815Y-86506835D01*
X194320186Y-86395044D01*
X194111024Y-86358163D01*
X192483412Y-86358163D01*
X192182489Y-86438795D01*
X192006835Y-86586185D01*
X191895044Y-86779814D01*
X191858163Y-86988976D01*
X191858163Y-88616588D01*
X191938795Y-88917512D01*
X192086185Y-89093165D01*
X192279814Y-89204956D01*
X192357740Y-89218697D01*
X192282136Y-89282136D01*
X192120850Y-89474349D01*
X191995391Y-89691651D01*
X191909571Y-89927436D01*
X191866000Y-90174541D01*
X191866000Y-90425459D01*
X191909571Y-90672564D01*
X191995391Y-90908349D01*
X192120850Y-91125651D01*
X192208409Y-91230000D01*
X191143031Y-91230000D01*
X189333534Y-89420504D01*
X189267756Y-89345101D01*
X189179129Y-89282812D01*
X189093928Y-89216006D01*
X189066369Y-89203563D01*
X189041614Y-89186165D01*
X188940708Y-89146823D01*
X188842011Y-89102260D01*
X188812269Y-89096748D01*
X188783777Y-89085639D01*
X188685007Y-89073161D01*
X188570232Y-89051889D01*
X188464250Y-89058000D01*
X187333554Y-89058000D01*
X187341837Y-89011024D01*
X187341837Y-88328000D01*
X184458163Y-88328000D01*
X184458163Y-89016588D01*
X184538795Y-89317512D01*
X184666083Y-89469208D01*
X184595391Y-89591651D01*
X184509571Y-89827436D01*
X184466000Y-90074541D01*
X184466000Y-90325459D01*
X184509571Y-90572564D01*
X184595391Y-90808349D01*
X184720850Y-91025651D01*
X184882136Y-91217864D01*
X185074349Y-91379150D01*
X185291651Y-91504609D01*
X185471309Y-91570000D01*
X184972388Y-91570000D01*
X184274000Y-90871613D01*
X184274000Y-87388976D01*
X184458163Y-87388976D01*
X184458163Y-88072000D01*
X185772000Y-88072000D01*
X185772000Y-86758163D01*
X186028000Y-86758163D01*
X186028000Y-88072000D01*
X187341837Y-88072000D01*
X187341837Y-87383412D01*
X187261205Y-87082489D01*
X187113815Y-86906835D01*
X186920186Y-86795044D01*
X186711024Y-86758163D01*
X186028000Y-86758163D01*
X185772000Y-86758163D01*
X185083412Y-86758163D01*
X184782489Y-86838795D01*
X184606835Y-86986185D01*
X184495044Y-87179814D01*
X184458163Y-87388976D01*
X184274000Y-87388976D01*
X184274000Y-86553756D01*
X184273999Y-86553750D01*
X184273999Y-86493786D01*
X184255312Y-86436275D01*
X184245850Y-86376532D01*
X184218391Y-86322642D01*
X184199703Y-86265125D01*
X184164154Y-86216196D01*
X184136698Y-86162310D01*
X183980801Y-86006414D01*
X181283735Y-83309348D01*
X182371672Y-83309348D01*
X182668086Y-83549379D01*
X182973244Y-83743038D01*
X183298640Y-83900341D01*
X183639958Y-84019201D01*
X183992676Y-84098042D01*
X184352119Y-84135821D01*
X184713521Y-84132037D01*
X185072093Y-84086738D01*
X185423083Y-84000527D01*
X185761837Y-83874545D01*
X186083867Y-83710463D01*
X186384903Y-83510455D01*
X186625833Y-83306853D01*
X184500000Y-81181019D01*
X182371672Y-83309348D01*
X181283735Y-83309348D01*
X179056565Y-81082178D01*
X181361770Y-81082178D01*
X181392013Y-81442332D01*
X181463450Y-81796624D01*
X181575136Y-82140357D01*
X181725589Y-82468975D01*
X181912816Y-82778123D01*
X182187167Y-83131813D01*
X184318981Y-81000000D01*
X182194658Y-78875678D01*
X182029569Y-79062935D01*
X181823301Y-79359717D01*
X181652511Y-79678239D01*
X181519463Y-80014281D01*
X181425920Y-80363388D01*
X181373122Y-80720934D01*
X181361770Y-81082178D01*
X179056565Y-81082178D01*
X178159000Y-80184614D01*
X178159000Y-76239756D01*
X178158999Y-76239750D01*
X178158999Y-76179786D01*
X178140312Y-76122275D01*
X178130850Y-76062532D01*
X178103391Y-76008642D01*
X178084703Y-75951125D01*
X178049154Y-75902196D01*
X178021698Y-75848310D01*
X177865801Y-75692414D01*
X175001047Y-72827661D01*
X175001045Y-72827657D01*
X174830690Y-72657303D01*
X174776801Y-72629844D01*
X174727873Y-72594296D01*
X174670359Y-72575610D01*
X174616468Y-72548150D01*
X174556726Y-72538688D01*
X174499213Y-72520001D01*
X174439250Y-72520001D01*
X174439244Y-72520000D01*
X172486510Y-72520000D01*
X172558438Y-72499917D01*
X172772828Y-72396277D01*
X172965477Y-72256309D01*
X173130295Y-72084440D01*
X173262072Y-71886098D01*
X173356644Y-71667557D01*
X173411401Y-71434101D01*
X173419375Y-71129575D01*
X173376911Y-70893573D01*
X173293907Y-70670381D01*
X173172690Y-70465415D01*
X173017094Y-70285154D01*
X172832034Y-70135296D01*
X172623362Y-70020577D01*
X172397673Y-69944624D01*
X172162100Y-69909838D01*
X171924090Y-69917317D01*
X171691168Y-69966827D01*
X171470693Y-70056801D01*
X171269635Y-70184396D01*
X171094351Y-70345578D01*
X170950379Y-70535254D01*
X170842272Y-70747427D01*
X170773445Y-70975390D01*
X170746077Y-71211939D01*
X170761029Y-71449596D01*
X170817829Y-71680850D01*
X170914684Y-71898389D01*
X171048532Y-72095339D01*
X171215140Y-72265475D01*
X171409245Y-72403417D01*
X171624708Y-72504807D01*
X171681410Y-72520000D01*
X170494200Y-72520000D01*
X169870987Y-71897316D01*
X169791977Y-71678458D01*
X169671601Y-71515780D01*
X169522451Y-71366631D01*
X169519601Y-71362779D01*
X169499775Y-71342954D01*
X169477466Y-71317063D01*
X169482375Y-71129575D01*
X169439911Y-70893573D01*
X169356907Y-70670381D01*
X169235690Y-70465415D01*
X169080094Y-70285154D01*
X168895034Y-70135296D01*
X168686362Y-70020577D01*
X168460673Y-69944624D01*
X168225100Y-69909838D01*
X167987090Y-69917317D01*
X167754168Y-69966827D01*
X167533693Y-70056801D01*
X167332635Y-70184396D01*
X167157351Y-70345578D01*
X167013379Y-70535254D01*
X166905272Y-70747427D01*
X166836445Y-70975390D01*
X166809077Y-71211939D01*
X166824029Y-71449596D01*
X166880829Y-71680850D01*
X166977684Y-71898389D01*
X167111532Y-72095339D01*
X167278140Y-72265475D01*
X167472245Y-72403417D01*
X167687708Y-72504807D01*
X167917721Y-72566438D01*
X168155013Y-72586364D01*
X168220464Y-72580177D01*
X168258256Y-72624036D01*
X168286564Y-72642384D01*
X168417123Y-72772944D01*
X168569181Y-72886906D01*
X168800532Y-72973633D01*
X169643315Y-73815703D01*
X169728310Y-73900698D01*
X169782341Y-73928228D01*
X169831415Y-73963851D01*
X169888787Y-73982465D01*
X169942532Y-74009850D01*
X170002430Y-74019337D01*
X170060108Y-74038050D01*
X170179142Y-74038000D01*
X174064614Y-74038000D01*
X176641001Y-76614388D01*
X176641000Y-80246531D01*
X176564609Y-80036651D01*
X176439150Y-79819349D01*
X176277864Y-79627136D01*
X176085651Y-79465850D01*
X175868349Y-79340391D01*
X175632564Y-79254571D01*
X175385459Y-79211000D01*
X175134541Y-79211000D01*
X174887436Y-79254571D01*
X174651651Y-79340391D01*
X174434349Y-79465850D01*
X174242136Y-79627136D01*
X174080850Y-79819349D01*
X173955391Y-80036651D01*
X173869571Y-80272436D01*
X173826000Y-80519541D01*
X173826000Y-80770459D01*
X173869571Y-81017564D01*
X173955391Y-81253349D01*
X174080850Y-81470651D01*
X174242136Y-81662864D01*
X174434349Y-81824150D01*
X174651651Y-81949609D01*
X174887436Y-82035429D01*
X175134541Y-82079000D01*
X175385459Y-82079000D01*
X175632564Y-82035429D01*
X175868349Y-81949609D01*
X176085651Y-81824150D01*
X176277864Y-81662864D01*
X176439150Y-81470651D01*
X176564609Y-81253349D01*
X176650429Y-81017564D01*
X176692064Y-80781437D01*
X176696609Y-80790357D01*
X176715297Y-80847874D01*
X176750846Y-80896803D01*
X176778302Y-80950689D01*
X176948657Y-81121045D01*
X176948661Y-81121047D01*
X182756001Y-86928388D01*
X182756000Y-91246243D01*
X182756001Y-91246249D01*
X182756001Y-91306213D01*
X182774688Y-91363724D01*
X182784150Y-91423467D01*
X182811609Y-91477357D01*
X182830297Y-91534874D01*
X182865846Y-91583803D01*
X182893302Y-91637689D01*
X183063657Y-91808045D01*
X183063661Y-91808047D01*
X184050414Y-92794801D01*
X184206310Y-92950698D01*
X184260196Y-92978154D01*
X184309125Y-93013703D01*
X184366642Y-93032391D01*
X184420532Y-93059850D01*
X184480275Y-93069312D01*
X184537786Y-93087999D01*
X184597750Y-93087999D01*
X184597756Y-93088000D01*
X186344585Y-93088000D01*
X186428245Y-93183899D01*
X186654386Y-93342835D01*
X186802921Y-93400746D01*
X186763044Y-93469814D01*
X186726163Y-93678976D01*
X186726163Y-96866000D01*
X178967524Y-96866000D01*
X178952874Y-96862853D01*
X178936888Y-96861841D01*
X178760410Y-96851746D01*
X178631723Y-96821387D01*
X178624556Y-96818610D01*
X176043085Y-94726961D01*
X176003627Y-94687029D01*
X175933026Y-94647826D01*
X175863786Y-94606442D01*
X175853847Y-94603859D01*
X175852447Y-94603082D01*
X175837445Y-94597461D01*
X175658839Y-94531773D01*
X175622858Y-94524097D01*
X175587938Y-94511284D01*
X175572249Y-94508050D01*
X175335261Y-94460695D01*
X175292374Y-94458334D01*
X175249703Y-94450695D01*
X175233691Y-94450235D01*
X174992082Y-94444753D01*
X174949441Y-94449875D01*
X174906093Y-94449762D01*
X174890245Y-94452089D01*
X174651355Y-94488643D01*
X174610249Y-94501094D01*
X174567539Y-94508509D01*
X174552335Y-94513553D01*
X174323420Y-94591037D01*
X174285098Y-94610437D01*
X174244334Y-94625153D01*
X174230237Y-94632758D01*
X174018251Y-94748817D01*
X173962850Y-94790338D01*
X166437807Y-99945977D01*
X166437155Y-99946211D01*
X166423045Y-99953794D01*
X166277680Y-100033049D01*
X166175070Y-100067183D01*
X166068034Y-100082607D01*
X165959968Y-100078833D01*
X165854278Y-100055982D01*
X165754291Y-100014771D01*
X165656334Y-99952124D01*
X165566832Y-99873357D01*
X165553099Y-99864370D01*
X159644131Y-93955403D01*
X159641688Y-93951345D01*
X159631486Y-93938995D01*
X159525287Y-93811982D01*
X159471710Y-93718051D01*
X159435613Y-93616115D01*
X159418137Y-93509398D01*
X159419835Y-93401281D01*
X159440656Y-93295161D01*
X159482894Y-93186822D01*
X159542595Y-93083625D01*
X159547219Y-93072122D01*
X164704014Y-85545398D01*
X164740981Y-85499199D01*
X164749029Y-85485349D01*
X164843820Y-85319934D01*
X164857419Y-85285702D01*
X164875903Y-85253380D01*
X164881713Y-85238453D01*
X164967987Y-85012701D01*
X164977476Y-84970813D01*
X164992133Y-84930024D01*
X164995263Y-84914313D01*
X165041025Y-84677011D01*
X165043097Y-84634111D01*
X165050448Y-84591397D01*
X165050803Y-84575383D01*
X165054662Y-84333733D01*
X165049252Y-84291118D01*
X165049203Y-84278976D01*
X168103163Y-84278976D01*
X168103163Y-85906588D01*
X168183795Y-86207512D01*
X168331185Y-86383165D01*
X168524814Y-86494956D01*
X168733976Y-86531837D01*
X170361588Y-86531837D01*
X170662512Y-86451205D01*
X170838165Y-86303815D01*
X170949956Y-86110186D01*
X170986837Y-85901024D01*
X170986837Y-84964541D01*
X175731000Y-84964541D01*
X175731000Y-85215459D01*
X175774571Y-85462564D01*
X175860391Y-85698349D01*
X175985850Y-85915651D01*
X176147136Y-86107864D01*
X176339349Y-86269150D01*
X176556651Y-86394609D01*
X176792436Y-86480429D01*
X177039541Y-86524000D01*
X177290459Y-86524000D01*
X177537564Y-86480429D01*
X177773349Y-86394609D01*
X177990651Y-86269150D01*
X178182864Y-86107864D01*
X178344150Y-85915651D01*
X178469609Y-85698349D01*
X178555429Y-85462564D01*
X178599000Y-85215459D01*
X178599000Y-84964541D01*
X178555429Y-84717436D01*
X178469609Y-84481651D01*
X178344150Y-84264349D01*
X178182864Y-84072136D01*
X177990651Y-83910850D01*
X177773349Y-83785391D01*
X177537564Y-83699571D01*
X177290459Y-83656000D01*
X177039541Y-83656000D01*
X176792436Y-83699571D01*
X176556651Y-83785391D01*
X176339349Y-83910850D01*
X176147136Y-84072136D01*
X175985850Y-84264349D01*
X175860391Y-84481651D01*
X175774571Y-84717436D01*
X175731000Y-84964541D01*
X170986837Y-84964541D01*
X170986837Y-84273412D01*
X170906205Y-83972489D01*
X170758815Y-83796835D01*
X170565186Y-83685044D01*
X170356024Y-83648163D01*
X168728412Y-83648163D01*
X168427489Y-83728795D01*
X168251835Y-83876185D01*
X168140044Y-84069814D01*
X168103163Y-84278976D01*
X165049203Y-84278976D01*
X165049075Y-84247783D01*
X165046643Y-84231950D01*
X165008482Y-83993305D01*
X164995756Y-83952282D01*
X164988054Y-83909628D01*
X164982909Y-83894458D01*
X164903890Y-83666068D01*
X164878254Y-83616259D01*
X163311580Y-79833976D01*
X166198163Y-79833976D01*
X166198163Y-81461588D01*
X166278795Y-81762512D01*
X166426185Y-81938165D01*
X166619814Y-82049956D01*
X166828976Y-82086837D01*
X168456588Y-82086837D01*
X168757512Y-82006205D01*
X168933165Y-81858815D01*
X169044956Y-81665186D01*
X169081837Y-81456024D01*
X169081837Y-79828412D01*
X169001205Y-79527489D01*
X168853815Y-79351835D01*
X168660186Y-79240044D01*
X168451024Y-79203163D01*
X166823412Y-79203163D01*
X166522489Y-79283795D01*
X166346835Y-79431185D01*
X166235044Y-79624814D01*
X166198163Y-79833976D01*
X163311580Y-79833976D01*
X162299730Y-77391156D01*
X162286998Y-77346650D01*
X162280363Y-77332070D01*
X162200348Y-77159022D01*
X162180301Y-77128111D01*
X162164647Y-77094331D01*
X162155835Y-77080952D01*
X162021692Y-76879928D01*
X161993025Y-76847939D01*
X161968248Y-76812375D01*
X161957247Y-76800730D01*
X161790239Y-76626056D01*
X161756455Y-76599533D01*
X161725873Y-76568806D01*
X161713018Y-76559249D01*
X161518215Y-76416230D01*
X161480342Y-76395979D01*
X161444892Y-76371031D01*
X161430573Y-76363850D01*
X161213886Y-76256828D01*
X161173068Y-76243459D01*
X161133828Y-76225049D01*
X161118480Y-76220463D01*
X160928419Y-76164939D01*
X164461077Y-76164939D01*
X164476029Y-76402596D01*
X164532829Y-76633850D01*
X164629684Y-76851389D01*
X164763532Y-77048339D01*
X164930140Y-77218475D01*
X165124245Y-77356417D01*
X165339708Y-77457807D01*
X165569721Y-77519438D01*
X165807013Y-77539364D01*
X166044083Y-77516955D01*
X166273438Y-77452917D01*
X166487828Y-77349277D01*
X166680477Y-77209309D01*
X166845295Y-77037440D01*
X166977072Y-76839098D01*
X167071644Y-76620557D01*
X167126401Y-76387101D01*
X167132218Y-76164939D01*
X172081077Y-76164939D01*
X172096029Y-76402596D01*
X172152829Y-76633850D01*
X172249684Y-76851389D01*
X172383532Y-77048339D01*
X172550140Y-77218475D01*
X172744245Y-77356417D01*
X172959708Y-77457807D01*
X173189721Y-77519438D01*
X173427013Y-77539364D01*
X173664083Y-77516955D01*
X173893438Y-77452917D01*
X174107828Y-77349277D01*
X174300477Y-77209309D01*
X174465295Y-77037440D01*
X174597072Y-76839098D01*
X174691644Y-76620557D01*
X174746401Y-76387101D01*
X174754375Y-76082575D01*
X174711911Y-75846573D01*
X174628907Y-75623381D01*
X174507690Y-75418415D01*
X174352094Y-75238154D01*
X174167034Y-75088296D01*
X173958362Y-74973577D01*
X173732673Y-74897624D01*
X173497100Y-74862838D01*
X173259090Y-74870317D01*
X173026168Y-74919827D01*
X172805693Y-75009801D01*
X172604635Y-75137396D01*
X172429351Y-75298578D01*
X172285379Y-75488254D01*
X172177272Y-75700427D01*
X172108445Y-75928390D01*
X172081077Y-76164939D01*
X167132218Y-76164939D01*
X167134375Y-76082575D01*
X167091911Y-75846573D01*
X167008907Y-75623381D01*
X166887690Y-75418415D01*
X166732094Y-75238154D01*
X166547034Y-75088296D01*
X166338362Y-74973577D01*
X166112673Y-74897624D01*
X165877100Y-74862838D01*
X165639090Y-74870317D01*
X165406168Y-74919827D01*
X165185693Y-75009801D01*
X164984635Y-75137396D01*
X164809351Y-75298578D01*
X164665379Y-75488254D01*
X164557272Y-75700427D01*
X164488445Y-75928390D01*
X164461077Y-76164939D01*
X160928419Y-76164939D01*
X160886503Y-76152694D01*
X160817980Y-76142899D01*
X151851881Y-74467571D01*
X151851257Y-74467277D01*
X151835915Y-74462660D01*
X151677080Y-74415912D01*
X151580388Y-74367492D01*
X151493799Y-74302716D01*
X151420054Y-74223633D01*
X151361474Y-74132735D01*
X151319916Y-74032899D01*
X151294945Y-73919323D01*
X151287356Y-73800347D01*
X151284000Y-73784284D01*
X151284000Y-73137231D01*
X153543788Y-73137231D01*
X153701960Y-73257509D01*
X153925246Y-73373992D01*
X154164966Y-73451190D01*
X154414266Y-73486892D01*
X154666017Y-73480080D01*
X154913022Y-73430948D01*
X155148216Y-73340901D01*
X155469497Y-73150516D01*
X155456212Y-73137231D01*
X160043788Y-73137231D01*
X160201960Y-73257509D01*
X160425246Y-73373992D01*
X160664966Y-73451190D01*
X160914266Y-73486892D01*
X161166017Y-73480080D01*
X161413022Y-73430948D01*
X161648216Y-73340901D01*
X161969497Y-73150516D01*
X161000000Y-72181019D01*
X160043788Y-73137231D01*
X155456212Y-73137231D01*
X154500000Y-72181019D01*
X153543788Y-73137231D01*
X151284000Y-73137231D01*
X151284000Y-71984404D01*
X153010720Y-71984404D01*
X153029384Y-72235554D01*
X153090097Y-72479970D01*
X153191123Y-72710662D01*
X153356712Y-72962269D01*
X154318981Y-72000000D01*
X154681019Y-72000000D01*
X155651807Y-72970788D01*
X155845393Y-72638840D01*
X155933796Y-72403022D01*
X155981318Y-72155082D01*
X155983104Y-71984404D01*
X159510720Y-71984404D01*
X159529384Y-72235554D01*
X159590097Y-72479970D01*
X159691123Y-72710662D01*
X159856712Y-72962269D01*
X160818981Y-72000000D01*
X161181019Y-72000000D01*
X162151807Y-72970788D01*
X162345393Y-72638840D01*
X162433796Y-72403022D01*
X162481318Y-72155082D01*
X162484240Y-71875974D01*
X162441922Y-71627094D01*
X162358477Y-71389476D01*
X162236187Y-71169314D01*
X162136235Y-71044784D01*
X161181019Y-72000000D01*
X160818981Y-72000000D01*
X159859118Y-71040137D01*
X159706293Y-71262083D01*
X159600457Y-71490609D01*
X159534639Y-71733699D01*
X159510720Y-71984404D01*
X155983104Y-71984404D01*
X155984240Y-71875974D01*
X155941922Y-71627094D01*
X155858477Y-71389476D01*
X155736187Y-71169314D01*
X155636235Y-71044784D01*
X154681019Y-72000000D01*
X154318981Y-72000000D01*
X153359118Y-71040137D01*
X153206293Y-71262083D01*
X153100457Y-71490609D01*
X153034639Y-71733699D01*
X153010720Y-71984404D01*
X151284000Y-71984404D01*
X151284000Y-70861443D01*
X153542462Y-70861443D01*
X154500000Y-71818981D01*
X155457538Y-70861443D01*
X160042462Y-70861443D01*
X161000000Y-71818981D01*
X161965969Y-70853012D01*
X161676157Y-70672969D01*
X161442899Y-70578016D01*
X161196977Y-70523721D01*
X160945424Y-70511638D01*
X160695431Y-70542113D01*
X160454147Y-70614272D01*
X160228470Y-70726053D01*
X160042462Y-70861443D01*
X155457538Y-70861443D01*
X155465969Y-70853012D01*
X155176157Y-70672969D01*
X154942899Y-70578016D01*
X154696977Y-70523721D01*
X154445424Y-70511638D01*
X154195431Y-70542113D01*
X153954147Y-70614272D01*
X153728470Y-70726053D01*
X153542462Y-70861443D01*
X151284000Y-70861443D01*
X151284000Y-69899062D01*
X180361475Y-69899062D01*
X180375052Y-70521268D01*
X180428752Y-71141303D01*
X180522353Y-71756578D01*
X180655464Y-72364531D01*
X180827531Y-72962627D01*
X181037834Y-73548372D01*
X181285500Y-74119325D01*
X181569493Y-74673106D01*
X181888632Y-75207406D01*
X182241586Y-75719997D01*
X182626882Y-76208742D01*
X183042915Y-76671605D01*
X183487949Y-77106655D01*
X183960132Y-77512081D01*
X184430722Y-77866051D01*
X184188205Y-77876216D01*
X183831233Y-77932755D01*
X183483124Y-78029948D01*
X183148494Y-78166508D01*
X182831778Y-78340624D01*
X182537172Y-78549989D01*
X182376068Y-78695049D01*
X184410905Y-80729885D01*
X186804907Y-83123887D01*
X186908368Y-83013705D01*
X187123856Y-82723551D01*
X187304567Y-82410550D01*
X187448104Y-82078853D01*
X187552567Y-81732857D01*
X187616921Y-81375190D01*
X187634329Y-80821263D01*
X187592560Y-80460262D01*
X187510029Y-80108389D01*
X187387601Y-79768333D01*
X187226900Y-79444604D01*
X187049713Y-79171759D01*
X187246234Y-79237323D01*
X187848080Y-79395776D01*
X188458897Y-79515059D01*
X189076138Y-79594677D01*
X189697230Y-79634298D01*
X190319585Y-79633754D01*
X190940607Y-79593050D01*
X191557708Y-79512356D01*
X192168316Y-79392006D01*
X192769883Y-79232503D01*
X192954858Y-79170431D01*
X192823301Y-79359717D01*
X192652511Y-79678239D01*
X192519463Y-80014281D01*
X192425920Y-80363388D01*
X192373122Y-80720934D01*
X192361770Y-81082178D01*
X192392013Y-81442332D01*
X192463450Y-81796624D01*
X192575136Y-82140357D01*
X192725589Y-82468975D01*
X192912816Y-82778123D01*
X193134333Y-83063702D01*
X193387208Y-83321928D01*
X193668086Y-83549378D01*
X193973244Y-83743038D01*
X194298640Y-83900341D01*
X194639958Y-84019201D01*
X194992676Y-84098042D01*
X195352119Y-84135821D01*
X195713521Y-84132037D01*
X196072093Y-84086738D01*
X196423083Y-84000527D01*
X196761837Y-83874545D01*
X197083867Y-83710463D01*
X197107831Y-83694541D01*
X199226000Y-83694541D01*
X199226000Y-83945459D01*
X199269571Y-84192564D01*
X199355391Y-84428349D01*
X199480850Y-84645651D01*
X199642136Y-84837864D01*
X199834349Y-84999150D01*
X200051651Y-85124609D01*
X200287436Y-85210429D01*
X200534541Y-85254000D01*
X200785459Y-85254000D01*
X201032564Y-85210429D01*
X201268349Y-85124609D01*
X201485651Y-84999150D01*
X201677864Y-84837864D01*
X201839150Y-84645651D01*
X201964609Y-84428349D01*
X202050429Y-84192564D01*
X202094000Y-83945459D01*
X202094000Y-83738864D01*
X207290847Y-83738864D01*
X207617497Y-83927455D01*
X207853282Y-84013275D01*
X208100387Y-84056846D01*
X208351305Y-84056846D01*
X208598410Y-84013275D01*
X208650388Y-83994356D01*
X208631469Y-84046334D01*
X208587898Y-84293439D01*
X208587898Y-84544357D01*
X208631469Y-84791462D01*
X208717289Y-85027247D01*
X208842748Y-85244549D01*
X209004034Y-85436762D01*
X209196247Y-85598048D01*
X209413549Y-85723507D01*
X209649334Y-85809327D01*
X209896439Y-85852898D01*
X210147357Y-85852898D01*
X210394462Y-85809327D01*
X210446438Y-85790409D01*
X210427520Y-85842385D01*
X210383949Y-86089490D01*
X210383949Y-86340408D01*
X210427520Y-86587513D01*
X210513340Y-86823298D01*
X210701931Y-87149948D01*
X212752948Y-85098931D01*
X212426298Y-84910340D01*
X212190513Y-84824520D01*
X211943408Y-84780949D01*
X211692490Y-84780949D01*
X211445385Y-84824520D01*
X211393409Y-84843438D01*
X211412327Y-84791462D01*
X211455898Y-84544357D01*
X211455898Y-84293439D01*
X211412327Y-84046334D01*
X211326507Y-83810549D01*
X211201048Y-83593247D01*
X211039762Y-83401034D01*
X210847549Y-83239748D01*
X210630247Y-83114289D01*
X210394462Y-83028469D01*
X210147357Y-82984898D01*
X209896439Y-82984898D01*
X209649334Y-83028469D01*
X209597356Y-83047388D01*
X209616275Y-82995410D01*
X209659846Y-82748305D01*
X209659846Y-82497387D01*
X209616275Y-82250282D01*
X209530455Y-82014497D01*
X209341864Y-81687847D01*
X207290847Y-83738864D01*
X202094000Y-83738864D01*
X202094000Y-83694541D01*
X202050429Y-83447436D01*
X201964609Y-83211651D01*
X201839150Y-82994349D01*
X201677864Y-82802136D01*
X201485651Y-82640850D01*
X201268349Y-82515391D01*
X201218885Y-82497387D01*
X206791846Y-82497387D01*
X206791846Y-82748305D01*
X206835417Y-82995410D01*
X206921237Y-83231195D01*
X207109828Y-83557845D01*
X208044827Y-82622846D01*
X207109828Y-81687847D01*
X206921237Y-82014497D01*
X206835417Y-82250282D01*
X206791846Y-82497387D01*
X201218885Y-82497387D01*
X201032564Y-82429571D01*
X200785459Y-82386000D01*
X200534541Y-82386000D01*
X200287436Y-82429571D01*
X200051651Y-82515391D01*
X199834349Y-82640850D01*
X199642136Y-82802136D01*
X199480850Y-82994349D01*
X199355391Y-83211651D01*
X199269571Y-83447436D01*
X199226000Y-83694541D01*
X197107831Y-83694541D01*
X197384903Y-83510455D01*
X197660956Y-83277172D01*
X197908366Y-83013707D01*
X198123856Y-82723551D01*
X198304567Y-82410550D01*
X198448104Y-82078853D01*
X198552567Y-81732857D01*
X198616921Y-81375190D01*
X198634329Y-80821263D01*
X198592560Y-80460262D01*
X198521902Y-80159007D01*
X202761534Y-80159007D01*
X202761534Y-80409925D01*
X202805105Y-80657030D01*
X202890925Y-80892815D01*
X203016384Y-81110117D01*
X203177670Y-81302330D01*
X203369883Y-81463616D01*
X203587185Y-81589075D01*
X203822970Y-81674895D01*
X204070075Y-81718466D01*
X204320993Y-81718466D01*
X204568098Y-81674895D01*
X204803883Y-81589075D01*
X204946339Y-81506828D01*
X207290847Y-81506828D01*
X208225846Y-82441827D01*
X209160845Y-81506828D01*
X208834195Y-81318237D01*
X208598410Y-81232417D01*
X208351305Y-81188846D01*
X208100387Y-81188846D01*
X207853282Y-81232417D01*
X207617497Y-81318237D01*
X207290847Y-81506828D01*
X204946339Y-81506828D01*
X205021185Y-81463616D01*
X205213398Y-81302330D01*
X205374684Y-81110117D01*
X205500143Y-80892815D01*
X205585963Y-80657030D01*
X205629534Y-80409925D01*
X205629534Y-80159007D01*
X205585963Y-79911902D01*
X205500143Y-79676117D01*
X205374684Y-79458815D01*
X205213398Y-79266602D01*
X205021185Y-79105316D01*
X204803883Y-78979857D01*
X204568098Y-78894037D01*
X204320993Y-78850466D01*
X204070075Y-78850466D01*
X203822970Y-78894037D01*
X203587185Y-78979857D01*
X203369883Y-79105316D01*
X203177670Y-79266602D01*
X203016384Y-79458815D01*
X202890925Y-79676117D01*
X202805105Y-79911902D01*
X202761534Y-80159007D01*
X198521902Y-80159007D01*
X198510029Y-80108389D01*
X198387601Y-79768333D01*
X198226900Y-79444604D01*
X198030056Y-79141489D01*
X197799677Y-78863009D01*
X197593131Y-78664939D01*
X206361077Y-78664939D01*
X206376029Y-78902596D01*
X206432829Y-79133850D01*
X206529684Y-79351389D01*
X206663532Y-79548339D01*
X206830140Y-79718475D01*
X207024245Y-79856417D01*
X207239708Y-79957807D01*
X207469721Y-80019438D01*
X207707013Y-80039364D01*
X207944083Y-80016955D01*
X208173438Y-79952917D01*
X208387828Y-79849277D01*
X208580477Y-79709309D01*
X208745295Y-79537440D01*
X208877072Y-79339098D01*
X208971644Y-79120557D01*
X209026401Y-78887101D01*
X209032218Y-78664939D01*
X213981077Y-78664939D01*
X213996029Y-78902596D01*
X214052829Y-79133850D01*
X214149684Y-79351389D01*
X214283532Y-79548339D01*
X214450140Y-79718475D01*
X214644245Y-79856417D01*
X214859708Y-79957807D01*
X215089721Y-80019438D01*
X215327013Y-80039364D01*
X215564083Y-80016955D01*
X215793438Y-79952917D01*
X216007828Y-79849277D01*
X216200477Y-79709309D01*
X216365295Y-79537440D01*
X216497072Y-79339098D01*
X216591644Y-79120557D01*
X216646401Y-78887101D01*
X216654375Y-78582575D01*
X216611911Y-78346573D01*
X216528907Y-78123381D01*
X216407690Y-77918415D01*
X216252094Y-77738154D01*
X216067034Y-77588296D01*
X215858362Y-77473577D01*
X215632673Y-77397624D01*
X215397100Y-77362838D01*
X215159090Y-77370317D01*
X214926168Y-77419827D01*
X214705693Y-77509801D01*
X214504635Y-77637396D01*
X214329351Y-77798578D01*
X214185379Y-77988254D01*
X214077272Y-78200427D01*
X214008445Y-78428390D01*
X213981077Y-78664939D01*
X209032218Y-78664939D01*
X209034375Y-78582575D01*
X208991911Y-78346573D01*
X208908907Y-78123381D01*
X208787690Y-77918415D01*
X208632094Y-77738154D01*
X208447034Y-77588296D01*
X208238362Y-77473577D01*
X208012673Y-77397624D01*
X207777100Y-77362838D01*
X207539090Y-77370317D01*
X207306168Y-77419827D01*
X207085693Y-77509801D01*
X206884635Y-77637396D01*
X206709351Y-77798578D01*
X206565379Y-77988254D01*
X206457272Y-78200427D01*
X206388445Y-78428390D01*
X206361077Y-78664939D01*
X197593131Y-78664939D01*
X197538816Y-78612853D01*
X197250933Y-78394337D01*
X196939842Y-78210358D01*
X196609666Y-78063354D01*
X196264782Y-77955275D01*
X195909762Y-77887550D01*
X195574265Y-77862913D01*
X196052970Y-77501528D01*
X196524444Y-77095280D01*
X196589016Y-77031935D01*
X206794084Y-77031935D01*
X206969244Y-77156417D01*
X207184708Y-77257807D01*
X207414721Y-77319438D01*
X207652013Y-77339364D01*
X207889083Y-77316955D01*
X208118438Y-77252917D01*
X208332829Y-77149277D01*
X208495250Y-77031270D01*
X207645000Y-76181019D01*
X206794084Y-77031935D01*
X196589016Y-77031935D01*
X196968719Y-76659453D01*
X197383944Y-76195864D01*
X197565337Y-75964939D01*
X206306077Y-75964939D01*
X206321029Y-76202596D01*
X206377829Y-76433850D01*
X206474684Y-76651389D01*
X206611409Y-76852572D01*
X207463981Y-76000000D01*
X207826019Y-76000000D01*
X208679582Y-76853563D01*
X208822072Y-76639098D01*
X208916644Y-76420557D01*
X208971401Y-76187101D01*
X208977218Y-75964939D01*
X213926077Y-75964939D01*
X213941029Y-76202596D01*
X213997829Y-76433850D01*
X214094684Y-76651389D01*
X214228532Y-76848339D01*
X214395140Y-77018475D01*
X214589245Y-77156417D01*
X214804708Y-77257807D01*
X215034721Y-77319438D01*
X215272013Y-77339364D01*
X215509083Y-77316955D01*
X215738438Y-77252917D01*
X215952828Y-77149277D01*
X216145477Y-77009309D01*
X216310295Y-76837440D01*
X216442072Y-76639098D01*
X216536644Y-76420557D01*
X216591401Y-76187101D01*
X216599375Y-75882575D01*
X216556911Y-75646573D01*
X216473907Y-75423381D01*
X216352690Y-75218415D01*
X216197094Y-75038154D01*
X216012034Y-74888296D01*
X215803362Y-74773577D01*
X215577673Y-74697624D01*
X215342100Y-74662838D01*
X215104090Y-74670317D01*
X214871168Y-74719827D01*
X214650693Y-74809801D01*
X214449635Y-74937396D01*
X214274351Y-75098578D01*
X214130379Y-75288254D01*
X214022272Y-75500427D01*
X213953445Y-75728390D01*
X213926077Y-75964939D01*
X208977218Y-75964939D01*
X208979375Y-75882575D01*
X208936911Y-75646573D01*
X208853907Y-75423381D01*
X208686206Y-75139813D01*
X207826019Y-76000000D01*
X207463981Y-76000000D01*
X206614746Y-75150765D01*
X206510380Y-75288252D01*
X206402272Y-75500427D01*
X206333445Y-75728390D01*
X206306077Y-75964939D01*
X197565337Y-75964939D01*
X197768386Y-75706447D01*
X198120444Y-75193241D01*
X198257360Y-74963105D01*
X206789124Y-74963105D01*
X207645000Y-75818981D01*
X208510537Y-74953444D01*
X208183362Y-74773577D01*
X207957673Y-74697624D01*
X207722100Y-74662838D01*
X207484090Y-74670317D01*
X207251168Y-74719827D01*
X207030693Y-74809801D01*
X206789124Y-74963105D01*
X198257360Y-74963105D01*
X198438650Y-74658385D01*
X198721677Y-74104109D01*
X198968345Y-73532725D01*
X199063962Y-73264939D01*
X206306077Y-73264939D01*
X206321029Y-73502596D01*
X206377829Y-73733850D01*
X206474684Y-73951389D01*
X206608532Y-74148339D01*
X206775140Y-74318475D01*
X206969245Y-74456417D01*
X207184708Y-74557807D01*
X207414721Y-74619438D01*
X207652013Y-74639364D01*
X207889083Y-74616955D01*
X208118438Y-74552917D01*
X208332828Y-74449277D01*
X208525477Y-74309309D01*
X208690295Y-74137440D01*
X208822072Y-73939098D01*
X208916644Y-73720557D01*
X208971401Y-73487101D01*
X208972948Y-73428000D01*
X213922707Y-73428000D01*
X213997829Y-73733850D01*
X214094684Y-73951389D01*
X214228532Y-74148339D01*
X214395140Y-74318475D01*
X214589245Y-74456417D01*
X214804708Y-74557807D01*
X215137000Y-74646844D01*
X215137000Y-73428000D01*
X215393000Y-73428000D01*
X215393000Y-74649366D01*
X215738438Y-74552917D01*
X215952828Y-74449277D01*
X216145477Y-74309309D01*
X216310295Y-74137440D01*
X216442072Y-73939098D01*
X216536644Y-73720556D01*
X216605262Y-73428000D01*
X215393000Y-73428000D01*
X215137000Y-73428000D01*
X213922707Y-73428000D01*
X208972948Y-73428000D01*
X208979375Y-73182575D01*
X208977473Y-73172000D01*
X213910086Y-73172000D01*
X215137000Y-73172000D01*
X215393000Y-73172000D01*
X216597473Y-73172000D01*
X216556911Y-72946573D01*
X216473907Y-72723381D01*
X216352690Y-72518415D01*
X216197094Y-72338154D01*
X216012034Y-72188296D01*
X215803362Y-72073577D01*
X215577672Y-71997624D01*
X215393000Y-71970356D01*
X215393000Y-73172000D01*
X215137000Y-73172000D01*
X215137000Y-71963323D01*
X214871168Y-72019827D01*
X214650693Y-72109801D01*
X214449635Y-72237396D01*
X214274351Y-72398578D01*
X214130379Y-72588254D01*
X214022272Y-72800427D01*
X213910086Y-73172000D01*
X208977473Y-73172000D01*
X208936911Y-72946573D01*
X208853907Y-72723381D01*
X208732690Y-72518415D01*
X208577094Y-72338154D01*
X208392034Y-72188296D01*
X208183362Y-72073577D01*
X207957673Y-71997624D01*
X207722100Y-71962838D01*
X207484090Y-71970317D01*
X207251168Y-72019827D01*
X207030693Y-72109801D01*
X206829635Y-72237396D01*
X206654351Y-72398578D01*
X206510379Y-72588254D01*
X206402272Y-72800427D01*
X206333445Y-73028390D01*
X206306077Y-73264939D01*
X199063962Y-73264939D01*
X199177626Y-72946614D01*
X199348649Y-72348219D01*
X199480699Y-71740033D01*
X199573225Y-71124595D01*
X199625895Y-70503866D01*
X199634336Y-69697834D01*
X199594677Y-69076138D01*
X199515059Y-68458897D01*
X199395776Y-67848080D01*
X199237323Y-67246234D01*
X199040362Y-66655868D01*
X198805714Y-66079443D01*
X198534357Y-65519362D01*
X198227421Y-64977961D01*
X197886189Y-64457494D01*
X197512081Y-63960132D01*
X197106655Y-63487949D01*
X196671605Y-63042915D01*
X196208742Y-62626882D01*
X195719997Y-62241586D01*
X195207406Y-61888632D01*
X194673106Y-61569493D01*
X194119325Y-61285500D01*
X193548372Y-61037834D01*
X192962627Y-60827531D01*
X192364531Y-60655464D01*
X191756578Y-60522353D01*
X191141303Y-60428752D01*
X190521268Y-60375052D01*
X189899062Y-60361475D01*
X189277276Y-60388079D01*
X188658503Y-60454753D01*
X188045322Y-60561219D01*
X187440291Y-60707033D01*
X186845929Y-60891586D01*
X186264717Y-61114112D01*
X185699076Y-61373679D01*
X185151363Y-61669209D01*
X184623864Y-61999467D01*
X184118778Y-62363077D01*
X183638208Y-62758524D01*
X183184160Y-63184160D01*
X182758524Y-63638208D01*
X182363077Y-64118778D01*
X181999467Y-64623864D01*
X181669209Y-65151363D01*
X181373679Y-65699076D01*
X181114112Y-66264717D01*
X180891586Y-66845929D01*
X180707033Y-67440291D01*
X180561219Y-68045322D01*
X180454753Y-68658503D01*
X180388079Y-69277276D01*
X180361475Y-69899062D01*
X151284000Y-69899062D01*
X151284000Y-67484404D01*
X153010720Y-67484404D01*
X153029384Y-67735554D01*
X153090097Y-67979970D01*
X153191123Y-68210662D01*
X153329575Y-68421033D01*
X153501493Y-68605071D01*
X153701960Y-68757510D01*
X153925246Y-68873992D01*
X154164966Y-68951190D01*
X154414266Y-68986892D01*
X154666017Y-68980080D01*
X154913022Y-68930948D01*
X155148216Y-68840901D01*
X155364877Y-68712512D01*
X155556807Y-68549455D01*
X155718521Y-68356391D01*
X155845393Y-68138840D01*
X155933796Y-67903022D01*
X155981318Y-67655082D01*
X155983104Y-67484404D01*
X159510720Y-67484404D01*
X159529384Y-67735554D01*
X159590097Y-67979970D01*
X159691123Y-68210662D01*
X159829575Y-68421033D01*
X160001493Y-68605071D01*
X160201960Y-68757510D01*
X160425246Y-68873992D01*
X160664966Y-68951190D01*
X160914266Y-68986892D01*
X161166017Y-68980080D01*
X161413022Y-68930948D01*
X161648216Y-68840901D01*
X161864877Y-68712512D01*
X162056807Y-68549455D01*
X162218521Y-68356391D01*
X162345393Y-68138840D01*
X162433796Y-67903022D01*
X162481318Y-67655082D01*
X162484240Y-67375974D01*
X162441922Y-67127094D01*
X162358477Y-66889476D01*
X162236188Y-66669315D01*
X162078554Y-66472907D01*
X161890080Y-66305866D01*
X161676156Y-66172969D01*
X161442899Y-66078016D01*
X161196977Y-66023721D01*
X160945424Y-66011638D01*
X160695431Y-66042113D01*
X160454147Y-66114272D01*
X160228470Y-66226053D01*
X160024854Y-66374261D01*
X159849120Y-66554656D01*
X159706293Y-66762083D01*
X159600457Y-66990609D01*
X159534639Y-67233699D01*
X159510720Y-67484404D01*
X155983104Y-67484404D01*
X155984240Y-67375974D01*
X155941922Y-67127094D01*
X155858477Y-66889476D01*
X155736188Y-66669315D01*
X155578554Y-66472907D01*
X155390080Y-66305866D01*
X155176156Y-66172969D01*
X154942899Y-66078016D01*
X154696977Y-66023721D01*
X154445424Y-66011638D01*
X154195431Y-66042113D01*
X153954147Y-66114272D01*
X153728470Y-66226053D01*
X153524854Y-66374261D01*
X153349120Y-66554656D01*
X153206293Y-66762083D01*
X153100457Y-66990609D01*
X153034639Y-67233699D01*
X153010720Y-67484404D01*
X151284000Y-67484404D01*
X151284000Y-65427733D01*
X151285139Y-65423147D01*
X151286659Y-65407201D01*
X151301376Y-65242290D01*
X151329911Y-65137987D01*
X151376465Y-65040385D01*
X151439569Y-64952566D01*
X151517225Y-64877314D01*
X151606985Y-64816997D01*
X151713452Y-64770261D01*
X151828641Y-64739505D01*
X151840048Y-64734640D01*
X160808657Y-63058847D01*
X160867458Y-63052318D01*
X160882942Y-63048215D01*
X161066934Y-62998277D01*
X161100754Y-62983687D01*
X161136680Y-62973902D01*
X161151343Y-62967454D01*
X161371976Y-62868832D01*
X161408309Y-62845921D01*
X161447520Y-62827440D01*
X161460840Y-62818544D01*
X161660996Y-62683105D01*
X161692792Y-62654238D01*
X161728203Y-62629226D01*
X161739777Y-62618151D01*
X161913369Y-62450017D01*
X161939676Y-62416060D01*
X161970201Y-62385283D01*
X161979675Y-62372368D01*
X162121435Y-62176641D01*
X162141441Y-62138642D01*
X162166163Y-62103022D01*
X162173250Y-62088658D01*
X162278868Y-61871292D01*
X162295960Y-61817945D01*
X164874489Y-55592828D01*
X164896947Y-55552371D01*
X164902567Y-55537371D01*
X164968354Y-55358420D01*
X164976036Y-55322387D01*
X164988851Y-55287434D01*
X164992080Y-55271745D01*
X165039374Y-55034745D01*
X165041723Y-54991852D01*
X165049348Y-54949194D01*
X165049806Y-54933183D01*
X165055226Y-54691569D01*
X165050092Y-54648924D01*
X165050194Y-54605573D01*
X165047861Y-54589725D01*
X165011244Y-54350850D01*
X164998785Y-54309752D01*
X164991356Y-54267033D01*
X164986308Y-54251832D01*
X164908767Y-54022943D01*
X164889355Y-53984622D01*
X164874626Y-53943857D01*
X164867016Y-53929763D01*
X164750904Y-53717812D01*
X164709383Y-53662442D01*
X163308748Y-51618109D01*
X164978298Y-51618109D01*
X165036166Y-51834073D01*
X165157987Y-52008053D01*
X166308882Y-53158948D01*
X166578683Y-53314717D01*
X166807109Y-53334702D01*
X167023073Y-53276834D01*
X167116825Y-53211189D01*
X167113051Y-53232592D01*
X167113051Y-53483510D01*
X167156622Y-53730615D01*
X167242442Y-53966400D01*
X167367901Y-54183702D01*
X167529187Y-54375915D01*
X167656890Y-54483070D01*
X167659052Y-54517916D01*
X167659052Y-54553107D01*
X167662904Y-54580007D01*
X167668570Y-54671346D01*
X167680860Y-54705387D01*
X167685990Y-54741212D01*
X167723863Y-54824507D01*
X167755074Y-54910962D01*
X167776077Y-54939348D01*
X167791272Y-54972765D01*
X167858776Y-55051107D01*
X167875450Y-55073640D01*
X167895271Y-55093461D01*
X167957308Y-55165458D01*
X167985616Y-55183806D01*
X168010088Y-55208278D01*
X168041000Y-55276264D01*
X168041001Y-62295623D01*
X167987091Y-62297317D01*
X167754168Y-62346827D01*
X167533693Y-62436801D01*
X167332635Y-62564396D01*
X167157351Y-62725578D01*
X167013379Y-62915254D01*
X166905272Y-63127427D01*
X166836445Y-63355390D01*
X166809077Y-63591939D01*
X166824029Y-63829596D01*
X166880829Y-64060850D01*
X166977684Y-64278389D01*
X167111532Y-64475339D01*
X167278140Y-64645475D01*
X167472245Y-64783417D01*
X167687708Y-64884807D01*
X167917721Y-64946438D01*
X168155013Y-64966364D01*
X168392083Y-64943955D01*
X168621438Y-64879917D01*
X168835828Y-64776277D01*
X169028477Y-64636309D01*
X169193295Y-64464440D01*
X169325072Y-64266098D01*
X169419644Y-64047557D01*
X169474401Y-63814101D01*
X169482375Y-63509575D01*
X169476676Y-63477899D01*
X169586905Y-63330819D01*
X169676192Y-63092643D01*
X169695042Y-62838983D01*
X169641941Y-62590227D01*
X169559000Y-62436510D01*
X169559000Y-62159247D01*
X170632452Y-63212206D01*
X170708023Y-63421541D01*
X170757980Y-63489055D01*
X170746077Y-63591939D01*
X170761029Y-63829596D01*
X170817829Y-64060850D01*
X170914684Y-64278389D01*
X171048532Y-64475339D01*
X171215140Y-64645475D01*
X171409245Y-64783417D01*
X171624708Y-64884807D01*
X171854721Y-64946438D01*
X172092013Y-64966364D01*
X172329083Y-64943955D01*
X172558438Y-64879917D01*
X172772828Y-64776277D01*
X172965477Y-64636309D01*
X173130295Y-64464440D01*
X173262072Y-64266098D01*
X173356644Y-64047557D01*
X173411401Y-63814101D01*
X173419375Y-63509575D01*
X173376911Y-63273573D01*
X173293907Y-63050381D01*
X173172690Y-62845415D01*
X173017094Y-62665154D01*
X172832034Y-62515296D01*
X172623362Y-62400577D01*
X172397673Y-62324624D01*
X172162100Y-62289838D01*
X172038403Y-62293725D01*
X171930818Y-62213095D01*
X171692643Y-62123808D01*
X171690476Y-62123647D01*
X170059000Y-60523319D01*
X170059000Y-60404552D01*
X175361467Y-60404552D01*
X175688117Y-60593143D01*
X175923902Y-60678963D01*
X176171007Y-60722534D01*
X176421925Y-60722534D01*
X176669030Y-60678963D01*
X176904815Y-60593143D01*
X177231465Y-60404552D01*
X176296466Y-59469553D01*
X175361467Y-60404552D01*
X170059000Y-60404552D01*
X170059000Y-59163075D01*
X174862466Y-59163075D01*
X174862466Y-59413993D01*
X174906037Y-59661098D01*
X174991857Y-59896883D01*
X175180448Y-60223533D01*
X176115447Y-59288534D01*
X176477485Y-59288534D01*
X177412484Y-60223533D01*
X177601075Y-59896883D01*
X177686895Y-59661098D01*
X177730466Y-59413993D01*
X177730466Y-59163075D01*
X177686895Y-58915970D01*
X177601075Y-58680185D01*
X177412484Y-58353535D01*
X176477485Y-59288534D01*
X176115447Y-59288534D01*
X175180448Y-58353535D01*
X174991857Y-58680185D01*
X174906037Y-58915970D01*
X174862466Y-59163075D01*
X170059000Y-59163075D01*
X170059000Y-58066172D01*
X171204155Y-58066172D01*
X171530805Y-58254763D01*
X171766590Y-58340583D01*
X172013695Y-58384154D01*
X172264613Y-58384154D01*
X172511718Y-58340583D01*
X172747503Y-58254763D01*
X172889959Y-58172516D01*
X175361467Y-58172516D01*
X176296466Y-59107515D01*
X177231465Y-58172516D01*
X176904815Y-57983925D01*
X176669030Y-57898105D01*
X176421925Y-57854534D01*
X176171007Y-57854534D01*
X175923902Y-57898105D01*
X175688117Y-57983925D01*
X175361467Y-58172516D01*
X172889959Y-58172516D01*
X173074153Y-58066172D01*
X172139154Y-57131173D01*
X171204155Y-58066172D01*
X170059000Y-58066172D01*
X170059000Y-56697351D01*
X170081441Y-56683192D01*
X170169198Y-56583826D01*
X170172825Y-56580199D01*
X170217644Y-56588102D01*
X170468561Y-56588102D01*
X170715666Y-56544531D01*
X170767644Y-56525612D01*
X170748725Y-56577590D01*
X170705154Y-56824695D01*
X170705154Y-57075613D01*
X170748725Y-57322718D01*
X170834545Y-57558503D01*
X171023136Y-57885153D01*
X171958135Y-56950154D01*
X172320173Y-56950154D01*
X173255172Y-57885153D01*
X173443763Y-57558503D01*
X173529583Y-57322718D01*
X173573154Y-57075613D01*
X173573154Y-56824695D01*
X173529583Y-56577590D01*
X173443763Y-56341805D01*
X173255172Y-56015155D01*
X172320173Y-56950154D01*
X171958135Y-56950154D01*
X173074153Y-55834136D01*
X172747503Y-55645545D01*
X172511718Y-55559725D01*
X172264613Y-55516154D01*
X172013695Y-55516154D01*
X171766590Y-55559725D01*
X171714612Y-55578644D01*
X171733531Y-55526666D01*
X171777102Y-55279561D01*
X171777102Y-55028643D01*
X171733531Y-54781538D01*
X171647711Y-54545753D01*
X171522252Y-54328451D01*
X171360966Y-54136238D01*
X171168753Y-53974952D01*
X170951451Y-53849493D01*
X170715666Y-53763673D01*
X170468561Y-53720102D01*
X170217643Y-53720102D01*
X169970538Y-53763673D01*
X169918562Y-53782591D01*
X169937480Y-53730615D01*
X169981051Y-53483510D01*
X169981051Y-53232592D01*
X169937480Y-52985487D01*
X169851660Y-52749702D01*
X169726201Y-52532400D01*
X169564915Y-52340187D01*
X169372702Y-52178901D01*
X169155400Y-52053442D01*
X168919615Y-51967622D01*
X168672510Y-51924051D01*
X168421592Y-51924051D01*
X168391067Y-51929433D01*
X168503717Y-51734317D01*
X168523702Y-51505891D01*
X168465834Y-51289927D01*
X168344013Y-51115947D01*
X167193118Y-49965052D01*
X166923317Y-49809283D01*
X166694891Y-49789298D01*
X166478927Y-49847166D01*
X166304947Y-49968987D01*
X165154052Y-51119882D01*
X164998283Y-51389683D01*
X164978298Y-51618109D01*
X163308748Y-51618109D01*
X161832357Y-49463205D01*
X170047196Y-49463205D01*
X170065818Y-49569913D01*
X170078827Y-49677406D01*
X170089517Y-49705694D01*
X170094717Y-49735496D01*
X170138251Y-49834666D01*
X170176528Y-49935967D01*
X170193663Y-49960898D01*
X170205954Y-49988898D01*
X170266966Y-50067555D01*
X170333088Y-50163761D01*
X170412360Y-50234390D01*
X176710465Y-56532496D01*
X176776244Y-56607899D01*
X176864861Y-56670181D01*
X176950072Y-56736994D01*
X176977634Y-56749439D01*
X177002386Y-56766835D01*
X177103289Y-56806175D01*
X177201987Y-56850739D01*
X177231726Y-56856251D01*
X177260224Y-56867362D01*
X177358992Y-56879838D01*
X177473767Y-56901111D01*
X177579744Y-56895000D01*
X178962076Y-56895000D01*
X179006349Y-56932150D01*
X179223651Y-57057609D01*
X179459436Y-57143429D01*
X179706541Y-57187000D01*
X179957459Y-57187000D01*
X180204564Y-57143429D01*
X180440349Y-57057609D01*
X180657651Y-56932150D01*
X180849864Y-56770864D01*
X181011150Y-56578651D01*
X181136609Y-56361349D01*
X181222429Y-56125564D01*
X181266000Y-55878459D01*
X181266000Y-55728000D01*
X203626163Y-55728000D01*
X203626163Y-56378588D01*
X203706795Y-56679512D01*
X203854185Y-56855165D01*
X204047814Y-56966956D01*
X204256976Y-57003837D01*
X204902000Y-57003837D01*
X204902000Y-55728000D01*
X203626163Y-55728000D01*
X181266000Y-55728000D01*
X181266000Y-55627541D01*
X181222429Y-55380436D01*
X181136609Y-55144651D01*
X181011150Y-54927349D01*
X180926927Y-54826976D01*
X203626163Y-54826976D01*
X203626163Y-55472000D01*
X204902000Y-55472000D01*
X204902000Y-54196163D01*
X205158000Y-54196163D01*
X205158000Y-57003837D01*
X205808588Y-57003837D01*
X206109512Y-56923205D01*
X206285165Y-56775815D01*
X206396956Y-56582186D01*
X206428387Y-56403935D01*
X206485360Y-56487768D01*
X206659711Y-56665811D01*
X206862837Y-56810164D01*
X207088315Y-56916266D01*
X207329019Y-56980762D01*
X207577339Y-57001615D01*
X207825428Y-56978164D01*
X208065442Y-56911150D01*
X208289796Y-56802693D01*
X208491399Y-56656221D01*
X208663878Y-56476362D01*
X208801780Y-56268802D01*
X208900747Y-56040102D01*
X208958031Y-55795872D01*
X208966380Y-55477041D01*
X208921956Y-55230147D01*
X208835094Y-54996581D01*
X208708244Y-54782089D01*
X208545414Y-54593449D01*
X208351754Y-54436627D01*
X208133384Y-54316576D01*
X207897205Y-54237093D01*
X207650684Y-54200690D01*
X207401612Y-54208517D01*
X207157863Y-54260328D01*
X206927141Y-54354484D01*
X206716739Y-54488009D01*
X206533308Y-54656683D01*
X206427167Y-54796518D01*
X206353205Y-54520489D01*
X206205815Y-54344835D01*
X206012186Y-54233044D01*
X205803024Y-54196163D01*
X205158000Y-54196163D01*
X204902000Y-54196163D01*
X204251412Y-54196163D01*
X203950489Y-54276795D01*
X203774835Y-54424185D01*
X203663044Y-54617814D01*
X203626163Y-54826976D01*
X180926927Y-54826976D01*
X180849864Y-54735136D01*
X180657651Y-54573850D01*
X180440349Y-54448391D01*
X180204564Y-54362571D01*
X179957459Y-54319000D01*
X179706541Y-54319000D01*
X179459436Y-54362571D01*
X179223651Y-54448391D01*
X179006349Y-54573850D01*
X178962076Y-54611000D01*
X178019031Y-54611000D01*
X172338000Y-48929970D01*
X172338000Y-47594906D01*
X172511718Y-47564275D01*
X172563694Y-47545357D01*
X172544776Y-47597334D01*
X172501205Y-47844439D01*
X172501205Y-48095357D01*
X172544776Y-48342462D01*
X172630596Y-48578247D01*
X172756055Y-48795549D01*
X172917341Y-48987762D01*
X173109554Y-49149048D01*
X173326856Y-49274507D01*
X173562641Y-49360327D01*
X173809746Y-49403898D01*
X174060664Y-49403898D01*
X174307769Y-49360327D01*
X174359745Y-49341409D01*
X174340827Y-49393385D01*
X174297256Y-49640490D01*
X174297256Y-49891408D01*
X174340827Y-50138513D01*
X174426647Y-50374298D01*
X174552106Y-50591600D01*
X174713392Y-50783813D01*
X174905605Y-50945099D01*
X175122907Y-51070558D01*
X175358692Y-51156378D01*
X175605797Y-51199949D01*
X175856715Y-51199949D01*
X176103820Y-51156378D01*
X176155796Y-51137460D01*
X176136878Y-51189436D01*
X176093307Y-51436541D01*
X176093307Y-51687459D01*
X176136878Y-51934564D01*
X176222698Y-52170349D01*
X176348157Y-52387651D01*
X176509443Y-52579864D01*
X176701656Y-52741150D01*
X176918958Y-52866609D01*
X177154743Y-52952429D01*
X177401848Y-52996000D01*
X177652766Y-52996000D01*
X177899871Y-52952429D01*
X178135656Y-52866609D01*
X178352958Y-52741150D01*
X178437823Y-52669939D01*
X184716077Y-52669939D01*
X184731029Y-52907596D01*
X184787829Y-53138850D01*
X184884684Y-53356389D01*
X185018532Y-53553339D01*
X185185140Y-53723475D01*
X185379245Y-53861417D01*
X185594708Y-53962807D01*
X185824721Y-54024438D01*
X186062013Y-54044364D01*
X186299083Y-54021955D01*
X186528438Y-53957917D01*
X186742828Y-53854277D01*
X186935477Y-53714309D01*
X187100295Y-53542440D01*
X187232072Y-53344098D01*
X187326644Y-53125557D01*
X187381401Y-52892101D01*
X187387218Y-52669939D01*
X192336077Y-52669939D01*
X192351029Y-52907596D01*
X192407829Y-53138850D01*
X192504684Y-53356389D01*
X192638532Y-53553339D01*
X192805140Y-53723475D01*
X192999245Y-53861417D01*
X193214708Y-53962807D01*
X193444721Y-54024438D01*
X193682013Y-54044364D01*
X193919083Y-54021955D01*
X194148438Y-53957917D01*
X194362828Y-53854277D01*
X194555477Y-53714309D01*
X194720295Y-53542440D01*
X194852072Y-53344098D01*
X194946644Y-53125557D01*
X195001401Y-52892101D01*
X195009375Y-52587575D01*
X194966911Y-52351573D01*
X194883907Y-52128381D01*
X194762690Y-51923415D01*
X194607094Y-51743154D01*
X194422034Y-51593296D01*
X194213362Y-51478577D01*
X193987673Y-51402624D01*
X193752100Y-51367838D01*
X193514090Y-51375317D01*
X193281168Y-51424827D01*
X193060693Y-51514801D01*
X192859635Y-51642396D01*
X192684351Y-51803578D01*
X192540379Y-51993254D01*
X192432272Y-52205427D01*
X192363445Y-52433390D01*
X192336077Y-52669939D01*
X187387218Y-52669939D01*
X187389375Y-52587575D01*
X187346911Y-52351573D01*
X187263907Y-52128381D01*
X187142690Y-51923415D01*
X186987094Y-51743154D01*
X186802034Y-51593296D01*
X186593362Y-51478577D01*
X186367673Y-51402624D01*
X186132100Y-51367838D01*
X185894090Y-51375317D01*
X185661168Y-51424827D01*
X185440693Y-51514801D01*
X185239635Y-51642396D01*
X185064351Y-51803578D01*
X184920379Y-51993254D01*
X184812272Y-52205427D01*
X184743445Y-52433390D01*
X184716077Y-52669939D01*
X178437823Y-52669939D01*
X178545171Y-52579864D01*
X178706457Y-52387651D01*
X178831916Y-52170349D01*
X178917736Y-51934564D01*
X178961307Y-51687459D01*
X178961307Y-51436541D01*
X178917736Y-51189436D01*
X178831916Y-50953651D01*
X178706457Y-50736349D01*
X178545171Y-50544136D01*
X178352958Y-50382850D01*
X178135656Y-50257391D01*
X177899871Y-50171571D01*
X177652766Y-50128000D01*
X177401848Y-50128000D01*
X177154743Y-50171571D01*
X177102767Y-50190489D01*
X177121685Y-50138513D01*
X177165256Y-49891408D01*
X177165256Y-49640490D01*
X177139592Y-49494939D01*
X184716077Y-49494939D01*
X184731029Y-49732596D01*
X184787829Y-49963850D01*
X184884684Y-50181389D01*
X185018532Y-50378339D01*
X185185140Y-50548475D01*
X185379245Y-50686417D01*
X185594708Y-50787807D01*
X185824721Y-50849438D01*
X186062013Y-50869364D01*
X186299083Y-50846955D01*
X186528438Y-50782917D01*
X186742828Y-50679277D01*
X186935477Y-50539309D01*
X187100295Y-50367440D01*
X187232072Y-50169098D01*
X187326644Y-49950557D01*
X187381401Y-49717101D01*
X187387218Y-49494939D01*
X192336077Y-49494939D01*
X192351029Y-49732596D01*
X192407829Y-49963850D01*
X192504684Y-50181389D01*
X192638532Y-50378339D01*
X192805140Y-50548475D01*
X192999245Y-50686417D01*
X193214708Y-50787807D01*
X193444721Y-50849438D01*
X193682013Y-50869364D01*
X193919083Y-50846955D01*
X194148438Y-50782917D01*
X194362828Y-50679277D01*
X194555477Y-50539309D01*
X194720295Y-50367440D01*
X194852072Y-50169098D01*
X194946644Y-49950557D01*
X195001401Y-49717101D01*
X195009375Y-49412575D01*
X194966911Y-49176573D01*
X194883907Y-48953381D01*
X194762690Y-48748415D01*
X194607094Y-48568154D01*
X194422034Y-48418296D01*
X194213362Y-48303577D01*
X193987673Y-48227624D01*
X193752100Y-48192838D01*
X193514090Y-48200317D01*
X193281168Y-48249827D01*
X193060693Y-48339801D01*
X192859635Y-48467396D01*
X192684351Y-48628578D01*
X192540379Y-48818254D01*
X192432272Y-49030427D01*
X192363445Y-49258390D01*
X192336077Y-49494939D01*
X187387218Y-49494939D01*
X187389375Y-49412575D01*
X187346911Y-49176573D01*
X187263907Y-48953381D01*
X187142690Y-48748415D01*
X186987094Y-48568154D01*
X186802034Y-48418296D01*
X186593362Y-48303577D01*
X186367673Y-48227624D01*
X186132100Y-48192838D01*
X185894090Y-48200317D01*
X185661168Y-48249827D01*
X185440693Y-48339801D01*
X185239635Y-48467396D01*
X185064351Y-48628578D01*
X184920379Y-48818254D01*
X184812272Y-49030427D01*
X184743445Y-49258390D01*
X184716077Y-49494939D01*
X177139592Y-49494939D01*
X177121685Y-49393385D01*
X177035865Y-49157600D01*
X176910406Y-48940298D01*
X176749120Y-48748085D01*
X176556907Y-48586799D01*
X176339605Y-48461340D01*
X176103820Y-48375520D01*
X175856715Y-48331949D01*
X175605797Y-48331949D01*
X175358692Y-48375520D01*
X175306716Y-48394438D01*
X175325634Y-48342462D01*
X175363449Y-48128000D01*
X209026163Y-48128000D01*
X209026163Y-48778588D01*
X209106795Y-49079512D01*
X209254185Y-49255165D01*
X209447814Y-49366956D01*
X209656976Y-49403837D01*
X210302000Y-49403837D01*
X210302000Y-48128000D01*
X209026163Y-48128000D01*
X175363449Y-48128000D01*
X175369205Y-48095357D01*
X175369205Y-47844439D01*
X175325634Y-47597334D01*
X175239814Y-47361549D01*
X175114355Y-47144247D01*
X174953069Y-46952034D01*
X174760856Y-46790748D01*
X174543554Y-46665289D01*
X174307769Y-46579469D01*
X174060664Y-46535898D01*
X173809746Y-46535898D01*
X173562641Y-46579469D01*
X173510665Y-46598387D01*
X173529583Y-46546410D01*
X173569515Y-46319939D01*
X184716077Y-46319939D01*
X184731029Y-46557596D01*
X184787829Y-46788850D01*
X184884684Y-47006389D01*
X185018532Y-47203339D01*
X185185140Y-47373475D01*
X185379245Y-47511417D01*
X185594708Y-47612807D01*
X185824721Y-47674438D01*
X186062013Y-47694364D01*
X186299083Y-47671955D01*
X186528438Y-47607917D01*
X186742828Y-47504277D01*
X186935477Y-47364309D01*
X187100295Y-47192440D01*
X187232072Y-46994098D01*
X187326644Y-46775557D01*
X187381401Y-46542101D01*
X187382948Y-46483000D01*
X192332707Y-46483000D01*
X192407829Y-46788850D01*
X192504684Y-47006389D01*
X192638532Y-47203339D01*
X192805140Y-47373475D01*
X192999245Y-47511417D01*
X193214708Y-47612807D01*
X193547000Y-47701844D01*
X193547000Y-46483000D01*
X193803000Y-46483000D01*
X193803000Y-47704366D01*
X194148438Y-47607917D01*
X194362828Y-47504277D01*
X194555477Y-47364309D01*
X194687175Y-47226976D01*
X209026163Y-47226976D01*
X209026163Y-47872000D01*
X210302000Y-47872000D01*
X210302000Y-46596163D01*
X210558000Y-46596163D01*
X210558000Y-49403837D01*
X211208588Y-49403837D01*
X211509512Y-49323205D01*
X211685165Y-49175815D01*
X211796956Y-48982186D01*
X211828387Y-48803935D01*
X211885360Y-48887768D01*
X212059711Y-49065811D01*
X212262837Y-49210164D01*
X212488315Y-49316266D01*
X212729019Y-49380762D01*
X212977339Y-49401615D01*
X213225428Y-49378164D01*
X213465442Y-49311150D01*
X213689796Y-49202693D01*
X213891399Y-49056221D01*
X214063878Y-48876362D01*
X214201780Y-48668802D01*
X214300747Y-48440102D01*
X214358031Y-48195872D01*
X214366380Y-47877041D01*
X214321956Y-47630147D01*
X214235094Y-47396581D01*
X214108244Y-47182089D01*
X213945414Y-46993449D01*
X213751754Y-46836627D01*
X213533384Y-46716576D01*
X213297205Y-46637093D01*
X213050684Y-46600690D01*
X212801612Y-46608517D01*
X212557863Y-46660328D01*
X212327141Y-46754484D01*
X212116739Y-46888009D01*
X211933308Y-47056683D01*
X211827167Y-47196518D01*
X211753205Y-46920489D01*
X211605815Y-46744835D01*
X211412186Y-46633044D01*
X211203024Y-46596163D01*
X210558000Y-46596163D01*
X210302000Y-46596163D01*
X209651412Y-46596163D01*
X209350489Y-46676795D01*
X209174835Y-46824185D01*
X209063044Y-47017814D01*
X209026163Y-47226976D01*
X194687175Y-47226976D01*
X194720295Y-47192440D01*
X194852072Y-46994098D01*
X194946644Y-46775556D01*
X195015262Y-46483000D01*
X193803000Y-46483000D01*
X193547000Y-46483000D01*
X192332707Y-46483000D01*
X187382948Y-46483000D01*
X187389375Y-46237575D01*
X187387473Y-46227000D01*
X192320086Y-46227000D01*
X193547000Y-46227000D01*
X193803000Y-46227000D01*
X195007473Y-46227000D01*
X194966911Y-46001573D01*
X194883907Y-45778381D01*
X194762690Y-45573415D01*
X194607094Y-45393154D01*
X194422034Y-45243296D01*
X194213362Y-45128577D01*
X193987672Y-45052624D01*
X193803000Y-45025356D01*
X193803000Y-46227000D01*
X193547000Y-46227000D01*
X193547000Y-45018323D01*
X193281168Y-45074827D01*
X193060693Y-45164801D01*
X192859635Y-45292396D01*
X192684351Y-45453578D01*
X192540379Y-45643254D01*
X192432272Y-45855427D01*
X192320086Y-46227000D01*
X187387473Y-46227000D01*
X187346911Y-46001573D01*
X187263907Y-45778381D01*
X187142690Y-45573415D01*
X186987094Y-45393154D01*
X186802034Y-45243296D01*
X186593362Y-45128577D01*
X186367673Y-45052624D01*
X186132100Y-45017838D01*
X185894090Y-45025317D01*
X185661168Y-45074827D01*
X185440693Y-45164801D01*
X185239635Y-45292396D01*
X185064351Y-45453578D01*
X184920379Y-45643254D01*
X184812272Y-45855427D01*
X184743445Y-46083390D01*
X184716077Y-46319939D01*
X173569515Y-46319939D01*
X173573154Y-46299305D01*
X173573154Y-46048387D01*
X173529583Y-45801282D01*
X173443763Y-45565497D01*
X173318304Y-45348195D01*
X173157018Y-45155982D01*
X172964805Y-44994696D01*
X172747503Y-44869237D01*
X172511718Y-44783417D01*
X172264613Y-44739846D01*
X172013695Y-44739846D01*
X171766590Y-44783417D01*
X171530805Y-44869237D01*
X171313503Y-44994696D01*
X171121290Y-45155982D01*
X170960004Y-45348195D01*
X170834545Y-45565497D01*
X170748725Y-45801282D01*
X170717050Y-45980920D01*
X170416504Y-46281466D01*
X170341101Y-46347244D01*
X170278815Y-46435867D01*
X170212006Y-46521073D01*
X170199561Y-46548635D01*
X170182165Y-46573387D01*
X170142825Y-46674289D01*
X170098259Y-46772989D01*
X170092748Y-46802731D01*
X170081639Y-46831224D01*
X170069162Y-46929988D01*
X170047889Y-47044768D01*
X170054000Y-47150751D01*
X170054001Y-49363382D01*
X170047196Y-49463205D01*
X161832357Y-49463205D01*
X159554023Y-46137807D01*
X159553789Y-46137155D01*
X159546206Y-46123045D01*
X159466951Y-45977680D01*
X159432817Y-45875070D01*
X159417393Y-45768034D01*
X159421167Y-45659968D01*
X159444019Y-45554275D01*
X159485226Y-45454296D01*
X159547876Y-45356335D01*
X159626643Y-45266832D01*
X159635633Y-45253094D01*
X165544598Y-39344130D01*
X165548649Y-39341691D01*
X165561000Y-39331490D01*
X165688018Y-39225287D01*
X165781949Y-39171710D01*
X165883885Y-39135613D01*
X165990602Y-39118137D01*
X166098719Y-39119835D01*
X166204839Y-39140656D01*
X166313178Y-39182894D01*
X166416375Y-39242595D01*
X166427878Y-39247219D01*
X173954602Y-44404014D01*
X174000801Y-44440981D01*
X174014651Y-44449029D01*
X174180066Y-44543820D01*
X174214298Y-44557419D01*
X174246620Y-44575903D01*
X174261547Y-44581713D01*
X174487299Y-44667987D01*
X174529187Y-44677476D01*
X174569976Y-44692133D01*
X174585687Y-44695263D01*
X174822989Y-44741025D01*
X174865889Y-44743097D01*
X174908603Y-44750448D01*
X174924617Y-44750803D01*
X175166267Y-44754662D01*
X175208882Y-44749252D01*
X175252219Y-44749075D01*
X175268051Y-44746642D01*
X175506695Y-44708482D01*
X175547718Y-44695756D01*
X175590372Y-44688054D01*
X175605542Y-44682909D01*
X175833932Y-44603890D01*
X175883745Y-44578252D01*
X182108848Y-41999730D01*
X182153351Y-41986997D01*
X182167930Y-41980363D01*
X182340979Y-41900348D01*
X182371888Y-41880302D01*
X182405669Y-41864646D01*
X182419048Y-41855835D01*
X182620071Y-41721693D01*
X182652057Y-41693029D01*
X182687620Y-41668252D01*
X182699265Y-41657253D01*
X182873944Y-41490239D01*
X182900467Y-41456455D01*
X182931194Y-41425873D01*
X182940751Y-41413018D01*
X183083770Y-41218214D01*
X183104023Y-41180339D01*
X183116006Y-41163310D01*
X187128847Y-41163310D01*
X187144494Y-41412013D01*
X187203934Y-41654014D01*
X187305291Y-41881664D01*
X187445360Y-42087768D01*
X187619711Y-42265811D01*
X187822837Y-42410164D01*
X188048315Y-42516266D01*
X188289019Y-42580762D01*
X188537339Y-42601615D01*
X188785428Y-42578164D01*
X189025442Y-42511150D01*
X189249796Y-42402693D01*
X189451399Y-42256221D01*
X189623878Y-42076362D01*
X189761780Y-41868802D01*
X189800119Y-41780206D01*
X189845291Y-41881664D01*
X189985360Y-42087768D01*
X190159711Y-42265811D01*
X190362837Y-42410164D01*
X190588315Y-42516266D01*
X190829019Y-42580762D01*
X191077339Y-42601615D01*
X191325428Y-42578164D01*
X191565442Y-42511150D01*
X191789796Y-42402693D01*
X191991399Y-42256221D01*
X192163878Y-42076362D01*
X192301780Y-41868802D01*
X192400747Y-41640102D01*
X192458031Y-41395872D01*
X192466380Y-41077041D01*
X192421956Y-40830147D01*
X192335094Y-40596581D01*
X192208244Y-40382089D01*
X192045414Y-40193449D01*
X191851754Y-40036627D01*
X191633384Y-39916576D01*
X191397205Y-39837093D01*
X191150684Y-39800690D01*
X190901612Y-39808517D01*
X190657863Y-39860328D01*
X190427141Y-39954484D01*
X190216739Y-40088009D01*
X190033308Y-40256683D01*
X189882645Y-40455173D01*
X189801634Y-40614167D01*
X189795094Y-40596581D01*
X189668244Y-40382089D01*
X189505414Y-40193449D01*
X189311754Y-40036627D01*
X189093384Y-39916576D01*
X188857205Y-39837093D01*
X188610684Y-39800690D01*
X188361612Y-39808517D01*
X188117863Y-39860328D01*
X187887141Y-39954484D01*
X187676739Y-40088009D01*
X187493308Y-40256683D01*
X187342645Y-40455173D01*
X187229513Y-40677208D01*
X187157489Y-40915766D01*
X187128847Y-41163310D01*
X183116006Y-41163310D01*
X183128969Y-41144891D01*
X183136150Y-41130572D01*
X183243172Y-40913886D01*
X183256539Y-40873072D01*
X183274951Y-40833829D01*
X183279537Y-40818480D01*
X183347306Y-40586502D01*
X183357104Y-40517959D01*
X185032431Y-31551873D01*
X185032725Y-31551250D01*
X185037340Y-31535915D01*
X185084088Y-31377080D01*
X185132506Y-31280392D01*
X185197283Y-31193802D01*
X185276373Y-31120050D01*
X185367265Y-31061473D01*
X185467098Y-31019916D01*
X185580675Y-30994945D01*
X185699653Y-30987356D01*
X185715716Y-30984000D01*
X194072267Y-30984000D01*
X194076853Y-30985139D01*
M02*
